<?xml version="1.0" encoding="UTF-8"?>
<svg id="Layer_1" data-name="Layer 1" xmlns="http://www.w3.org/2000/svg" xmlns:xlink="http://www.w3.org/1999/xlink" viewBox="0 0 432 518.4">
  <defs>
    <style>
      .cls-1 {
        fill: #3b77a3;
      }

      .cls-1, .cls-2, .cls-3, .cls-4, .cls-5, .cls-6 {
        stroke-width: 0px;
      }

      .cls-2 {
        fill: #60c5f0;
      }

      .cls-3 {
        fill: none;
      }

      .cls-4 {
        fill: #e73c64;
      }

      .cls-5 {
        fill: #ff5a85;
      }

      .cls-7 {
        clip-path: url(#clippath);
      }

      .cls-6 {
        fill: #ffe600;
      }
    </style>
    <clipPath id="clippath">
      <rect class="cls-3" y="-.11" width="432" height="518.51"/>
    </clipPath>
  </defs>
  <g class="cls-7">
    <g>
      <path class="cls-6" d="M18.38,239.72l-.26-.07c.1.03.18.06.26.07Z"/>
      <path class="cls-6" d="M225.46,39.29c.05-.02.13-.01.19-.03-.05.02-.13.01-.19.03Z"/>
      <path class="cls-6" d="M569.81,148.03c-.36-.08-.8-.14-1.37-.04-.56.07-1.27.36-2.1.58-.84.25-1.77.36-2.69.38-.92-.05-1.8-.18-2.62-.42-1.64-.48-3.01-1.16-3.85-1.72,4.08.57.99-.18.1-.87l-.17.47c-2.47-.63-2.66-1.86-3.88-2.29.02.1.06.22.13.35l.12-.16c.14.23.1.37-.01.46.08.25-.01.46-.66.33l.09-.11c-.96.09-2.64-.18-3.38-.22l-.2-1.02c-.33.51-1.24.6-2.4.7-1.19.04-2.67.09-4.15.16-1.5.04-3.01.06-4.29.02s-2.31-.1-2.84-.02c-.61-.2-1.21-.27-1.82-.25s-1.27.09-1.94.2c-1.34.23-2.73.55-4.22.37-.9.02-1.55-.01-2.02-.05,0-.07.04-.17.02-.27-.13-.04-.29-.02-.44-.04l.73-.52c.2.07.41.16.65.13-.04.17-.43.72-.21.57,1.4-.42,4.06-.41,5.31-2.11-.51.15-.51.79-1.22.46-.01-.44.35-.39.5-.62-.14-.82-.68.58-1.42-.02l1.14-1-.7-.77,2.59-2.22c-2.27-.56-3.11,2.54-4.99,1.45.14-.13.13-.26.09-.38.05,0,.11-.02.16-.01-.05,0-.11.02-.16.01-.04-.1-.14-.21-.18-.31-.25.17-.53.3-.8.4-.5.05-1.06.13-1.68.22.1-.5.45-1.21,1.18-1.19-3.29-.06-5.69,2.2-9.05,1.42-.14-.21.42-.26.17-.4-.36.24-.96.48-1.09.71.04-.17.14-.4.35-.43-.32.09-.61.09-.9.07.01-.12,0-.24,0-.34.01-.78.03-1.56.04-2.29,0-.1.02-.19,0-.27.56-.05,1.05,0,1.59-.38.27.49-.83,1.03-.08,1.24.59-.17,1.1-.22,1.55-.31.54-.1,1.12-.22,1.67-.47-1.21.02.23-.57-1.72-.56.11-.09.28-.15.47-.23l1.89.97,1.01-.11s.31-.85.72-2.31c.75-.13,1.49-.21,2.26-.25-.04.14-.21.32-.41.5,1.68-1.15,4.11-1.92,5.88-2.82.98-.01,2.05.03,3.23.08l.08.03.03-.02c1.41.1,2.95.25,4.67.52l.04.2c.46-.11.46-.42,1.21-.29l-2.53-.63c1.49-.8,2.68-2.04,4.77-2.47.51.17.74.55.85.88,1.71-.34,3.39-.54,5.25-.77l1.95,1.19c1.54-.82.22-3.52,5.04-2.25-2.08-1.81,2.01-1.29,1.24-2.21.27.22.88.54,1.35.85,2.64-.38,7.58-1.23,8.62-2.29,0,0-.59-.17-1.54-.47l.19-.37c-.43.06-.52.18-.42.31-3.28-1.01-10.2-3.27-12.68-4.68v-.05c2.83.22,1.88-.08.86-.49,1.01-.16,1.78.37.61.88l3.91-1.13-2.48.03c.46-1.08,3.96-.08,4.48-1.32l-4.39.53.16-.35c-.71.35-2.09.46-2.99.45l.03-.09c-.08.02-.16.06-.22.08-.18-.02-.34,0-.45-.01.07-.19-.04-.44.73-.55-1.64.13-2.37.36-2.74.64-.52-.39-.86-.76-1.48-.88.02.1.09.2.13.33l.12-.16c.14.21.13.35.01.49.08.25.01.46-.62.44l.09-.14c-.35.09-.83.12-1.3.16.09-.09.23-.18.65-.24-.72.06-1.25.14-1.65.22-.1,0-.21,0-.32,0l1.81-1.11c-1.03-.87-3.01-.55-4.65-.45v-.12c.03-.22.05-.44.07-.65,1.41-.2,1.5.03,1.72-.66,1.46-.44,3.05.09,1.38.46l4.21-.59-2.55-.07c.67-.7,4.07.13,4.82-.68l-4.6.17.23-.22c-1.02.25-3.07.2-3.77.12.11-.11.02-.29.85-.34-1.03,0-1.72.07-2.2.13.01-.46.03-.95.04-1.44,2.54-.17,5.18-.53,7.15-.8-.88-1.15-4.09-.77-7.12-.17,0-.61.03-1.22.03-1.85h-.03c0-.93.03-1.88.03-2.86.03,0,.08-.02.11-.02-.03,0-.08.02-.11.02.02-1.46.07-2.95.25-4.45.92-.26,1.8-.7,2.52-1.17l.78.73c2.15.09-.66-1.23,1.46-1.66.7.79,2.73.14,2.96.79.38-.11.59-.1.53-.61-.37-.03-1.15.22-.81-.44.68-.31,1.13.07,1.69-.03-.01.15-.34.63-.12.5,1.36-.49,4.01-.73,5.09-2.27-.49.18-.43.7-1.18.51-.07-.37.32-.34.42-.55-.23-.68-.6.53-1.43.12l1.03-.96-.32-.22c0-.1.02-.19,0-.39-.13-.01-.29,0-.45.01l.66-.58c.23.07.44.11.68.08-.01.17-.3.76-.1.6,1.34-.54,3.96-.76,4.96-2.55-.47.2-.41.82-1.15.56-.07-.45.3-.39.4-.65-.25-.8-.58.63-1.4.1l.96-1.09-.81-.7,2.23-2.42c-2.34-.35-2.71,2.79-4.74,1.89.12-.16.1-.26,0-.39.05-.02.11-.02.16-.04-.05.02-.11.02-.16.04-.07-.1-.17-.19-.21-.29-.23.2-.48.33-.72.45-.51.1-1.04.2-1.64.37.02-.51.26-1.25,1-1.28-3.28.23-5.34,2.69-8.8,2.2-.19-.19.39-.31.12-.43-.34.26-.86.56-.97.82.01-.17.06-.41.3-.46-.3.12-.59.14-.88.14-.02-.12-.03-.22-.05-.35-.12-.77-.21-1.53-.31-2.27-.05-.37-.09-.74-.14-1.11l-.21-1.58,5.68,2.22.99-.21s1.33-6.94,1.02-15c.52-.22.58-.66,1.39-.81-.19.03-.37.07-.59.1l-.35-1.18c-.17.08-.35.14-.54.2,0-.22-.02-.42-.05-.64l1.84-.94c-.47-.33-1.2-.44-1.99-.44-.18-1.63-.41-3.23-.77-4.83,1.82-.06,3.19,0,4.17.21.65-.21.62-.8,1.48-1-.19.03-.37.07-.59.1l-.38-1.42c-.66.36-1.39.3-2.19.4l3.39-2.03c-1.47-1.22-4.99-.09-6.57-.49,2.07,1.03-1.33.74,2.41,1.38l-1.62,1.45h-.45c-1.04-3.89-2.76-7.47-5.48-10.1,0-.02.03-.05.03-.07.49.16,1.05.36,1.64.48,1.16.25,2.29-.05,2.79-.91-.49.2-.46.74-1.22.43-.02-.37.34-.29.49-.47-.18-.7-.67.48-1.48-.25.41-.16.77-.35,1.11-.64-.24-.22-.49-.46-.7-.69.78-.47,1.36-1.18,1.81-2.04-.85.07-1.29.62-1.9.98-.53.35-1.2.43-1.98-.27.1,0,.21.02.32,0-.13-.06-.25-.12-.4-.21.09-.11-.08-.35-.12-.5-.48.03-1.07-.16-1.44-.07-.39-.11-.77-.19-1.19-.27-.02-.37.36-1.16,1.38-.71-.71-.33-1.41-.49-2.11-.52-1.08-.02-1.9.37-2.7.77l-.26-.02.48-1.96c.2-.18.4-.36.55-.59l.44.97c1.07.46-.42-1.53.57-1.68.41,1.01,1.35.55,1.54,1.38.19-.08.27-.05.19-.67-.18-.09-.54.1-.45-.6.31-.27.56.24.83.19.01.17-.09.7-.02.56.61-.36,1.9-.37,2.21-2.08-.2.18-.12.77-.49.47-.07-.45.11-.38.13-.62-.19-.82-.21.59-.68,0l.38-1.02-.46-.75.69-1.89c.15.11.24.24.28.44.31.03.46.14.49-.45-.32-.22-.95-.23-.64-.81.61-.07.95.59,1.48.81-.04.14-.41.45-.2.45.62.1,1.62.7,2.78,1,1.18.32,2.26,0,2.74-.99-.47.23-.42.87-1.2.48-.04-.44.34-.34.44-.55-.22-.82-.63.56-1.47-.32.38-.19.77-.4,1.09-.71-.24-.26-.51-.56-.74-.84.76-.52,1.3-1.35,1.73-2.37-.85.05-1.27.7-1.86,1.11-.56.42-1.26.53-2.14-.5.27-.07.01-.44-.07-.69-.56.05-1.31-.38-1.66-.02-.05-.03-.1-.03-.15-.06-.04-.17-.07-.37-.11-.55l-.4.33c-.1-.03-.2-.09-.33-.15-.04-.42.3-1.37,1.33-.81-.73-.4-1.42-.63-2.13-.69-.92-.05-1.66.27-2.32.66.09-.38.17-.74.23-1.13.22-1.01.46-2.01.71-3.01l1.74-1.51c-.12-.74-.22-1.46-.31-2.2.61-1.24,1.2-2.34,1.7-3.3,1.26-2.38,1.74-4.29,1.68-4.88.85.54,1.28.74,1.51.86.25.12.33.15.42.28-.13-.3-.25-.46-.78-.77-.48-.26-1.85-1.16-3.19-1.79-.11.33-.24.64-.37.97-.78-.38-1.47-.69-2.03-.91-.05-.64-.1-1.28-.15-1.89.28.1.59.22.87.34,1.39.63,2.62,1.4,3.45,1.86-1-.65-2.61-1.79-4.33-2.59-.26-4.03-.34-7.99-.28-11.84l-22.88,4.65c-.35.07-.67.14-1.02.21-.57-.05-1.1-.09-1.75-.13l-.27-.88-.03.02.27.85h-.13s-.25-.79-.25-.79c.03-.02.06-.04.11-.09l-.13-.38s-.06.07-.11.09l-.52-1.66h0l.52,1.66c-.06.04-.11.09-.17.13l-.52-1.66c.06-.04.11-.09.17-.16v-.02c-.05.04-.11.11-.17.16l-.74-2.38c1.17-.19,2.33-.41,3.4-.64l24.45-5.08.02-.27-24.61,4.82c-.05.02-.16.04-.27.05-1.09.17-2.18.3-3.28.45l-.25-.8s-.05.02-.06.04l-.31-1s-.03,0-.03.02l.31,1c-.28.17-.72.4-1.97.59-1.36.22-3.63.3-6.42.91-.59.14-1.13.29-1.65.47-1.41.15-2.81.27-4.25.42.55-.29,1.27-.67,2.12-1.06.71-.35,1.59-.69,2.45-.96-.65.16-1.32.37-2,.63-1.01.38-2.05.87-2.84,1.25-.17.08-.3.14-.47.2-2.65.24-5.33.45-8.01.68.11-.11.18-.25.24-.37-.14.09-.23.2-.27.37-.77.06-1.51.14-2.28.2l-.18-.92c-.51.1-.29.61-.37.97-.77.06-1.54.14-2.31.19-.48.03-.98.09-1.46.12-.07-.1-.17-.21-.21-.36,1.03-.08,2.13-.26,3.24-.63l-.08.07.1.11.31-.27c.38-.14.76-.28,1.15-.46-.45.06-.94-.13-1.46-.17.06-.07.12-.16.18-.2-.05.02-.11.04-.16.06.23-.79-.4-.28-.75-.45-.04-.17-.05-.37-.06-.54.12-.14.28-.22.44-.25-.04.12-.08.26-.06.43.33-.12.47-.23.53-.39h.03s0-.02,0-.02c.07-.17.06-.39.14-.7.31.05.61-.05.89-.19.3.2.12.45-.09.77-.24,0-.44.25-.53.35.19-.06.27-.05.32-.07-.18.3-.29.66,0,1.02.23-.25.44-.5.64-.75l.05.37c.3-.17.56-.37.84-.54-.35-.47-.49-.43-.65-1.06,1.16-.36.56.51,1.59.82l1.04-.77-.02.22c.08-.07.09-.16.1-.28.28-.2.53-.39.76-.57.07.06.23.12.51.14.26.63-.18,1.52-.87,1.27-.08-.62.51-.44,0-1.02-.25.74-.52.27-.18,1.18-.55.64-.51,1.3-.85,1.93.73-.47,2.66.3,3.45-.97.3-1-.15-2.23-.48-3.58.14-.09.3-.17.44-.25.25-.47-.17-.8-.36-1.35.6-.22,1.79.28,2.17-.72.13-.94-.37-2.08-.66-3.33-.11-.28-.95-.3-.84.54.54.49-.44.79.42.94.19.5-.05,1.22-.51.98-.06-.49.32-.34,0-.81-.15.57-.33.22-.11.92-.33.44-.34.9-.51,1.32-.04-.15-.05-.32-.03-.54-.51.13-1.55.01-1.41,1.05-.04-.17-.1-.37-.23-.41l-.04.8c-.06.04-.11.09-.17.16l-.23-1.26c-.16.04-.22.1-.25.2-.37.36-.79.62-1.21.87-.26-.07-.51-.17-.7-.4.07.08.11.21.11.3l-.75-.19c.35.18.41.45.33.74-.19.03-.4.04-.56.1,0-.39-.6-.37-.65-.98-.27.12-.52.27-.75.45-.2.18-.32.41-.35.75-.08-.03-.16-.01-.24.03.01-.17.1-.28.11-.41-.16.33-.34.53-.56.71-.14.09-.27.12-.43.09.02.05.04.1.07.15-.28.17-.56.34-.89.61l.1-.53c.2-.45.39-.92.59-1.39,0,.07.02.12.12.11l.07-.51c.03-.07.06-.14.1-.21.34.08.48.24.58.64.9-.02,1.64-.76,2.02-1.8.27-.03.5-.05.71-.01-.11.72-.59,1-1.11,1.22.34-.02.93-.09,1.38-.13l-.1-1.25s.03-.09.04-.14c1.76-.29-.28,1.15.62,1.32.49-.18.59-.71.87-.88-.93.36-.67-.5-.83-1.02.16-.04.32-.05.48-.06-.06.12-.1.26-.12.45.38-.14.44-.23.49-.45.37-.02.64-.07.59-.46.7-.21,1.24-.92,1.81.06.52-.25.4-.67.6-1.17-.11-.86-.74-.53-1.15-1,.02.05.07.13.06.2l-.54-.17c.55.32.13.96-.14,1.06-.11.02-.29.05-.42.01.19-.72.46-1.4.68-2.09.69.57,1.27-.04,1.97.1l-.04.41c.43.16.92-.31,1.54-.16l.28.76c.34-.24,1.06-.35,1.66-.3-.07-.45-.62-.4-.45-.92-.31-.03-.56.07-.36.55-.31-.03-.44-.72-.75-1.07.36-.16.74-.33,1.09-.47.1.06.15.11.17.19l-.04-.81c.31.03.45.23.45.58.63-.24.72-1.28,1.5-.95-.21.64-.36,1.09-.85,1.03l.83.1c-.27.71-1.72.37-1.27,1.62.78-.45,2.01-.98,2.71-1.77.54,1.02,1.05.04,1.84.65.11.23.37.54.26.9l-.21-.02c.74.33,1.51.25,2.21.02.3-.07.57-.17.79-.3l.68.99c.88.2.73-.21.58-.63-.17-.45-.31-.95.44-1.16.6.95,1.9.26,2.09,1.08.25-.1.35-.07.27-.68-.23-.07-.73.18-.58-.56.42-.33.75.19,1.09.14.01.17-.14.7-.05.56.41-.21.97-.23,1.5-.26.56-.03,1.18.08,1.67-.1-.35-.23-.39.26-.81-.39,0-.41.25-.13.36-.26-.04-.78-.48.08-.94-.72.25-.15.55-.29.85-.34-.15-.35-.3-.76-.49-1.09.7-.21,1.48-.09,2.32.32-.87-1.51-1.68-1.58-2.29-1.51-.64.09-1.17.39-1.95-.31.2-.2-.07-.47-.15-.67-.4.33-.92.31-1.07.86l-.66.02c-.07-.42-.08-1.57.66-1.53-2.1-.06-3.07,2.06-4.77,1.64-.36-.1-.77-.26-1.19-.52-.11-.23.3-.17.11-.36-.25.15-.65.26-.75.47.01-.17.06-.36.24-.35-1.19.07-2.01-1.39-2.74-.94-.11-.55.57-.22.46-.45-1.31-.72-1.73.83-2.93.68.3-.71-.38-.81-.78-1.29-.89.58-2.99.74-4.29,1.56-.06-2.01-1.6.25-2.15-1.28-.32.09-.76.57-.6,1.19.09-.38.66-.04.68.3-.42.26-1.08.64-.91,1.41l-.77-.51c.16.6.22,1.41-.08,1.56-1.11-1.12.41,1.01-.75.72.01-.73.03-1.29-.05-1.84-.48.11-.3.44-.57.78-.26-.39-.11-1.45.12-1.97l-.7-.11c-.24,1.25-.72,3.14-1.68,3.27-.02-.64.25-.76-.22-1.41-.3.41-.49,1.69-1.14,1.37.06-.09-.01-.17.02-.27-.65,1.14-.71.01-1.56.09-.02-.1-.04-.2-.03-.3l-.37.68c-.79,1.57-1.41-.78-2.18-1.31l.12-.14c-.58-.9-1.79.04-2.26-.34.61.59.27.58.81,1.56.39-.24.04-1.41.8-1.05.1.96-.75,1.33-.78,2.06-.4.06-.96-1.42-1.09-1.97-.99.18-1.68-.32-2.89.22-.3.76-.14,2.82-1.42,1.86v-.2c-.01.34-.53-.09-.6.39.58.88-.23.79.42,1.57-.55.27-.99-1.04-1.27-1.82-.02,1.49-1.31-.33-1.93.76,0-.63.88-1.1.32-1.61l-.67,1.97.49-.2c-.54,1.35-1.1.22-1.71,0-.21-.36.05-.63.3-.71-.27.05-.64.38-.86.81-.12.53-.83,1.39-.98,2.26h-.16c-.02-.09-.01-.19.02-.21-.06.04-.11.11-.15.18l-.5-.04.04-.22c-.03.07-.09.14-.12.21l-.5-.02-.14.43h.13c.25,1.03-.04,2.03-.71,2.17.05.03.42.01.95-.02l-.06.41c-.77.08-1.49.17-2.18.25.18-.3.36-.55.66-.58-.98-.82-1.53,1.28-2.26,0,.67-1.65,1.36-1.18,2.31-2.07.85.83-.5.93-.37,1.53l.68.03c-.26-.61,1.08-.88.37-2.16-1.48.07-2.88.44-4,.95l-.98-7.65c-.02-.1-.06-.25-.06-.52l.06.52c.08.3.24-.05.45-.38.05.35.09.76.4.6.79.29.72-1.31,1.22-1.36l-.1.19c.51.14,1.04-.18,1.21-.9.69,1.11-1.17.8-.19,1.62-.59-.22-1,.96-1.36,1.18.71.04,1.57,1.04,1.61,1.82,1.09-1.35-.77-2.7.24-3.67l.87-.07-.11-1.5c.49-.2.02,1.25.74.84.01-.73.66-.33.7-.82.08.32.15.67.56.56-.01-.17-.2-.7.09-.8.6,1.3-.71.57.01,1.69.87-.29.23-1.4.19-1.96-.03.05-.08,0-.19,0-.12-.45.36-.21.17-.72-.16.01-.28.2-.38.38.15-.52-.7-.74-.95-.64-.39.92-1.73,1.1-2.48,1.62.06-.09.16-.28.01-.44-1.13.54-1.74.31-2.92,1.21l.15,1.06c-1.13.54.27,3,.05,3.37-.23.2-.26.91-.62.48v-.44c-.6.66.1,1.15-.57,1.29-.33.83.5-.03.34.69-.74.06.13,2.11-1.17,1.68-.05-.35-.46-1.11.13-1.5l-.8-.48c.61-.66.22-.37.91-.78.05-1.14-.22-1.75-.16-2.75-.19.37.09,1.15-.35,1.26-.57-.05-.06-.54-.11-.89-.31,1.44-1.02-.72-1.29.62.46,1.14.32,1.13.96,1.72-.31.56-1.05-.02-1.3-1.06l.18.97c-.17-.19-.49-.07-.58-.29l-.02.51c.5.58.85.83,1.27.28-.03.7.74,1.46.12,1.94-.3.12-.19-.5-.28-.78-.66.65-1.17.41-1.62.15-.22-.14-.45-.28-.68-.33-.26-.05-.34-.05-.57.17.07-.24.21-.25.5-.32.3-.1.63-.24.8-.69-.57-.68-.68.58-1.02.57.15-.52.1-.87-.32-1.15l.05.59c-.13.04-.38.19-.49-.09.03.22.15.35.33.49-.18.91-.96,1.38-2.03,1-.13-1.21,1.17-.75.35-1.65-.31.24-.4,1.55-1.26.89.19-.69-.49-.73-.56-1.15l-.84,1.51c-.59-.12-1.31-.11-1.75.44.15-.18.36-.26.7-.23-.48,1.59-1.65-.14-2.44.84l.29-.66c-.81-.02-1.22.7-1.62,1.4l-.24-.87c.29,1.22-.7,2.06-.82,2.54.6-.83,1.04-.77,1.43-.71.42.06.78.09,1.48-.7-.04.22-.09.38-.13.57-.52.18-.97.31-1.31.28,1.4.54-.13.87.95.94-.14.43-.28.85-.39,1.5-.24.05-.41-.11-.5-.36-.02.27,0,.59.03.88l-1,.26v-.02c-.75-.75.78-1.03-.21-2.14l-.04.83c-.25.15-.42-.33-.32-.52-.27.34-.25.13-.19.72-.17.11-.28.17-.38.19.04-.12.05-.24-.05-.32-.08.07-.17.13-.28.22-.07-.1-.11-.23-.15-.38.08-.02.19-.06.27-.07-.16-.01-.26-.05-.31-.1-.02-.05-.02-.12-.04-.17.03-.09.1-.19.16-.3h0c.18-.23.38-.48.23-.57.4-.65,1.05-1.23.73-2.01-.47,0-.81.54-.86,1.1l.21.04-.18.84c-.1,0-.24-.02-.45.01-.22.1-.41.21-.61.31-.05,0-.08,0-.13.01.06-.36.44-.52.17-1.11l.83-.15-.27-.85c-.74.38-1,1.26-1.07,2.37-.19.11-.36.19-.53.3-.38-.2-.72-.84-.75-1.09-.09.48.22.85.47,1.26-.36.21-.72.4-1.05.59-.23-.34-.41-.74-.46-1.41-.07-.06-.15-.09-.26-.1s-.24.03-.37.07c-.27.1-.58.27-.91.46-.64.41-1.34.93-1.97,1.17l.19-.69c-1.8-1.45-.81,1.81-1.43,2.56.48-.94-.83-.71-1.26-1.26-.42.87-.61,2.17-1.49,2.31-.38-.79-.79-2.19-1.35-2.12l-.15.87c-.56.07-1.1.91-1.57.45l.06-.09c-.71-.31-.4,1.01.09,1.06l-.43.67-.08-.28c-.24.3-.46.72-.68,1.14-.1,0-.24,0-.34,0-.06-.18-.11-.21-.14-.16.05.08.09.15.14.16-.08,0-.16-.01-.24,0,.03-.07.06-.14.09-.16-.25-.46-.41-1.65-.38-2.38-.36,1.48-2.45.91-2.54,2.57-1.66,0-3.02-.11-3.08-.65-.98.11-1,.33-1.73.56l-.22-.14c-.15-.35.04-.78.32-.92.15-.16.36.13.24.29.63-.85-.74-.26-.4-1.16.23.12.43-.11.59-.1-1.06-.48-1.12,1.08-1.96-.12-.23.86-.85,1.88-1.78,1.46.16-.62-.8.37-.7-.77-.16.62-1.01.13-.94.85.05-.26.38-.38.65-.21-.24.37-.11.99-.51,1.01-.07-.08-.08-.25-.08-.25-.07.17-.08.36-.08.58-.35.09-.73.18-1.14.34.1-.53.19-.98.04-1.09.06.52-.77,1.35-1.33,1.08l.02-.29c-.16.3-.34.87-.73.47.1.67.12,1.35.13,1.91-.32.05-.72.13-1.1.2v-.02c-.28-.39-.44-.36-.51.1-.19.03-.35.04-.53.05-2.01,1.68-4.79.88-6.22,2.52-2.4.94-.41-.74-.56-.78-2.27.37-.74,1.01-1.39,1.44-3.1,1.74-3.89.25-6.24.93-1.65,1.76-6.44,2.67-9.94,3.59.31-.51-.23-.7-.52-1.02-1.63,2.15-1.08,1.27-3.34,3.03.77-.03,1.51-.07,2.27-.07-1.01.4-1.81,1.14-2.69,1.55-1.01.11-2.05.22-3.16.31.55-.32,1.16-.61,1.87-.89-1.5.04-2.52.49-3.38,1.03-1.25.11-2.57.24-3.96.42.82-.61.24-.93,1.69-1.34l-1.15-.76c.62.71-1.16,1.61-1.35,2.23-.29.05-.59.1-.91.14-.21.03-.4.09-.62.12-.08-.54-.38-1.08.69-1.65-1.24.33-2.36-.06-3.57.79-.6.24-2.91,1.68-4.01,2.61,1.33-1.06,2.27-1,3.45-.95-.35.09-.68.21-1.03.3-.55.22-1.12.42-1.69.64-.63.26-1.33.42-2.1.53.04-.12.16-.3.44-.57-.55.27-.75.45-.87.63-.8.08-1.64.1-2.56.07-2.02-.08-4.31-.42-6.84-.68l-1.65-.14c2.08-.6,6.48-.35,8.87-1.78,1.24-1.26.04-2.66-.29-4.25-.31-.37-4.21-.07-4.11,1.01,1.94.46-2.27,1.25,1.11,1.12.42.6-.93,1.63-2.55,1.51-.02-.64,1.42-.59.33-1.09-.89.83-1.38.42-.82,1.27-1.57.79-1.65,1.44-2.61,2.17l-.18-.02c-.55-.02-1.1-.02-1.63-.02-.17-.45-.34-.91-.43-1.38-.31-.34-4.14-.21-4.07.85,1.64.48-1.13.93.06,1.1-.03,0-.05,0-.05.02-.13.04-.24.05-.38.09l-.05-.3c-.75.11-.92.34-1,.57-1.97.51-3.78,1.12-5.48,1.53-1.05.28-2.04.48-3.03.59-.08.02-.16.01-.24.03-.1-.4-1.46-.49-1.35-1.19-.88.12-1.75.14-2.45.28.49-.18.48-.42.94-.87,1.76.08,3.41-.46,4.93-.68-.69.65-1.82.99-2.97,1.19.92.03,2.54-.12,3.79-.26l.06-.97c.45-.01.87.03,1.25.16-.37.31-.5.57.4.57.16-.04.32-.09.48-.13,1.71-.32,1.83-.72,2.45-1.25.03,0,.03-.02.05-.02h-.03c.11-.09.25-.2.45-.31,0-.34-.27-.54-.68-.64.73-.25.62-.48,1.11-1.03,2.9-.07,5.58-2.13,7.62-.79,2.02-.53,1.78-1.07,2.84-1.81-.04-1.13-2.63-.4-3.85-.87.1.08.15.13.14.23h-1.84c1.77.19.02,1.24-.86,1.45-.64.12-1.95.32-1.84-.04l.93-.38c-1.35-.21-2.63,1.24-4.12.72-.14-.26.36-.46.4-.63-.68.5-1.3.77-2.19,1.03-.87.27-1.81.55-2.88,1l1.07-1.4c-.78.79-2.22,1.27-3.68,1.42-1.49.14-3.05-.09-4.24-.58.3.22.78.41.53.63-.67.09-1.28-.16-1.64-.48-.37-.32-.52-.73-.23-.95-.61.36-2-.32-4.06-1.11-1.02-.38-2.2-.73-3.33-.8-1.13-.07-2.2.13-2.95.63-1.97,1.44-3.39,3.35-4.62,5.12-1.75.09-4.02-.1-5.59.42-.31-.03-.63-.03-.84,0-1.97.88-6.37.92-9.23,1.36.24-.08.71-.26.35-.43-4.12.43-5.94.17-10.59.97l-.35,1.07c-4.15.45-1.42,3-2.37,3.38-.91.17-1.55.89-2.46.45l.35-.43c-2.53.61-.6,1.14-2.92,1.24-.44.21-.55.29-.48.35-1.37.27-2.66.6-3.81.89.23-.18.63-.31,1.33-.42l-2.35-.52c2.53-.61.95-.36,3.59-.72,1.02-1.16.6-1.78,1.53-2.75-.95.36-.57,1.15-2.08,1.24-1.86-.09.18-.55.29-.88-2.15,1.43-2.88-.78-4.79.54.66,1.16.24,1.14,1.93,1.78-1.44.54-3.55-.08-3.61-1.14l-.11.97c-.4-.21-1.62-.09-1.73-.34l-.41.53c1.26.62,2.24.88,4.08.35-.64.7,1.4,1.51-1.06,1.96-1.09.1-.24-.53-.38-.79-5.45,1.24-5.97-1.05-10.26-.07,1.02-.52,3.83-.18,5.8-1.06-1.44-.71-2.7.52-3.94.54,1.02-.55,1.13-.88-.24-1.14l-.42.62c-.77.06-2.16.28-2.32,0,0,.22.39.33,1.12.44-.88.49-2.24.91-3.82,1.21-1.58.3-3.3.4-5.25.48-.02-.64,1.32-.99,2.21-1.2.86-.22,1.37-.37.04-.73-.65.16-1.34.62-2.11,1.01s-1.7.73-3.01.72c.9-.97-1.33-.43-1.4-.85-1.04.79-2.01,1.66-2.98,2.5-1.45.34-3.04.81-4.29,1.49.38-.16.84-.32,1.41-.44-1.79,2.14-4.04.78-6.57,1.73.39-.21.75-.45,1.11-.69-2.03.05-3.71.54-5.38,1.08l-.11-.89c.03,1.22-3.82,1.6-4.62,2.02,2.7-.52,3.92-.3,5.12-.12.6.1,1.2.18,1.93.17.76,0,1.67-.13,2.81-.54-.23.2-.43.4-.65.55-1.47.22-2.91.46-4.38.67-1.2.17-2.4.33-3.62.45.01-.17-.13-.38-.55-.63l-.93.75c-.98.04-1.09-.44-.61-.59-1.21.24-.95.04-1.34.62-.35.04-.66.07-.93.07-.36-.1.27-.66-1.07-.41.1.11-.15.21-.55.27-.15-.11-.11-.28-.09-.45.06-.43.14-1.04-2.69-.87.56-.42,2.13-.57,1.68-1.17,1.03-.03,2.03-.05,3.05,0l-.11-.89c-3.67.17-5.67,1.66-7.01,3.48-.55,0-1.11,0-1.66.03.17-.11.44-.23.82-.37-1.99.51-2.95.28-2.91-.13-.24.3-.3.49-.27.64-.19,0-.4.01-.58.02-.98.09-1.99.22-2.96.43h-.05s-.05.02-.08.04c-1.31.25-2.58.58-3.83,1.04-3.1,1.1-6.8.76-10.54.41-3.73-.39-7.49-.72-10.7-.18-1.6.2-3.09.69-4.37,1.19l-.22.08-.11.04-.22.05c-.14.06-.3.07-.43.09-.27.07-.58.05-.85.07-1.12.49-2.7.5-4.74.33-1.99-.15-4.49-.41-7.05.27-2.48.71-4.27,1.9-5.6,2.42-.3.12-.57.22-.82.3h0c-.27.05-.4.09-.49.15-.13.04-.27.05-.4.09l-.07-.13c-.24.05-.43.13-.6.24-.83.12-1.61.3-2.31.51l.7-.48c-1.02.21-2.58.61-4.39,1.14-1.81.5-3.89,1.18-5.99,1.41-.53.05-1.06.08-1.61.11-.66,0-1.34-.02-2.03,0-.5,0-1.03-.01-1.55-.01l-.56-.24-.21.25c-.5,0-1.03.03-1.56.06.01-.17.11-.31.65-.48l-.95.29c-.02-.1-.04-.17-.17-.19l-.3.39c-.24,0-.5.05-.74.08-.22-.14-.53-.22-1.08-.02l-.17.16c-.05,0-.11.02-.13.01-1.15-.05-2.34-.03-3.83.45l.59-1.02c1.88.16,4.45-.98,7.5-1.21-1.15-.15-.96-.77-1.62-1.04l-2.62.46,2.36.47c-1,.3-1.07-.43-2.23.52,1.19-.95-2.01-.54-2.11-.86-4.34.24-6.38.75-10.45,1.15l-1.19-.27c1.36-.25,3.23-.77,3.92-.3l-.27-.22c1.57-.23,3.25-.72,4.25-.44l.92-.56c.69.5,3.13-.59,2.86.37,2.44-.5-.35-1.1,2.66-1.53,1.52-.48,3.44-.24,5.76-.53l-.18-.02c-.45-.28,2.69-.36,2.65-.46-3.38.44-4.27-1.17-6.11-.01l-1.11-.56c-.41.48-1.33.5-2.42.6l.45.26c-.63-.3-2.99-.09-4.36.24l-1.13.54-.72-.48-4.94,1.16c1.61-.11-2,.63,1.43-.12-.89.58-2.34,1.24-3.83,1.7l-2.01-.54c.22-.42.53-.61,1.16-.9l1.57-.23-.51-.46,2.33-.73-1.73-.73-4.32,1.26c-2.41-.11-5.23,1.16-7.89,1.79l-1.63-.07c-2.15.55-5.21.92-7.37,2.4v-.54c-.51.62-1.68.2-2.51.37-.87.58.85.49-.48,1.25l3.06-.32-3.84,1.14.33.44c.83-.15,2.81-1.1,2.69-.36l-2.12.5-.08.31-1.44-.12c.89.08-.43.4-.34.53-.41-.16-.52-.43-1.18-.35-.79.27-2.25,1.05-3.46,1.07l.16.55c-.46.4-1.73.56-2.33.82-.4.01-.79.05-1.24.09,0,0,0,.02.02.03-.05.02-.11.02-.16.04-.11.02-.19.06-.27.07-.19.06-.38.14-.57.2-.17.08-.36.16-.55.25-.72.11-1.47.22-2.19.4.14-.09.28-.17.47-.25.64-.36,1.69-.68,2.05-.87-1.41.2-2.31.58-3.08.91-.74.35-1.35.67-1.99.83.01-.17.08-.33.28-.51.2-.18.5-.35,1.1-.56l-.13-.89c-1.39.56-2.4,1.01-3.11,1.22.31-.51-.2-.38-.5-.34-.13.01-.21.03-.29.02,0,.02-.03.05-.03.07q-.08.04-.22.05c-.32.02-.84-.02-1.32.03-.16-.23-.35-.49-.54-.73l-1.23.58c-.86-.07-1.83-.13-2.94-.06.53.27-.65.51-1.95.98-.33.12-.68.23-.93.36.86-.17,1.57-.23.38.52.22-.13.45-.28.69-.4,1.92-.89,3.97-1.12,5.23-1.09,1.31.04,1.98.29,2.21.58-.4.33-1.26.55-2.65.77-1.33.2-3.16.58-4.45.98-.27.07-.51.1-.69.11h-1.47c-.34.58-1.49,1.43-.06,1.31l-2.17,1.03-2.15.16c.53-.37-.38-.13-.33-.39-.43.13-.92.29-1.14.39-.03,0-.05,0-.08-.03v-.41c-.15.06-.31.09-.48.15-.11-.23.08-.58.61-1.02.96-.41,1.2-.19,1,.26l.52-.59,2-.59-.09-.23,2.95-.99-1.9.35c.43-.35,1.05-.62,1.58-.67l-.66-.28,1.87-.91c1.15-.51,2.28-.85,3.31-1.11-1.01.16-2.17.42-3.37.88-1.91.74-3.8,1.6-5.65,2.37-.93.38-1.83.75-2.72,1.04-.43.16-.89.29-1.32.4s-.86.22-1.24.28c.1.08.33.15.58.25.28.07.57.15.8.24.18.06.31.12.35.2l.39-.28c.91-.17.59.17.24.58-.87.27-1.54.48-2.05.58.38-.48-.15-.4-.44-.38-.13.01-.21,0-.29,0,0,.02-.03.05-.06.07q-.08.04-.24.03c-.32,0-.83-.1-1.31-.06-.14-.26-.27-.51-.43-.77l-1.3.45c-.83-.17-1.82-.3-2.9-.3.47.31-.72.45-2.07.8-.35.09-.7.18-.97.28.88-.1,1.59-.08.29.56.22-.13.47-.23.74-.33,2.04-.73,4.09-.77,5.34-.62,1.28.16,1.91.46,2.12.77-.03.02-.05.02-.08.04-.05.02-.11.02-.13.04.06-.12-.28-.17-.32-.27-.1.19-.05.29-.01.44-.51.15-1.23.24-2.18.3-1.38.1-3.21.31-4.58.58-.29.05-.5.05-.69.06l-1.46-.13c-.42.55-1.69,1.3-.27,1.32l-1.36.49-1.45-.03-.74.35h-.95c.58-.32-.38-.19-.28-.42-.46.11-.96.19-1.18.29-.77-.24-.68-.67.27-1.32,1-.3,1.22-.09.97.35l.6-.53,2.06-.41-.03-.22,3.06-.74-1.94.2c.48-.33,1.15-.54,1.68-.52l-.6-.34,1.98-.73c1.22-.41,2.4-.65,3.44-.8-1.03.06-2.23.22-3.47.58-2,.56-4.03,1.27-5.98,1.86-.97.31-1.94.57-2.86.8-.46.11-.91.21-1.37.3-.45.08-.91.14-1.28.16.1.08.3.2.55.29s.54.19.76.31c.15.09.28.17.32.25l.41-.23c1.06-.1.42.33-.01.76-1.36.25-2.51.42-3.76.6.06-.12-.25-.19-.26-.32-.27.42.25.51-.45,1.28.27-.03.61-.05,1.06-.06l-.68-.06,1.78-.21-1.47.87c-.89.19-1.87.33-2.94.48h-.03s1.28-.45,1.28-.45c-.81.27-1.6-.33-.81-.7l-2.17.4.09-.43c-1.41-.19-1.95.3-2.04.41h0c-.36-.13-1.52-.11-.91-.44l-.65-.08.09.45-2.98.72-1.54-.16-2.01.73c-.52-.02-1.05-.02-1.63,0-.69.01-1.38.13-2.13.23h-.03s.09-.09.15-.16c.93-.36,1.97-.56,1.38-.71-1.31.6-1.08.37-.99.23.03-.07.06-.14-.15-.06-.22.08-.63.29-1.41.73l-.37.29c-.19.03-.35.07-.54.12-.72.16-1.52.24-2.37.29l-.53.03c-3.41-.78-6.2-.12-8.35-.23l-.76.55s0,.27-.01.76c-1.06.06-2.21,0-3.46-.17-1.3-.18-2.67-.45-4.1-.69-.73-.11-1.48-.22-2.21-.36-.37-.03-.76-.09-1.12-.12l-.65-.06-.71-.04c-3.28-1.06-6.13-.65-8.24-.95l-.83.49s-.39,2.09-.84,5.2c-.45,3.13-1.06,7.16-1.53,11.39-.23,2.1-.34,4.29-.29,6.47.1,2.16.26,4.32.93,6.35.64,2.06,1.67,3.9,3.13,5.25,1.44,1.34,3.27,2.06,5.07,2.31l-.14.96c.92-.34,1.74-.63,2.44-.82.58,0,1.08,0,1.5-.02.19,0,.34,0,.5,0,.16-.01.42.04.6.03.76.04,1.07.09.98.52-.72-.18-1.6-.36-1.94-.41-.47-.04-1-.04-1.58.06,1.24-.06,1.35.24,1.15.42-.2.2-.78.52-1.26.89.53-.05,1.01-.08,1.42.02.44.06.64.2,1.28.48.3-.12.2-.23-.08-.35-.13-.06-.31-.12-.46-.19-.13-.06-.2-.09-.28-.15.17-.08.74-.08,1.24-.09s1.05,0,1.63.02c1.15.05,2.45.26,3.71.68,1.97.39,2.07.71,2.25,1.12.11.21.22.48.84.68-.73-.11-1.57-.11-2.58.02-1.25.16-2.81.52-4.85.66,1.18.35,2.71.31,4.13.09,1.41-.22,2.71-.55,3.74-.66.39.08.94.13,1.64.17.82,0,1.63-.03,2.49-.18-.33,1.36-.7,2.97-1.04,4.72-.45.01-.92-.03-1.44-.1-1.3-.21-2.6-.42-3.84-.62-.6-.37-1.25-.72-1.94-1.04-.76-.31-1.55-.6-2.33-.76-1.55-.38-3.05-.36-4.31-.35l-1,.65s-.45,2.21-.84,5.47c-.38,3.26-.81,7.57-.95,12-.14,4.41.07,8.99,1.39,12.66.66,1.84,1.66,3.39,2.91,4.47.34.32.74.58,1.11.83-.1.24-.2.47-.48.69.11-.09.22-.15.36-.26l.38,1.11c.33-.44.68-.6,1.07-.81.03,0,.05.03.08.03l-1.74,2.51c.1.06.23.09.36.1-.43.16-.9.34-1.42.54.98.21,2.19-.03,3.2-.21,1.02-.18,1.81-.28,2.57-.17-.78-.68-1.58-.87-2.95-.57.08-.04.14-.06.22-.1.38-.19.77-.4,1.13-.54v.07c.62-.19,1.15-.29,1.7-.27.13.04.26.07.36.1.15.04.28.07.44.11.31.08.59.12.85.2.57.1,1.04.16,1.4.22.78.12,1.12.17,1,.57l-2.24-.63-.98-.25-.44-.09-.34-.05c.13.04.23.07.33.1.13.04.26.1.33.13.2.07.36.15.46.21.2.14.19.24.05.3-.14.09-.38.14-.65.21-.27.07-.44.18-.63.29.21.04.36.08.62.15.28.1.54.17.82.27.56.19,1.12.44,1.7.73.65-.16-.48-.51-.96-.81,1.21.03,3.04.14,5.13.29.03.93-5.62,1.94-1.27,3.19l-2.06.02c.26.07.35.25.2.38l-2.71.26c1.71.34,5.71.34,3.95,1.8l-3.91.52c1.13,1-.31,1.49-.01,2.32l3.77.49c-.07.21-.14.4-.21.62-.35,1.02-.71,2.09-1.04,3.18-.33,1.09-.66,2.21-.87,3.34-.46,2.01-.71,4.24-.77,6.26-.03.68-.09,1.38-.18,2.08-.45-.28-.88-.54-1.35-.8l-1.03.03s-.71,1.79-1.5,4.65c-.56,1.95-1.14,4.44-1.59,7.16l-.18-.04-.59-.22c-.76-.33-1.49-.76-2.29-1.51-.39-.35-.75-.72-1.11-1.12-.36-.45-.69-.89-1.04-1.38-.33-.47-.65-.96-.95-1.47-.27-.49-.52-.97-.77-1.46-.47-.94-.94-1.96-1.24-2.77-.6-1.59-1.04-2.92-1.28-3.77.1.4.28,1.07.57,1.98.15.45.31.95.5,1.48.11.28.19.55.3.83.13.33.29.66.42.99,1.09,2.63,3.09,6.05,5.39,7.71.69.5,1.35.8,1.97.97-.47,0-.97-.01-1.49-.08-.03.02-.05.02-.11.02-.58-.34-1.19-.83-1.78-1.4.56.54,1.17,1.05,1.75,1.39-4.95,1.21,3.05,2.78-4.25,2.61l4.78,1.04c-1.18.58-.36,1.48-3.58,1.23-1.05-.68-3.08-1.53-4.82-1.56,6.98,1.14-5.92,2.4.63,3.98l-2.4.04c.31.05.4.23.23.39l-3.18.26c1.97.32,6.66.3,4.59,1.78l-4.57.54c1.28.99-.37,1.51-.04,2.32l13.67,1.44c-.58-.61-2.55-.93-1.86-1.6.94-.19,1.6-.2,2.12-.14.14,1.43.36,2.81.7,4.16.94,3.79,2.65,7.16,5.89,9.63h-.19c.28.08.37.26.23.39l-2.86.24c-.46-.11-.9-.2-1.4-.29,1.13.93,2.89,1.59,4.89,2.18l-3.62.45c1.23.98-.34,1.48-.04,2.32l7.3.82c-.2.54-.33,1.09-.56,1.66-.39.92-1.16,1.8-3.11,2.52,1.73.73-1.48,2.51-.81,3.05-.23-.07-.68-.11-1.07-.16-.95.9-2.29,2.17-3.4,3.15-1.11,1-2.04,1.7-2.36,2.34,0,0,.1.03.31.08.2.07.49.14.85.17.73.11,1.81.13,3-.04,2.4-.31,5.26-1.14,6.59-.97-3,1.84-.7.84,0,.98l.1-.6c1.87-.91,2.11.28,3.05.02-.02-.1-.06-.2-.11-.3l-.07.24c-.12-.16-.1-.33-.03-.52-.06-.22-.04-.49.48-.72l-.07.19c.71-.62,2.05-1.14,2.62-1.39l.18.99c.17-.42.54-.76,1.03-1.01l4.09.52c-.41-.47-1.54-.79-1.74-1.22.91-.14,1.91-.23,2.89-.26.66.23,1.25.42,2.75-.08l-.1-.06c1.03-.06,1.88-.16,2.32-.36,1.3.21,2.6-.85,4-1.81.1,0,.21,0,.32,0,.18.06.39.11.54.19.51.21.93.47,1.23.74-1.59-.16-1.83.11-1.52.21.28.12,1.05.38,1.36.68l.17-.5c1.85.48,1.87,1.8,2.76,2.21,0-.1-.03-.22-.05-.35l-.12.14c-.09-.23-.05-.37.04-.48-.03-.27.04-.46.53-.32l-.09.11c.74-.06,2,.32,2.54.46l.04,1.03c.6-.9,2.83-.12,5.09,1.17.1.06.17.11.28.15-2.23.88-4.63,1.75-6.77,3.37.79,2.14,1.5,4.33,2.15,6.53-.55.22-1.27.7-2.83.81-1.17.12-2.79,0-5.23-.42-2.44-.43-5.6-.97-9.78-1.69v-.2c-.49.11-.52.47-1.37.22l2.57.76c-1.59.77-2.93,1.97-5,2.45-.46-.16-.66-.55-.72-.87-1.69.37-3.35.71-4.98.96-.54-.41-1.06-.8-1.58-1.23-.72.38-.87,1.27-1.34,1.84-.12.14-.26.27-.43.38-.08.04-.17.08-.3.12s-.29.05-.45.08c-.66.04-1.58-.01-2.82-.24,1.01.84.4,1.18-.31,1.51-.74.3-1.58.57-1.24.99-.25-.19-.81-.41-1.26-.62-1.33.47-3.08,1.22-4.56,1.85-1.48.65-2.7,1.09-3.19,1.61,0,0,2.18,1.02,5.04,1.46,1.43.24,3.01.48,4.43.84,1.42.34,2.67.84,3.39,1.32-3.76-.05-.95.33-.18.91l.2-.5c1.14.17,1.71.63,2.12,1.04.41.4.72.82,1.26.96-.02-.1-.03-.22-.08-.32l-.12.16c-.11-.21-.07-.37.04-.48-.03-.27.04-.46.64-.41l-.12.14c.89-.19,2.43-.13,3.12-.12l.1,1.01c1.44-2,10.95,1.23,13.04,1.19,1.72.81,3.58.01,5.61,0-.06.12-.18.25-.38.41l-4.07.53c1.15,1-.31,1.49-.01,2.32l12.17,1.51c-.5-.6-2.26-.95-1.68-1.61.22-.05.4-.09.59-.1.57.15.73.09.69-.06,1-.01,1.48.27,2.1.42-1.01.13-.16.69.15,1.06,1.43.2,3.27.82,4.91,1.08,1.61.26,2.99.16,3.37-.88.98.18,1.73.34,2.35.49.62.15,1.08.26,1.47.35.77.19,1.21.3,2.07.13-.61-.2-1.77-.27-1.84-.69,1.69.51.75-.4.06-.43,1.19-.63,4.36-.8,6.93-.7,1.28.06,2.45.23,3.29.33.42.06.76.04,1.11-.03.32-.07.52-.25.57-.51l.02.42c.46-1.64-.46-3.29,1.12-4.15l1.12.78,1.58-.67c1.11.58.6,1,.61,1.2,2.61-.68,6.37.35,9.62.48l-1.98-2.44,7.51.25.76.63c5.6,2.58,3.68-1.49,5.88-.76l2.82,1.46-2.7.16c2.76.65,3.85,1.11,6.07,2.03,0-.02.03-.02.03-.05-.15-.06-.25-.12-.27-.22l.37-.07c.26-.86,1.63-1.52,3.51-1.58,2.68.06,4.72-1.3,9.08.34l.96-1.72,3.26,1.01.07,1.35c-3.12-.15-8.97.57-13.01.94l-.03.63c2.38-.16,5.08-.88,6.65-.82.69.21,2.41,1.33,1.78,2.25l1.09-1.05c8.02-.24,7.62-.08,16.39,2.31l-.78-.75c1.7-.22,3.47-.56,4.01.54,2.73.14,5.59.19,8.34-.29l.51-.08c.16-.04.35-.07.45-.06.24,0,.45-.01.69-.01.45-.01.91.08,1.33.11.88.17,1.73.44,2.46.82l.53-1.61c.97.03,2.63,2.47,3.01.23l2.24-.66c1.51.15,2.38-.75,4.26.07h0c.13.06.23.12.35.18,0-.05-.02-.1-.04-.13,1.85.18,1.83-.21,1.86-.55.03-.39.1-.58,2.32-.68,1.49.74,1.51-2.6,3.03-2.77.61.56,1.24,1.18,1.82,1.82,1.47.35,2.32,0,3.36-.49,1.04-.5,2.28-1.12,4.74-1.2.31.1.61.22.89.32.33.1.64.25.92.37.56.24.98.55,1.24.89.55.71.54,1.63-.39,2.7,1.27-1.31,1.49-1.78,1.86-2.09.34-.31.86-.54,2.22-1.59.55.68.28.98-.25,1.98,1.37,0,1.63-.32,1.88-.74.22-.42.4-.94,1.15-1.17.23-1.74.43-4.45.92-4.63-.2-.14-.4-.25-.63-.37.37-.33.76-.57,1.15-.78.47-.2.98-.36,1.51-.46,1.04-.18,2.15-.16,3.33.19l-.04.83,2.42-.55.23,1.04,3.52-.53-.51-.24c.83-.17,3.54-.75,5.19-.38l-.02.58c2.31.66,4.41.18,6.54-.73.55-.22,1.07-.47,1.62-.76.52-.27,1.02-.52,1.57-.79.74-.38,1.53-.67,2.37-.9.2.07.44.14.67.18l-.34.87c.96.52.91-.17,1.07-.79.42.04.87.03,1.29-.01l.1.69c.38-.48.69-.72.99-.79.05-.02.11-.02.19-.03.85-.05,1.47,1.25,2.38,1.74l-.68-1.86,2.37.3c2.67.52,1.77,2.35,1.45,3.35l1.74-1.58.46,1.65c.61-1.02.92-.95,1.49-.82.54.14,1.26.35,2.48-.42.27.58-.33,1.09.56,1.17,1.31-1.11,2.49-2.28,3.61-3.42-.68.55-1.41,1.15-2.15,1.7v-2.24s3.75-.7,3.75-.7c-.56-.24-1.3-.55-2.08-.86,1.14-.39,1.92.29,2.94-.46l-.98.99c1.21-.63,1.85-.65,2.36-.48.26.1.48.21.71.35.13.06.25.12.38.2.18.06.36.13.56.17-.25-.19-.62-.44-.7-.69-.04-.1-.06-.22-.03-.32.25-.13.39-.26.45-.38.03,0,.05-.02.05-.02.84-.22.51.8,1.34.99,0-.41.15-.79.36-1.12,1.49.13,3.29.62,4.15,1.06,2.52.07,8.21-1.76,12.3-1.24-1.02-.36-2.41-.79-3.23-1.37.8-.13,1.58-.26,2.38-.41l.27,1.41c.55-2.17,4.26-.29,3.73-2.71.3.2.69.21,1.15.15.55.68,1.44,1.27,3.89,1.36l-4.24,1.27c4.68-1.19,1.18,1,5.11,1.22l-1.62-1.09c2.37-.33,3.28-.16,4.66.62l-2.14-1.7c1.29-.28,3.66-.59,3.75.44.3-.44.41-.79.38-1.09.26.29.88.44,2.39.33-.91-.18-1.52-.03-1.59-.55,5.78.18,1.22-1.97,4.8-1.96-.6-.39.4-.94,1.66-1.22.1,2.79,7.18,2.86,9.16,4.35l-.02-.05,4.9.91c-.98-.18,0-1,1.41-1.34l-.24.03c1.49-.51-2.01-2.95,2.62-2.34l2.47.72c-.44-.09-.06-.52.17-.74l2.52.66c3.63-2.76,7.27,1.16,11.66-.29-1.29.28-3.25.16-2.47-.72.85-.37,2.17-.11,2.87.27l-.24-.31,8.62,1.35c-.76-.92-5.51-.79-3.47-1.93,1.19-1.34,3.72-.07,5.24-.06-.14.74-2.92,1.53-.05,1.8.32-.39,2.98-1.26,1.68-1.74,2.97.62,7.24.91,9.93,2.1.82-.37-.53-.61-.97-.69l-.2.23c-1.79-.32-.39-1.89-3.79-.96-.45-2.41,4.95-.87,7.93-1.35l-4.93-1.45c7.92-3.67,19.13-.53,27.21-.84-2.31.85-4.34.21-3.94,2.1,5.07.7,4.37.3,9.41.49l-.44-.09c2.51-1.08,6.16.65,7.76-1.12-1.18-1-3.6,1.13-3.79-.96l6.3-.09c-2.06-1.15-6.3.09-8.73-.09-1.73.19,3.51.15,2.76,1.55-5.89.18-7.3-1.11-10.33-2.96-1.86-1.38,2.48-1.59,3.56-1.65,3.88,2.02,9.42,2.81,15.19,1.57l3.1-1.74c2.99,1.33,1.93,4.24,7.14,3.66l-1.62-1.09c1.12-.49,1.85-.67,2.4-.7-2.3-.78-4.78-1.65-6.87-2.47,2.83-2.56,8.59.83,12.99,1.14-.24-.29-1.79-.32-2.26-.93,6.47-.86,13.46,1.76,18.53,1.93,2.05-1.17-4.22-.53-3.29-2.16,2.67.5,5.59-1.01,6.39.43-1.3-2.04,6.06-.41.89-2.14,9.46-1.31,20.07.16,29.77.94-.5-.6-.53-1.14-.15-1.58-3.25.16-8.09-.23-9.97-1.61,2.07-1.16,5.16,1.22,5.72.56-1.12-.46-3.29-.35-3.41-1.41,2.72-1.3,4.37.3,6.36.42l-1.02.57c6.22,1.17,3.62,3.51,10.06,2.67,2.28-1.37-.09-1.06-.22-2.63,1.56.55,6.38-1.38,8.09.23l-3.92.3c2.79.34,5.38.22,7.34.68-.21-.34-.39-.67-.99-.79,2.23.41,5.01.16,6.22,1.17l.52-1.71c-1.25.8-5.15,1.1-5.86.18.29-1.49,4.28-.76,6-.93-7.65-.14-7.92-2.78-14.31-1.4l1.12.46c-3.94,1.44-8.2-.48-11.72-.27.98-.38,1.14-1,.64-1.29-1.02.23-2.06.38-3.1.54,1.6-.5,3.02-.86,4.27-1,.21,0,.32-.05.58-.05.24,0,.47,0,.71-.01.47,0,.92-.02,1.37-.03.9-.02,1.74-.05,2.53-.05,3.19-.09,5.52-.23,6.19-.4l-3.55-2.16c5.5-.26,9.65.12,13.55.43,3.9.29,7.62.51,12.36-.19l-.51.42c1.4.51,1.98-4.05,17.65,1.98v.2c.48,0,.51-.35,1.35.02l-2.45-1.21c1.57-.48,2.91-1.41,5.05-1.5.45.23.63.66.71.99l5.2-.19,1.65,1.36c1.56-.67.69-3.48,5.05-1.81-1.7-1.98,2.07-1.09,1.5-2.09.22.24.74.62,1.13.95,2.51-.15,7.29-.57,8.42-1.52,0,0-10.1-4.36-12.87-6.5,3.61.63.94-.21.21-.89l-.22.47c-2.17-.53-2.22-1.75-3.29-2.11,0,.1.03.22.08.35l.12-.16c.11.23.05.37-.04.48.03.27-.04.46-.64.38l.11-.11c-.88.14-2.44-.09-3.12-.19l-.07-1.03c-1.51,1.9-10.8-3.27-12.93-3.38-2.2-1.34-4.78.18-7.48-.54-3.13-.32-2.86-1-3.33-1.7.54-.15,1.11-.32,1.65-.54,1.88-.72,3.86-1.38,6.18-2.08l-.49.52c.7.16,1.14-.98,3.44-1.49,1.15-.24,2.76-.3,5.18.13.6.1,1.24.25,1.94.41.36.08.75.19,1.14.27.47.09.93.2,1.4.27,1.92.34,4.04.42,6.25.51l.04.2c.52-.18.54-.51,1.35-.45l-2.68-.38c1.74-.97,3.11-2.44,5.13-3.07.46.11.64.52.72.84,1.7-.49,2.9-.65,4.6-.53l1.6,1.55c.81-.22,1.06-1.03,1.63-1.52.62-.51,1.52-.55,4.15.48-1.01-1.06-.39-1.28.44-1.4.8-.1,1.81-.24,1.46-.71.27.24.93.54,1.48.81.4-.06.89-.24,1.37-.37.52-.2,1.06-.4,1.59-.72,1.1-.59,2.12-1.43,2.81-2.03.71-.6,1.13-.95,1.5-1.24s.7-.48.88-.73c0,0-.1-.06-.3-.2-.2-.11-.48-.26-.81-.39-.36-.13-.77-.21-1.35-.16-.58.02-1.31.23-2.17.4s-1.81.21-2.72.13c-.91-.13-1.76-.35-2.52-.66-1.55-.62-2.8-1.41-3.56-2.04,3.97.93,1.04-.11.23-.86l-.25.44c-2.35-.84-2.35-2.08-3.51-2.62,0,.1.03.22.08.35l.14-.13c.11.23.05.37-.07.48.03.27-.07.46-.71.26l.11-.11c-.95,0-2.6-.42-3.32-.53l-.04-1.03c-.41.48-1.3.47-2.49.47-.16-.01-.34-.03-.52-.02l.22-1.59c-1.13.9-4.95,1.55-5.8.7.05-1.51,4.15-1.11,5.84-1.45-7.63.52-8.28-2.05-14.42-.14l1.18.37c-2.03.97-4.32.95-6.52.81-1.64-.17-2.12-.45-2.4-.82-.28-.37-.35-.81-1.17-1.15.16-.04.27-.07.51-.08.24-.03.48-.06.69-.06.45-.06.9-.09,1.35-.13.88-.1,1.73-.19,2.52-.27,3.16-.36,5.46-.7,6.08-.94l-3.87-1.84c5.43-.73,9.59-.74,13.55-.77,3.93-.05,7.65-.17,12.27-1.27l-.44.48c1.5.37,1.36-4.2,17.84.41l.04.2c.48-.06.46-.4,1.35-.1l-2.63-.98c1.5-.6,2.69-1.65,4.8-1.91.48.19.74.6.84.93l5.14-.66,1.84,1.21c1.44-.8.17-3.52,4.75-2.23-1.98-1.8,1.87-1.28,1.16-2.22.27.22.82.56,1.27.84,2.48-.37,7.16-1.19,8.14-2.26,0,0-10.71-3.43-13.79-5.31,3.66.31.89-.29.05-.9l-.15.5c-2.24-.34-2.47-1.55-3.61-1.82.02.1.09.2.13.33l.09-.16c.14.21.1.35.01.49.08.25.01.46-.56.44l.09-.14c-.86.22-2.43.13-3.12.1l-.2-.99c-1.2,2.02-11.23-2.28-13.37-2.22-1.09-.51-2.15-.45-3.27-.26.19-.08.33-.19.43-.35l-4.43.13.21-.35c-.79.3-2.16.28-3.04.18l.03-.09c-.08.02-.16.04-.22.05-.16-.01-.29-.05-.42-.06l-.02-.03c.09-.16.04-.41.78-.45-.42-.01-.79,0-1.11.03-.02-.03-.05-.05-.07-.08.52-.2,1.04-.42,1.58-.67,1.76-.87,3.62-1.72,5.83-2.6l-.42.55c.73.09.99-1.06,3.18-1.78,1.11-.34,2.71-.55,5.16-.34.6.05,1.28.13,2.01.25.36.06.75.11,1.17.17.47.04.96.11,1.44.15,1.96.17,4.1.06,6.29-.02l.06.2c.49-.23.47-.57,1.28-.55l-2.72-.16c1.6-1.11,2.71-2.7,4.64-3.51.47.06.72.45.83.75,1.61-.62,2.76-.91,4.5-.93l1.83,1.4c.79-.27.89-1.12,1.41-1.66.55-.54,1.43-.68,4.18.11-1.15-.98-.58-1.22.2-1.42.78-.18,1.77-.39,1.33-.81.32.22,1.01.45,1.6.67.4-.11.84-.32,1.33-.5.47-.25.99-.5,1.49-.85,1.01-.67,1.9-1.59,2.48-2.25.61-.66.99-1.06,1.3-1.38.32-.31.63-.56.78-.81,0,0-.13-.06-.33-.15-.18-.63-.49-.77-.85-.85ZM555.66,92.58c-.28.15-.53.32-.66.6l-.93.07c-.02-.07-.01-.17-.03-.3.57-.15,1.08-.27,1.61-.37ZM544.37,90.4l.26,1.9h0l-.25-2v-.02s0,.12,0,.12ZM542.94,89.59s-.02-.05-.02-.07c0,0,0,.05.02.07h0ZM543.08,90.04s-.02-.07-.04-.1h0s.02.07.04.1ZM543.27,90.62c-.06-.22-.15-.45-.23-.68h0c.04.13.08.28.12.4h0c.04.1.06.2.11.3.02.1.06.2.08.3-.02-.05-.04-.13-.06-.18.04.15.11.3.15.45l-.16-.6ZM544.31,89.85s-.02-.05-.02-.1l-.02-.1.04.2ZM544.16,88.57l.06.49-.02-.07c.04.2.05.32.05.39-.01-.15-.07-.45-.09-.81h0ZM542.69,88.84l.06.2c.02.05.04.13.06.18.04.13.09.23.13.35h0c-.11-.3-.19-.6-.29-.9,0,.05.02.1.04.17ZM542.91,41.36c.12.16.27.27.45.33v.02s0-.02,0-.02c.18.09.38.13.56.17.21.04.41.11.62.17-.55.54-.67,2.24-1.49,1.39.08-.26-.09-.47-.15-.67-.1.19-.21.3-.32.41.07-.48-.97-1.3.34-1.8ZM542.4,43.34c-.06.09-.1.19-.11.33l-.44-.04s-.02-.1-.01-.17c.29-.02.45-.06.56-.12ZM461.55-10.4l-.45.03c.15-.16.28-.22.45-.03ZM338.59,19.84c1-.26,2.03-.31,2.84-.22,1.72.83-.61.97-1.31,1.79l-1.25-.11c-.14-.21-.45-.33-1.19-.25t-.02-.03l.02.03c-.24.03-.5.05-.83.12h-.1c.19-.65.91-1.1,1.85-1.34ZM-1.16,148.56c.06-.09.12-.21.16-.3.18.09.38.18.56.24-.16.01-.4.01-.72.06ZM5.46,215.47c-1.28-.7-2.6-1.25-4.05-1.62.86.12,1.98.19,2.89.35l-.04.22,1.4.24c.22.19.2.46-.2.81ZM485.69,188.34c.08-.26-.01-.49-.29-.61-.32.09-.65.19-.95.29-.15-.04-.28-.07-.44-.11.41-.16.82-.3,1.22-.41.39.33.99.72.45.84ZM329.56,232.46c-.1-.06-.2-.11-.28-.17.11-.02.19,0,.29-.02-.03.07-.04.14-.02.19ZM327.38,237.94c.41.13.85.22,1.29.26-.76-.04-1.12-.14-1.29-.26-.95-.28-1.68-.73-1.44-1.34,2.25.44.86,1,1.44,1.34ZM316.12,236.85c.05.08.07.15.03.25,0-.07-.01-.17-.03-.25ZM286.27,31.03s0-.02,0,0h.05s-.05,0-.05,0ZM291.9,30.48c.52-.86,2.33-.73,2.72-1.3.01.17.02.34.2.43-2.01.68-3.72,1.27-5.21,1.55l.48-1.3c1.7-.46-.73,1.4,1.82.62ZM405.19,13.79c.53-.96,1.3-1.33,2.01-1.68-.22.69-.64,1.04-.9,1.56l-1.12.12ZM446.98,10.36c.05-.02.08-.07.14-.09.12.13.24.26.39.35-.15-.04-.28-.07-.44-.06-.02-.05-.04-.13-.09-.2ZM462.61,11.36h.16c.11.27,0,.43-.15.54-.06-.2-.07-.37,0-.54ZM475.23,6.37c.11-.02.24,0,.34,0-.13.28-.62.14-.54.51l-.43-.23s0-.02.03-.02c.13-.04.25-.13.33-.22.08.03.15.04.26.02.03,0,0-.05,0-.07ZM475.32,5.93s.06-.12.1-.19c.03-.02.06-.04.11-.04v.02c-.09.07-.15.13-.2.2ZM476.1,6.93c.05.39-.62.46-.58,1.2.57-.2.43-.35.58-.9.08,0,.13.01.21,0,.11.25.03.56-.05.87-.03.02-.03.07-.04.12-.24.03-.45.03-.69.06-.03-.25-.06-.49-.12-.69l-.25.13c-.06-.2-.16-.33-.39-.38.14-.11.26-.22.3-.39.02.1.09.2.18.33.58-.05.71-.35.72-.72.07.1.11.21.13.28,0,0-.03,0-.03.02,0,.05,0,.07.02.07ZM475.84,9.66s-.03.05-.03.07c-.21,0-.45-.01-.66,0,.35-.14.51-.47.67-.72.07.08.15.13.28.17-.06.09-.1.21-.16.3l-.14.11.05.08ZM481.07,10.01l-1.28-.11c.09-.09.15-.21.21-.3.45-.01.91-.12,1.11-.69.02-.27.02-.54-.04-.81.13-.01.26,0,.37-.02l-.08.31c.09-.11.2-.2.32-.31.53-.03,1.06-.06,1.59-.08,0,.05-.03.07-.04.12-.46-.21-.91.53-1.5.26.3.44-.4,1.6.71.94-.08.07-.01.17-.1.24.93.57,1.02-.55,1.71-.63.37.3-.1.6-.17.79l-1.8.41c-.29-.05-.63-.08-1.02-.11l.05-.02-.05.02ZM484.09,7.1c-.22.1-.39.26-.54.44-.48.03-.96.09-1.43.12.06-.07.12-.14.18-.23l-.47.25c-.08.02-.16.01-.24.03l.12-.5c.71-.04,1.5-.04,2.38-.11ZM481.53,7.74c-.08.02-.16.01-.27.03.06-.12.15-.23.21-.35.04.1.09.2.05.32ZM475.12,9.72c-.19,0-.39,0-.58,0l-.11-1.21c.11-.02.19,0,.29-.02-.07.17-.16.35-.12.53l.54-.2c-.19.37-.49.81-.02.9ZM474.76,8.38c-.11.02-.21.03-.32.05v-.07c.14-.01.25-.03.35-.04-.03.02-.03.05-.03.07ZM497.99,10.81s-.05,0-.08.02c.19-.35.04-.51-.18-.67.48.24.72.5.26.66ZM477.83,9.13c-.1.19-.12.43-.11.67-.18-.02-.39,0-.58-.03.08-.33.21-.59.69-.65ZM477.4,5.26c.03-.07.06-.14.1-.21.1.11.16.23.15.35l-.23.54s-.06.07-.11.09c-.03-.25.02-.51.09-.77ZM476.83,9.77l-.07-.42c-.24.05-.28.22-.27.42-.21-.02-.42-.01-.63,0l.03-.05.43-.35-.07-.08-.26.22.13-.28h0v-.02s0,0,0,.02c-.03-.25.02-.49.09-.72l-.54.2c.02.07.07.15.09.23-.16.01-.26-.02-.33-.13l.25-.1c-.02-.05-.02-.12-.04-.2.19,0,.4-.01.58-.05v.02s.05-.02.05-.02c.02.07.04.13.09.2l-.23.52c.12-.16.26-.32.4-.38.32.54.51.75.55,1-.1-.03-.18-.04-.24-.02ZM474.28,6.63s-.08-.03-.1-.03l.13-.57c.13-.01.24-.05.28-.2.01.17.05.37.17.5-.14.06-.3.17-.47.3ZM473.86,6.32c-.05-.08-.06-.18-.06-.27.13-.04.27-.05.42-.04-.12.14-.23.22-.37.31ZM474.27,8.63c-.08.6-.39.89-.75,1.11h-.03s-.05,0-.08,0c.06-.39.09-.8.23-1.1.24,0,.45-.03.63,0ZM471.64,9.84c.11-.09.2-.2.28-.24.02.05.09.13.17.21-.16-.01-.29.02-.45.03ZM471.52,6.85c-.17.11-.33.14-.46.11.09-.09.2-.18.36-.26h.1c.02.06.02.11-.01.15ZM451.71,8.84c.03-.07.06-.14.07-.24.04.15.05.3.1.42-.05-.08-.12-.13-.17-.19ZM450.65,10.17c-.04-.1-.06-.22-.1-.37.22-.42.46-.42.67-.48l-.57.85ZM449.86,10.17c-.16-.01-.34.02-.5.03-.06-.18-.13-.35-.19-.55.28.15.5.29.69.25,0,.1.01.17,0,.27ZM526.67,139.62c-.3.12-.58.27-.73.55h-.92c0-.08.01-.18.02-.3.54-.1,1.07-.18,1.63-.25ZM515.75,138.39s0-.02,0,0l.03-1.29h0l-.03,1.29ZM518.88,10.33c-.54.1-1.07.2-1.61.3l-.13-.38c.55,0,1.13.02,1.73.08ZM517.1,10.25l.12.4c-.05,0-.08.02-.11.02l-.12-.43s.08,0,.1,0ZM506.42,6.43c.27-.05.54-.12.78-.18,1.97-.22,3.99-.49,5.96-.78-.04.14-.18.28,0,.29v-.29c.61-.09,1.2-.19,1.79-.29l.79,2.48-.03.02.03-.02.52,1.63c-.22.15-.5.3-.83.44v-.2c-.08.17-.39.46-.55.2l.09-.43-.4.7c-.13.04-.3.07-.46.11,0-.29-.13-.6-.3-.78.43-.35.38.84.58.03-.08-.57-.64-.25-.75-.16l.13.96c-.32.07-.7.14-1.09.17-.41-.18-.79-.26-.94-.03.11-.11.32-.02.52.09-.11.02-.24.03-.35.04l-.36-.06c.1.03.21.04.34.05-.21.03-.43.06-.64.09l-.06-.2-.52-.07c.04.13.09.23.13.33-.03,0-.05.02-.08.02-.41-.13-1.09.1-1.6-.02.12-.16.29-.29.52-.27-.32,0-.58.05-.88.12-.12-.11-.22-.24-.3-.47-.37.02-.87.29-.93.75-.75-.16-1.69-.24-2.71-.31.74-.3,1.55-.6,2.47-.84,3.17-.75,5.63-.84,6.87-1.22.89-.24,1.33-.5,1.64-.71-.31.22-.72.43-1.58.65-.65.16-1.5.29-2.7.45-1.17.14-2.64.34-4.28.73-1.05.25-1.97.61-2.79.96-.21-.02-.45-.01-.66-.03l-.33-.13s-.06.07-.06.12c-.89-.03-1.86-.06-2.83-.12.17-.11.47,0,.38-.14-.56-.24-.96-.13-1.35.06-.71-.06-1.41-.15-2.11-.28-.1-.06-.2-.14-.27-.22-.61.34-1.73.54-2.78.84-.81-.09-1.57-.16-2.3-.22.35-.09.67-.19,1-.26,1.05-.25,1.98-.37,2.83-.47.74-.06,1.48-.12,2.2-.18l.87-.07c.11-.02.21,0,.29-.05l.3-.07c.11-.04.19-.06.35-.12.33-.12.74-.33,1.32-.62,1.04-.5,2.79-1.47,5.15-2.05ZM489.4,7.73s-.03,0,0,0h-.03s0,0,.03,0ZM490.75,7.65c.5-.03.98-.04,1.48-.07-.97.28-2.36.82-3.25,1.33-1,.57-1.36.84-.11.33-.27.05-.26,0,.15-.23.3-.17.8-.42,1.48-.68s1.52-.53,2.38-.72c.11-.02.22-.05.32-.07,1.11-.05,2.25-.12,3.41-.2-1.66.05-1.79-.06-.24-.22,1.32-.08,3.31-.2,5.62-.4-.3.14-.6.29-.85.42-1.16.58-1.86.87-2.08.87.29.02.72-.08.71-.01.05.05-.2.23-.34.34-.23.22-.54.42.04.49-.16.04-.37.04-.58.02-.61.02-1.27.04-1.95.05-.87.05-1.96.1-3.21.31-1.04.15-2.28.49-3.51.97-1.47-.1-2.87-.29-4.34-.69.4-.11.66-.38.49-1.08.59-.17.75.19,1.01.48.56-1.64,3.16,0,3.37-1.25ZM488.01,7.78c-.74.3-1.86.26-2.61.36,0-.1-.04-.17-.06-.25.87-.02,1.77-.07,2.67-.11ZM487.89,3.86c-.11-.21-.28-.41-.37-.64.26.05.38-.11.53-.3.33.49.07.67-.16.94ZM493.06,1.62c-.03.09-.04.19-.03.31.15.11.22.21.24.31-.34.56-1.02.86-1.46.75.13-.28.16-.62.37-.99-.04-.17-.08-.32-.15-.43.35-.04.71.01,1.02.04ZM486.83,2.72c0,.1,0,.2,0,.29-.23.18-.36.48-.49.84-.05,0-.08.02-.13.01l.15-.18-.2.18c.03-.63.32-.97.68-1.14ZM490.43-1.83c.06-.09.15-.18.23-.2,0,.05-.04.12-.04.17-.05.02-.13.01-.19.03ZM490.38-.88h0s0-.02,0,0t0,0ZM474.64,3.07c.45.26,1.05-.52,1.38.17.32-.34-.19-1.14.45-.96.01.17.08.25-.02.27.17.14.41.16.6.08.16-.06.31-.24.36-.53-.38-.13-.12-.18-.56-.24-.12-.43.18-1.18.78-.76-.37,1.21.76.97.6,1.64,1.03-.06,1.37-1.54,2.17-2.6,1.04-.18,2.52.14,3.37-.61-.27.98-.54,1.96-.8,2.93-.05-.03-.08-.03-.13-.06.02.05.07.08.12.11-.04.17-.08.36-.15.52-.47-.04-.87-.64-.74-1.19-.43,1.06-2.63-.62-3.23.77l-.96,2.29s0-.02-.02-.03c0,0,0,.02.02.03l-.07.19-.26-.1c.14-.35.3-.76.4-.97-.63-.03-.69.99-1.5,1.24.26.05.52.34.71.6.02.07.04.15.03.22-.21.03-.5.05-.51-.19l.26-.25c-.4-.25-.65.48-1.06.4-.04-.2-.07-.4-.06-.54-.03.05-.05.02-.11.02v-.07s-.02.05-.05.07c-.03,0-.05,0-.1-.03-.09-.45.51-.1.35-.65-.13-.01-.24.03-.32.09l.02-.19c-.08.04-.14.11-.2.18-.05-.32-.64-.57-1-.62l.23-1.2ZM473.59,3.61c.26.61.87-.07.81.66l-.18-.02c-.23.27-.61.41-1.05.52.19-.35.28-.81.42-1.16ZM473,5.93l-.03.09h.03c0,.2.05.4.31.42-.03.07-.06.12-.12.16-.19.03-.37.04-.56.03l.08-1.19c.32-.07.3.22.3.49ZM471.81,4.19c.12.45.51.56.7.69-.61.07-1.25.11-1.76.24.28-.54.54-1.05,1.05-.93ZM470.88,6.09s0,.1.02.12l-.02-.12c.14-.11.23-.22.29-.34.41.69-.17.74-.55.86-.04-.1-.09-.2-.08-.3.11-.09.22-.15.33-.22ZM469.56,6.12l-.17.16c.33.13.67.16.99.09-.31.27-.96.14-1.47.22.18-.28.39-.5.64-.46ZM467.77,8.56c0,.07-.04.17-.05.24-.02-.03-.02-.05-.05-.08.03-.05.06-.09.09-.16ZM467.21,10.8v.05s-.06.02-.11.04c-.03.02-.05.02-.11.04.08-.07.14-.11.22-.13ZM466.58,9.28c.05.05.07.1.12.13-.05,0-.08.02-.13.01v-.15ZM465.18,7.14c.11-.11.23-.25.37-.36.1.11.2.14.3.15-.13.89.47,2.24.24,2.44-.14.06-.25.2-.37.31-.09-.15-.29-.24-.5-.29l.04-.14c-.08.04-.11.09-.17.11-.08,0-.16-.01-.21,0l.3-2.22ZM462.96.24c.16-.06.27-.05.34,0-.13.01-.24.03-.37.04,0-.02.03-.02.03-.05ZM463.82,11.93l-.07-1.06c.08.03.15.09.26.1.02.12.03.25.08.32-.15.26-.18.62-.34.9-.24.08-.46.18-.68.26-.1-.03-.23-.04-.39-.11h0c.06-.12.15-.21.26-.32l.88-.1ZM462.15.39c-.11.02-.24.03-.35.04l-.09-.79c.17.14.31.42.44.75ZM462.34,10.14c0,.07-.01.17,0,.27t-.05.02l-.2-.14h0c.11-.06.2-.13.25-.15ZM460.91,7.85c.16.94.63,1.27.77,1.77-.46-.11-.97-.69-1.09-1.44l.08.96c-.05-.08-.15-.11-.25-.14-.02-.12-.11-.21-.37-.28l.87-.88ZM460.09,9.68s.03-.07.06-.09c.41.4.8.53,1.33.19-.07.24.03.52.12.79,0,.02-.03.07-.03.09-.48.13-.89.22-1.38.39-1.03.03-1.61-.82-2.44-.97.11-.06.22-.1.35-.14.03,0,.05-.02.08-.02.13-.01.27-.05.38-.09.13-.01.26,0,.34.03v.17c.41-.04.93-1.14,1.2-.36ZM457.87-1.52v-.02c.22-.1.44-.18.68-.28.1.06.19.19.2.43-.65-.13.07,2.2-.8,1.03.1.67.29.88.53.92-.04.17-.03.31.01.46-.22.05-.4.09-.59.14-.18-.02-.34-.08-.39-.35-.22-1.07.41-1.36.36-2.34ZM455.49,1.6c.5-.25,1.01-.43,1.42-.32l-.12.21c-1.2.46-1.49.8-1.2,1.43.26.63,1.22,1.4,2.27,2.1-.4.09-.94.16-1.44.17s-1.02-.06-1.49-.1l.22.46c-.36-.15-.46.5-.76-.09-.09-.2.86-3,1.09-3.86ZM453.54,1.65c0,.24.07.37.17.48-.16.06-.35.12-.52.18-.02-.42-.21-.87.35-.65ZM452.17-.42c-.18.28-.52.57-1.15.88l-.42-.6c.65-.24,1.01-.38,1.58-.28ZM450.65.67c.13.06.26.05.45-.08l-.05-.05c.16-.04.32-.07.54-.1.25-.13.49-.18.7-.18l.44.7c-.19.03-.44.79-.6-.08.07.45-.1,1.14.41.79l-.32.68c.04.1.09.2.14.26-.11.04-.24.08-.38.14-.21-.29-.51-.24-.92-.93-.08-.28.19-.37.31-.51-.47-.36-.8-.19-1,.04.67.13.42.6.73,1.33-.32.34-.97.26-1.15.49-.43-.16-.9-.59-1.03-1.14.24-.03.45-.03.63-.02.56-.37.48-.98,1.11-1.32-.14.06-.27.12-.44.21l-.35-1.08c.29.27.49.75.79.87ZM449.11-.41c.19-.03.32-.02.44.04-.34.29-.75.42-1.18.58.3-.17.61-.31.74-.62ZM446.41,2.58c.41-.14.78-.23,1.13-.32-.11.06-.22.15-.32.34.14.16.76.09.59-.41.19-.03.35-.07.51-.1-.06.12-.1.26-.12.5.38-1.09.53,1.8.99.4.56,1.15-.45.96-1,.65.16-.28-.13-.62-.18-.97-.48.69.06,1.42.58,1.56l-.5.93s.05,0,.08-.02c-.2.2-.4.4-.6.61-.37-.89-.61-1.52-.33-1.37l-.57-.44.49-.54c-.47-.65-.68.21-.95.36-.32-.22-.05-.59.21-1.18ZM443.79,2.99c.2-.13.42-.28.66-.38-.01.12-.05.26-.06.39-.18.23-.46.42-.76.62.02-.19.09-.41.16-.62ZM444.23,4.07c-.1.19-.21.32-.43.35-.02-.03-.02-.07-.04-.1.17-.08.33-.17.47-.25ZM441.92.58c.04.17.1.4.14.57-.14.09-.3.14-.49.2-.25-.19-.04-.49.36-.77ZM441.87,2.09c-.1.21-.2.45-.06.75-.09-.23-.2-.41-.32-.59.14-.06.25-.1.38-.16ZM440.99,4.02c.1.08.2.16.26.34-.15.21-.43.16-.71.04.14-.13.28-.24.45-.38ZM440.79,3.93c-.06.12-.2.23-.43.38-.05-.03-.08-.03-.13-.06-.3-.2-.59-.47-.63-.59-.01.17-.44.21-.77.08.3-.07.59-.1.88-.17l.55.05c.14.16.35.23.53.31ZM439.3,2.28c.03.22.04.47-.09.72.4-.4.7.4.94-.26-.01.15,0,.24,0,.34-.74-.01-1.33.11-1.9.3.01-.15,0-.29-.06-.52l.66.03c0-.22-.02-.34-.04-.44.16-.06.33-.12.49-.18ZM437.53.77l.08.25c-.21-.87.79-.57,1.01-1.06.41.4.41.74.28,1.02-.45.28-.89.58-1.31.89-.05-.39.46-.16.16-.65-.3.17-.34.56-.39.82-.11.09-.23.18-.34.26-.12-.08-.24-.26-.3-.54.84.29.14-1.04.8-1.01ZM434.29,6.03c.48-.35,1.8-.99,2.62.18h.03c-1.18.61-2.15.5-2.84.25l.19-.42ZM433.57,9.48l.11-.06v-.02c.54-.42,1.37-.86,2.12-1.11v.12s0-.07.03-.12c.11-.04.24-.08.35-.12l-.03-.22c.08-.07.1-.19,0-.37h-.05s-.03-.3-.03-.3c.53-.64,1.22-.7,1.88-.79v.07s.02-.05.03-.07c.64-.09,1.26-.21,1.73-.85l-1.62-.09s.14-.11.23-.18c-.41.21-.8.4-1.02.57-.03-.3-.18-.7-.18-.99.18-.86.76.04,1.06-.37-.08-.32-.04-.49,0-.68.16-.04.32-.05.48-.08l-.07,1.14c.35-.04.7-.48.88-.12-.08.04-.17.08-.25.13.08-.02.19-.06.27-.07.04.1.06.2.07.37l.3-.41c.05,0,.1,0,.13.04q-.17,1.43-.53,2.2c.72.5,1.13.05,1.51-.46.36-.48.69-1.01,1.26-.62l-.1.19c1.62-1.03,2.48.24,3.45,1.86-.23.25-.44.5-.62.73l-.3-.76c-.65.16-1.02.86-1.45,1.51-.3.49-.66.92-1.12,1.12-.05.02-.08.02-.13.04-.13.04-.27.07-.4.06-.01-.76.62-.51.47-.84-.42.04-.49.52-.55.9-.03,0-.08.02-.11.02l-.06-.25c-.11.04-.22.1-.33.14-.2-.11-.56-.24-.26-.71-1.07,1.37-2.86.15-3.69.64.24.29.08.57-.04.78-.08.02-.16.01-.27.03-.03,0-.05.02-.08.02-.04-.15-.02-.34.09-.38-.58-.32-.84-.97-.91-1.64l.25-.1h.08s-.13.58-.13.58c.17-.11,1.25-.82.88-1.32-.19.08-.35.14-.52.2-.19-.19-.39-.38-.57-.41h0c-.13-.01-.24.05-.34.29-.04.22-.06.34-.02.49-.6.24-1.09.39-2.04.48,0-.07.06-.14.15-.18ZM428.67,11.67c.64-.14,1.27-.36,1.83-.77-.04.19-.26.29.14.26,2.34-.31,3.15-1.68,4.84-1.83.02.05.02.1.04.15-.16.62-.38,1.36-.65,2.31v-.17s-.98.5-.98.5v-.44s-.28.59-.28.59c-.05.02-.13.04-.19.06-.16-.58-.24-.22-.36-.76-.77-1.41-1.16,1-2.18.55v-.44c-.23.96-1.55.35-2.31.31v-.17s.05-.09.08-.14ZM426.87,5.73c.05-.02.08-.07.14-.09.13-.01.29-.05.48-.08-.15.26-.31.53-.49.76-.18-.02-.31-.05-.39-.11.11-.11.18-.3.25-.49ZM425.84,5.11c-.03.09-.04.19-.02.29-.1,0-.21,0-.32,0,.03-.09.15-.18.34-.29ZM424.23,13.12s.06-.04.08-.07c-.03.07-.06.12-.1.19,0,0-.02-.07.01-.12ZM419.94,5.75c1.51-.16,2.45.31,3.47.35-.78.23-1.66.59-2.55.32.07.1.21.29.2.46-.4-.3-.84-.58-1.27-.87l.2-.23-.05-.03ZM419.23,8.52l.03-.02-.03.02c.06-.14.13-.26.19-.4.5.04.34.35.37.64-.19.06-.4.06-.66.04.03-.07.07-.17.1-.28ZM413.21,6.83c.05.3-.06.68,0,1.02-.09-.23-.05-.59,0-1.02ZM410.61,9.25c.13-.04.27-.1.41-.14l-.42.28v-.15ZM408.84,9.97c.28-.15.6-.27.93-.41-.13.55-.2,1.08.28.98-.31.9-.87-.25-1.13.27-.13-.35-.03-.61-.09-.84ZM407.33,12.24c-.02-.05-.02-.12-.01-.17.36-.19.69-.38.95-.63-.09.16-.13.31-.09.43.07-.19.09-.48.45-.3-.36.55-.73.84-1.29.67ZM405.1,11.48c-.46.5-2.11.4-2.03.02,2.65-.46,1.34-1.25,4.35-1.63-1.29.87.32.3.19.89.06-.12.2-.23.43-.38.07.15.07.42.44.45-.01.12-.07.24-.14.35-.37-.03-.71-.01-1,.04.02-.19.03-.34-.02-.39.01.15,0,.27,0,.39-1.69.39-2.18,2.38-4.48,3.08-2.58-.56,2.59-1.71,2.27-2.83ZM329.96,22.25c.02.07.09.15.17.21-.13-.04-.29-.05-.44-.11v-.05c.11-.02.19-.03.27-.05ZM330.14,22.97c2.04,1.08-1.42.9-1.62,2.03.27-.03.48-.08.67-.11-.22.08-.38.16-.55.29-.3-.15-.66-.23-1.05-.31.02-.51-.15-.97-2.25-.73.45-1.21,3.15-1.41,4.81-1.17ZM325.3,22.95c.48-.03.96-.09,1.41-.12.21-.03.42-.04.64-.07-.7.16-1.5.33-2.39.6l.35-.41ZM325.12,25.3c.26.05.62.13,1.06.19-.26-.02-.09.14-.35.12.28.17.53.29.76.38-.5.03-1.03.03-1.53.06l.06-.75ZM311.53,28.41c.47-.3.97-.6,1.47-.9.03.56.58.86,1.93.21.56-.44,1.13-.9,1.69-1.34l1.16-.29-.18-.09-.87.29c.39-.31.79-.59,1.21-.87,1.04.48,4.68.08,6.59.17-.15.21-.32.36-.54.51-.27.03-.53.03-.79.05-1.28.13-2.55.32-3.84.62-.64.14-1.27.33-1.91.52-.54.2-1.11.39-1.66.59-1.25.45-2.71.57-4.34.56.05.03.08,0,.08-.04ZM301.8,26.13l.68-1.5c1.73-.17-.82,1.22,1.79.89.15-.16.34-.26.58-.34-1.05.91-2.1,1.82-3.16,2.78-1.4.1-2.72.35-3.9.69-.04-.2-.07-.4.02-.56-.08.04-.19.06-.37.07-.02-.07-.01-.15-.06-.22.36-.21,1.1-.27.9-.63-.35.04-.67.19-1,.35-.19-.6-.32-1.15,1.58-1.55l2.95.03ZM290.66,26.2h-1.55c.59-.13,1.15-.21,1.55,0ZM285.5,30.45c.14-.11.23-.22.1-.28l1.11-3.42c-.02-.1.02-.27.18-.52l-.18.52c.08.32.87-.05,1.79-.36-.14.35-.25.76.87.61,2.39.35,3.35-1.25,5.03-1.25l-.49.18c1.62.16,3.59-.08,4.65-.77,1.51,1.15-4.4.67-1.77,1.58-1.79-.25-4.08.9-5.38,1.08.68.03,1.36.14,1.97.32-2.01,1-5.47,1.73-7.9,2.45v-.12ZM250.75,36.94c-.78.25-1.57.48-2.34.6h-.03c.73-.26,1.46-.44,2.37-.6ZM217.92,39.96c-.42-.01-.87,0-1.29-.01,1.18-.58,1.3-.38,1.29.01ZM79.56,228.12l.28.07c-.11.02-.19.03-.29.05v-.12ZM26.4,107.82c.11-.11.23-.25.35-.39.05.08.06.18.08.3-.13.04-.3.07-.43.09h0ZM27.13,107.01h0s0-.02,0,0h0ZM27.29,107.6c.12-.16.27-.34.34-.58.24.02.47.04.7.08.07.06.15.11.22.19.03-.02.06-.07.09-.09,0,.02.02.05.02.07-.48.11-.91.21-1.37.32ZM23.67,107.44c.09.18-.13.26-.11.36l-1.55.6h-.05c-.44-.04-.91-.08-1.36-.1.92-.63,1.87-1.26,3.07-.86ZM24.7,107.38l-1.03.4c.2-.23.46-.47.51-.71-.01.17-.04.44-.17.47.25-.17.49-.2.7-.16ZM25.3,108.07c-.08.02-.13.04-.22.05-.48.11-.94.16-1.39.2.42-.62,1.4-.69,1.66-.3-.03.02-.03.05-.06.04ZM18.86,107.91c.19-.03.35-.04.56-.07-.01.12,0,.27,0,.41-.24-.02-.45-.01-.66-.03,0-.1.07-.21.11-.31ZM38.93,66.94s-.06.07-.11.11c0,0-.03,0-.03.02-.05.02-.13.04-.19.06.11-.06.22-.13.33-.19ZM40.14,259.25l.63.32c-.29,0-.49-.14-.63-.32ZM75.48,253.62s0-.02,0,0c.49.16,1.02.38,1.58.58-.03.34-.27.66-.32,1l-1.26-1.57ZM309.68,237.96c-2.2-.41-3.16-.88-4.21-1.56.49-.18,1-.33,1.52-.5.3.49.36,1.01.23,1.34,2.47.72,1.93-.42,3.19-.68l-.73,1.4ZM321.44,239.89l-5.92-.34,5.73.12-.78-.99,1.18,1h-.39s.19.2.19.2ZM322.43,238.78l3.55.67-1.82-.86,5.37,1.53c-2.98.99-6.56-.2-7.1-1.34ZM328.74,234.05c.35-.97,4.5-.96,5.65-.49-1.75.19-6.29.63-5.65.49ZM335.18,231.92l-1.48-.54c1.45,0,1.61.26,1.48.54l1.22.47c-3.07.79-1.48.09-1.22-.47ZM377.85,234.23c-2.96-.13-8.55.58-10.74,1.47-.13.23-.35.43-.86.49.15-.16.48-.33.86-.49.13-.28.03-.63-.24-.9-.44-.09-.82-.24-1.01-.5.4-.01.77.19,1.01.5,1.14.24,2.82.02,3.56-.4-.5-.6-2.23-.41-2.93-.81,2.48-1.59,8.57,2.64,6.64-1.6,1.14.46,4.96,1.45,3.7,2.25ZM395.34,234.41l.61-.66,1.52.03-2.13.62ZM411.47,232.04c-5.11-1.22-12.87-.1-13.82-3.11-9.25,1.62-20.95.21-28.8.27-1.02.57.7.4.3.83-3.2-1.64-10.33,1.68-10.49.1-1.47.51-2.01,1.68-2.39,2.14-2.05-.66-4.45-.94-6.99-1.06l1.87.36-.18.23-2.67-.5.09-.09c-4.36-.13-9.15.14-13.63-.14,1.56-.38,3.16-.61,4.74-.35,1.08-.88,1.66-1.22,1.9-1.33-.21-.02-.56-.17-.76-.99.18.04.39,0,.61,0v.02c.36.08.5.02.59-.1.13-.01.24-.03.37-.07l1.42.05h.68c.15.14.23.35.23.66l-.31.24c-.01,1.68,3.83-1.65,5.32-.3l-.34-.62c.21,0,.4-.01.61-.02,3.69.51,3.51.2,7.87.36l-.41-.08c2.25-1.03,5.46.44,7.05-.91.9-.07,1.78-.14,2.68-.23,1.75-.19,3.54-.43,5.33-.71,1.17-.17,2.36-.24,3.55-.26.66.3,1.59.45,3.03.28h-.03c5.56.84,11.77,1.57,18.55,1.66,1.82-.02,3.66,0,5.48-.02,1.82,0,3.65.07,5.52.16.52.02,1.05.07,1.57.11-1.67.15-.84,1.54-2.98,1.33,1.55,1.28,5.59.23,4.45,2.09ZM411.73,228.69l.89.08s.05.08.07.1c-.34-.05-.65-.1-.96-.18ZM415.44,229.94c-2.97.53-2.35-.52-2.59-1.12.89.08,1.75.17,2.63.3l-.04.83ZM418.29,230.21l-1.73-.95c1.09.14,2.16.31,3.25.52.12.08.33.15.53.22-.66.07-1.35.13-2.05.22ZM423.28,232.17l1.19-1.31,1.44,1.3-2.63.02ZM477.11,208.3l-.15-.06c.13-.01.24-.05.38-.09.02.07-.04.14-.22.15ZM509.26,190.39c-1-.06-2.12-.11-3.25-.16-.79-.04-1.57-.11-2.3-.15-.13-.06-.26-.1-.44-.11,2.09.18,4.57-.22,5.99.42ZM500.34,189.69c-.6-.08-1.1-.12-1.41-.1-.08-.03-.15-.06-.2-.09.58-.05,1.13,0,1.62.19ZM525.15,165.68c-.99.21-2.03.39-3.15.22.57-.46,2.02-.17,3.15-.22Z"/>
    </g>
    <path class="cls-4" d="M0,121.36l52.83,46.64s115.69-46.64,379.17-46.64v120.01H0v-120.01Z"/>
    <path class="cls-5" d="M0,140.71l52.83,46.64s115.69-46.64,379.17-46.64v120.01H0v-120.01Z"/>
    <path class="cls-6" d="M0,160.07l52.83,46.64s115.69-46.64,379.17-46.64v120.01H0v-120.01Z"/>
    <path class="cls-1" d="M0,179.42l52.83,46.64s115.69-46.64,379.17-46.64v319.62H0V179.42Z"/>
    <path class="cls-2" d="M0,198.78l52.83,46.64s115.69-46.64,379.17-46.64v319.62H0V198.78Z"/>
  </g>
</svg>