<?xml version="1.0" encoding="UTF-8"?>
<svg id="Layer_1" data-name="Layer 1" xmlns="http://www.w3.org/2000/svg" viewBox="0 0 432 6480">
  <defs>
    <style>
      .cls-1 {
        fill: #000;
      }

      .cls-1, .cls-2, .cls-3, .cls-4 {
        stroke-width: 0px;
      }

      .cls-2 {
        fill: #ff5a85;
      }

      .cls-3 {
        fill: #231f20;
      }

      .cls-4 {
        fill: #ffe600;
      }
    </style>
  </defs>
  <rect class="cls-2" y="1453.16" width="432" height="3978.95"/>
  <path class="cls-2" d="M432,59.79v1768.35l-48.11-60.77s-161.89,124.84-383.41.98v-30.46h-.48V86.4h.48V0l48.1,60.77s175.37-136.01,383.42-.98Z"/>
  <path class="cls-2" d="M432,4711.65v1768.35l-48.11-60.77s-161.89,124.84-383.41.98v-30.46h-.48v-1651.49h.48v-86.4l48.1,60.77s175.37-136.01,383.42-.98Z"/>
  <g>
    <g>
      <g>
        <path class="cls-1" d="M141.09,96.81l-4.44,2.1-9.69-18.92,5.19-2.46,6.9,9.28-1.38-12.22,5.08-2.41,8.95,20.62-5.35,2.34-3.66-9.89.02,6.15-2.04.97-3.28-2.96,3.7,7.4Z"/>
        <path class="cls-1" d="M164.77,83.02l1.35,6.2-11.78,2.95-5.76-21.71,12.83-3.4,1.2,6.54-8.09.21.79,3.05,5.92-2.3,1.25,4.84-6.24,1.06,1.48,5.73,7.05-3.17Z"/>
        <path class="cls-1" d="M180.61,81.14l.4,6.33-12.09,1.13-2.41-22.33,13.19-1.43.19,6.65-8.03-1.01.32,3.14,6.2-1.38.5,4.97-6.33.1.6,5.89,7.45-2.07Z"/>
        <path class="cls-1" d="M184.31,70.53l.21-5.89,13.79.77-.19,5.35-4.11-.65.48,18.03-6.81-.22.86-17.95-4.22.56Z"/>
        <path class="cls-1" d="M214.82,73.43l1.36-5.73,13.37,3.45-1.24,5.21-3.91-1.45-3.06,17.77-6.64-1.55,4.36-17.44-4.25-.28Z"/>
        <path class="cls-1" d="M240.13,84.05l2.8-8.66,5.72,1.85-7.91,20.8-4.87-1.57,3.04-9.4-4.08-1.32-3.15,9.74-4.81-1.56,6.17-21.3,5.92,1.91-2.96,8.2,4.14,1.31Z"/>
        <path class="cls-1" d="M257.9,97.16l-2.16,5.96-11.53-3.79,6.72-21.44,12.66,3.97-2.48,6.17-6.95-4.14-.96,3,6.23,1.22-1.53,4.76-5.84-2.44-1.81,5.64,7.65,1.08Z"/>
        <path class="cls-1" d="M278.17,101.84c-.15.47-.24.91-.27,1.31-.01.35.03.68.14,1.01.11.33.35.57.75.71.54.21,1.04.25,1.51.12.47-.13.79-.36.96-.69.17-.33.15-.75-.06-1.25-.21-.5-.72-1.02-1.51-1.57-.9-.62-1.72-1.19-2.45-1.71-.73-.52-1.33-1.1-1.79-1.73-.46-.63-.77-1.37-.91-2.21s-.07-1.87.2-3.09c.2-.87.51-1.64.92-2.29.42-.66.91-1.21,1.49-1.67.82-.66,1.77-1.09,2.84-1.3,1.08-.21,2.14-.21,3.19,0,1.05.21,2.02.61,2.91,1.21.88.6,1.55,1.38,2.01,2.33.43.92.62,1.99.59,3.2-.04,1.21-.37,2.63-1,4.25l-5.28-1.88c.23-.39.44-.8.63-1.24.19-.44.3-.86.33-1.27.03-.4-.05-.77-.22-1.11-.18-.34-.5-.59-.96-.76-.56-.21-1.06-.2-1.5.05-.44.25-.76.61-.96,1.09-.2.48-.26,1.01-.17,1.59.09.58.38,1.09.87,1.54.26.24.55.46.87.67.31.21.62.43.93.66.68.45,1.32.94,1.93,1.46.61.52,1.11,1.1,1.5,1.74.39.64.63,1.35.73,2.11.1.77-.02,1.62-.36,2.55-.35.97-.88,1.78-1.6,2.41-.72.64-1.52,1.11-2.42,1.43-.89.32-1.82.48-2.79.48-.97,0-1.87-.15-2.71-.47-.97-.35-1.76-.78-2.36-1.3-.6-.51-1.07-1.06-1.4-1.63-.34-.58-.56-1.17-.67-1.77-.11-.61-.15-1.19-.11-1.74.04-.55.13-1.05.27-1.48.14-.43.28-.78.41-1.03l5.51,1.27Z"/>
        <path class="cls-1" d="M300.31,101.3l1.79-8.93,5.89,1.18-5.48,21.57-5.02-1.01,1.94-9.68-4.2-.84-2.01,10.03-4.96-1,3.69-21.87,6.1,1.22-2.01,8.49,4.26.83Z"/>
        <path class="cls-1" d="M309.22,94.11l6.63.71-3.34,21.28-4.61-.5,1.33-21.49Z"/>
        <path class="cls-1" d="M322.06,94.36l5.79,12.83-.66-12.01,5.59-.23-.32,21.4-4.79.1-5.33-10.73,1.62,10.89-6.51.13.27-21.97,4.34-.41Z"/>
        <path class="cls-1" d="M349.14,107.19l1.14,6.24-11.87,2.55-5.02-21.9,12.93-2.97.98,6.58-8.09-.06.68,3.08,6-2.1,1.08,4.88-6.27.85,1.29,5.78,7.15-2.93Z"/>
        <path class="cls-1" d="M361.45,93.11l-7.72,2,1.16,2.71c.71-.35,1.52-.71,2.43-1.1.9-.39,1.82-.64,2.75-.75.93-.12,1.84-.03,2.74.27.89.3,1.69.97,2.39,2,.61.97.98,1.97,1.11,2.99.13,1.02.07,2.04-.18,3.05-.16.63-.41,1.24-.73,1.82-.32.58-.71,1.11-1.15,1.58-.45.47-.96.88-1.53,1.23-.57.35-1.19.62-1.85.79-.88.22-1.8.29-2.76.21-.96-.08-1.95-.4-2.96-.94l2.09-5.03c.78.42,1.5.6,2.14.54.64-.06,1.16-.26,1.55-.61.39-.35.62-.8.68-1.36.06-.56-.09-1.13-.48-1.72-.24-.37-.56-.6-.94-.68-.38-.08-.79-.09-1.23,0-.44.08-.88.22-1.31.41-.43.2-.83.4-1.2.61-.36.21-.77.47-1.21.79l-2.26,1.68-5.38-11,12.99-5.03.85,5.56Z"/>
        <path class="cls-1" d="M371.28,80.48c1.21-.38,2.4-.4,3.58-.03,1.18.36,2.28.96,3.3,1.79,1.03.83,1.94,1.84,2.75,3.03.81,1.19,1.45,2.44,1.92,3.73.47,1.3.75,2.58.84,3.85.08,1.27-.09,2.4-.52,3.4-.25.6-.59,1.16-1,1.66-.41.5-.88.95-1.39,1.33-.52.38-1.08.7-1.69.95-.6.25-1.23.42-1.88.5-1.25.17-2.51-.02-3.77-.58-1.27-.56-2.44-1.35-3.53-2.37-1.08-1.02-2.03-2.2-2.82-3.55-.8-1.35-1.35-2.73-1.64-4.13-.3-1.41-.28-2.77.04-4.1.33-1.33,1.06-2.48,2.2-3.46.54-.45,1.12-.85,1.74-1.2.63-.35,1.25-.62,1.87-.82ZM377.09,94.61c.55-.35.88-.86.97-1.53.1-.67.03-1.38-.2-2.14-.23-.76-.59-1.51-1.07-2.26-.48-.75-1.02-1.39-1.61-1.92-.59-.53-1.2-.9-1.84-1.11-.64-.21-1.22-.15-1.76.19-.54.34-.85.84-.95,1.51-.1.67-.03,1.38.19,2.15.22.76.56,1.53,1.02,2.29.46.77.98,1.42,1.57,1.95.59.53,1.21.9,1.85,1.1.64.21,1.25.13,1.82-.23Z"/>
      </g>
      <g>
        <g>
          <path class="cls-3" d="M140.66,105.91c-1.09,0-2.14-.6-2.67-1.63l-9.69-18.92c-.37-.72-.43-1.56-.17-2.33.26-.77.82-1.4,1.56-1.75l5.19-2.46c.41-.2.85-.29,1.28-.29.92,0,1.83.43,2.41,1.21l.26.35-.13-1.17c-.14-1.27.54-2.5,1.7-3.05l5.08-2.41c.41-.19.84-.29,1.28-.29.36,0,.71.06,1.06.19.76.29,1.37.87,1.7,1.61l8.95,20.62c.66,1.52-.04,3.28-1.55,3.94l-5.35,2.34c-.38.17-.79.25-1.2.25s-.8-.08-1.17-.24c-.43-.18-.81-.46-1.1-.81-.02.24-.07.47-.15.7-.26.76-.82,1.39-1.55,1.73l-4.44,2.1c-.41.2-.85.29-1.28.29Z"/>
          <path class="cls-3" d="M158.34,99.16c-1.33,0-2.54-.89-2.9-2.23l-5.76-21.71c-.42-1.6.53-3.24,2.13-3.67l12.83-3.4c.25-.07.51-.1.77-.1.56,0,1.12.16,1.61.47.71.45,1.19,1.17,1.34,1.99l1.2,6.54c.16.86-.07,1.75-.62,2.43-.09.11-.19.22-.29.31l.74,2.86c.12.48.13.97.02,1.44.25.05.49.14.72.25.81.41,1.39,1.16,1.58,2.04l1.35,6.2c.35,1.58-.63,3.16-2.2,3.55l-11.78,2.95c-.24.06-.49.09-.73.09Z"/>
          <path class="cls-3" d="M172.92,95.6c-1.51,0-2.81-1.14-2.98-2.68l-2.41-22.33c-.18-1.65,1.01-3.13,2.66-3.3l13.19-1.43c.11-.01.22-.02.32-.02.72,0,1.42.26,1.97.74.63.55,1,1.34,1.03,2.17l.19,6.65c.03.88-.33,1.72-.98,2.31-.11.1-.22.18-.33.26l.3,2.94c.05.49-.02.98-.2,1.42.23.09.46.21.67.36.74.52,1.2,1.35,1.26,2.25l.4,6.33c.1,1.62-1.1,3.03-2.71,3.18l-12.09,1.13c-.1,0-.19.01-.28.01Z"/>
          <path class="cls-3" d="M191.57,94.92c-.8-.03-1.56-.37-2.11-.96s-.83-1.38-.79-2.18l.68-14.36-.65.09c-.13.02-.26.03-.4.03-.74,0-1.46-.27-2.02-.78-.65-.59-1.01-1.45-.98-2.33l.21-5.89c.03-.81.38-1.56.98-2.11.55-.51,1.28-.78,2.02-.78.06,0,.11,0,.17,0l13.79.77c1.63.09,2.89,1.47,2.83,3.1l-.19,5.35c-.03.86-.43,1.66-1.09,2.21-.54.44-1.22.68-1.91.68-.16,0-.31-.01-.47-.04l-.55-.09.39,14.42c.02.83-.3,1.62-.88,2.21-.56.56-1.32.87-2.12.87-.03,0-6.91-.22-6.91-.22Z"/>
          <path class="cls-3" d="M225.35,99.69c-.23,0-.46-.03-.68-.08l-6.64-1.55c-.78-.18-1.46-.67-1.88-1.36-.42-.69-.55-1.51-.35-2.29l3.49-13.95-.66-.04c-.88-.06-1.69-.5-2.22-1.21-.52-.71-.71-1.62-.51-2.48l1.36-5.73c.19-.78.68-1.46,1.37-1.88.47-.28,1.01-.43,1.55-.43.25,0,.5.03.75.1l13.37,3.45c1.58.41,2.55,2.01,2.17,3.6l-1.24,5.21c-.2.84-.75,1.55-1.5,1.95-.44.24-.93.35-1.42.35-.35,0-.71-.06-1.04-.19l-.52-.19-2.45,14.21c-.14.81-.61,1.53-1.3,1.99-.5.33-1.07.5-1.66.5Z"/>
          <path class="cls-3" d="M244.73,105.04c-.31,0-.62-.05-.92-.15l-4.87-1.57c-.69-.22-1.27-.69-1.65-1.31-.08.05-.17.1-.25.14-.43.22-.9.33-1.37.33-.31,0-.62-.05-.92-.15l-4.81-1.56c-1.54-.5-2.41-2.13-1.96-3.69l6.17-21.3c.23-.78.76-1.43,1.47-1.82.44-.23.92-.35,1.41-.35.31,0,.62.05.92.15l5.92,1.91c.62.2,1.15.6,1.53,1.12.46-.27.98-.42,1.53-.42.31,0,.62.05.92.15l5.72,1.85c.78.25,1.43.82,1.78,1.56.36.74.39,1.6.1,2.36l-7.91,20.8c-.45,1.19-1.59,1.93-2.8,1.93Z"/>
          <path class="cls-3" d="M259.74,110.12c-.31,0-.63-.05-.94-.15l-11.53-3.79c-1.56-.51-2.42-2.18-1.93-3.75l6.72-21.44c.4-1.28,1.59-2.1,2.86-2.1.3,0,.6.04.9.14l12.66,3.97c.8.25,1.46.82,1.81,1.58s.38,1.63.07,2.4l-2.48,6.17c-.33.81-.99,1.44-1.82,1.72-.14.05-.27.08-.41.11l-.9,2.81c-.15.47-.41.89-.75,1.22.18.18.34.38.47.6.47.77.56,1.72.25,2.57l-2.16,5.96c-.44,1.22-1.59,1.98-2.82,1.98Z"/>
          <path class="cls-3" d="M283.21,117c-1.32,0-2.58-.22-3.74-.65-1.28-.46-2.39-1.08-3.27-1.83-.85-.73-1.54-1.54-2.04-2.4-.51-.87-.86-1.8-1.03-2.74-.16-.85-.21-1.69-.15-2.49.06-.79.19-1.53.41-2.19.19-.6.39-1.09.6-1.5.4-.78,1.11-1.31,1.91-1.52-.14-.43-.25-.87-.33-1.33-.21-1.23-.13-2.62.23-4.24.27-1.21.72-2.3,1.32-3.24.59-.94,1.32-1.75,2.16-2.42,1.18-.95,2.58-1.59,4.13-1.9.73-.14,1.46-.21,2.18-.21s1.45.07,2.16.21c1.45.29,2.8.85,4.02,1.68,1.32.9,2.33,2.08,3.02,3.5.64,1.39.93,2.92.89,4.6-.05,1.58-.44,3.29-1.2,5.25-.28.73-.82,1.29-1.48,1.61.16.51.28,1.03.35,1.57.16,1.24-.02,2.57-.52,3.95-.52,1.44-1.34,2.67-2.44,3.64-1,.88-2.14,1.56-3.38,2.01-1.21.44-2.49.66-3.8.66h-.02ZM284.89,107.37s0,0,0,0h0Z"/>
          <path class="cls-3" d="M306.52,122.12c-.2,0-.39-.02-.59-.06l-5.02-1.01c-.74-.15-1.36-.56-1.79-1.11-.07.06-.15.12-.23.17-.5.33-1.08.5-1.66.5-.2,0-.39-.02-.59-.06l-4.96-1c-1.59-.32-2.64-1.84-2.37-3.44l3.69-21.87c.13-.8.59-1.51,1.26-1.97.5-.35,1.1-.53,1.7-.53.2,0,.39.02.59.06l6.1,1.22c.64.13,1.21.46,1.64.94.51-.39,1.14-.61,1.81-.61.2,0,.39.02.59.06l5.89,1.18c.81.16,1.51.65,1.95,1.34.44.7.57,1.54.37,2.34l-5.48,21.57c-.34,1.35-1.56,2.26-2.91,2.26Z"/>
          <path class="cls-3" d="M316.52,123.1c-.11,0-.22,0-.32-.02l-4.61-.5c-1.59-.17-2.77-1.57-2.67-3.17l1.33-21.49c.05-.82.43-1.58,1.06-2.11.54-.46,1.23-.71,1.93-.71.11,0,.21,0,.32.02l6.63.71c.82.09,1.56.51,2.06,1.16.5.65.71,1.48.58,2.29l-3.34,21.28c-.23,1.47-1.5,2.54-2.96,2.54Z"/>
          <path class="cls-3" d="M321.45,123.74c-.79,0-1.55-.31-2.11-.87-.58-.57-.9-1.35-.89-2.17l.27-21.97c.02-1.53,1.19-2.8,2.71-2.95l4.34-.41c.1,0,.19-.01.29-.01,1.17,0,2.25.68,2.73,1.77l.07.16s.07-.08.11-.12c.54-.59,1.29-.95,2.1-.98,0,0,5.67-.23,5.71-.23.78,0,1.53.3,2.09.85.59.58.92,1.37.91,2.19l-.32,21.4c-.02,1.62-1.32,2.92-2.94,2.96,0,0-4.83.1-4.85.1-.64,0-1.25-.2-1.75-.57-.53.45-1.2.72-1.9.73,0,0-6.55.13-6.57.13Z"/>
          <path class="cls-3" d="M342.41,122.97c-1.37,0-2.6-.94-2.92-2.33l-5.02-21.9c-.37-1.61.64-3.22,2.25-3.59l12.93-2.97c.22-.05.45-.08.67-.08.6,0,1.19.18,1.69.52.69.47,1.15,1.21,1.28,2.04l.98,6.58c.13.87-.13,1.75-.7,2.41-.09.11-.19.21-.3.3l.64,2.88c.11.48.09.97-.03,1.44.24.06.48.15.71.28.79.43,1.35,1.2,1.51,2.09l1.14,6.24c.29,1.59-.74,3.13-2.32,3.47l-11.87,2.55c-.21.05-.42.07-.63.07Z"/>
          <path class="cls-3" d="M362.9,116.94c-.35,0-.69-.02-1.05-.05-1.36-.12-2.75-.55-4.11-1.28-1.36-.73-1.94-2.37-1.35-3.79l.51-1.23c-.21,0-.42-.03-.62-.08-.87-.21-1.59-.8-1.99-1.6l-5.38-11c-.37-.75-.4-1.63-.1-2.41.31-.78.93-1.4,1.71-1.7l12.99-5.03c.35-.14.72-.2,1.08-.2.52,0,1.04.14,1.5.4.79.46,1.33,1.24,1.46,2.14l.85,5.56c.05.34.04.67-.01.99,1.26.57,2.36,1.55,3.28,2.91.02.03.04.06.06.09.84,1.33,1.36,2.74,1.55,4.19.18,1.4.1,2.8-.25,4.18-.23.89-.57,1.74-1.02,2.54-.44.8-.98,1.53-1.6,2.18-.62.65-1.34,1.24-2.13,1.72-.82.51-1.71.89-2.66,1.14-.9.23-1.81.34-2.74.34Z"/>
          <path class="cls-3" d="M380.29,107.76c-1.37,0-2.75-.3-4.1-.9-1.57-.7-3.04-1.68-4.36-2.93-1.28-1.21-2.41-2.62-3.35-4.21-.96-1.62-1.64-3.32-2-5.04-.39-1.84-.37-3.67.06-5.43.48-1.95,1.54-3.64,3.17-5.02.69-.59,1.44-1.1,2.24-1.54.79-.44,1.59-.79,2.39-1.05.94-.3,1.87-.45,2.79-.45s1.75.13,2.61.4c1.54.48,2.99,1.26,4.31,2.33,1.25,1.01,2.38,2.25,3.34,3.68.94,1.39,1.7,2.86,2.25,4.38.57,1.56.91,3.13,1.01,4.68.11,1.75-.14,3.36-.76,4.79-.35.83-.83,1.64-1.42,2.37-.57.7-1.22,1.32-1.94,1.85-.71.53-1.49.97-2.32,1.31-.85.35-1.75.59-2.66.7-.38.05-.82.08-1.26.08Z"/>
        </g>
        <g>
          <path class="cls-3" d="M139.66,104.91c-1.09,0-2.14-.6-2.67-1.63l-9.69-18.92c-.37-.72-.43-1.56-.17-2.33.26-.77.82-1.4,1.56-1.75l5.19-2.46c.41-.2.85-.29,1.28-.29.92,0,1.83.43,2.41,1.21l.26.35-.13-1.17c-.14-1.27.54-2.5,1.7-3.05l5.08-2.41c.41-.19.84-.29,1.28-.29.36,0,.71.06,1.06.19.76.29,1.37.87,1.7,1.61l8.95,20.62c.66,1.52-.04,3.28-1.55,3.94l-5.35,2.34c-.38.17-.79.25-1.2.25s-.8-.08-1.17-.24c-.43-.18-.81-.46-1.1-.81-.02.24-.07.47-.15.7-.26.76-.82,1.39-1.55,1.73l-4.44,2.1c-.41.2-.85.29-1.28.29Z"/>
          <path class="cls-3" d="M157.34,98.16c-1.33,0-2.54-.89-2.9-2.23l-5.76-21.71c-.42-1.6.53-3.24,2.13-3.67l12.83-3.4c.25-.07.51-.1.77-.1.56,0,1.12.16,1.61.47.71.45,1.19,1.17,1.34,1.99l1.2,6.54c.16.86-.07,1.75-.62,2.43-.09.11-.19.22-.29.31l.74,2.86c.12.48.13.97.02,1.44.25.05.49.14.72.25.81.41,1.39,1.16,1.58,2.04l1.35,6.2c.35,1.58-.63,3.16-2.2,3.55l-11.78,2.95c-.24.06-.49.09-.73.09Z"/>
          <path class="cls-3" d="M171.92,94.6c-1.51,0-2.81-1.14-2.98-2.68l-2.41-22.33c-.18-1.65,1.01-3.13,2.66-3.3l13.19-1.43c.11-.01.22-.02.32-.02.72,0,1.42.26,1.97.74.63.55,1,1.34,1.03,2.17l.19,6.65c.03.88-.33,1.72-.98,2.31-.11.1-.22.18-.33.26l.3,2.94c.05.49-.02.98-.2,1.42.23.09.46.21.67.36.74.52,1.2,1.35,1.26,2.25l.4,6.33c.1,1.62-1.1,3.03-2.71,3.18l-12.09,1.13c-.1,0-.19.01-.28.01Z"/>
          <path class="cls-3" d="M190.57,93.92c-.8-.03-1.56-.37-2.11-.96s-.83-1.38-.79-2.18l.68-14.36-.65.09c-.13.02-.26.03-.4.03-.74,0-1.46-.27-2.02-.78-.65-.59-1.01-1.45-.98-2.33l.21-5.89c.03-.81.38-1.56.98-2.11.55-.51,1.28-.78,2.02-.78.06,0,.11,0,.17,0l13.79.77c1.63.09,2.89,1.47,2.83,3.1l-.19,5.35c-.03.86-.43,1.66-1.09,2.21-.54.44-1.22.68-1.91.68-.16,0-.31-.01-.47-.04l-.55-.09.39,14.42c.02.83-.3,1.62-.88,2.21-.56.56-1.32.87-2.12.87-.03,0-6.91-.22-6.91-.22Z"/>
          <path class="cls-3" d="M224.35,98.69c-.23,0-.46-.03-.68-.08l-6.64-1.55c-.78-.18-1.46-.67-1.88-1.36-.42-.69-.55-1.51-.35-2.29l3.49-13.95-.66-.04c-.88-.06-1.69-.5-2.22-1.21-.52-.71-.71-1.62-.51-2.48l1.36-5.73c.19-.78.68-1.46,1.37-1.88.47-.28,1.01-.43,1.55-.43.25,0,.5.03.75.1l13.37,3.45c1.58.41,2.55,2.01,2.17,3.6l-1.24,5.21c-.2.84-.75,1.55-1.5,1.95-.44.24-.93.35-1.42.35-.35,0-.71-.06-1.04-.19l-.52-.19-2.45,14.21c-.14.81-.61,1.53-1.3,1.99-.5.33-1.07.5-1.66.5Z"/>
          <path class="cls-3" d="M243.73,104.04c-.31,0-.62-.05-.92-.15l-4.87-1.57c-.69-.22-1.27-.69-1.65-1.31-.08.05-.17.1-.25.14-.43.22-.9.33-1.37.33-.31,0-.62-.05-.92-.15l-4.81-1.56c-1.54-.5-2.41-2.13-1.96-3.69l6.17-21.3c.23-.78.76-1.43,1.47-1.82.44-.23.92-.35,1.41-.35.31,0,.62.05.92.15l5.92,1.91c.62.2,1.15.6,1.53,1.12.46-.27.98-.42,1.53-.42.31,0,.62.05.92.15l5.72,1.85c.78.25,1.43.82,1.78,1.56.36.74.39,1.6.1,2.36l-7.91,20.8c-.45,1.19-1.59,1.93-2.8,1.93Z"/>
          <path class="cls-3" d="M258.74,109.12c-.31,0-.63-.05-.94-.15l-11.53-3.79c-1.56-.51-2.42-2.18-1.93-3.75l6.72-21.44c.4-1.28,1.59-2.1,2.86-2.1.3,0,.6.04.9.14l12.66,3.97c.8.25,1.46.82,1.81,1.58s.38,1.63.07,2.4l-2.48,6.17c-.33.81-.99,1.44-1.82,1.72-.14.05-.27.08-.41.11l-.9,2.81c-.15.47-.41.89-.75,1.22.18.18.34.38.47.6.47.77.56,1.72.25,2.57l-2.16,5.96c-.44,1.22-1.59,1.98-2.82,1.98Z"/>
          <path class="cls-3" d="M282.21,116c-1.32,0-2.58-.22-3.74-.65-1.28-.46-2.39-1.08-3.27-1.83-.85-.73-1.54-1.54-2.04-2.4-.51-.87-.86-1.8-1.03-2.74-.16-.85-.21-1.69-.15-2.49.06-.79.19-1.53.41-2.19.19-.6.39-1.09.6-1.5.4-.78,1.11-1.31,1.91-1.52-.14-.43-.25-.87-.33-1.33-.21-1.23-.13-2.62.23-4.24.27-1.21.72-2.3,1.32-3.24.59-.94,1.32-1.75,2.16-2.42,1.18-.95,2.58-1.59,4.13-1.9.73-.14,1.46-.21,2.18-.21s1.45.07,2.16.21c1.45.29,2.8.85,4.02,1.68,1.32.9,2.33,2.08,3.02,3.5.64,1.39.93,2.92.89,4.6-.05,1.58-.44,3.29-1.2,5.25-.28.73-.82,1.29-1.48,1.61.16.51.28,1.03.35,1.57.16,1.24-.02,2.57-.52,3.95-.52,1.44-1.34,2.67-2.44,3.64-1,.88-2.14,1.56-3.38,2.01-1.21.44-2.49.66-3.8.66h-.02ZM283.89,106.37s0,0,0,0h0Z"/>
          <path class="cls-3" d="M305.52,121.12c-.2,0-.39-.02-.59-.06l-5.02-1.01c-.74-.15-1.36-.56-1.79-1.11-.07.06-.15.12-.23.17-.5.33-1.08.5-1.66.5-.2,0-.39-.02-.59-.06l-4.96-1c-1.59-.32-2.64-1.84-2.37-3.44l3.69-21.87c.13-.8.59-1.51,1.26-1.97.5-.35,1.1-.53,1.7-.53.2,0,.39.02.59.06l6.1,1.22c.64.13,1.21.46,1.64.94.51-.39,1.14-.61,1.81-.61.2,0,.39.02.59.06l5.89,1.18c.81.16,1.51.65,1.95,1.34.44.7.57,1.54.37,2.34l-5.48,21.57c-.34,1.35-1.56,2.26-2.91,2.26Z"/>
          <path class="cls-3" d="M315.52,122.1c-.11,0-.22,0-.32-.02l-4.61-.5c-1.59-.17-2.77-1.57-2.67-3.17l1.33-21.49c.05-.82.43-1.58,1.06-2.11.54-.46,1.23-.71,1.93-.71.11,0,.21,0,.32.02l6.63.71c.82.09,1.56.51,2.06,1.16.5.65.71,1.48.58,2.29l-3.34,21.28c-.23,1.47-1.5,2.54-2.96,2.54Z"/>
          <path class="cls-3" d="M320.45,122.74c-.79,0-1.55-.31-2.11-.87-.58-.57-.9-1.35-.89-2.17l.27-21.97c.02-1.53,1.19-2.8,2.71-2.95l4.34-.41c.1,0,.19-.01.29-.01,1.17,0,2.25.68,2.73,1.77l.07.16s.07-.08.11-.12c.54-.59,1.29-.95,2.1-.98,0,0,5.67-.23,5.71-.23.78,0,1.53.3,2.09.85.59.58.92,1.37.91,2.19l-.32,21.4c-.02,1.62-1.32,2.92-2.94,2.96,0,0-4.83.1-4.85.1-.64,0-1.25-.2-1.75-.57-.53.45-1.2.72-1.9.73,0,0-6.55.13-6.57.13Z"/>
          <path class="cls-3" d="M341.41,121.97c-1.37,0-2.6-.94-2.92-2.33l-5.02-21.9c-.37-1.61.64-3.22,2.25-3.59l12.93-2.97c.22-.05.45-.08.67-.08.6,0,1.19.18,1.69.52.69.47,1.15,1.21,1.28,2.04l.98,6.58c.13.87-.13,1.75-.7,2.41-.09.11-.19.21-.3.3l.64,2.88c.11.48.09.97-.03,1.44.24.06.48.15.71.28.79.43,1.35,1.2,1.51,2.09l1.14,6.24c.29,1.59-.74,3.13-2.32,3.47l-11.87,2.55c-.21.05-.42.07-.63.07Z"/>
          <path class="cls-3" d="M361.9,115.94c-.35,0-.69-.02-1.05-.05-1.36-.12-2.75-.55-4.11-1.28-1.36-.73-1.94-2.37-1.35-3.79l.51-1.23c-.21,0-.42-.03-.62-.08-.87-.21-1.59-.8-1.99-1.6l-5.38-11c-.37-.75-.4-1.63-.1-2.41.31-.78.93-1.4,1.71-1.7l12.99-5.03c.35-.14.72-.2,1.08-.2.52,0,1.04.14,1.5.4.79.46,1.33,1.24,1.46,2.14l.85,5.56c.05.34.04.67-.01.99,1.26.57,2.36,1.55,3.28,2.91.02.03.04.06.06.09.84,1.33,1.36,2.74,1.55,4.19.18,1.4.1,2.8-.25,4.18-.23.89-.57,1.74-1.02,2.54-.44.8-.98,1.53-1.6,2.18-.62.65-1.34,1.24-2.13,1.72-.82.51-1.71.89-2.66,1.14-.9.23-1.81.34-2.74.34Z"/>
          <path class="cls-3" d="M379.29,106.76c-1.37,0-2.75-.3-4.1-.9-1.57-.7-3.04-1.68-4.36-2.93-1.28-1.21-2.41-2.62-3.35-4.21-.96-1.62-1.64-3.32-2-5.04-.39-1.84-.37-3.67.06-5.43.48-1.95,1.54-3.64,3.17-5.02.69-.59,1.44-1.1,2.24-1.54.79-.44,1.59-.79,2.39-1.05.94-.3,1.87-.45,2.79-.45s1.75.13,2.61.4c1.54.48,2.99,1.26,4.31,2.33,1.25,1.01,2.38,2.25,3.34,3.68.94,1.39,1.7,2.86,2.25,4.38.57,1.56.91,3.13,1.01,4.68.11,1.75-.14,3.36-.76,4.79-.35.83-.83,1.64-1.42,2.37-.57.7-1.22,1.32-1.94,1.85-.71.53-1.49.97-2.32,1.31-.85.35-1.75.59-2.66.7-.38.05-.82.08-1.26.08Z"/>
        </g>
        <g>
          <path class="cls-3" d="M138.66,103.91c-1.09,0-2.14-.6-2.67-1.63l-9.69-18.92c-.37-.72-.43-1.56-.17-2.33.26-.77.82-1.4,1.56-1.75l5.19-2.46c.41-.2.85-.29,1.28-.29.92,0,1.83.43,2.41,1.21l.26.35-.13-1.17c-.14-1.27.54-2.5,1.7-3.05l5.08-2.41c.41-.19.84-.29,1.28-.29.36,0,.71.06,1.06.19.76.29,1.37.87,1.7,1.61l8.95,20.62c.66,1.52-.04,3.28-1.55,3.94l-5.35,2.34c-.38.17-.79.25-1.2.25s-.8-.08-1.17-.24c-.43-.18-.81-.46-1.1-.81-.02.24-.07.47-.15.7-.26.76-.82,1.39-1.55,1.73l-4.44,2.1c-.41.2-.85.29-1.28.29Z"/>
          <path class="cls-3" d="M156.34,97.16c-1.33,0-2.54-.89-2.9-2.23l-5.76-21.71c-.42-1.6.53-3.24,2.13-3.67l12.83-3.4c.25-.07.51-.1.77-.1.56,0,1.12.16,1.61.47.71.45,1.19,1.17,1.34,1.99l1.2,6.54c.16.86-.07,1.75-.62,2.43-.09.11-.19.22-.29.31l.74,2.86c.12.48.13.97.02,1.44.25.05.49.14.72.25.81.41,1.39,1.16,1.58,2.04l1.35,6.2c.35,1.58-.63,3.16-2.2,3.55l-11.78,2.95c-.24.06-.49.09-.73.09Z"/>
          <path class="cls-3" d="M170.92,93.6c-1.51,0-2.81-1.14-2.98-2.68l-2.41-22.33c-.18-1.65,1.01-3.13,2.66-3.3l13.19-1.43c.11-.01.22-.02.32-.02.72,0,1.42.26,1.97.74.63.55,1,1.34,1.03,2.17l.19,6.65c.03.88-.33,1.72-.98,2.31-.11.1-.22.18-.33.26l.3,2.94c.05.49-.02.98-.2,1.42.23.09.46.21.67.36.74.52,1.2,1.35,1.26,2.25l.4,6.33c.1,1.62-1.1,3.03-2.71,3.18l-12.09,1.13c-.1,0-.19.01-.28.01Z"/>
          <path class="cls-3" d="M189.57,92.92c-.8-.03-1.56-.37-2.11-.96s-.83-1.38-.79-2.18l.68-14.36-.65.09c-.13.02-.26.03-.4.03-.74,0-1.46-.27-2.02-.78-.65-.59-1.01-1.45-.98-2.33l.21-5.89c.03-.81.38-1.56.98-2.11.55-.51,1.28-.78,2.02-.78.06,0,.11,0,.17,0l13.79.77c1.63.09,2.89,1.47,2.83,3.1l-.19,5.35c-.03.86-.43,1.66-1.09,2.21-.54.44-1.22.68-1.91.68-.16,0-.31-.01-.47-.04l-.55-.09.39,14.42c.02.83-.3,1.62-.88,2.21-.56.56-1.32.87-2.12.87-.03,0-6.91-.22-6.91-.22Z"/>
          <path class="cls-3" d="M223.35,97.69c-.23,0-.46-.03-.68-.08l-6.64-1.55c-.78-.18-1.46-.67-1.88-1.36-.42-.69-.55-1.51-.35-2.29l3.49-13.95-.66-.04c-.88-.06-1.69-.5-2.22-1.21-.52-.71-.71-1.62-.51-2.48l1.36-5.73c.19-.78.68-1.46,1.37-1.88.47-.28,1.01-.43,1.55-.43.25,0,.5.03.75.1l13.37,3.45c1.58.41,2.55,2.01,2.17,3.6l-1.24,5.21c-.2.84-.75,1.55-1.5,1.95-.44.24-.93.35-1.42.35-.35,0-.71-.06-1.04-.19l-.52-.19-2.45,14.21c-.14.81-.61,1.53-1.3,1.99-.5.33-1.07.5-1.66.5Z"/>
          <path class="cls-3" d="M242.73,103.04c-.31,0-.62-.05-.92-.15l-4.87-1.57c-.69-.22-1.27-.69-1.65-1.31-.08.05-.17.1-.25.14-.43.22-.9.33-1.37.33-.31,0-.62-.05-.92-.15l-4.81-1.56c-1.54-.5-2.41-2.13-1.96-3.69l6.17-21.3c.23-.78.76-1.43,1.47-1.82.44-.23.92-.35,1.41-.35.31,0,.62.05.92.15l5.92,1.91c.62.2,1.15.6,1.53,1.12.46-.27.98-.42,1.53-.42.31,0,.62.05.92.15l5.72,1.85c.78.25,1.43.82,1.78,1.56.36.74.39,1.6.1,2.36l-7.91,20.8c-.45,1.19-1.59,1.93-2.8,1.93Z"/>
          <path class="cls-3" d="M257.74,108.12c-.31,0-.63-.05-.94-.15l-11.53-3.79c-1.56-.51-2.42-2.18-1.93-3.75l6.72-21.44c.4-1.28,1.59-2.1,2.86-2.1.3,0,.6.04.9.14l12.66,3.97c.8.25,1.46.82,1.81,1.58s.38,1.63.07,2.4l-2.48,6.17c-.33.81-.99,1.44-1.82,1.72-.14.05-.27.08-.41.11l-.9,2.81c-.15.47-.41.89-.75,1.22.18.18.34.38.47.6.47.77.56,1.72.25,2.57l-2.16,5.96c-.44,1.22-1.59,1.98-2.82,1.98Z"/>
          <path class="cls-3" d="M281.21,115c-1.32,0-2.58-.22-3.74-.65-1.28-.46-2.39-1.08-3.27-1.83-.85-.73-1.54-1.54-2.04-2.4-.51-.87-.86-1.8-1.03-2.74-.16-.85-.21-1.69-.15-2.49.06-.79.19-1.53.41-2.19.19-.6.39-1.09.6-1.5.4-.78,1.11-1.31,1.91-1.52-.14-.43-.25-.87-.33-1.33-.21-1.23-.13-2.62.23-4.24.27-1.21.72-2.3,1.32-3.24.59-.94,1.32-1.75,2.16-2.42,1.18-.95,2.58-1.59,4.13-1.9.73-.14,1.46-.21,2.18-.21s1.45.07,2.16.21c1.45.29,2.8.85,4.02,1.68,1.32.9,2.33,2.08,3.02,3.5.64,1.39.93,2.92.89,4.6-.05,1.58-.44,3.29-1.2,5.25-.28.73-.82,1.29-1.48,1.61.16.51.28,1.03.35,1.57.16,1.24-.02,2.57-.52,3.95-.52,1.44-1.34,2.67-2.44,3.64-1,.88-2.14,1.56-3.38,2.01-1.21.44-2.49.66-3.8.66h-.02ZM282.89,105.37s0,0,0,0h0Z"/>
          <path class="cls-3" d="M304.52,120.12c-.2,0-.39-.02-.59-.06l-5.02-1.01c-.74-.15-1.36-.56-1.79-1.11-.07.06-.15.12-.23.17-.5.33-1.08.5-1.66.5-.2,0-.39-.02-.59-.06l-4.96-1c-1.59-.32-2.64-1.84-2.37-3.44l3.69-21.87c.13-.8.59-1.51,1.26-1.97.5-.35,1.1-.53,1.7-.53.2,0,.39.02.59.06l6.1,1.22c.64.13,1.21.46,1.64.94.51-.39,1.14-.61,1.81-.61.2,0,.39.02.59.06l5.89,1.18c.81.16,1.51.65,1.95,1.34.44.7.57,1.54.37,2.34l-5.48,21.57c-.34,1.35-1.56,2.26-2.91,2.26Z"/>
          <path class="cls-3" d="M314.52,121.1c-.11,0-.22,0-.32-.02l-4.61-.5c-1.59-.17-2.77-1.57-2.67-3.17l1.33-21.49c.05-.82.43-1.58,1.06-2.11.54-.46,1.23-.71,1.93-.71.11,0,.21,0,.32.02l6.63.71c.82.09,1.56.51,2.06,1.16.5.65.71,1.48.58,2.29l-3.34,21.28c-.23,1.47-1.5,2.54-2.96,2.54Z"/>
          <path class="cls-3" d="M319.45,121.74c-.79,0-1.55-.31-2.11-.87-.58-.57-.9-1.35-.89-2.17l.27-21.97c.02-1.53,1.19-2.8,2.71-2.95l4.34-.41c.1,0,.19-.01.29-.01,1.17,0,2.25.68,2.73,1.77l.07.16s.07-.08.11-.12c.54-.59,1.29-.95,2.1-.98,0,0,5.67-.23,5.71-.23.78,0,1.53.3,2.09.85.59.58.92,1.37.91,2.19l-.32,21.4c-.02,1.62-1.32,2.92-2.94,2.96,0,0-4.83.1-4.85.1-.64,0-1.25-.2-1.75-.57-.53.45-1.2.72-1.9.73,0,0-6.55.13-6.57.13Z"/>
          <path class="cls-3" d="M340.41,120.97c-1.37,0-2.6-.94-2.92-2.33l-5.02-21.9c-.37-1.61.64-3.22,2.25-3.59l12.93-2.97c.22-.05.45-.08.67-.08.6,0,1.19.18,1.69.52.69.47,1.15,1.21,1.28,2.04l.98,6.58c.13.87-.13,1.75-.7,2.41-.09.11-.19.21-.3.3l.64,2.88c.11.48.09.97-.03,1.44.24.06.48.15.71.28.79.43,1.35,1.2,1.51,2.09l1.14,6.24c.29,1.59-.74,3.13-2.32,3.47l-11.87,2.55c-.21.05-.42.07-.63.07Z"/>
          <path class="cls-3" d="M360.9,114.94c-.35,0-.69-.02-1.05-.05-1.36-.12-2.75-.55-4.11-1.28-1.36-.73-1.94-2.37-1.35-3.79l.51-1.23c-.21,0-.42-.03-.62-.08-.87-.21-1.59-.8-1.99-1.6l-5.38-11c-.37-.75-.4-1.63-.1-2.41.31-.78.93-1.4,1.71-1.7l12.99-5.03c.35-.14.72-.2,1.08-.2.52,0,1.04.14,1.5.4.79.46,1.33,1.24,1.46,2.14l.85,5.56c.05.34.04.67-.01.99,1.26.57,2.36,1.55,3.28,2.91.02.03.04.06.06.09.84,1.33,1.36,2.74,1.55,4.19.18,1.4.1,2.8-.25,4.18-.23.89-.57,1.74-1.02,2.54-.44.8-.98,1.53-1.6,2.18-.62.65-1.34,1.24-2.13,1.72-.82.51-1.71.89-2.66,1.14-.9.23-1.81.34-2.74.34Z"/>
          <path class="cls-3" d="M378.29,105.76c-1.37,0-2.75-.3-4.1-.9-1.57-.7-3.04-1.68-4.36-2.93-1.28-1.21-2.41-2.62-3.35-4.21-.96-1.62-1.64-3.32-2-5.04-.39-1.84-.37-3.67.06-5.43.48-1.95,1.54-3.64,3.17-5.02.69-.59,1.44-1.1,2.24-1.54.79-.44,1.59-.79,2.39-1.05.94-.3,1.87-.45,2.79-.45s1.75.13,2.61.4c1.54.48,2.99,1.26,4.31,2.33,1.25,1.01,2.38,2.25,3.34,3.68.94,1.39,1.7,2.86,2.25,4.38.57,1.56.91,3.13,1.01,4.68.11,1.75-.14,3.36-.76,4.79-.35.83-.83,1.64-1.42,2.37-.57.7-1.22,1.32-1.94,1.85-.71.53-1.49.97-2.32,1.31-.85.35-1.75.59-2.66.7-.38.05-.82.08-1.26.08Z"/>
        </g>
        <g>
          <path class="cls-3" d="M137.66,102.91c-1.09,0-2.14-.6-2.67-1.63l-9.69-18.92c-.37-.72-.43-1.56-.17-2.33.26-.77.82-1.4,1.56-1.75l5.19-2.46c.41-.2.85-.29,1.28-.29.92,0,1.83.43,2.41,1.21l.26.35-.13-1.17c-.14-1.27.54-2.5,1.7-3.05l5.08-2.41c.41-.19.84-.29,1.28-.29.36,0,.71.06,1.06.19.76.29,1.37.87,1.7,1.61l8.95,20.62c.66,1.52-.04,3.28-1.55,3.94l-5.35,2.34c-.38.17-.79.25-1.2.25s-.8-.08-1.17-.24c-.43-.18-.81-.46-1.1-.81-.02.24-.07.47-.15.7-.26.76-.82,1.39-1.55,1.73l-4.44,2.1c-.41.2-.85.29-1.28.29Z"/>
          <path class="cls-3" d="M155.34,96.16c-1.33,0-2.54-.89-2.9-2.23l-5.76-21.71c-.42-1.6.53-3.24,2.13-3.67l12.83-3.4c.25-.07.51-.1.77-.1.56,0,1.12.16,1.61.47.71.45,1.19,1.17,1.34,1.99l1.2,6.54c.16.86-.07,1.75-.62,2.43-.09.11-.19.22-.29.31l.74,2.86c.12.48.13.97.02,1.44.25.05.49.14.72.25.81.41,1.39,1.16,1.58,2.04l1.35,6.2c.35,1.58-.63,3.16-2.2,3.55l-11.78,2.95c-.24.06-.49.09-.73.09Z"/>
          <path class="cls-3" d="M169.92,92.6c-1.51,0-2.81-1.14-2.98-2.68l-2.41-22.33c-.18-1.65,1.01-3.13,2.66-3.3l13.19-1.43c.11-.01.22-.02.32-.02.72,0,1.42.26,1.97.74.63.55,1,1.34,1.03,2.17l.19,6.65c.03.88-.33,1.72-.98,2.31-.11.1-.22.18-.33.26l.3,2.94c.05.49-.02.98-.2,1.42.23.09.46.21.67.36.74.52,1.2,1.35,1.26,2.25l.4,6.33c.1,1.62-1.1,3.03-2.71,3.18l-12.09,1.13c-.1,0-.19.01-.28.01Z"/>
          <path class="cls-3" d="M188.57,91.92c-.8-.03-1.56-.37-2.11-.96s-.83-1.38-.79-2.18l.68-14.36-.65.09c-.13.02-.26.03-.4.03-.74,0-1.46-.27-2.02-.78-.65-.59-1.01-1.45-.98-2.33l.21-5.89c.03-.81.38-1.56.98-2.11.55-.51,1.28-.78,2.02-.78.06,0,.11,0,.17,0l13.79.77c1.63.09,2.89,1.47,2.83,3.1l-.19,5.35c-.03.86-.43,1.66-1.09,2.21-.54.44-1.22.68-1.91.68-.16,0-.31-.01-.47-.04l-.55-.09.39,14.42c.02.83-.3,1.62-.88,2.21-.56.56-1.32.87-2.12.87-.03,0-6.91-.22-6.91-.22Z"/>
          <path class="cls-3" d="M222.35,96.69c-.23,0-.46-.03-.68-.08l-6.64-1.55c-.78-.18-1.46-.67-1.88-1.36-.42-.69-.55-1.51-.35-2.29l3.49-13.95-.66-.04c-.88-.06-1.69-.5-2.22-1.21-.52-.71-.71-1.62-.51-2.48l1.36-5.73c.19-.78.68-1.46,1.37-1.88.47-.28,1.01-.43,1.55-.43.25,0,.5.03.75.1l13.37,3.45c1.58.41,2.55,2.01,2.17,3.6l-1.24,5.21c-.2.84-.75,1.55-1.5,1.95-.44.24-.93.35-1.42.35-.35,0-.71-.06-1.04-.19l-.52-.19-2.45,14.21c-.14.81-.61,1.53-1.3,1.99-.5.33-1.07.5-1.66.5Z"/>
          <path class="cls-3" d="M241.73,102.04c-.31,0-.62-.05-.92-.15l-4.87-1.57c-.69-.22-1.27-.69-1.65-1.31-.08.05-.17.1-.25.14-.43.22-.9.33-1.37.33-.31,0-.62-.05-.92-.15l-4.81-1.56c-1.54-.5-2.41-2.13-1.96-3.69l6.17-21.3c.23-.78.76-1.43,1.47-1.82.44-.23.92-.35,1.41-.35.31,0,.62.05.92.15l5.92,1.91c.62.2,1.15.6,1.53,1.12.46-.27.98-.42,1.53-.42.31,0,.62.05.92.15l5.72,1.85c.78.25,1.43.82,1.78,1.56.36.74.39,1.6.1,2.36l-7.91,20.8c-.45,1.19-1.59,1.93-2.8,1.93Z"/>
          <path class="cls-3" d="M256.74,107.12c-.31,0-.63-.05-.94-.15l-11.53-3.79c-1.56-.51-2.42-2.18-1.93-3.75l6.72-21.44c.4-1.28,1.59-2.1,2.86-2.1.3,0,.6.04.9.14l12.66,3.97c.8.25,1.46.82,1.81,1.58s.38,1.63.07,2.4l-2.48,6.17c-.33.81-.99,1.44-1.82,1.72-.14.05-.27.08-.41.11l-.9,2.81c-.15.47-.41.89-.75,1.22.18.18.34.38.47.6.47.77.56,1.72.25,2.57l-2.16,5.96c-.44,1.22-1.59,1.98-2.82,1.98Z"/>
          <path class="cls-3" d="M280.21,114c-1.32,0-2.58-.22-3.74-.65-1.28-.46-2.39-1.08-3.27-1.83-.85-.73-1.54-1.54-2.04-2.4-.51-.87-.86-1.8-1.03-2.74-.16-.85-.21-1.69-.15-2.49.06-.79.19-1.53.41-2.19.19-.6.39-1.09.6-1.5.4-.78,1.11-1.31,1.91-1.52-.14-.43-.25-.87-.33-1.33-.21-1.23-.13-2.62.23-4.24.27-1.21.72-2.3,1.32-3.24.59-.94,1.32-1.75,2.16-2.42,1.18-.95,2.58-1.59,4.13-1.9.73-.14,1.46-.21,2.18-.21s1.45.07,2.16.21c1.45.29,2.8.85,4.02,1.68,1.32.9,2.33,2.08,3.02,3.5.64,1.39.93,2.92.89,4.6-.05,1.58-.44,3.29-1.2,5.25-.28.73-.82,1.29-1.48,1.61.16.51.28,1.03.35,1.57.16,1.24-.02,2.57-.52,3.95-.52,1.44-1.34,2.67-2.44,3.64-1,.88-2.14,1.56-3.38,2.01-1.21.44-2.49.66-3.8.66h-.02ZM281.89,104.37s0,0,0,0h0Z"/>
          <path class="cls-3" d="M303.52,119.12c-.2,0-.39-.02-.59-.06l-5.02-1.01c-.74-.15-1.36-.56-1.79-1.11-.07.06-.15.12-.23.17-.5.33-1.08.5-1.66.5-.2,0-.39-.02-.59-.06l-4.96-1c-1.59-.32-2.64-1.84-2.37-3.44l3.69-21.87c.13-.8.59-1.51,1.26-1.97.5-.35,1.1-.53,1.7-.53.2,0,.39.02.59.06l6.1,1.22c.64.13,1.21.46,1.64.94.51-.39,1.14-.61,1.81-.61.2,0,.39.02.59.06l5.89,1.18c.81.16,1.51.65,1.95,1.34.44.7.57,1.54.37,2.34l-5.48,21.57c-.34,1.35-1.56,2.26-2.91,2.26Z"/>
          <path class="cls-3" d="M313.52,120.1c-.11,0-.22,0-.32-.02l-4.61-.5c-1.59-.17-2.77-1.57-2.67-3.17l1.33-21.49c.05-.82.43-1.58,1.06-2.11.54-.46,1.23-.71,1.93-.71.11,0,.21,0,.32.02l6.63.71c.82.09,1.56.51,2.06,1.16.5.65.71,1.48.58,2.29l-3.34,21.28c-.23,1.47-1.5,2.54-2.96,2.54Z"/>
          <path class="cls-3" d="M318.45,120.74c-.79,0-1.55-.31-2.11-.87-.58-.57-.9-1.35-.89-2.17l.27-21.97c.02-1.53,1.19-2.8,2.71-2.95l4.34-.41c.1,0,.19-.01.29-.01,1.17,0,2.25.68,2.73,1.77l.07.16s.07-.08.11-.12c.54-.59,1.29-.95,2.1-.98,0,0,5.67-.23,5.71-.23.78,0,1.53.3,2.09.85.59.58.92,1.37.91,2.19l-.32,21.4c-.02,1.62-1.32,2.92-2.94,2.96,0,0-4.83.1-4.85.1-.64,0-1.25-.2-1.75-.57-.53.45-1.2.72-1.9.73,0,0-6.55.13-6.57.13Z"/>
          <path class="cls-3" d="M339.41,119.97c-1.37,0-2.6-.94-2.92-2.33l-5.02-21.9c-.37-1.61.64-3.22,2.25-3.59l12.93-2.97c.22-.05.45-.08.67-.08.6,0,1.19.18,1.69.52.69.47,1.15,1.21,1.28,2.04l.98,6.58c.13.87-.13,1.75-.7,2.41-.09.11-.19.21-.3.3l.64,2.88c.11.48.09.97-.03,1.44.24.06.48.15.71.28.79.43,1.35,1.2,1.51,2.09l1.14,6.24c.29,1.59-.74,3.13-2.32,3.47l-11.87,2.55c-.21.05-.42.07-.63.07Z"/>
          <path class="cls-3" d="M359.9,113.94c-.35,0-.69-.02-1.05-.05-1.36-.12-2.75-.55-4.11-1.28-1.36-.73-1.94-2.37-1.35-3.79l.51-1.23c-.21,0-.42-.03-.62-.08-.87-.21-1.59-.8-1.99-1.6l-5.38-11c-.37-.75-.4-1.63-.1-2.41.31-.78.93-1.4,1.71-1.7l12.99-5.03c.35-.14.72-.2,1.08-.2.52,0,1.04.14,1.5.4.79.46,1.33,1.24,1.46,2.14l.85,5.56c.05.34.04.67-.01.99,1.26.57,2.36,1.55,3.28,2.91.02.03.04.06.06.09.84,1.33,1.36,2.74,1.55,4.19.18,1.4.1,2.8-.25,4.18-.23.89-.57,1.74-1.02,2.54-.44.8-.98,1.53-1.6,2.18-.62.65-1.34,1.24-2.13,1.72-.82.51-1.71.89-2.66,1.14-.9.23-1.81.34-2.74.34Z"/>
          <path class="cls-3" d="M377.29,104.76c-1.37,0-2.75-.3-4.1-.9-1.57-.7-3.04-1.68-4.36-2.93-1.28-1.21-2.41-2.62-3.35-4.21-.96-1.62-1.64-3.32-2-5.04-.39-1.84-.37-3.67.06-5.43.48-1.95,1.54-3.64,3.17-5.02.69-.59,1.44-1.1,2.24-1.54.79-.44,1.59-.79,2.39-1.05.94-.3,1.87-.45,2.79-.45s1.75.13,2.61.4c1.54.48,2.99,1.26,4.31,2.33,1.25,1.01,2.38,2.25,3.34,3.68.94,1.39,1.7,2.86,2.25,4.38.57,1.56.91,3.13,1.01,4.68.11,1.75-.14,3.36-.76,4.79-.35.83-.83,1.64-1.42,2.37-.57.7-1.22,1.32-1.94,1.85-.71.53-1.49.97-2.32,1.31-.85.35-1.75.59-2.66.7-.38.05-.82.08-1.26.08Z"/>
        </g>
        <g>
          <path class="cls-3" d="M136.66,101.91c-1.09,0-2.14-.6-2.67-1.63l-9.69-18.92c-.37-.72-.43-1.56-.17-2.33.26-.77.82-1.4,1.56-1.75l5.19-2.46c.41-.2.85-.29,1.28-.29.92,0,1.83.43,2.41,1.21l.26.35-.13-1.17c-.14-1.27.54-2.5,1.7-3.05l5.08-2.41c.41-.19.84-.29,1.28-.29.36,0,.71.06,1.06.19.76.29,1.37.87,1.7,1.61l8.95,20.62c.66,1.52-.04,3.28-1.55,3.94l-5.35,2.34c-.38.17-.79.25-1.2.25s-.8-.08-1.17-.24c-.43-.18-.81-.46-1.1-.81-.02.24-.07.47-.15.7-.26.76-.82,1.39-1.55,1.73l-4.44,2.1c-.41.2-.85.29-1.28.29Z"/>
          <path class="cls-3" d="M154.34,95.16c-1.33,0-2.54-.89-2.9-2.23l-5.76-21.71c-.42-1.6.53-3.24,2.13-3.67l12.83-3.4c.25-.07.51-.1.77-.1.56,0,1.12.16,1.61.47.71.45,1.19,1.17,1.34,1.99l1.2,6.54c.16.86-.07,1.75-.62,2.43-.09.11-.19.22-.29.31l.74,2.86c.12.48.13.97.02,1.44.25.05.49.14.72.25.81.41,1.39,1.16,1.58,2.04l1.35,6.2c.35,1.58-.63,3.16-2.2,3.55l-11.78,2.95c-.24.06-.49.09-.73.09Z"/>
          <path class="cls-3" d="M168.92,91.6c-1.51,0-2.81-1.14-2.98-2.68l-2.41-22.33c-.18-1.65,1.01-3.13,2.66-3.3l13.19-1.43c.11-.01.22-.02.32-.02.72,0,1.42.26,1.97.74.63.55,1,1.34,1.03,2.17l.19,6.65c.03.88-.33,1.72-.98,2.31-.11.1-.22.18-.33.26l.3,2.94c.05.49-.02.98-.2,1.42.23.09.46.21.67.36.74.52,1.2,1.35,1.26,2.25l.4,6.33c.1,1.62-1.1,3.03-2.71,3.18l-12.09,1.13c-.1,0-.19.01-.28.01Z"/>
          <path class="cls-3" d="M187.57,90.92c-.8-.03-1.56-.37-2.11-.96s-.83-1.38-.79-2.18l.68-14.36-.65.09c-.13.02-.26.03-.4.03-.74,0-1.46-.27-2.02-.78-.65-.59-1.01-1.45-.98-2.33l.21-5.89c.03-.81.38-1.56.98-2.11.55-.51,1.28-.78,2.02-.78.06,0,.11,0,.17,0l13.79.77c1.63.09,2.89,1.47,2.83,3.1l-.19,5.35c-.03.86-.43,1.66-1.09,2.21-.54.44-1.22.68-1.91.68-.16,0-.31-.01-.47-.04l-.55-.09.39,14.42c.02.83-.3,1.62-.88,2.21-.56.56-1.32.87-2.12.87-.03,0-6.91-.22-6.91-.22Z"/>
          <path class="cls-3" d="M221.35,95.69c-.23,0-.46-.03-.68-.08l-6.64-1.55c-.78-.18-1.46-.67-1.88-1.36-.42-.69-.55-1.51-.35-2.29l3.49-13.95-.66-.04c-.88-.06-1.69-.5-2.22-1.21-.52-.71-.71-1.62-.51-2.48l1.36-5.73c.19-.78.68-1.46,1.37-1.88.47-.28,1.01-.43,1.55-.43.25,0,.5.03.75.1l13.37,3.45c1.58.41,2.55,2.01,2.17,3.6l-1.24,5.21c-.2.84-.75,1.55-1.5,1.95-.44.24-.93.35-1.42.35-.35,0-.71-.06-1.04-.19l-.52-.19-2.45,14.21c-.14.81-.61,1.53-1.3,1.99-.5.33-1.07.5-1.66.5Z"/>
          <path class="cls-3" d="M240.73,101.04c-.31,0-.62-.05-.92-.15l-4.87-1.57c-.69-.22-1.27-.69-1.65-1.31-.08.05-.17.1-.25.14-.43.22-.9.33-1.37.33-.31,0-.62-.05-.92-.15l-4.81-1.56c-1.54-.5-2.41-2.13-1.96-3.69l6.17-21.3c.23-.78.76-1.43,1.47-1.82.44-.23.92-.35,1.41-.35.31,0,.62.05.92.15l5.92,1.91c.62.2,1.15.6,1.53,1.12.46-.27.98-.42,1.53-.42.31,0,.62.05.92.15l5.72,1.85c.78.25,1.43.82,1.78,1.56.36.74.39,1.6.1,2.36l-7.91,20.8c-.45,1.19-1.59,1.93-2.8,1.93Z"/>
          <path class="cls-3" d="M255.74,106.12c-.31,0-.63-.05-.94-.15l-11.53-3.79c-1.56-.51-2.42-2.18-1.93-3.75l6.72-21.44c.4-1.28,1.59-2.1,2.86-2.1.3,0,.6.04.9.14l12.66,3.97c.8.25,1.46.82,1.81,1.58s.38,1.63.07,2.4l-2.48,6.17c-.33.81-.99,1.44-1.82,1.72-.14.05-.27.08-.41.11l-.9,2.81c-.15.47-.41.89-.75,1.22.18.18.34.38.47.6.47.77.56,1.72.25,2.57l-2.16,5.96c-.44,1.22-1.59,1.98-2.82,1.98Z"/>
          <path class="cls-3" d="M279.21,113c-1.32,0-2.58-.22-3.74-.65-1.28-.46-2.39-1.08-3.27-1.83-.85-.73-1.54-1.54-2.04-2.4-.51-.87-.86-1.8-1.03-2.74-.16-.85-.21-1.69-.15-2.49.06-.79.19-1.53.41-2.19.19-.6.39-1.09.6-1.5.4-.78,1.11-1.31,1.91-1.52-.14-.43-.25-.87-.33-1.33-.21-1.23-.13-2.62.23-4.24.27-1.21.72-2.3,1.32-3.24.59-.94,1.32-1.75,2.16-2.42,1.18-.95,2.58-1.59,4.13-1.9.73-.14,1.46-.21,2.18-.21s1.45.07,2.16.21c1.45.29,2.8.85,4.02,1.68,1.32.9,2.33,2.08,3.02,3.5.64,1.39.93,2.92.89,4.6-.05,1.58-.44,3.29-1.2,5.25-.28.73-.82,1.29-1.48,1.61.16.51.28,1.03.35,1.57.16,1.24-.02,2.57-.52,3.95-.52,1.44-1.34,2.67-2.44,3.64-1,.88-2.14,1.56-3.38,2.01-1.21.44-2.49.66-3.8.66h-.02ZM280.89,103.37s0,0,0,0h0Z"/>
          <path class="cls-3" d="M302.52,118.12c-.2,0-.39-.02-.59-.06l-5.02-1.01c-.74-.15-1.36-.56-1.79-1.11-.07.06-.15.12-.23.17-.5.33-1.08.5-1.66.5-.2,0-.39-.02-.59-.06l-4.96-1c-1.59-.32-2.64-1.84-2.37-3.44l3.69-21.87c.13-.8.59-1.51,1.26-1.97.5-.35,1.1-.53,1.7-.53.2,0,.39.02.59.06l6.1,1.22c.64.13,1.21.46,1.64.94.51-.39,1.14-.61,1.81-.61.2,0,.39.02.59.06l5.89,1.18c.81.16,1.51.65,1.95,1.34.44.7.57,1.54.37,2.34l-5.48,21.57c-.34,1.35-1.56,2.26-2.91,2.26Z"/>
          <path class="cls-3" d="M312.52,119.1c-.11,0-.22,0-.32-.02l-4.61-.5c-1.59-.17-2.77-1.57-2.67-3.17l1.33-21.49c.05-.82.43-1.58,1.06-2.11.54-.46,1.23-.71,1.93-.71.11,0,.21,0,.32.02l6.63.71c.82.09,1.56.51,2.06,1.16.5.65.71,1.48.58,2.29l-3.34,21.28c-.23,1.47-1.5,2.54-2.96,2.54Z"/>
          <path class="cls-3" d="M317.45,119.74c-.79,0-1.55-.31-2.11-.87-.58-.57-.9-1.35-.89-2.17l.27-21.97c.02-1.53,1.19-2.8,2.71-2.95l4.34-.41c.1,0,.19-.01.29-.01,1.17,0,2.25.68,2.73,1.77l.07.16s.07-.08.11-.12c.54-.59,1.29-.95,2.1-.98,0,0,5.67-.23,5.71-.23.78,0,1.53.3,2.09.85.59.58.92,1.37.91,2.19l-.32,21.4c-.02,1.62-1.32,2.92-2.94,2.96,0,0-4.83.1-4.85.1-.64,0-1.25-.2-1.75-.57-.53.45-1.2.72-1.9.73,0,0-6.55.13-6.57.13Z"/>
          <path class="cls-3" d="M338.41,118.97c-1.37,0-2.6-.94-2.92-2.33l-5.02-21.9c-.37-1.61.64-3.22,2.25-3.59l12.93-2.97c.22-.05.45-.08.67-.08.6,0,1.19.18,1.69.52.69.47,1.15,1.21,1.28,2.04l.98,6.58c.13.87-.13,1.75-.7,2.41-.09.11-.19.21-.3.3l.64,2.88c.11.48.09.97-.03,1.44.24.06.48.15.71.28.79.43,1.35,1.2,1.51,2.09l1.14,6.24c.29,1.59-.74,3.13-2.32,3.47l-11.87,2.55c-.21.05-.42.07-.63.07Z"/>
          <path class="cls-3" d="M358.9,112.94c-.35,0-.69-.02-1.05-.05-1.36-.12-2.75-.55-4.11-1.28-1.36-.73-1.94-2.37-1.35-3.79l.51-1.23c-.21,0-.42-.03-.62-.08-.87-.21-1.59-.8-1.99-1.6l-5.38-11c-.37-.75-.4-1.63-.1-2.41.31-.78.93-1.4,1.71-1.7l12.99-5.03c.35-.14.72-.2,1.08-.2.52,0,1.04.14,1.5.4.79.46,1.33,1.24,1.46,2.14l.85,5.56c.05.34.04.67-.01.99,1.26.57,2.36,1.55,3.28,2.91.02.03.04.06.06.09.84,1.33,1.36,2.74,1.55,4.19.18,1.4.1,2.8-.25,4.18-.23.89-.57,1.74-1.02,2.54-.44.8-.98,1.53-1.6,2.18-.62.65-1.34,1.24-2.13,1.72-.82.51-1.71.89-2.66,1.14-.9.23-1.81.34-2.74.34Z"/>
          <path class="cls-3" d="M376.29,103.76c-1.37,0-2.75-.3-4.1-.9-1.57-.7-3.04-1.68-4.36-2.93-1.28-1.21-2.41-2.62-3.35-4.21-.96-1.62-1.64-3.32-2-5.04-.39-1.84-.37-3.67.06-5.43.48-1.95,1.54-3.64,3.17-5.02.69-.59,1.44-1.1,2.24-1.54.79-.44,1.59-.79,2.39-1.05.94-.3,1.87-.45,2.79-.45s1.75.13,2.61.4c1.54.48,2.99,1.26,4.31,2.33,1.25,1.01,2.38,2.25,3.34,3.68.94,1.39,1.7,2.86,2.25,4.38.57,1.56.91,3.13,1.01,4.68.11,1.75-.14,3.36-.76,4.79-.35.83-.83,1.64-1.42,2.37-.57.7-1.22,1.32-1.94,1.85-.71.53-1.49.97-2.32,1.31-.85.35-1.75.59-2.66.7-.38.05-.82.08-1.26.08Z"/>
        </g>
      </g>
      <g>
        <path class="cls-4" d="M141.09,96.81l-4.44,2.1-9.69-18.92,5.19-2.46,6.9,9.28-1.38-12.22,5.08-2.41,8.95,20.62-5.35,2.34-3.66-9.89.02,6.15-2.04.97-3.28-2.96,3.7,7.4Z"/>
        <path class="cls-4" d="M164.77,83.02l1.35,6.2-11.78,2.95-5.76-21.71,12.83-3.4,1.2,6.54-8.09.21.79,3.05,5.92-2.3,1.25,4.84-6.24,1.06,1.48,5.73,7.05-3.17Z"/>
        <path class="cls-4" d="M180.61,81.14l.4,6.33-12.09,1.13-2.41-22.33,13.19-1.43.19,6.65-8.03-1.01.32,3.14,6.2-1.38.5,4.97-6.33.1.6,5.89,7.45-2.07Z"/>
        <path class="cls-4" d="M184.31,70.53l.21-5.89,13.79.77-.19,5.35-4.11-.65.48,18.03-6.81-.22.86-17.95-4.22.56Z"/>
        <path class="cls-4" d="M214.82,73.43l1.36-5.73,13.37,3.45-1.24,5.21-3.91-1.45-3.06,17.77-6.64-1.55,4.36-17.44-4.25-.28Z"/>
        <path class="cls-4" d="M240.13,84.05l2.8-8.66,5.72,1.85-7.91,20.8-4.87-1.57,3.04-9.4-4.08-1.32-3.15,9.74-4.81-1.56,6.17-21.3,5.92,1.91-2.96,8.2,4.14,1.31Z"/>
        <path class="cls-4" d="M257.9,97.16l-2.16,5.96-11.53-3.79,6.72-21.44,12.66,3.97-2.48,6.17-6.95-4.14-.96,3,6.23,1.22-1.53,4.76-5.84-2.44-1.81,5.64,7.65,1.08Z"/>
        <path class="cls-4" d="M278.17,101.84c-.15.47-.24.91-.27,1.31-.01.35.03.68.14,1.01.11.33.35.57.75.71.54.21,1.04.25,1.51.12.47-.13.79-.36.96-.69.17-.33.15-.75-.06-1.25-.21-.5-.72-1.02-1.51-1.57-.9-.62-1.72-1.19-2.45-1.71-.73-.52-1.33-1.1-1.79-1.73-.46-.63-.77-1.37-.91-2.21s-.07-1.87.2-3.09c.2-.87.51-1.64.92-2.29.42-.66.91-1.21,1.49-1.67.82-.66,1.77-1.09,2.84-1.3,1.08-.21,2.14-.21,3.19,0,1.05.21,2.02.61,2.91,1.21.88.6,1.55,1.38,2.01,2.33.43.92.62,1.99.59,3.2-.04,1.21-.37,2.63-1,4.25l-5.28-1.88c.23-.39.44-.8.63-1.24.19-.44.3-.86.33-1.27.03-.4-.05-.77-.22-1.11-.18-.34-.5-.59-.96-.76-.56-.21-1.06-.2-1.5.05-.44.25-.76.61-.96,1.09-.2.48-.26,1.01-.17,1.59.09.58.38,1.09.87,1.54.26.24.55.46.87.67.31.21.62.43.93.66.68.45,1.32.94,1.93,1.46.61.52,1.11,1.1,1.5,1.74.39.64.63,1.35.73,2.11.1.77-.02,1.62-.36,2.55-.35.97-.88,1.78-1.6,2.41-.72.64-1.52,1.11-2.42,1.43-.89.32-1.82.48-2.79.48-.97,0-1.87-.15-2.71-.47-.97-.35-1.76-.78-2.36-1.3-.6-.51-1.07-1.06-1.4-1.63-.34-.58-.56-1.17-.67-1.77-.11-.61-.15-1.19-.11-1.74.04-.55.13-1.05.27-1.48.14-.43.28-.78.41-1.03l5.51,1.27Z"/>
        <path class="cls-4" d="M300.31,101.3l1.79-8.93,5.89,1.18-5.48,21.57-5.02-1.01,1.94-9.68-4.2-.84-2.01,10.03-4.96-1,3.69-21.87,6.1,1.22-2.01,8.49,4.26.83Z"/>
        <path class="cls-4" d="M309.22,94.11l6.63.71-3.34,21.28-4.61-.5,1.33-21.49Z"/>
        <path class="cls-4" d="M322.06,94.36l5.79,12.83-.66-12.01,5.59-.23-.32,21.4-4.79.1-5.33-10.73,1.62,10.89-6.51.13.27-21.97,4.34-.41Z"/>
        <path class="cls-4" d="M349.14,107.19l1.14,6.24-11.87,2.55-5.02-21.9,12.93-2.97.98,6.58-8.09-.06.68,3.08,6-2.1,1.08,4.88-6.27.85,1.29,5.78,7.15-2.93Z"/>
        <path class="cls-4" d="M361.45,93.11l-7.72,2,1.16,2.71c.71-.35,1.52-.71,2.43-1.1.9-.39,1.82-.64,2.75-.75.93-.12,1.84-.03,2.74.27.89.3,1.69.97,2.39,2,.61.97.98,1.97,1.11,2.99.13,1.02.07,2.04-.18,3.05-.16.63-.41,1.24-.73,1.82-.32.58-.71,1.11-1.15,1.58-.45.47-.96.88-1.53,1.23-.57.35-1.19.62-1.85.79-.88.22-1.8.29-2.76.21-.96-.08-1.95-.4-2.96-.94l2.09-5.03c.78.42,1.5.6,2.14.54.64-.06,1.16-.26,1.55-.61.39-.35.62-.8.68-1.36.06-.56-.09-1.13-.48-1.72-.24-.37-.56-.6-.94-.68-.38-.08-.79-.09-1.23,0-.44.08-.88.22-1.31.41-.43.2-.83.4-1.2.61-.36.21-.77.47-1.21.79l-2.26,1.68-5.38-11,12.99-5.03.85,5.56Z"/>
        <path class="cls-4" d="M371.28,80.48c1.21-.38,2.4-.4,3.58-.03,1.18.36,2.28.96,3.3,1.79,1.03.83,1.94,1.84,2.75,3.03.81,1.19,1.45,2.44,1.92,3.73.47,1.3.75,2.58.84,3.85.08,1.27-.09,2.4-.52,3.4-.25.6-.59,1.16-1,1.66-.41.5-.88.95-1.39,1.33-.52.38-1.08.7-1.69.95-.6.25-1.23.42-1.88.5-1.25.17-2.51-.02-3.77-.58-1.27-.56-2.44-1.35-3.53-2.37-1.08-1.02-2.03-2.2-2.82-3.55-.8-1.35-1.35-2.73-1.64-4.13-.3-1.41-.28-2.77.04-4.1.33-1.33,1.06-2.48,2.2-3.46.54-.45,1.12-.85,1.74-1.2.63-.35,1.25-.62,1.87-.82ZM377.09,94.61c.55-.35.88-.86.97-1.53.1-.67.03-1.38-.2-2.14-.23-.76-.59-1.51-1.07-2.26-.48-.75-1.02-1.39-1.61-1.92-.59-.53-1.2-.9-1.84-1.11-.64-.21-1.22-.15-1.76.19-.54.34-.85.84-.95,1.51-.1.67-.03,1.38.19,2.15.22.76.56,1.53,1.02,2.29.46.77.98,1.42,1.57,1.95.59.53,1.21.9,1.85,1.1.64.21,1.25.13,1.82-.23Z"/>
      </g>
    </g>
    <g>
      <path class="cls-4" d="M82.34,93.41c-1.59,3.14-3.96,7.01-5.79,10.02,12.37-1.86,28.25-5.67,40.57-7.79-2.22,5.21-4.85,10.18-7.93,14.94,6.93-.72,14.98-1.32,21.87-2.36-10.99,4.45-22.27,7.58-33.65,10.9,2.05-3.65,4-7.54,6.05-11.19-13.58,3.12-26.77,5.58-40.36,8.7,1.87-4.1,3.52-8.14,5.76-12.04-13.44,2.06-26.78,3.8-40.15,6.28,17.13-6.52,36.64-11.17,53.61-17.47Z"/>
      <path class="cls-4" d="M135.06,116.38c2.85,9.68,5.92,19.43,8.54,29.34-3.62-.05-7.24-.09-10.86-.14.89-9.41,1.66-19.57,2.32-29.2Z"/>
      <path class="cls-4" d="M125.47,118.42c-2.53,5.42-4.98,10.98-7.73,16.39-1.95-1.84-3.9-3.67-5.85-5.51,4.45-3.43,9.16-7.24,13.58-10.88Z"/>
    </g>
    <g>
      <path class="cls-4" d="M343.26,54.57c.86-2.4,1.73-5.56,2.4-8.02,5.16,7.43,11.03,17.68,16.04,25.22,1.64-3.75,2.95-7.61,3.93-11.59,3.06,4,6.74,8.54,9.62,12.68-3.11-7.99-7.07-15.48-10.97-23.12-.9,2.89-1.98,5.85-2.89,8.74-5.1-8.7-10.35-16.86-15.45-25.56-1.23,3.02-2.54,5.89-3.48,9.01-5.59-8.09-11.3-15.98-16.62-24.25,5.07,12.25,12.31,24.83,17.42,36.89Z"/>
      <path class="cls-4" d="M381.51,70.92c6.51-3.31,13.16-6.53,19.68-10.07-1.82-1.88-3.64-3.77-5.46-5.65-4.51,5.14-9.48,10.59-14.22,15.72Z"/>
      <path class="cls-4" d="M377.83,64.86c1.6-4.03,3.31-8.07,4.79-12.2-1.93-.11-3.87-.23-5.8-.34.4,4.05.74,8.41,1.01,12.55Z"/>
    </g>
  </g>
</svg>