<?xml version="1.0" encoding="UTF-8"?>
<svg id="Layer_1" data-name="Layer 1" xmlns="http://www.w3.org/2000/svg" viewBox="0 0 836.12 733.33">
  <defs>
    <style>
      .cls-1 {
        fill: #ffe600;
        stroke-width: 0px;
      }
    </style>
  </defs>
  <path class="cls-1" d="M130.19,9.02h78.09c31.97,0,62.95,10.91,87.92,30.87,1.18.94,2.38,1.87,3.6,2.8,11.64,8.85,24.83,15.52,38.86,19.66,43.12,12.73,89.64,9.9,139.12-6.58,69.51-25.87,140.95-53.75,208.99-42.19,26.37,5.39,49.46,17.12,69.89,33.96,21.4,17.65,38.14,39.75,49.53,64.38,11.39,24.62,17.43,51.77,17.43,79.51s-7.15,65.76-20.19,100.41c-12.87,34.24-31.51,65.31-54.68,80.37l-3.02,1.78c-30.62,16.93-52.83,38.73-69.96,63.49-18.83,30.26-18.93,67.94-7.4,127.93l.42,2.74c6.56,58.08-11.53,92.7-51.9,123.23-.21.15-.42.3-.65.42-47.76,26.02-104.34,35.85-168.62,31.56l-2.99-.07c-71.85,1.55-122.4-31.42-146.94-106.52l-1.29-3.38c-11.98-26.78-28.22-47.44-48.26-62.63-.08-.06-.16-.12-.24-.18-11.13-8.27-26.6-7.72-37.12,1.31-17.17,14.74-38.31,23.43-61.16,23.43-57.48,0-104.08-55-104.08-122.84,0-51.03,26.37-94.8,63.91-113.34,1.27-.63,2.51-1.32,3.69-2.1.82-.55,1.68-1.06,2.57-1.54,21.79-11.63,36.51-26.06,37.44-45.94,1.93-24.29-11.49-38.63-32.56-49.56-2.52-1.31-4.74-2.67-6.81-4.15-11.15-7.98-30.06-19.91-42.39-25.9-34.85-16.95-58.9-52.9-58.9-94.52,0-57.92,60.21-106.41,117.69-106.41"/>
</svg>