<?xml version="1.0" encoding="UTF-8"?>
<svg id="Layer_1" data-name="Layer 1" xmlns="http://www.w3.org/2000/svg" xmlns:xlink="http://www.w3.org/1999/xlink" viewBox="0 0 2500 1800">
  <defs>
    <style>
      .cls-1 {
        fill: none;
      }

      .cls-1, .cls-2 {
        stroke-width: 0px;
      }

      .cls-2 {
        fill: #156cad;
      }

      .cls-3 {
        clip-path: url(#clippath);
      }
    </style>
    <clipPath id="clippath">
      <rect class="cls-1" x="0" y="2.73" width="2500" height="1800"/>
    </clipPath>
  </defs>
  <g class="cls-3">
    <g>
      <g>
        <path class="cls-2" d="M828.62,2.73c-5.39,19.34-10.82,38.65-17.23,57.57-16.23,47.84-49.38,76.15-93.09,91.18-26.67,9.18-53.29,18.56-79.89,28-4.36,1.55-8.5,3.84-12.75,5.79v.06c-26.62,12.14-49.62,29.86-68.85,53.35-21.82,26.66-35.14,58.31-45.06,91.91-7.69,26.03-14.45,52.42-22.96,78.11-14.87,44.84-43.91,74.58-85,90.21-15.65,5.95-31.52,11.26-47.41,16.42-27.44,8.92-54.51,18.79-79.06,35.35-39.66,26.75-65.55,65.48-80.83,112.84-8.93,27.69-16.23,55.99-24.51,83.93-13.76,46.44-39.93,80.92-82.4,98.48-19.61,8.11-39.89,14.3-59.9,21.27-9.44,3.28-18.96,6.32-28.44,9.47v-74.94c1.08-.23,2.21-.3,3.22-.71,52.02-21.1,91.89-57.36,113.72-113.72,11.16-28.82,18.94-59.21,27.88-89.02,6.5-21.68,13.45-43.07,25.4-62.05,17.65-28.05,42.35-45.62,71.38-56.25,24.29-8.89,48.93-16.65,73.28-25.33,67.15-23.93,111.91-72.49,133.71-145.95,7.95-26.8,15.12-53.88,23.39-80.55,14.25-46,41.69-78.85,83.94-95.34,22.53-8.8,45.66-15.79,68.52-23.6v-.06c4.34-1.67,8.65-3.43,13.02-5.01,51.89-18.64,91.68-51.51,116.99-101.39h72.96Z"/>
        <path class="cls-2" d="M976.16,2.73c-18.95,25.18-31.28,54.49-40.39,85.78-7.04,24.15-13.5,48.51-20.92,72.51-14.99,48.46-45.05,80.89-89.42,97.1-24.28,8.87-48.95,16.45-73.25,25.27-40.21,14.6-75.58,37.47-100.99,75.49-8.63,12.92-15.22,27.48-22.74,41.29-.92,1.7-1.86,3.38-2.79,5.07v-2.35c-4.75,13.04-10.05,25.87-14.13,39.15-7.33,23.84-13.44,48.15-20.95,71.91-9.17,28.98-24.29,53.68-47.23,72.08-17.81,14.28-38.19,22.49-58.98,29.74-24.22,8.45-48.78,15.96-72.52,25.79-39.96,16.54-71.97,44.45-94.64,84.46-15.2,26.82-24.04,56.43-32.44,86.32-5.95,21.15-11.67,42.47-19.27,62.93-16.16,43.53-46.77,70.41-86.96,84.89-24.68,8.89-49.72,16.58-74.33,25.69-39.3,14.54-73.13,37.99-98.31,74.82-1.4,2.05-3.1,3.84-4.66,5.76v-117.24c6.9-3.32,13.61-7.29,20.74-9.84,23.12-8.26,46.41-16,69.62-23.95,67.66-23.16,114.01-70.46,136.59-144.35,8.11-26.54,15.27-53.41,23.27-79.98,6.74-22.38,16.52-43.01,31.24-60.6,18.38-21.95,41.72-34.83,67.1-43.86,24.71-8.79,49.81-16.34,74.28-25.82,51.26-19.85,90.71-55.24,113.43-109.94,9.47-22.81,16.26-47.01,23.41-70.89,7.21-24.1,12.83-48.8,24.21-71.17,10-19.65,22.8-36.55,40.52-48.53v-.06c24.84-17.9,53.04-26.7,81.12-35.94,16.05-5.29,32.09-10.76,47.72-17.32,42.93-18.02,76.87-48,99.84-91.97,13.35-25.55,21.36-53.37,29.27-81.29,2.94-10.37,6.11-20.68,9.34-30.96h83.23Z"/>
        <path class="cls-2" d="M680.81,2.73c-15.32,16.69-34.08,28.25-55.17,36.3v.06c-20.38,7.03-40.74,14.15-61.16,21.07-26,8.79-51.18,19.5-73.83,36.35-35.98,26.75-59.56,63.78-73.75,108.06-8.94,27.91-16.23,56.45-24.75,84.53-9.36,30.83-24.18,57.78-48.53,77.54-18.21,14.77-39.08,23.18-60.4,30.63-24.74,8.65-49.88,16.26-74.04,26.56-45.61,19.42-79.74,53.37-101.69,101.51-11.16,24.47-18.36,50.46-25.4,76.54-6.99,25.88-13.63,51.94-26.67,75.24-13.2,23.59-30.94,41.83-54.19,53.32v-119.66c5.66-10.8,12.76-21.01,16.69-32.52,9.98-29.18,18.76-58.86,27.62-88.49,7.3-24.4,15.19-48.39,29.73-69.03,18.24-25.9,42.86-41.48,70.7-51.5,21.36-7.68,43.01-14.36,64.41-21.89,29.38-10.35,56.77-24.79,80.31-47.15,28.99-27.54,47.19-62.54,59.16-101.74,8.1-26.53,15.01-53.49,23.27-79.96,10.87-34.81,29.44-63.36,59.09-82.3,18.16-11.59,37.98-18.48,57.94-25.1,8.14-2.7,16.24-5.52,24.34-8.36h166.32Z"/>
        <path class="cls-2" d="M371.88,2.73c-2.88,2.99-5.74,5.99-8.55,9.06-25.71,28.03-41.14,62.49-51.99,99.74-7.03,24.15-13.49,48.51-20.92,72.51-14.99,48.46-45.05,80.89-89.42,97.1-24.28,8.87-48.96,16.46-73.25,25.27-40.21,14.6-75.58,37.47-100.99,75.5-8.63,12.92-15.22,27.48-22.74,41.28-.92,1.7-1.86,3.38-2.79,5.08v-145.04c24.84-17.9,53.03-26.7,81.12-35.95,16.04-5.28,32.09-10.76,47.72-17.32,42.93-18.02,76.87-48,99.84-91.97,13.35-25.55,21.36-53.37,29.27-81.29,5.13-18.13,10.97-36.02,16.61-53.99h96.11Z"/>
        <path class="cls-2" d="M210.63,2.73c-7.68,26.95-14.71,54.17-23.67,80.59-16.23,47.84-49.38,76.15-93.09,91.19-26.68,9.17-53.3,18.56-79.9,27.99-4.36,1.55-8.51,3.84-12.75,5.79v-76.14c4.34-1.68,8.65-3.44,13.02-5.01,59.49-21.37,103.07-61.45,127.18-124.41h69.21Z"/>
        <path class="cls-2" d="M73.1,2.73c-.64,1.29-1.33,2.55-2.08,3.75C53.79,34.01,29.62,51.21,1.22,62.05V2.73h71.87Z"/>
        <path class="cls-2" d="M2198.62,2.73c-5.53,12.79-10.15,26.13-14.15,39.86-7.03,24.15-13.49,48.51-20.92,72.51-14.99,48.46-45.05,80.89-89.42,97.1-24.28,8.87-48.96,16.45-73.25,25.27-40.21,14.6-75.58,37.47-100.99,75.5-8.63,12.92-15.22,27.48-22.74,41.28-.92,1.7-1.86,3.38-2.79,5.07v-2.37c-4.75,13.02-10.05,25.84-14.12,39.1-7.33,23.84-13.43,48.14-20.95,71.91-9.16,28.98-24.29,53.68-47.23,72.08-17.8,14.28-38.19,22.49-58.98,29.74-24.22,8.44-48.77,15.95-72.52,25.79-39.95,16.54-71.96,44.44-94.64,84.46-15.2,26.82-24.04,56.43-32.44,86.31-5.95,21.15-11.67,42.47-19.27,62.94-16.16,43.53-46.77,70.41-86.97,84.89-24.68,8.89-49.72,16.58-74.33,25.69-39.3,14.54-73.12,37.99-98.31,74.82-1.4,2.05-3.1,3.84-4.66,5.75v-.98c-5.89,10.52-12.4,20.7-17.51,31.65-12.51,26.82-19.31,55.95-27.4,84.55-.19.67-.38,1.35-.58,2.02h-79.2c14.61-22.18,24.13-47.41,31.89-73.53,8.18-27.52,15.42-55.41,24.65-82.5,11.55-33.86,32.56-59.4,62.17-76.09,1.86-1.05,3.98-1.57,5.98-2.33v-.03c6.9-3.32,13.61-7.29,20.74-9.84,23.12-8.26,46.41-15.99,69.63-23.95,67.65-23.16,114.01-70.46,136.59-144.35,8.11-26.54,15.27-53.41,23.27-79.98,6.74-22.38,16.52-43.01,31.24-60.6,18.38-21.95,41.73-34.83,67.11-43.86,24.71-8.79,49.8-16.34,74.28-25.82,51.26-19.85,90.71-55.24,113.42-109.94,9.47-22.81,16.27-47.01,23.41-70.89,7.2-24.1,12.82-48.8,24.2-71.18,9.99-19.64,22.8-36.53,40.51-48.51h0c24.84-17.92,53.03-26.71,81.12-35.95,16.04-5.28,32.09-10.76,47.72-17.32,42.93-18.02,76.87-48,99.84-91.97,10.96-20.98,18.33-43.5,24.99-66.34h70.6Z"/>
        <path class="cls-2" d="M1585.53,2.73c-10.92,19.44-19.01,40.64-25.47,62.83-7.04,24.15-13.5,48.51-20.92,72.51-14.99,48.46-45.05,80.88-89.42,97.1-24.28,8.87-48.95,16.45-73.25,25.27-40.21,14.6-75.58,37.47-100.99,75.49-8.63,12.92-15.22,27.48-22.74,41.29-.92,1.7-1.86,3.38-2.79,5.07v-2.06c-4.71,12.9-9.96,25.63-14,38.78-7.33,23.84-13.44,48.14-20.95,71.91-9.16,28.98-24.29,53.68-47.23,72.08-17.81,14.28-38.19,22.49-58.98,29.74-24.22,8.45-48.77,15.95-72.52,25.79-39.95,16.54-71.96,44.44-94.64,84.46-15.2,26.82-24.04,56.43-32.44,86.31-5.95,21.15-11.67,42.47-19.27,62.94-16.16,43.53-46.77,70.41-86.97,84.89-24.68,8.89-49.72,16.58-74.33,25.69-39.3,14.54-73.12,37.99-98.31,74.82-1.4,2.05-3.1,3.84-4.67,5.76v-1.15c-5.92,10.61-12.49,20.86-17.64,31.89-9.46,20.28-15.65,41.87-21.6,63.55h-72.59c7.75-16.01,13.72-33.05,18.9-50.5,8.18-27.52,15.41-55.42,24.65-82.51,11.54-33.86,32.55-59.4,62.17-76.09,1.9-1.08,4.07-1.59,6.11-2.38v-.06c6.9-3.32,13.61-7.29,20.75-9.83,23.12-8.26,46.41-16,69.62-23.95,67.66-23.16,114.01-70.46,136.6-144.35,8.1-26.54,15.26-53.41,23.27-79.98,6.74-22.38,16.52-43.01,31.24-60.6,18.38-21.95,41.73-34.83,67.11-43.86,24.71-8.79,49.8-16.34,74.28-25.82,51.26-19.85,90.71-55.24,113.42-109.94,9.47-22.81,16.27-47.01,23.41-70.89,7.21-24.1,12.83-48.8,24.21-71.18,9.97-19.59,22.74-36.45,40.39-48.43v-.08c24.84-17.9,53.03-26.7,81.11-35.94,16.05-5.29,32.09-10.76,47.73-17.32,42.92-18.02,76.86-48,99.84-91.97,13.34-25.55,21.36-53.37,29.26-81.28.76-2.68,1.53-5.35,2.32-8.01h75.33Z"/>
        <path class="cls-2" d="M1446.42,2.73c-3.36,11.63-6.87,23.2-10.75,34.62-16.23,47.84-49.39,76.15-93.09,91.18-26.67,9.18-53.29,18.56-79.89,28-4.31,1.53-8.42,3.79-12.61,5.73v.05c-26.62,12.14-49.63,29.86-68.85,53.35-21.82,26.66-35.14,58.31-45.06,91.91-7.68,26.03-14.45,52.42-22.96,78.12-14.86,44.84-43.9,74.58-84.99,90.21-15.65,5.95-31.52,11.26-47.41,16.42-27.45,8.92-54.51,18.78-79.07,35.35-39.65,26.75-65.55,65.48-80.83,112.84-8.93,27.69-16.23,55.99-24.51,83.93-13.76,46.43-39.92,80.92-82.39,98.48-19.62,8.11-39.89,14.3-59.91,21.27-9.44,3.28-18.96,6.32-28.44,9.47v1.27c-1.07.28-2.18.45-3.21.85-57.4,22.2-99.24,62.83-121.25,125.32-10.77,30.57-18.92,62.25-28.12,93.47-7.28,24.71-17.98,45.93-32.6,63.12h-160.23c12.12-4.22,24.15-8.67,35.91-13.84,55.1-24.19,91.37-68.74,110.89-129.49,8.97-27.91,16.22-56.46,24.8-84.52,9.97-32.63,25.88-60.88,52.47-80.81,18.2-13.63,38.71-21.46,59.5-28.59,19.52-6.69,39.07-13.29,58.62-19.89,1.02-.35,2.14-.38,3.21-.57v-1.27c1.08-.23,2.21-.3,3.22-.72,52.02-21.09,91.88-57.35,113.72-113.72,11.15-28.81,18.94-59.2,27.88-89.01,6.5-21.68,13.45-43.07,25.4-62.06,17.64-28.05,42.35-45.62,71.38-56.25,24.29-8.89,48.92-16.65,73.28-25.33,67.15-23.93,111.91-72.5,133.71-145.95,7.96-26.8,15.12-53.88,23.39-80.55,14.26-46,41.7-78.85,83.94-95.34,22.5-8.78,45.57-15.76,68.39-23.55v-.03c4.33-1.68,8.65-3.44,13.02-5.01,43.47-15.62,78.44-41.22,103.54-78.44h79.92Z"/>
        <path class="cls-2" d="M1277.21,2.73c-8.49,5.25-17.57,9.63-27.13,13.29v.04c-20.39,7.03-40.74,14.15-61.17,21.06-25.99,8.8-51.18,19.5-73.83,36.35-35.97,26.75-59.55,63.78-73.75,108.07-8.94,27.91-16.23,56.45-24.75,84.53-9.36,30.83-24.18,57.77-48.53,77.54-18.21,14.77-39.08,23.17-60.4,30.63-24.74,8.65-49.87,16.26-74.04,26.56-45.61,19.42-79.74,53.37-101.69,101.51-11.16,24.46-18.36,50.46-25.4,76.53-6.98,25.89-13.63,51.95-26.66,75.24-13.2,23.6-30.94,41.83-54.2,53.32v.07c-8.8,4.11-17.39,8.93-26.44,12.2-24.49,8.84-49.3,16.6-73.75,25.55-63.58,23.25-107.1,69.16-128.96,138.61-9.28,29.48-16.98,59.54-26.31,88.99-13.9,43.88-40.25,75.63-80.48,91.95-21.73,8.82-44.07,15.9-66.23,23.37-32.55,10.96-63.47,25.22-89.49,49.55H35.14c3.93-10.42,8.55-20.52,14.27-30.1,17.24-28.86,41.87-47.31,71.26-58.28,23.01-8.59,46.43-15.88,69.59-24.02,28.3-9.96,54.83-23.69,77.81-44.73,30.35-27.79,49.39-63.62,61.64-104.1,7.4-24.45,13.9-49.22,21.2-73.71,8.04-26.97,19.97-51.44,39.39-71,17.63-17.77,38.8-28.36,61.21-36.39,26.43-9.47,53.29-17.65,79.37-28.15,37.8-15.21,68.84-40.73,91.73-77.41.77-1.24,2.02-2.14,3.04-3.2v1.15c5.66-10.8,12.76-21.02,16.7-32.52,9.98-29.18,18.76-58.87,27.62-88.49,7.3-24.39,15.19-48.38,29.73-69.02,18.24-25.9,42.85-41.49,70.7-51.51,21.36-7.68,43.01-14.35,64.41-21.89,29.38-10.35,56.77-24.79,80.31-47.15,28.99-27.54,47.19-62.54,59.16-101.74,8.1-26.53,15.01-53.49,23.27-79.96,10.87-34.81,29.45-63.37,59.1-82.3,6.22-3.97,12.64-7.39,19.19-10.44h201.37Z"/>
        <path class="cls-2" d="M1613.55,1137.68c6.95-2.4,13.87-4.88,20.75-7.51,45.11-17.26,73.06-52.57,87.5-101.59,9.2-31.22,17.34-62.9,28.11-93.47,22.01-62.49,63.86-103.12,121.25-125.32,1.03-.4,2.14-.58,3.21-.86v-1.21c9.48-3.15,18.99-6.18,28.42-9.46,20.01-6.96,40.29-13.16,59.9-21.27,42.47-17.55,68.64-52.04,82.4-98.48,8.28-27.94,15.58-56.25,24.51-83.93,15.28-47.36,41.17-86.09,80.83-112.84,24.55-16.56,51.62-26.43,79.06-35.35,15.89-5.16,31.76-10.46,47.41-16.42,41.09-15.63,70.14-45.37,85-90.21,8.52-25.69,15.28-52.08,22.96-78.12,9.92-33.6,23.24-65.26,45.06-91.91,19.24-23.49,42.24-41.21,68.85-53.35V40.25c-22.85,7.81-45.98,14.8-68.52,23.6-42.24,16.5-69.69,49.34-83.94,95.34-8.26,26.68-15.44,53.76-23.39,80.55-21.81,73.45-66.56,122.02-133.71,145.95-24.36,8.68-49,16.44-73.29,25.33-29.03,10.63-53.74,28.2-71.37,56.25-11.95,18.99-18.9,40.38-25.4,62.06-8.94,29.81-16.72,60.2-27.88,89.01-21.83,56.37-61.69,92.63-113.72,113.72-1.01.42-2.14.49-3.22.72v1.21c-1.07.18-2.18.22-3.2.56-19.54,6.61-39.09,13.2-58.62,19.89-20.79,7.13-41.3,14.96-59.5,28.59-26.59,19.93-42.49,48.17-52.47,80.8-8.58,28.06-15.83,56.62-24.79,84.52-19.52,60.75-55.78,105.31-110.89,129.5-24.22,10.64-49.57,18.25-74.48,26.97-21.13,7.39-42.32,14.9-60.06,29.95-1.1.93-2.17,1.89-3.22,2.89h186.43Z"/>
        <path class="cls-2" d="M1821.79,1137.68c2.61-8.29,5.16-16.6,7.53-24.97,8.1-28.6,14.89-57.73,27.4-84.55,5.14-11.03,11.71-21.27,17.63-31.86v1.18c1.56-1.92,3.26-3.71,4.66-5.76,25.19-36.82,59.02-60.28,98.31-74.82,24.61-9.1,49.65-16.79,74.33-25.69,40.2-14.48,70.8-41.36,86.96-84.89,7.6-20.46,13.32-41.79,19.27-62.93,8.41-29.89,17.24-59.5,32.44-86.32,22.67-40.03,54.69-67.92,94.64-84.46,23.75-9.84,48.3-17.34,72.52-25.79,20.79-7.25,41.18-15.45,58.98-29.74,22.93-18.4,38.06-43.1,47.23-72.08,7.52-23.76,13.63-48.06,20.95-71.91,4.08-13.28,9.38-26.11,14.13-39.15v-142.62c-17.72,11.98-30.53,28.88-40.52,48.52-11.38,22.38-17,47.08-24.21,71.18-7.14,23.88-13.94,48.08-23.41,70.89-22.7,54.7-62.16,90.09-113.43,109.94-24.47,9.47-49.58,17.02-74.28,25.82-25.39,9.03-48.73,21.91-67.11,43.86-14.72,17.59-24.5,38.22-31.24,60.6-8.01,26.57-15.16,53.45-23.27,79.98-22.58,73.89-68.93,121.19-136.59,144.35-23.22,7.95-46.5,15.69-69.62,23.95-7.13,2.55-13.83,6.51-20.73,9.83,0,0-.01,0-.02,0-2.04.77-4.2,1.29-6.1,2.36-29.61,16.7-50.62,42.24-62.17,76.09-9.23,27.09-16.47,54.98-24.65,82.5-9.21,31-20.92,60.76-40.65,85.65-2.97,3.75-6.1,7.33-9.32,10.83h90.32Z"/>
        <path class="cls-2" d="M2407.45,2.73c-15.23,6.65-29.92,14.61-43.67,24.84-35.98,26.75-59.55,63.77-73.75,108.06-8.94,27.91-16.23,56.45-24.75,84.53-9.36,30.83-24.18,57.77-48.53,77.54-18.21,14.77-39.08,23.17-60.4,30.63-24.74,8.65-49.88,16.26-74.04,26.56-45.61,19.42-79.74,53.37-101.69,101.51-11.16,24.47-18.36,50.46-25.4,76.53-6.99,25.89-13.63,51.95-26.67,75.25-13.19,23.58-30.93,41.82-54.17,53.31,0,0-.01,0-.02,0-8.79,4.12-17.37,8.93-26.43,12.2-24.49,8.84-49.3,16.6-73.75,25.55-63.58,23.25-107.1,69.16-128.96,138.61-9.28,29.47-16.98,59.54-26.31,88.99-13.9,43.88-40.26,75.62-80.48,91.95-21.72,8.81-44.06,15.9-66.23,23.37-34.85,11.74-67.83,27.26-94.93,54.85-12.01,12.23-22.51,25.68-31.05,40.68h-76.14c.91-3.57,1.82-7.12,2.77-10.67,6.13-22.86,13.28-45.28,25.3-65.4,17.24-28.87,41.87-47.31,71.26-58.28,23.01-8.59,46.43-15.88,69.59-24.03,28.3-9.95,54.82-23.68,77.8-44.72,30.35-27.79,49.4-63.62,61.65-104.1,7.4-24.45,13.9-49.22,21.2-73.71,8.04-26.96,19.97-51.44,39.38-71,17.63-17.76,38.8-28.35,61.21-36.39,26.43-9.47,53.29-17.66,79.37-28.15,37.8-15.21,68.85-40.73,91.73-77.42.78-1.24,2.02-2.13,3.05-3.19v1.18c5.65-10.78,12.75-20.99,16.67-32.48,9.99-29.18,18.76-58.86,27.62-88.49,7.3-24.39,15.19-48.38,29.73-69.02,18.24-25.9,42.86-41.49,70.7-51.5,21.36-7.68,43.01-14.36,64.41-21.89,29.38-10.35,56.77-24.79,80.31-47.15,28.98-27.54,47.19-62.54,59.16-101.74,8.1-26.53,15.01-53.49,23.27-79.96,5.4-17.29,12.7-33.04,22.31-46.83h138.89Z"/>
        <path class="cls-2" d="M2498.78,517.66v120.86c-8.79,4.12-17.39,8.94-26.44,12.21-24.49,8.84-49.3,16.6-73.75,25.55-63.58,23.25-107.1,69.16-128.96,138.61-9.28,29.48-16.98,59.54-26.3,88.99-13.9,43.88-40.26,75.63-80.48,91.95-21.73,8.81-44.07,15.9-66.23,23.37-34.85,11.74-67.83,27.26-94.93,54.85-17.84,18.17-32.36,39.02-42.07,63.63h-70.86c2.83-11.22,5.51-22.47,8.5-33.63,6.13-22.86,13.28-45.27,25.3-65.4,17.24-28.86,41.86-47.31,71.25-58.28,23.01-8.59,46.43-15.88,69.59-24.03,28.29-9.95,54.82-23.68,77.8-44.72,30.35-27.79,49.39-63.62,61.65-104.1,7.4-24.45,13.89-49.22,21.19-73.71,8.04-26.97,19.97-51.44,39.39-71,17.63-17.77,38.8-28.36,61.21-36.39,26.43-9.47,53.29-17.65,79.37-28.15,37.8-15.21,68.84-40.73,91.73-77.41.78-1.24,2.02-2.14,3.04-3.2Z"/>
        <path class="cls-2" d="M2498.78,711.04v74.94c-1.07.28-2.18.45-3.21.85-57.4,22.2-99.24,62.83-121.25,125.32-10.77,30.57-18.92,62.25-28.11,93.47-14.44,49.03-42.38,84.33-87.5,101.59-21.2,8.12-42.88,14.75-64.28,22.27-6.79,2.38-13.37,5.45-20.04,8.2h-143.93c8.06-8.69,15.43-18.31,24.3-25.85,17.74-15.06,38.92-22.55,60.06-29.95,24.91-8.71,50.25-16.34,74.47-26.97,55.1-24.19,91.37-68.74,110.89-129.5,8.96-27.9,16.22-56.45,24.79-84.51,9.97-32.64,25.88-60.88,52.47-80.81,18.19-13.64,38.7-21.46,59.5-28.59,19.52-6.69,39.07-13.29,58.62-19.89,1.02-.35,2.14-.38,3.21-.57Z"/>
        <path class="cls-2" d="M2063.91,2.73c-1.24,3.9-2.51,7.79-3.82,11.66-16.23,47.84-49.39,76.15-93.09,91.18-26.68,9.18-53.3,18.56-79.9,28-4.36,1.55-8.49,3.83-12.73,5.79,0,0-.01,0-.02,0-26.62,12.14-49.61,29.86-68.84,53.35-21.82,26.66-35.14,58.31-45.06,91.91-7.69,26.03-14.45,52.42-22.97,78.12-14.86,44.84-43.9,74.58-84.99,90.21-15.65,5.95-31.52,11.25-47.41,16.42-27.44,8.92-54.51,18.78-79.07,35.35-39.65,26.75-65.55,65.48-80.83,112.84-8.93,27.69-16.23,55.99-24.51,83.93-13.76,46.43-39.92,80.92-82.39,98.48-19.62,8.11-39.89,14.3-59.9,21.26-9.41,3.28-18.87,6.3-28.31,9.43v1.24c-1.07.28-2.18.46-3.21.86-57.4,22.2-99.24,62.83-121.25,125.32-10.77,30.57-18.91,62.24-28.11,93.47-10.98,37.29-29.78,66.65-58.01,86.15h-199.69c8.6-3.68,17.46-6.8,26.3-9.89,24.91-8.72,50.25-16.34,74.47-26.97,55.1-24.19,91.37-68.74,110.89-129.5,8.96-27.9,16.22-56.45,24.79-84.52,9.98-32.63,25.88-60.88,52.47-80.8,18.2-13.64,38.7-21.46,59.5-28.59,19.52-6.69,39.07-13.29,58.62-19.89.99-.34,2.05-.38,3.08-.54v-1.22c1.07-.23,2.2-.31,3.22-.72,52.02-21.09,91.89-57.35,113.72-113.72,11.16-28.81,18.94-59.21,27.88-89.01,6.5-21.68,13.45-43.07,25.4-62.06,17.64-28.05,42.35-45.62,71.38-56.25,24.29-8.89,48.92-16.65,73.28-25.33,67.15-23.93,111.91-72.5,133.71-145.96,7.96-26.79,15.12-53.87,23.39-80.55,14.26-46,41.7-78.85,83.94-95.34,22.53-8.8,45.64-15.78,68.5-23.6h0c4.34-1.68,8.65-3.44,13.02-5.01,33.88-12.17,62.6-30.4,85.49-55.48h91.05Z"/>
        <path class="cls-2" d="M2498.78,857.28v116.03c-5.92,10.6-12.49,20.85-17.64,31.89-12.52,26.83-19.31,55.95-27.4,84.55-4.55,16.1-9.81,31.96-14.74,47.93h-105.18c10.51-11.22,21.8-21.7,31.38-33.79,19.73-24.89,31.44-54.64,40.65-85.64,8.18-27.52,15.41-55.42,24.65-82.51,11.54-33.86,32.55-59.4,62.17-76.09,1.9-1.08,4.07-1.59,6.11-2.37Z"/>
        <path class="cls-2" d="M1846.56,2.73c-11.11,3.85-22.22,7.68-33.35,11.44-26,8.8-51.18,19.5-73.84,36.35-35.97,26.75-59.55,63.78-73.74,108.07-8.95,27.91-16.23,56.45-24.76,84.53-9.36,30.83-24.18,57.77-48.53,77.54-18.21,14.77-39.08,23.17-60.4,30.63-24.74,8.65-49.87,16.26-74.04,26.55-45.61,19.42-79.74,53.37-101.69,101.52-11.16,24.46-18.36,50.46-25.4,76.53-6.98,25.89-13.63,51.95-26.66,75.24-13.18,23.55-30.87,41.76-54.06,53.25v.05c-8.8,4.12-17.39,8.94-26.45,12.21-24.49,8.84-49.3,16.6-73.75,25.55-63.58,23.25-107.1,69.16-128.96,138.61-9.28,29.48-16.98,59.54-26.31,88.99-13.9,43.88-40.26,75.63-80.48,91.95-21.73,8.81-44.06,15.9-66.23,23.37-34.85,11.74-67.83,27.26-94.93,54.85-5.53,5.64-10.75,11.53-15.6,17.72h-85.38c5.42-18.57,12.01-36.62,21.87-53.12,17.24-28.87,41.87-47.31,71.25-58.28,23.02-8.59,46.43-15.88,69.59-24.03,28.29-9.95,54.82-23.68,77.8-44.72,30.35-27.79,49.39-63.62,61.65-104.1,7.4-24.45,13.9-49.22,21.2-73.71,8.04-26.96,19.97-51.44,39.38-70.99,17.63-17.77,38.8-28.36,61.21-36.39,26.43-9.47,53.29-17.65,79.37-28.15,37.8-15.21,68.85-40.73,91.73-77.41.78-1.24,2.02-2.14,3.05-3.2v.97c5.63-10.7,12.65-20.86,16.55-32.26,9.98-29.19,18.76-58.87,27.62-88.49,7.3-24.39,15.19-48.38,29.73-69.02,18.24-25.9,42.85-41.49,70.7-51.51,21.36-7.68,43.01-14.35,64.42-21.89,29.37-10.35,56.77-24.79,80.3-47.15,28.99-27.54,47.19-62.54,59.16-101.74,8.1-26.53,15.01-53.49,23.27-79.96,8.69-27.83,22.31-51.68,42.58-69.79h182.14Z"/>
      </g>
      <g>
        <path class="cls-2" d="M828.62,2272.64c-5.39-19.34-10.82-38.65-17.23-57.57-16.23-47.84-49.38-76.15-93.09-91.18-26.67-9.18-53.29-18.56-79.89-28-4.36-1.55-8.5-3.84-12.75-5.79v-.06c-26.62-12.14-49.62-29.86-68.85-53.35-21.82-26.66-35.14-58.31-45.06-91.91-7.69-26.03-14.45-52.42-22.96-78.11-14.87-44.84-43.91-74.58-85-90.21-15.65-5.95-31.52-11.26-47.41-16.42-27.44-8.92-54.51-18.79-79.06-35.35-39.66-26.75-65.55-65.48-80.83-112.84-8.93-27.69-16.23-55.99-24.51-83.93-13.76-46.44-39.93-80.92-82.4-98.48-19.61-8.11-39.89-14.3-59.9-21.27-9.44-3.28-18.96-6.32-28.44-9.47v74.94c1.08.23,2.21.3,3.22.71,52.02,21.1,91.89,57.36,113.72,113.72,11.16,28.82,18.94,59.21,27.88,89.02,6.5,21.68,13.45,43.07,25.4,62.05,17.65,28.05,42.35,45.62,71.38,56.25,24.29,8.89,48.93,16.65,73.28,25.33,67.15,23.93,111.91,72.49,133.71,145.95,7.95,26.8,15.12,53.88,23.39,80.55,14.25,46,41.69,78.85,83.94,95.34,22.53,8.8,45.66,15.79,68.52,23.6v.06c4.34,1.67,8.65,3.43,13.02,5.01,51.89,18.64,91.68,51.51,116.99,101.39h72.96Z"/>
        <path class="cls-2" d="M976.16,2272.64c-18.95-25.18-31.28-54.49-40.39-85.78-7.04-24.15-13.5-48.51-20.92-72.51-14.99-48.46-45.05-80.89-89.42-97.1-24.28-8.87-48.95-16.45-73.25-25.27-40.21-14.6-75.58-37.47-100.99-75.49-8.63-12.92-15.22-27.48-22.74-41.29-.92-1.7-1.86-3.38-2.79-5.07v2.35c-4.75-13.04-10.05-25.87-14.13-39.15-7.33-23.84-13.44-48.15-20.95-71.91-9.17-28.98-24.29-53.68-47.23-72.08-17.81-14.28-38.19-22.49-58.98-29.74-24.22-8.45-48.78-15.96-72.52-25.79-39.96-16.54-71.97-44.45-94.64-84.46-15.2-26.82-24.04-56.43-32.44-86.32-5.95-21.15-11.67-42.47-19.27-62.93-16.16-43.53-46.77-70.41-86.96-84.89-24.68-8.89-49.72-16.58-74.33-25.69-39.3-14.54-73.13-37.99-98.31-74.82-1.4-2.05-3.1-3.84-4.66-5.76v117.24c6.9,3.32,13.61,7.29,20.74,9.84,23.12,8.26,46.41,16,69.62,23.95,67.66,23.16,114.01,70.46,136.59,144.35,8.11,26.54,15.27,53.41,23.27,79.98,6.74,22.38,16.52,43.01,31.24,60.6,18.38,21.95,41.72,34.83,67.1,43.86,24.71,8.79,49.81,16.34,74.28,25.82,51.26,19.85,90.71,55.24,113.43,109.94,9.47,22.81,16.26,47.01,23.41,70.89,7.21,24.1,12.83,48.8,24.21,71.17,10,19.65,22.8,36.55,40.52,48.53v.06c24.84,17.9,53.04,26.7,81.12,35.94,16.05,5.29,32.09,10.76,47.72,17.32,42.93,18.02,76.87,48,99.84,91.97,13.35,25.55,21.36,53.37,29.27,81.29,2.94,10.37,6.11,20.68,9.34,30.96h83.23Z"/>
        <path class="cls-2" d="M680.81,2272.64c-15.32-16.69-34.08-28.25-55.17-36.3v-.06c-20.38-7.03-40.74-14.15-61.16-21.07-26-8.79-51.18-19.5-73.83-36.35-35.98-26.75-59.56-63.78-73.75-108.06-8.94-27.91-16.23-56.45-24.75-84.53-9.36-30.83-24.18-57.78-48.53-77.54-18.21-14.77-39.08-23.18-60.4-30.63-24.74-8.65-49.88-16.26-74.04-26.56-45.61-19.42-79.74-53.37-101.69-101.51-11.16-24.47-18.36-50.46-25.4-76.54-6.99-25.88-13.63-51.94-26.67-75.24-13.2-23.59-30.94-41.83-54.19-53.32v119.66c5.66,10.8,12.76,21.01,16.69,32.52,9.98,29.18,18.76,58.86,27.62,88.49,7.3,24.4,15.19,48.39,29.73,69.03,18.24,25.9,42.86,41.48,70.7,51.5,21.36,7.68,43.01,14.36,64.41,21.89,29.38,10.35,56.77,24.79,80.31,47.15,28.99,27.54,47.19,62.54,59.16,101.74,8.1,26.53,15.01,53.49,23.27,79.96,10.87,34.81,29.44,63.36,59.09,82.3,18.16,11.59,37.98,18.48,57.94,25.1,8.14,2.7,16.24,5.52,24.34,8.36h166.32Z"/>
        <path class="cls-2" d="M2198.62,2272.64c-5.53-12.79-10.15-26.13-14.15-39.86-7.03-24.15-13.49-48.51-20.92-72.51-14.99-48.46-45.05-80.89-89.42-97.1-24.28-8.87-48.96-16.45-73.25-25.27-40.21-14.6-75.58-37.47-100.99-75.5-8.63-12.92-15.22-27.48-22.74-41.28-.92-1.7-1.86-3.38-2.79-5.07v2.37c-4.75-13.02-10.05-25.84-14.12-39.1-7.33-23.84-13.43-48.14-20.95-71.91-9.16-28.98-24.29-53.68-47.23-72.08-17.8-14.28-38.19-22.49-58.98-29.74-24.22-8.44-48.77-15.95-72.52-25.79-39.95-16.54-71.96-44.44-94.64-84.46-15.2-26.82-24.04-56.43-32.44-86.31-5.95-21.15-11.67-42.47-19.27-62.94-16.16-43.53-46.77-70.41-86.97-84.89-24.68-8.89-49.72-16.58-74.33-25.69-39.3-14.54-73.12-37.99-98.31-74.82-1.4-2.05-3.1-3.84-4.66-5.75v.98c-5.89-10.52-12.4-20.7-17.51-31.65-12.51-26.82-19.31-55.95-27.4-84.55-.19-.67-.38-1.35-.58-2.02h-79.2c14.61,22.18,24.13,47.41,31.89,73.53,8.18,27.52,15.42,55.41,24.65,82.5,11.55,33.86,32.56,59.4,62.17,76.09,1.86,1.05,3.98,1.57,5.98,2.33v.03c6.9,3.32,13.61,7.29,20.74,9.84,23.12,8.26,46.41,15.99,69.63,23.95,67.65,23.16,114.01,70.46,136.59,144.35,8.11,26.54,15.27,53.41,23.27,79.98,6.74,22.38,16.52,43.01,31.24,60.6,18.38,21.95,41.73,34.83,67.11,43.86,24.71,8.79,49.8,16.34,74.28,25.82,51.26,19.85,90.71,55.24,113.42,109.94,9.47,22.81,16.27,47.01,23.41,70.89,7.2,24.1,12.82,48.8,24.2,71.18,9.99,19.64,22.8,36.53,40.51,48.51h0c24.84,17.92,53.03,26.71,81.12,35.95,16.04,5.28,32.09,10.76,47.72,17.32,42.93,18.02,76.87,48,99.84,91.97,10.96,20.98,18.33,43.5,24.99,66.34h70.6Z"/>
        <path class="cls-2" d="M1585.53,2272.64c-10.92-19.44-19.01-40.64-25.47-62.83-7.04-24.15-13.5-48.51-20.92-72.51-14.99-48.46-45.05-80.88-89.42-97.1-24.28-8.87-48.95-16.45-73.25-25.27-40.21-14.6-75.58-37.47-100.99-75.49-8.63-12.92-15.22-27.48-22.74-41.29-.92-1.7-1.86-3.38-2.79-5.07v2.06c-4.71-12.9-9.96-25.63-14-38.78-7.33-23.84-13.44-48.14-20.95-71.91-9.16-28.98-24.29-53.68-47.23-72.08-17.81-14.28-38.19-22.49-58.98-29.74-24.22-8.45-48.77-15.95-72.52-25.79-39.95-16.54-71.96-44.44-94.64-84.46-15.2-26.82-24.04-56.43-32.44-86.31-5.95-21.15-11.67-42.47-19.27-62.94-16.16-43.53-46.77-70.41-86.97-84.89-24.68-8.89-49.72-16.58-74.33-25.69-39.3-14.54-73.12-37.99-98.31-74.82-1.4-2.05-3.1-3.84-4.67-5.76v1.15c-5.92-10.61-12.49-20.86-17.64-31.89-9.46-20.28-15.65-41.87-21.6-63.55h-72.59c7.75,16.01,13.72,33.05,18.9,50.5,8.18,27.52,15.41,55.42,24.65,82.51,11.54,33.86,32.55,59.4,62.17,76.09,1.9,1.08,4.07,1.59,6.11,2.38v.06c6.9,3.32,13.61,7.29,20.75,9.83,23.12,8.26,46.41,16,69.62,23.95,67.66,23.16,114.01,70.46,136.6,144.35,8.1,26.54,15.26,53.41,23.27,79.98,6.74,22.38,16.52,43.01,31.24,60.6,18.38,21.95,41.73,34.83,67.11,43.86,24.71,8.79,49.8,16.34,74.28,25.82,51.26,19.85,90.71,55.24,113.42,109.94,9.47,22.81,16.27,47.01,23.41,70.89,7.21,24.1,12.83,48.8,24.21,71.18,9.97,19.59,22.74,36.45,40.39,48.43v.08c24.84,17.9,53.03,26.7,81.11,35.94,16.05,5.29,32.09,10.76,47.73,17.32,42.92,18.02,76.86,48,99.84,91.97,13.34,25.55,21.36,53.37,29.26,81.28.76,2.68,1.53,5.35,2.32,8.01h75.33Z"/>
        <path class="cls-2" d="M1446.42,2272.64c-3.36-11.63-6.87-23.2-10.75-34.62-16.23-47.84-49.39-76.15-93.09-91.18-26.67-9.18-53.29-18.56-79.89-28-4.31-1.53-8.42-3.79-12.61-5.73v-.05c-26.62-12.14-49.63-29.86-68.85-53.35-21.82-26.66-35.14-58.31-45.06-91.91-7.68-26.03-14.45-52.42-22.96-78.12-14.86-44.84-43.9-74.58-84.99-90.21-15.65-5.95-31.52-11.26-47.41-16.42-27.45-8.92-54.51-18.78-79.07-35.35-39.65-26.75-65.55-65.48-80.83-112.84-8.93-27.69-16.23-55.99-24.51-83.93-13.76-46.43-39.92-80.92-82.39-98.48-19.62-8.11-39.89-14.3-59.91-21.27-9.44-3.28-18.96-6.32-28.44-9.47v-1.27c-1.07-.28-2.18-.45-3.21-.85-57.4-22.2-99.24-62.83-121.25-125.32-10.77-30.57-18.92-62.25-28.12-93.47-7.28-24.71-17.98-45.93-32.6-63.12h-160.23c12.12,4.22,24.15,8.67,35.91,13.84,55.1,24.19,91.37,68.74,110.89,129.49,8.97,27.91,16.22,56.46,24.8,84.52,9.97,32.63,25.88,60.88,52.47,80.81,18.2,13.63,38.71,21.46,59.5,28.59,19.52,6.69,39.07,13.29,58.62,19.89,1.02.35,2.14.38,3.21.57v1.27c1.08.23,2.21.3,3.22.72,52.02,21.09,91.88,57.35,113.72,113.72,11.15,28.81,18.94,59.2,27.88,89.01,6.5,21.68,13.45,43.07,25.4,62.06,17.64,28.05,42.35,45.62,71.38,56.25,24.29,8.89,48.92,16.65,73.28,25.33,67.15,23.93,111.91,72.5,133.71,145.95,7.96,26.8,15.12,53.88,23.39,80.55,14.26,46,41.7,78.85,83.94,95.34,22.5,8.78,45.57,15.76,68.39,23.55v.03c4.33,1.68,8.65,3.44,13.02,5.01,43.47,15.62,78.44,41.22,103.54,78.44h79.92Z"/>
        <path class="cls-2" d="M1277.21,2272.64c-8.49-5.25-17.57-9.63-27.13-13.29v-.04c-20.39-7.03-40.74-14.15-61.17-21.06-25.99-8.8-51.18-19.5-73.83-36.35-35.97-26.75-59.55-63.78-73.75-108.07-8.94-27.91-16.23-56.45-24.75-84.53-9.36-30.83-24.18-57.77-48.53-77.54-18.21-14.77-39.08-23.17-60.4-30.63-24.74-8.65-49.87-16.26-74.04-26.56-45.61-19.42-79.74-53.37-101.69-101.51-11.16-24.46-18.36-50.46-25.4-76.53-6.98-25.89-13.63-51.95-26.66-75.24-13.2-23.6-30.94-41.83-54.2-53.32v-.07c-8.8-4.11-17.39-8.93-26.44-12.2-24.49-8.84-49.3-16.6-73.75-25.55-63.58-23.25-107.1-69.16-128.96-138.61-9.28-29.48-16.98-59.54-26.31-88.99-13.9-43.88-40.25-75.63-80.48-91.95-21.73-8.82-44.07-15.9-66.23-23.37-32.55-10.96-63.47-25.22-89.49-49.55H35.14c3.93,10.42,8.55,20.52,14.27,30.1,17.24,28.86,41.87,47.31,71.26,58.28,23.01,8.59,46.43,15.88,69.59,24.02,28.3,9.96,54.83,23.69,77.81,44.73,30.35,27.79,49.39,63.62,61.64,104.1,7.4,24.45,13.9,49.22,21.2,73.71,8.04,26.97,19.97,51.44,39.39,71,17.63,17.77,38.8,28.36,61.21,36.39,26.43,9.47,53.29,17.65,79.37,28.15,37.8,15.21,68.84,40.73,91.73,77.41.77,1.24,2.02,2.14,3.04,3.2v-1.15c5.66,10.8,12.76,21.02,16.7,32.52,9.98,29.18,18.76,58.87,27.62,88.49,7.3,24.39,15.19,48.38,29.73,69.02,18.24,25.9,42.85,41.49,70.7,51.51,21.36,7.68,43.01,14.35,64.41,21.89,29.38,10.35,56.77,24.79,80.31,47.15,28.99,27.54,47.19,62.54,59.16,101.74,8.1,26.53,15.01,53.49,23.27,79.96,10.87,34.81,29.45,63.37,59.1,82.3,6.22,3.97,12.64,7.39,19.19,10.44h201.37Z"/>
        <path class="cls-2" d="M1427.12,1137.68c1.05,1,2.13,1.96,3.22,2.89,17.74,15.06,38.93,22.56,60.06,29.95,24.91,8.72,50.26,16.34,74.48,26.97,55.1,24.19,91.37,68.75,110.89,129.5,8.97,27.9,16.22,56.45,24.79,84.52,9.98,32.63,25.88,60.88,52.47,80.8,18.2,13.64,38.7,21.46,59.5,28.59,19.52,6.69,39.07,13.29,58.62,19.89,1.02.34,2.13.38,3.2.56v1.21c1.08.23,2.21.3,3.22.72,52.02,21.09,91.89,57.35,113.72,113.72,11.16,28.81,18.95,59.2,27.88,89.01,6.5,21.68,13.45,43.07,25.4,62.06,17.64,28.05,42.35,45.62,71.37,56.25,24.29,8.89,48.93,16.65,73.29,25.33,67.15,23.93,111.9,72.5,133.71,145.95,7.95,26.8,15.12,53.88,23.39,80.55,14.25,46,41.7,78.85,83.94,95.34,22.53,8.8,45.66,15.79,68.52,23.6v-76.15c-26.62-12.14-49.62-29.85-68.85-53.35-21.82-26.66-35.14-58.31-45.06-91.91-7.69-26.04-14.45-52.42-22.96-78.12-14.86-44.84-43.91-74.58-85-90.21-15.65-5.95-31.52-11.26-47.41-16.42-27.44-8.92-54.51-18.79-79.06-35.35-39.66-26.75-65.55-65.48-80.83-112.84-8.93-27.69-16.23-55.99-24.51-83.93-13.76-46.44-39.93-80.92-82.4-98.48-19.61-8.11-39.89-14.3-59.9-21.27-9.44-3.28-18.95-6.31-28.42-9.46v-1.21c-1.07-.28-2.18-.46-3.21-.86-57.4-22.2-99.24-62.83-121.25-125.32-10.77-30.57-18.91-62.25-28.11-93.47-14.43-49.03-42.38-84.33-87.5-101.59-6.88-2.63-13.8-5.11-20.75-7.51h-186.43Z"/>
        <path class="cls-2" d="M1731.47,1137.68c3.22,3.5,6.35,7.08,9.32,10.83,19.73,24.89,31.44,54.65,40.65,85.65,8.17,27.52,15.41,55.41,24.65,82.5,11.55,33.86,32.56,59.39,62.17,76.09,1.9,1.07,4.06,1.59,6.1,2.36,0,0,.01,0,.02,0,6.9,3.32,13.6,7.28,20.73,9.83,23.12,8.26,46.41,16,69.62,23.95,67.66,23.16,114.01,70.46,136.59,144.35,8.11,26.54,15.27,53.41,23.27,79.98,6.74,22.38,16.52,43.01,31.24,60.6,18.38,21.95,41.72,34.83,67.11,43.86,24.7,8.79,49.8,16.34,74.28,25.82,51.26,19.85,90.72,55.24,113.43,109.94,9.47,22.81,16.26,47.01,23.41,70.89,7.21,24.1,12.83,48.8,24.21,71.18,10,19.65,22.8,36.54,40.52,48.52v-142.62c-4.75-13.04-10.05-25.87-14.13-39.15-7.33-23.84-13.44-48.15-20.95-71.91-9.17-28.98-24.29-53.68-47.23-72.08-17.81-14.28-38.19-22.49-58.98-29.74-24.22-8.45-48.77-15.95-72.52-25.79-39.96-16.54-71.97-44.44-94.64-84.46-15.2-26.82-24.04-56.43-32.44-86.32-5.94-21.15-11.67-42.47-19.27-62.93-16.16-43.53-46.77-70.41-86.96-84.89-24.68-8.89-49.72-16.58-74.33-25.69-39.3-14.54-73.13-37.99-98.31-74.82-1.4-2.05-3.1-3.84-4.66-5.76v1.18c-5.92-10.59-12.49-20.83-17.63-31.86-12.51-26.82-19.3-55.95-27.4-84.55-2.37-8.37-4.92-16.68-7.53-24.97h-90.32Z"/>
        <path class="cls-2" d="M2407.45,2272.64c-15.23-6.65-29.92-14.61-43.67-24.84-35.98-26.75-59.55-63.77-73.75-108.06-8.94-27.91-16.23-56.45-24.75-84.53-9.36-30.83-24.18-57.77-48.53-77.54-18.21-14.77-39.08-23.17-60.4-30.63-24.74-8.65-49.88-16.26-74.04-26.56-45.61-19.42-79.74-53.37-101.69-101.51-11.16-24.47-18.36-50.46-25.4-76.53-6.99-25.89-13.63-51.95-26.67-75.25-13.19-23.58-30.93-41.82-54.17-53.31,0,0-.01,0-.02,0-8.79-4.12-17.37-8.93-26.43-12.2-24.49-8.84-49.3-16.6-73.75-25.55-63.58-23.25-107.1-69.16-128.96-138.61-9.28-29.47-16.98-59.54-26.31-88.99-13.9-43.88-40.26-75.62-80.48-91.95-21.72-8.81-44.06-15.9-66.23-23.37-34.85-11.74-67.83-27.26-94.93-54.85-12.01-12.23-22.51-25.68-31.05-40.68h-76.14c.91,3.57,1.82,7.12,2.77,10.67,6.13,22.86,13.28,45.28,25.3,65.4,17.24,28.87,41.87,47.31,71.26,58.28,23.01,8.59,46.43,15.88,69.59,24.03,28.3,9.95,54.82,23.68,77.8,44.72,30.35,27.79,49.4,63.62,61.65,104.1,7.4,24.45,13.9,49.22,21.2,73.71,8.04,26.96,19.97,51.44,39.38,71,17.63,17.76,38.8,28.35,61.21,36.39,26.43,9.47,53.29,17.66,79.37,28.15,37.8,15.21,68.85,40.73,91.73,77.42.78,1.24,2.02,2.13,3.05,3.19v-1.18c5.65,10.78,12.75,20.99,16.67,32.48,9.99,29.18,18.76,58.86,27.62,88.49,7.3,24.39,15.19,48.38,29.73,69.02,18.24,25.9,42.86,41.49,70.7,51.5,21.36,7.68,43.01,14.36,64.41,21.89,29.38,10.35,56.77,24.79,80.31,47.15,28.98,27.54,47.19,62.54,59.16,101.74,8.1,26.53,15.01,53.49,23.27,79.96,5.4,17.29,12.7,33.04,22.31,46.83h138.89Z"/>
        <path class="cls-2" d="M2498.78,1757.71v-120.86c-8.79-4.12-17.39-8.94-26.44-12.21-24.49-8.84-49.3-16.6-73.75-25.55-63.58-23.25-107.1-69.16-128.96-138.61-9.28-29.48-16.98-59.54-26.3-88.99-13.9-43.88-40.26-75.63-80.48-91.95-21.73-8.81-44.07-15.9-66.23-23.37-34.85-11.74-67.83-27.26-94.93-54.85-17.84-18.17-32.36-39.02-42.07-63.63h-70.86c2.83,11.22,5.51,22.47,8.5,33.63,6.13,22.86,13.28,45.27,25.3,65.4,17.24,28.86,41.86,47.31,71.25,58.28,23.01,8.59,46.43,15.88,69.59,24.03,28.29,9.95,54.82,23.68,77.8,44.72,30.35,27.79,49.39,63.62,61.65,104.1,7.4,24.45,13.89,49.22,21.19,73.71,8.04,26.97,19.97,51.44,39.39,71,17.63,17.77,38.8,28.36,61.21,36.39,26.43,9.47,53.29,17.65,79.37,28.15,37.8,15.21,68.84,40.73,91.73,77.41.78,1.24,2.02,2.14,3.04,3.2Z"/>
        <path class="cls-2" d="M2498.78,1564.33v-74.94c-1.07-.28-2.18-.45-3.21-.85-57.4-22.2-99.24-62.83-121.25-125.32-10.77-30.57-18.92-62.25-28.11-93.47-14.44-49.03-42.38-84.33-87.5-101.59-21.2-8.12-42.88-14.75-64.28-22.27-6.79-2.38-13.37-5.45-20.04-8.2h-143.93c8.06,8.69,15.43,18.31,24.3,25.85,17.74,15.06,38.92,22.55,60.06,29.95,24.91,8.71,50.25,16.34,74.47,26.97,55.1,24.19,91.37,68.74,110.89,129.5,8.96,27.9,16.22,56.45,24.79,84.51,9.97,32.64,25.88,60.88,52.47,80.81,18.19,13.64,38.7,21.46,59.5,28.59,19.52,6.69,39.07,13.29,58.62,19.89,1.02.35,2.14.38,3.21.57Z"/>
        <path class="cls-2" d="M2063.91,2272.64c-1.24-3.9-2.51-7.79-3.82-11.66-16.23-47.84-49.39-76.15-93.09-91.18-26.68-9.18-53.3-18.56-79.9-28-4.36-1.55-8.49-3.83-12.73-5.79,0,0-.01,0-.02,0-26.62-12.14-49.61-29.86-68.84-53.35-21.82-26.66-35.14-58.31-45.06-91.91-7.69-26.03-14.45-52.42-22.97-78.12-14.86-44.84-43.9-74.58-84.99-90.21-15.65-5.95-31.52-11.25-47.41-16.42-27.44-8.92-54.51-18.78-79.07-35.35-39.65-26.75-65.55-65.48-80.83-112.84-8.93-27.69-16.23-55.99-24.51-83.93-13.76-46.43-39.92-80.92-82.39-98.48-19.62-8.11-39.89-14.3-59.9-21.26-9.41-3.28-18.87-6.3-28.31-9.43v-1.24c-1.07-.28-2.18-.46-3.21-.86-57.4-22.2-99.24-62.83-121.25-125.32-10.77-30.57-18.91-62.24-28.11-93.47-10.98-37.29-29.78-66.65-58.01-86.15h-199.69c8.6,3.68,17.46,6.8,26.3,9.89,24.91,8.72,50.25,16.34,74.47,26.97,55.1,24.19,91.37,68.74,110.89,129.5,8.96,27.9,16.22,56.45,24.79,84.52,9.98,32.63,25.88,60.88,52.47,80.8,18.2,13.64,38.7,21.46,59.5,28.59,19.52,6.69,39.07,13.29,58.62,19.89.99.34,2.05.38,3.08.54v1.22c1.07.23,2.2.31,3.22.72,52.02,21.09,91.89,57.35,113.72,113.72,11.16,28.81,18.94,59.21,27.88,89.01,6.5,21.68,13.45,43.07,25.4,62.06,17.64,28.05,42.35,45.62,71.38,56.25,24.29,8.89,48.92,16.65,73.28,25.33,67.15,23.93,111.91,72.5,133.71,145.96,7.96,26.79,15.12,53.87,23.39,80.55,14.26,46,41.7,78.85,83.94,95.34,22.53,8.8,45.64,15.78,68.5,23.6h0c4.34,1.68,8.65,3.44,13.02,5.01,33.88,12.17,62.6,30.4,85.49,55.48h91.05Z"/>
        <path class="cls-2" d="M2498.78,1418.09v-116.03c-5.92-10.6-12.49-20.85-17.64-31.89-12.52-26.83-19.31-55.95-27.4-84.55-4.55-16.1-9.81-31.96-14.74-47.93h-105.18c10.51,11.22,21.8,21.7,31.38,33.79,19.73,24.89,31.44,54.64,40.65,85.64,8.18,27.52,15.41,55.42,24.65,82.51,11.54,33.86,32.55,59.4,62.17,76.09,1.9,1.08,4.07,1.59,6.11,2.37Z"/>
        <path class="cls-2" d="M1846.56,2272.64c-11.11-3.85-22.22-7.68-33.35-11.44-26-8.8-51.18-19.5-73.84-36.35-35.97-26.75-59.55-63.78-73.74-108.07-8.95-27.91-16.23-56.45-24.76-84.53-9.36-30.83-24.18-57.77-48.53-77.54-18.21-14.77-39.08-23.17-60.4-30.63-24.74-8.65-49.87-16.26-74.04-26.55-45.61-19.42-79.74-53.37-101.69-101.52-11.16-24.46-18.36-50.46-25.4-76.53-6.98-25.89-13.63-51.95-26.66-75.24-13.18-23.55-30.87-41.76-54.06-53.25v-.05c-8.8-4.12-17.39-8.94-26.45-12.21-24.49-8.84-49.3-16.6-73.75-25.55-63.58-23.25-107.1-69.16-128.96-138.61-9.28-29.48-16.98-59.54-26.31-88.99-13.9-43.88-40.26-75.63-80.48-91.95-21.73-8.81-44.06-15.9-66.23-23.37-34.85-11.74-67.83-27.26-94.93-54.85-5.53-5.64-10.75-11.53-15.6-17.72h-85.38c5.42,18.57,12.01,36.62,21.87,53.12,17.24,28.87,41.87,47.31,71.25,58.28,23.02,8.59,46.43,15.88,69.59,24.03,28.29,9.95,54.82,23.68,77.8,44.72,30.35,27.79,49.39,63.62,61.65,104.1,7.4,24.45,13.9,49.22,21.2,73.71,8.04,26.96,19.97,51.44,39.38,70.99,17.63,17.77,38.8,28.36,61.21,36.39,26.43,9.47,53.29,17.65,79.37,28.15,37.8,15.21,68.85,40.73,91.73,77.41.78,1.24,2.02,2.14,3.05,3.2v-.97c5.63,10.7,12.65,20.86,16.55,32.26,9.98,29.19,18.76,58.87,27.62,88.49,7.3,24.39,15.19,48.38,29.73,69.02,18.24,25.9,42.85,41.49,70.7,51.51,21.36,7.68,43.01,14.35,64.42,21.89,29.37,10.35,56.77,24.79,80.3,47.15,28.99,27.54,47.19,62.54,59.16,101.74,8.1,26.53,15.01,53.49,23.27,79.96,8.69,27.83,22.31,51.68,42.58,69.79h182.14Z"/>
      </g>
    </g>
  </g>
</svg>