<?xml version="1.0" encoding="UTF-8"?>
<svg id="Layer_1" data-name="Layer 1" xmlns="http://www.w3.org/2000/svg" viewBox="0 0 2247.95 1154.73">
  <defs>
    <style>
      .cls-1 {
        fill: #ffe600;
        stroke-width: 0px;
      }
    </style>
  </defs>
  <path class="cls-1" d="M2007.93,922.81c-.05-.37-.14-.76-.28-1.16l-1.72,2.08c.94-.18,1.59-.49,2-.92Z"/>
  <path class="cls-1" d="M2020.48,926.18l1.02-2.04c-2.05.47-1.94,1.23-1.02,2.04Z"/>
  <path class="cls-1" d="M2157.7,553.36l-17.01.67.8-1.24c-3.82,1.38-11.37.97-14.02.51.39-.61.08-1.59,3.08-1.75-20.57.09-5.26,6.53-22.26,8.06,1.06-.11,2.39-.08,4.24.25,4.16-.42,7.88,1.4,6.35,2.28,8.4-2.44,8.7.16,9.6-4.28,5.36-2.27,11.31.63,5.18,2.53l15.61-2.99-9.43-.52c2.4-3.72,15.08.83,17.87-3.51Z"/>
  <path class="cls-1" d="M139.97,1151.92l-.96-.34c.35.14.66.24.96.34Z"/>
  <path class="cls-1" d="M1930.83,1095.75l.97.57c-.36-.23-.67-.41-.97-.57Z"/>
  <path class="cls-1" d="M1971.32,995.22l1.31.23c-.49-.11-.92-.18-1.31-.23Z"/>
  <path class="cls-1" d="M2077.26,694.12c-.55-.74-.83-1.11-1.52-1.24l1.52,1.24Z"/>
  <path class="cls-1" d="M58.98,873.8l2.02-.05c-.52-.09-1.17-.12-2.02.05Z"/>
  <path class="cls-1" d="M2172.98,174.35c2.71,1.66,4.44,2.51,5.41,2.53-.93-.26-2.58-.97-5.41-2.53Z"/>
  <path class="cls-1" d="M2145.99,430.29c.04.16.1.34.14.5-.04-.13-.07-.24-.1-.38-.1-.35-.2-.71-.3-1.07l.26.95Z"/>
  <path class="cls-1" d="M2154.91,669.09l-.39.16c.56,2.48.94,1.34.39-.16Z"/>
  <path class="cls-1" d="M2211.47,657.59c-2.28.73-4.2,1.22-5.53,1.45-1.34.26-2.12.42-2.12.42,2.58.27,5.32,1.21,8.1,1.12,4.69-1.17,2.56-2.08-.45-2.99Z"/>
  <path class="cls-1" d="M2160.2,529.81c-.09-.36-.24-.74-.44-1.12l-1.56,2.26c.97-.28,1.61-.66,2-1.14Z"/>
  <path class="cls-1" d="M2138.32,574.9l-.43.09c.47,2.5.94,1.46.43-.09Z"/>
  <path class="cls-1" d="M2187.79,562.53c2.18.4,4.47,1.54,6.71,1.94,3.74-.14,2.09-1.51-.36-2.98-3.74.62-6.34,1.04-6.34,1.04Z"/>
  <path class="cls-1" d="M2145.32,711.53c-.09-.36-.23-.74-.42-1.12l-1.45,2.25c.91-.27,1.52-.65,1.88-1.13Z"/>
  <path class="cls-1" d="M2158.22,713.54l.76-2.14c-1.98.69-1.78,1.42-.76,2.14Z"/>
  <path class="cls-1" d="M2247.95,329l-16.83,2.47.64-1.31c-3.62,1.78-11.19,2.17-13.88,1.99.31-.65-.12-1.59,2.84-2.07-20.44,2.28-4.41,7.04-21.13,10.36,1.05-.22,2.37-.34,4.24-.2,4.08-.85,8.01.55,6.6,1.58,8.05-3.31,8.67-.77,9.01-5.27,5.05-2.82,11.33-.58,5.47,1.96l15.15-4.63-9.45.49c1.92-3.95,15.09-.78,17.33-5.39Z"/>
  <path class="cls-1" d="M2090.32,891.34l1.04.46c-.38-.19-.72-.33-1.04-.46Z"/>
  <path class="cls-1" d="M916.37,241.78c.23-.06.47-.11.73-.18-.27.03-.51.1-.73.18Z"/>
  <path class="cls-1" d="M1848.37,32.71l.06.67c0-.18,0-.39-.06-.67Z"/>
  <path class="cls-1" d="M2117.99,787.28l1.33.09c-.5-.06-.94-.08-1.33-.09Z"/>
  <path class="cls-1" d="M1735.39,61.41c.05-.08.11-.17.16-.27-.07.07-.12.16-.16.27Z"/>
  <path class="cls-1" d="M1822.29,4.56c.03-.08.03-.2.01-.41-.01.13-.01.27-.01.41Z"/>
  <path class="cls-1" d="M1855.29,87.38c.03-.07.05-.17.05-.34-.03.1-.04.22-.05.34Z"/>
  <path class="cls-1" d="M1719.54,79.11c0-.08.02-.17,0-.27-.04.06-.02.16,0,.27Z"/>
  <path class="cls-1" d="M2204.59,669.06c-1.36-.36-2.98-.54-5.1-.15-2.11.37-4.79,1.46-7.88,2.45-3.1,1.06-6.64,1.58-10.05,1.6-3.42-.18-6.74-.74-9.8-1.74-6.14-1.94-11.27-4.77-14.38-7.04,15.34,2.29,3.76-.83.43-3.59l-.69,1.93c-9.22-2.51-9.89-7.68-14.52-9.44.06.4.26.9.46,1.41l.47-.62c.54.92.39,1.51-.01,1.96.26,1.08-.02,1.88-2.46,1.37l.38-.48c-3.58.35-9.94-.68-12.67-.88l-.77-4.17c-1.26,2.12-4.64,2.49-9.06,2.91-4.48.21-9.98.47-15.57.73-5.61.22-11.31.33-16.11.2-4.8-.12-8.68-.39-10.7-.07-2.28-.85-4.51-1.07-6.79-1.05-2.24.06-4.81.38-7.27.9-5,.98-10.21,2.34-15.84,1.6-3.36.11-5.78.02-7.58-.21.06-.3.11-.66.12-1.14-.47-.1-1.11-.08-1.71-.11l2.76-2.19c.78.31,1.55.63,2.45.52-.12.71-1.58,2.96-.77,2.4,5.27-1.77,15.2-1.77,19.95-8.8-1.89.69-1.98,3.25-4.59,1.93-.04-1.85,1.33-1.56,1.85-2.53-.47-3.43-2.53,2.38-5.3-.09l4.27-4.2-2.65-3.15,9.72-9.24c-8.46-2.26-11.73,10.63-18.75,6.12.54-.57.49-1.09.28-1.58.2-.02.39-.05.59-.07-.2.02-.4.04-.59.06-.19-.44-.5-.85-.64-1.24-.94.77-1.98,1.2-2.96,1.65-1.94.23-3.97.53-6.3.96.38-2.11,1.67-5.03,4.5-4.98-12.35-.18-21.42,9.22-33.97,6.03-.56-.86,1.61-1.12.65-1.7-1.4.96-3.59,2.03-4.06,3.02.16-.74.49-1.68,1.36-1.79-1.22.36-2.32.39-3.36.32,0-.48.02-.97.02-1.45.06-3.2.11-6.43.21-9.48,0-.39.02-.76.03-1.15,2.08-.18,3.92-.07,5.95-1.55.98,2.03-3.08,4.33-.35,5.11,2.27-.71,4.1-.93,5.81-1.3,1.98-.41,4.19-.98,6.32-1.98-4.6.13.84-2.33-6.45-2.3.46-.32,1.09-.64,1.78-.97l7.04,3.94,3.81-.48s1.14-3.54,2.76-9.58c2.8-.54,5.63-.93,8.49-1.09-.15.6-.78,1.33-1.52,2.07,6.32-4.77,15.44-8.03,22.08-11.79,3.64-.05,7.66.03,12.06.31l.33.11.15-.08c5.27.35,11.07.98,17.52,2.06l.17.83c1.7-.47,1.7-1.82,4.52-1.23l-9.47-2.6c5.58-3.39,10.03-8.55,17.9-10.35,1.87.64,2.78,2.29,3.2,3.61,6.42-1.42,12.7-2.35,19.67-3.32l7.29,4.95c5.8-3.39.9-14.59,18.93-9.46-7.77-7.46,7.55-5.35,4.75-9.23,1.03.92,3.22,2.24,5.02,3.48,9.89-1.64,28.43-5.23,32.39-9.63,0,0-2.21-.72-5.73-1.92l.76-1.52c-1.56.32-1.91.75-1.6,1.23-12.24-4.17-38.14-13.33-47.49-19.15,0-.05,0-.1,0-.15,10.63.81,7.04-.34,3.25-2,3.79-.63,6.69,1.54,2.26,3.66l14.72-4.78-9.29.23c1.72-4.47,14.84-.36,16.84-5.57l-16.48,2.24.57-1.48c-2.73,1.5-7.85,1.93-11.24,1.9l.11-.36c-.32.11-.57.23-.78.35-.65-.02-1.25-.05-1.68-.1.27-.74-.19-1.83,2.71-2.28-6.2.59-8.95,1.57-10.27,2.74-1.9-1.56-3.25-3.09-5.5-3.63.07.4.28.88.49,1.37l.42-.71c.56.86.43,1.48.06,2.01.29,1.06.05,1.93-2.31,1.8l.35-.56c-1.32.38-3.07.56-4.88.63.29-.37.9-.73,2.41-.97-2.66.28-4.68.61-6.24.97-.4-.01-.83-.02-1.2-.03l6.81-4.61c-3.81-3.53-11.27-2.26-17.39-1.77.02-.19.04-.36.05-.55.07-.87.13-1.78.2-2.68,5.32-.86,5.66.13,6.49-2.78,5.45-1.82,11.43.31,5.21,1.87l15.82-2.53-9.53-.26c2.48-2.89,15.23.42,18.11-2.96l-17.21.76.82-.96c-3.88,1.12-11.51.91-14.18.59.4-.48.1-1.22,3.14-1.39-3.86.07-6.47.29-8.27.61.08-1.94.16-3.9.22-5.91,9.53-.82,19.44-2.32,26.79-3.48-3.27-4.71-15.35-3.1-26.67-.58.06-2.51.1-5.07.13-7.66,0,0,0,0,0,0,.02-.02.03-.03.05-.04-.02,0-.03,0-.05,0,.06-3.86.11-7.82.19-11.81.15-.03.29-.08.44-.11-.15.03-.29.06-.44.09.13-6.07.36-12.25.98-18.45,3.43-1.08,6.79-2.93,9.46-4.93l2.93,2.97c8.11.3-2.41-5.05,5.51-6.89,2.57,3.23,10.21.46,11.05,3.25,1.46-.49,2.16-.45,1.97-2.59-1.41-.1-4.3.9-3.03-1.74,2.57-1.33,4.21.32,6.36-.13-.04.6-1.28,2.64-.51,2.09,5.11-2.05,15.09-3.14,19.12-9.52-1.83.78-1.64,2.92-4.41,2.11-.24-1.54,1.17-1.44,1.59-2.32-.84-2.81-2.29,2.27-5.34.51l3.85-3.97-1.19-.93c.07-.37.09-.85.01-1.57-.48-.05-1.12.03-1.72.05l2.45-2.44c.82.23,1.63.47,2.51.28-.02.71-1.17,3.09-.43,2.45,5-2.26,14.89-3.23,18.66-10.67-1.79.87-1.53,3.41-4.31,2.36-.29-1.83,1.11-1.67,1.49-2.69-.94-3.35-2.19,2.61-5.29.43l3.68-4.58-3.07-2.87,8.41-10.1c-8.73-1.42-10.22,11.67-17.83,7.89.46-.62.34-1.13.06-1.59.19-.04.38-.09.58-.13-.2.04-.39.08-.58.12-.25-.41-.62-.79-.81-1.17-.83.86-1.81,1.39-2.72,1.93-1.89.42-3.88.91-6.13,1.57.09-2.13.97-5.15,3.8-5.38-12.32,1.03-20.06,11.22-32.99,9.28-.67-.8,1.45-1.27.42-1.75-1.26,1.09-3.29,2.36-3.63,3.39.06-.75.25-1.71,1.11-1.9-1.16.47-2.25.61-3.31.65-.06-.48-.12-.96-.17-1.44-.38-3.18-.77-6.38-1.09-9.41-.18-1.56-.36-3.11-.54-4.65l-.73-6.57,21.27,9.07,3.73-.85s5.15-28.84,4.17-62.26c1.95-.92,2.22-2.7,5.18-3.43-.72.13-1.39.25-2.22.4l-1.26-4.91c-.66.36-1.33.6-2.02.79-.05-.88-.08-1.75-.13-2.64l6.94-3.97c-1.79-1.35-4.45-1.77-7.43-1.78-.61-6.7-1.49-13.43-2.79-20.02,6.78-.29,11.99-.02,15.63.81,2.47-.88,2.38-3.33,5.57-4.17-.72.13-1.37.25-2.19.4l-1.44-5.86c-2.5,1.55-5.18,1.24-8.19,1.7l12.73-8.44c-5.53-5.02-18.69-.26-24.6-1.94,7.73,4.21-4.97,3.07,9.05,5.66l-6.16,6.04h-1.66c-3.82-16.07-10.17-30.89-20.34-41.72.04-.11.08-.22.12-.33,1.82.66,3.89,1.42,6.14,1.92,4.37,1.01,8.59-.27,10.49-3.78-1.81.85-1.72,3.07-4.64,1.8-.12-1.51,1.33-1.21,1.79-1.99-.68-2.87-2.49,2.03-5.54-.96,1.51-.69,2.93-1.5,4.19-2.65-.92-.87-1.8-1.89-2.65-2.9,2.93-1.93,5.14-4.94,6.84-8.49-3.2.31-4.89,2.56-7.18,4.09-2.04,1.43-4.48,1.81-7.43-1.03.41,0,.8.04,1.21.04-.46-.29-.99-.53-1.49-.8.38-.49-.27-1.44-.46-2.11-1.8.18-3.95-.65-5.43-.24-1.42-.42-2.89-.79-4.43-1.1-.05-1.49,1.35-4.81,5.17-2.97-2.67-1.3-5.28-2.02-7.89-2.14-4.08-.07-7.18,1.54-10.09,3.21-.33-.04-.65-.08-.98-.11l1.84-8.14c.77-.7,1.49-1.53,2.12-2.48l1.67,3.97c4.02,1.83-1.57-6.28,2.17-6.97,1.52,4.19,5.05,2.27,5.71,5.64.68-.36,1.03-.19.74-2.72-.7-.32-2.04.38-1.65-2.49,1.14-1.16,2.09,1.01,3.11.82.04.7-.38,2.88-.06,2.35,2.32-1.55,7.15-1.56,8.32-8.65-.79.72-.45,3.25-1.89,2-.29-1.83.4-1.56.5-2.54-.73-3.39-.84,2.45-2.52-.04l1.4-4.18-1.69-3.07,2.6-7.91c.51.49.92,1.04,1.03,1.78,1.18.09,1.75.52,1.79-1.89-1.18-.87-3.59-.91-2.41-3.31,2.32-.28,3.56,2.41,5.54,3.36-.14.59-1.49,1.89-.75,1.81,2.32.45,6.09,2.84,10.38,4.11,4.39,1.33,8.54-.04,10.29-4.14-1.77.95-1.6,3.58-4.54,1.98-.17-1.79,1.28-1.39,1.71-2.3-.79-3.42-2.4,2.33-5.54-1.31,1.48-.77,2.85-1.68,4.07-3-.94-1.06-1.87-2.3-2.74-3.52,2.85-2.19,4.93-5.68,6.49-9.84-3.17.26-4.77,2.87-6.98,4.61-2.11,1.74-4.68,2.23-8.03-2.07,1.05-.33.02-1.85-.24-2.81-2.13.19-4.89-1.52-6.23-.1-.19-.11-.38-.18-.56-.28-.14-.76-.27-1.53-.41-2.3l-1.45,1.38c-.4-.19-.8-.42-1.21-.59-.12-1.74,1.14-5.72,5.04-3.4-2.71-1.63-5.33-2.56-7.92-2.79-3.48-.19-6.18,1.15-8.68,2.72.3-1.55.61-3.09.92-4.64.85-4.2,1.73-8.4,2.66-12.47l6.51-6.31c-.42-3.04-.79-6.07-1.17-9.11,2.25-5.21,4.52-9.71,6.41-13.72,4.72-9.86,6.63-17.84,6.44-20.26,3.15,2.19,4.77,3.08,5.66,3.52.92.52,1.27.63,1.58,1.13-.48-1.29-.93-1.86-2.92-3.19-1.81-1.12-6.87-4.72-11.92-7.37-.42,1.34-.92,2.66-1.39,3.99-2.97-1.62-5.53-2.8-7.64-3.68-.17-2.64-.35-5.27-.49-7.89,1.09.44,2.18.9,3.24,1.42,5.22,2.56,9.84,5.73,12.9,7.68-3.69-2.69-9.76-7.32-16.21-10.63-.87-16.65-1.14-33.07-.8-49.12l-85.85,19.73c-1.26.29-2.53.57-3.79.84-2.12-.18-4.16-.4-6.56-.45l-1.02-3.63s-.06.05-.09.08l.99,3.54c-.15,0-.32,0-.48,0l-.89-3.19c.13-.12.26-.23.38-.35l-.45-1.6c-.12.12-.25.24-.38.36l-1.91-6.82h0s1.91,6.83,1.91,6.83c-.22.2-.44.4-.67.59l-1.91-6.81c.23-.21.45-.41.66-.61l-.03-.12c-.2.21-.42.44-.65.67l-2.78-9.91c4.41-.86,8.7-1.76,12.72-2.71l91.8-21.55c.02-.38.04-.76.06-1.13l-92.32,20.54c-.22.05-.61.13-1,.22-4.07.72-8.21,1.27-12.31,1.92l-.92-3.29c-.08.05-.16.11-.24.17l-1.15-4.12s-.06.04-.09.06l1.15,4.12c-1.05.73-2.71,1.63-7.4,2.48-5.08.99-13.66,1.32-24.09,3.92-2.18.57-4.24,1.26-6.19,2.01-5.28.62-10.58,1.23-15.89,1.79,2.11-1.21,4.77-2.78,7.96-4.44,2.72-1.43,5.93-2.88,9.24-4.07-2.45.71-5,1.6-7.52,2.69-3.79,1.61-7.68,3.71-10.67,5.25-.64.33-1.18.59-1.7.85-9.96,1.04-20.03,1.98-30.07,2.95.4-.52.7-1.04.95-1.57-.48.35-.82.86-1,1.57-2.85.28-5.68.57-8.53.84l-.69-3.79c-1.89.43-1.06,2.5-1.45,4-2.9.27-5.76.57-8.67.85-1.84.17-3.68.37-5.51.56-.31-.41-.58-.89-.73-1.53,3.85-.4,7.95-1.16,12.2-2.68l-.3.3.31.41,1.14-1.1c1.41-.55,2.84-1.17,4.28-1.91-1.73.26-3.49-.54-5.43-.64.2-.31.41-.62.67-.83-.22.11-.4.16-.6.23.82-3.26-1.53-1.16-2.76-1.92-.11-.71-.16-1.52-.24-2.29.48-.61,1.06-.96,1.68-1.07-.17.51-.28,1.07-.24,1.8,1.22-.51,1.71-.96,1.96-1.6.03.01.06.01.08.02,0-.05-.03-.09-.03-.14.24-.67.25-1.55.57-2.91,1.19.17,2.28-.25,3.33-.81,1.16.79.45,1.91-.4,3.26-.89.06-1.63,1.07-1.95,1.48.66-.22.99-.26,1.23-.26-.67,1.27-1.07,2.69-.08,4.21.84-1.01,1.64-2.04,2.38-3.09l.13,1.5c1.1-.73,2.12-1.49,3.12-2.26-1.31-1.96-1.82-1.82-2.37-4.36,4.37-1.49,2.13,2.14,5.93,3.39l3.96-3.17-.09.94c.31-.27.36-.67.35-1.14,1.01-.83,1.97-1.62,2.89-2.37.27.24.83.44,1.91.59.92,2.63-.72,6.33-3.24,5.25-.28-2.54,1.93-1.86.05-4.27-.98,3.08-1.92,1.16-.7,4.9-2.11,2.65-1.9,5.38-3.18,8.04,2.77-2.01,9.97,1.17,12.98-4.13,1.14-4.15-.54-9.25-1.79-14.81.57-.36,1.14-.73,1.67-1.03.93-1.9-.66-3.3-1.34-5.6,2.2-.96,6.72,1.09,8.17-3.03.49-3.86-1.39-8.58-2.46-13.76-.41-1.17-3.57-1.18-3.13,2.25,2.05,2.05-1.66,3.31,1.51,3.89.69,2.08-.2,5.02-1.91,4.13-.22-2,1.2-1.45-.06-3.37-.58,2.41-1.25.88-.37,3.84-1.22,1.82-1.27,3.71-1.89,5.55-.15-.65-.21-1.38-.13-2.21-1.94.58-5.87.08-5.3,4.35-.14-.71-.38-1.51-.85-1.72l-.19,3.32c-.23.19-.45.41-.66.69l-.85-5.21c-.59.11-.85.43-.96.86-1.43,1.46-2.96,2.56-4.57,3.69-.95-.25-1.88-.66-2.6-1.6.23.37.44.81.43,1.22l-2.85-.77c1.37.71,1.55,1.9,1.23,3.01-.75.1-1.47.21-2.12.38.01-1.66-2.25-1.52-2.44-4.05-.99.5-2,1.11-2.8,1.88-.77.78-1.19,1.74-1.36,3.15-.31-.11-.61-.04-.9.11.05-.68.42-1.17.42-1.7-.61,1.38-1.29,2.25-2.07,2.94-.48.33-1,.53-1.58.33.13.18.21.41.26.68-1,.69-2.11,1.38-3.35,2.58l.43-2.18c.76-1.9,1.5-3.86,2.28-5.79-.03.3.06.48.42.46l.25-2.06c.12-.29.25-.58.37-.86,1.21.3,1.75.94,2.15,2.64,3.38-.09,6.22-3.14,7.62-7.57.98-.12,1.9-.2,2.62-.1-.46,3.01-2.23,4.11-4.16,5.14,1.33-.12,3.52-.42,5.13-.51l-.35-5.16c.05-.21.11-.42.18-.6,6.66-1.22-1.11,4.73,2.33,5.44,1.85-.74,2.17-2.93,3.24-3.7-3.44,1.53-2.52-2.05-3.07-4.18.57-.17,1.17-.23,1.75-.26-.25.47-.43,1.06-.4,1.85,1.43-.53,1.66-1,1.84-1.89,1.36-.06,2.37-.29,2.25-1.88,2.62-.9,4.63-3.88,6.76.22,1.98-1,1.52-2.77,2.31-4.85-.42-3.62-2.8-2.17-4.27-4.17.12.26.22.54.22.81l-2.02-.71c2.03,1.27.42,4.01-.55,4.38-.41.08-1.1.2-1.59.05.77-2.95,1.8-5.79,2.61-8.65,2.55,2.37,4.75-.18,7.42.35l-.12,1.74c1.58.66,3.47-1.34,5.74-.68l1,3.08c1.29-.97,3.96-1.49,6.25-1.21-.24-1.84-2.3-1.6-1.63-3.76-1.15-.08-2.05.29-1.34,2.27-1.13-.07-1.64-3.01-2.81-4.44,1.35-.74,2.73-1.36,4.13-1.98.39.24.56.51.62.78l-.16-3.36c1.19.11,1.65,1,1.64,2.37,2.37-1.02,2.71-5.37,5.61-3.96-.83,2.68-1.34,4.51-3.25,4.31l3.1.43c-1.05,2.91-6.42,1.54-4.79,6.77,2.96-1.89,7.53-4.09,10.17-7.41,2.02,4.22,3.96.16,6.84,2.61.45.95,1.37,2.2,1.01,3.69l-.74-.1c2.76,1.4,5.63,1.03,8.25,0,1.08-.34,2.1-.72,2.96-1.3l2.53,4.06c3.33.78,2.73-.84,2.15-2.68-.61-1.89-1.13-3.97,1.65-4.78,2.21,3.96,7.09,1.02,7.86,4.41.88-.47,1.31-.33.99-2.88-.88-.28-2.7.74-2.13-2.3,1.56-1.37,2.77.71,4.07.52,0,.7-.58,2.9-.16,2.36,1.51-.92,3.67-1.03,5.66-1.13,2.03-.09,4.43.28,6.27-.48-1.29-.95-1.51,1.11-3.07-1.55.07-1.67.95-.56,1.37-1.08-.09-3.27-1.81.34-3.55-2.98.98-.67,2.04-1.26,3.16-1.41-.56-1.47-1.15-3.18-1.78-4.52,2.62-.89,5.58-.42,8.67,1.29-3.19-6.29-6.24-6.58-8.59-6.23-2.42.42-4.39,1.6-7.27-1.25.74-.82-.21-1.98-.52-2.81-1.53,1.37-3.45,1.33-4.04,3.59l-2.45.08c-.29-1.79-.22-6.47,2.51-6.37-7.85-.24-11.56,8.54-17.96,6.88-1.38-.41-2.86-1.12-4.42-2.13-.45-.97,1.11-.69.38-1.48-.97.59-2.49,1.1-2.78,1.95.07-.68.26-1.52.89-1.41-4.49.36-7.49-5.78-10.24-3.81-.4-2.3,2.15-.9,1.68-1.84-4.84-2.94-6.46,3.48-10.99,2.89,1.09-2.99-1.44-3.38-2.95-5.36-3.4,2.4-11.18,3.16-16.1,6.51-.2-8.3-6,1.06-8.01-5.25-1.25.39-2.81,2.39-2.28,4.94.32-1.56,2.43-.2,2.55,1.27-1.61,1.12-4.06,2.65-3.41,5.91l-2.87-2.08c.57,2.52.78,5.84-.29,6.48-4.17-4.67,1.52,4.15-2.83,2.99.02-3.04.15-5.37-.16-7.57-1.82.48-1.16,1.82-2.12,3.22-.94-1.64-.41-5.99.48-8.12l-2.66-.44c-.89,5.19-2.75,12.99-6.39,13.65-.1-2.61.95-3.17-.78-5.85-1.1,1.73-1.84,7-4.27,5.68.19-.37-.07-.73.11-1.11-2.48,4.77-2.69.07-5.81.42-.02-.36-.11-.82-.1-1.23l-1.43,2.76c-3,6.48-5.31-3.26-8.17-5.42l.46-.58c-2.19-3.74-6.7.18-8.49-1.36,2.26,2.38,1.03,2.39,3.06,6.45,1.45-.98.14-5.89,3.07-4.36.34,3.95-2.81,5.49-2.99,8.58-1.46.3-3.54-5.89-4.09-8.14-3.7.8-6.3-1.29-10.79,1-1.13,3.16-.61,11.72-5.41,7.76l-.07-.84c-.05,1.46-1.99-.39-2.24,1.57,2.22,3.61-.89,3.28,1.53,6.52-2.02,1.12-3.7-4.31-4.72-7.56-.14,6.17-4.88-1.31-7.3,3.19-.01-2.58,3.37-4.52,1.27-6.64l-2.53,8.16,1.81-.82c-2.05,5.58-4.16.95-6.39,0-.77-1.51.26-2.63,1.16-2.95-1.02.18-2.36,1.56-3.28,3.4-.49,2.19-3.19,5.81-3.71,9.42l-.61-.1c-.03-.34-.03-.69.05-.83-.24.22-.4.49-.55.77l-1.85-.14.13-.92c-.17.28-.33.58-.47.89l-1.89-.04-.52,1.73.46-.04c.93,4.34-.25,8.5-2.77,9.11.21.14,1.59.05,3.55-.13l-.24,1.69c-2.89.38-5.61.74-8.15,1.07.65-1.24,1.36-2.3,2.51-2.41-3.66-3.33-5.75,5.35-8.45.08,2.53-6.89,5.09-4.92,8.69-8.59,3.19,3.39-1.92,3.87-1.42,6.4l2.6.12c-.98-2.48,4.05-3.69,1.38-8.96-5.55.35-10.76,1.89-15.08,3.99l-3.5-31.72c-.11-.41-.19-1.06-.23-2.11l.23,2.11c.33,1.27.92-.27,1.69-1.6.14,1.44.34,3.17,1.46,2.43,2.94,1.18,2.7-5.43,4.57-5.63l-.39.78c1.95.56,3.94-.73,4.57-3.75,2.63,4.55-4.38,3.36-.7,6.7-2.22-.88-3.81,4.06-5.13,4.92,2.61.12,5.89,4.23,6.01,7.54,4.12-5.56-2.87-11.17.96-15.2l3.3-.3-.42-6.23c1.81-.89.06,5.15,2.74,3.45.09-3.02,2.52-1.37,2.63-3.38.25,1.33.57,2.78,2.05,2.27-.08-.74-.76-2.88.39-3.33,2.21,5.34-2.64,2.4-.02,6.98,3.28-1.28.86-5.77.81-8.13-.07.2-.32.02-.67.05-.42-1.82,1.36-.84.66-2.99-.6.04-1.02.81-1.37,1.56.53-2.23-2.56-3.06-3.55-2.67-1.54,3.81-6.48,4.6-9.33,6.73.2-.4.59-1.17.04-1.85-4.28,2.25-6.49,1.37-11.02,5.14l.48,4.37c-4.2,2.25.9,12.45.14,14.01-.85.8-.99,3.77-2.35,2.05l.03-1.84c-2.27,2.78.29,4.76-2.22,5.35-1.26,3.43,1.85-.16,1.25,2.84-2.78.24.5,8.8-4.38,6.99-.16-1.45-1.67-4.64.49-6.27l-3.02-1.97c2.27-2.76.77-1.52,3.38-3.22.18-4.79-.8-7.28-.55-11.36-.75,1.53.3,4.75-1.28,5.27-2.12-.19-.24-2.2-.41-3.66-1.21,6-3.81-2.99-4.82,2.6,1.66,4.66,1.2,4.69,3.55,7.06-1.15,2.3-3.95-.05-4.88-4.38l.66,3.99c-.6-.78-1.85-.29-2.18-1.24l-.05,2.13c1.88,2.42,3.16,3.46,4.76,1.11-.14,2.95,2.75,6.03.41,8.05-1.11.46-.69-2.13-1.04-3.22-2.5,2.75-4.35,1.78-6.06.64-.86-.57-1.68-1.17-2.53-1.37-.97-.16-1.32-.17-2.12.68.3-1.02.8-1.01,1.86-1.4,1.11-.43,2.32-1.05,3.04-2.92-2.11-2.82-2.59,2.37-3.84,2.39.59-2.19.41-3.63-1.17-4.71l.21,2.47c-.51.19-1.49.76-1.82-.37.17.89.56,1.45,1.24,2.02-.66,3.74-3.63,5.79-7.66,4.15-.47-5.01,4.43-3.17,1.32-6.88-1.21.99-1.5,6.46-4.75,3.74.73-2.92-1.79-2.97-2.08-4.78l-3.2,6.26c-2.19-.45-4.94-.4-6.59,1.8.55-.75,1.42-1.08,2.6-.96-1.83,6.66-6.18-.59-9.16,3.55l1.15-2.74c-3.08-.04-4.61,2.94-6.08,5.87l-.93-3.58c1.06,5.04-2.71,8.57-3.1,10.58,2.29-3.4,3.86-3.19,5.35-2.99,1.53.22,2.94.36,5.57-2.91-.15.88-.32,1.64-.48,2.36-1.89.74-3.62,1.29-4.93,1.18,5.27,2.14-.54,3.64,3.55,3.83-.54,1.76-1.06,3.57-1.53,6.25-.94.19-1.51-.43-1.88-1.48-.1,1.09,0,2.39.05,3.68l-3.77,1.1s.03-.09.05-.13c-2.84-3.08,2.87-4.28-.75-8.93l-.23,3.47c-.98.57-1.54-1.34-1.2-2.15-.99,1.45-.91.53-.78,3.01-.61.44-1.08.68-1.46.79.12-.52.13-.99-.17-1.3-.33.27-.67.59-1.03.92-.25-.38-.4-.96-.52-1.61.35-.12.7-.23,1.04-.31-.62-.06-.98-.2-1.19-.41-.05-.25-.11-.5-.17-.74.09-.37.33-.8.62-1.23,0,0,0,0,0,0,.66-.97,1.48-1.96.93-2.37,1.5-2.75,3.96-5.07,2.8-8.35-1.74.02-3.08,2.26-3.21,4.57l.73.2-.71,3.44c-.36-.07-.9-.06-1.69.05-.8.47-1.53.91-2.29,1.36-.16.02-.31,0-.49.05.23-1.54,1.66-2.18.65-4.62l3.08-.68-.96-3.55c-2.8,1.53-3.77,5.2-4.05,9.86-.69.41-1.34.81-2,1.22-1.45-.87-2.69-3.45-2.83-4.53-.4,1.95.83,3.55,1.77,5.17-1.37.84-2.7,1.68-3.96,2.5-.89-1.36-1.55-3.11-1.73-5.79-.29-.26-.55-.39-.94-.4-.44,0-.92.11-1.44.3-1.03.39-2.19,1.1-3.39,1.96-2.41,1.72-5.04,3.94-7.37,4.95l.75-2.86c-6.74-6.01-3.03,7.48-5.41,10.65,1.83-3.92-3.09-2.96-4.71-5.17-1.6,3.59-2.34,8.99-5.59,9.62-1.46-3.28-2.89-9.08-4.98-8.79l-.64,3.58c-2.08.31-4.13,3.81-5.92,1.93l.21-.35c-2.66-1.21-1.53,4.24.35,4.35l-1.65,2.78-.32-1.11c-.91,1.23-1.68,2.96-2.54,4.75-.42,0-.86,0-1.29-.01-.22-.73-.39-.87-.55-.69.16.36.35.62.54.69-.28,0-.56,0-.85,0,.11-.31.21-.58.31-.69-.92-1.86-1.56-6.84-1.4-9.81-1.44,6.18-9.18,3.82-9.57,10.66-6.18.02-11.3-.37-11.53-2.7-3.66.48-3.81,1.4-6.47,2.4l-.79-.61c-.6-1.5.14-3.21,1.18-3.81.53-.66,1.38.55.85,1.17,2.35-3.58-2.74-1.09-1.5-4.83.84.45,1.64-.48,2.2-.4-3.94-2.01-4.19,4.46-7.34-.42-.93,3.51-3.22,7.79-6.68,6.04.58-2.59-2.95,1.57-2.55-3.2-.57,2.56-3.8.59-3.54,3.53.16-1.11,1.37-1.59,2.46-.92-.9,1.51-.41,4.09-1.92,4.18-.29-.35-.35-1.07-.35-1.07-.27.67-.33,1.5-.31,2.39-1.3.35-2.7.82-4.22,1.44.39-2.19.68-4.08.18-4.49.21,2.19-2.92,5.59-5.03,4.5l.12-1.16c-.61,1.23-1.33,3.62-2.76,2.03.33,2.78.39,5.6.44,7.96-1.25.21-2.67.55-4.08.85.01-.03.03-.04.04-.07-1.03-1.65-1.65-1.44-1.88.42-.68.11-1.34.18-1.95.2-7.56,7.06-17.94,3.75-23.35,10.61-8.98,3.98-1.49-3.06-2.14-3.27-8.54,1.53-2.84,4.23-5.24,6.03-11.68,7.3-14.64,1.14-23.45,4.02-6.22,7.39-24.25,11.24-37.31,15.08,1.18-2.13-.81-2.87-1.94-4.17-6.14,8.95-4.05,5.27-12.57,12.6,2.83-.19,5.69-.31,8.56-.36-3.83,1.68-6.83,4.73-10.1,6.53-3.74.52-7.71.97-11.86,1.4,2.05-1.29,4.32-2.55,7.02-3.75-5.61.2-9.44,2.06-12.66,4.35-4.72.5-9.65,1.05-14.81,1.84,3.04-2.54.88-3.87,6.38-5.64l-4.25-3.11c2.36,2.97-4.39,6.69-5.09,9.26-1.13.19-2.24.37-3.39.59-.76.15-1.53.35-2.29.51-.29-2.23-1.36-4.51,2.66-6.82-4.7,1.38-8.84-.13-13.36,3.4-2.24,1.04-10.95,7.02-15.11,10.93,4.97-4.43,8.56-4.16,12.98-4.03-1.28.44-2.55.88-3.84,1.32-2.09.88-4.19,1.76-6.3,2.65-2.33,1.08-5.01,1.8-7.92,2.26.14-.48.64-1.23,1.69-2.4-2.02,1.11-2.86,1.91-3.27,2.61-2.96.36-6.13.48-9.56.35-7.57-.3-16.17-1.69-25.65-2.73-2.07-.18-4.14-.36-6.22-.53,7.78-2.59,24.29-1.54,33.23-7.53,4.72-5.26.18-11.06-1.04-17.65-1.15-1.48-15.74-.2-15.42,4.27,7.26,1.88-8.52,5.17,4.14,4.6,1.61,2.51-3.56,6.82-9.64,6.37-.03-2.6,5.37-2.47,1.29-4.5-3.31,3.5-5.15,1.75-3.07,5.33-5.88,3.28-6.24,6.03-9.86,9.08-.23-.02-.47-.04-.7-.06-2.07-.07-4.12-.09-6.14-.03-.62-1.86-1.28-3.78-1.63-5.76-1.12-1.47-15.49-.77-15.29,3.56,6.16,1.99-4.31,3.88.17,4.57-.07.02-.15.03-.23.05-.47.12-.91.26-1.38.38l-.23-1.25c-2.83.49-3.45,1.38-3.76,2.35-7.4,2.16-14.21,4.67-20.56,6.51-3.94,1.17-7.68,2.02-11.33,2.52-.29.04-.62.06-.92.1-.38-1.62-5.43-1.99-4.99-4.92-3.34.53-6.54.67-9.14,1.22,1.87-.78,1.82-1.75,3.54-3.61,6.55.32,12.84-2,18.49-2.87-2.62,2.69-6.88,4.16-11.21,4.94,3.45.14,9.5-.53,14.2-1.16l.28-4.06c1.64-.04,3.24.09,4.73.6-1.39,1.34-1.84,2.4,1.45,2.33.64-.18,1.23-.38,1.79-.59,6.44-1.3,6.9-3.06,9.25-5.21.07-.03.13-.07.21-.09-.05.01-.09.02-.14.03.46-.41.98-.84,1.64-1.28,0-1.46-1.02-2.23-2.54-2.68,2.79-1.06,2.37-2,4.22-4.3,10.85-.3,20.93-8.95,28.62-3.44,7.57-2.25,6.65-4.42,10.66-7.59-.08-4.66-9.85-1.62-14.44-3.55.33.29.58.61.49.95l-6.91-.02c6.69.79.09,5.17-3.23,6.07-2.45.5-7.3,1.42-6.89-.08l3.51-1.62c-5.09-.91-9.87,5.22-15.42,3.09-.48-1.1,1.33-1.87,1.49-2.61-2.57,2.09-4.95,3.21-8.27,4.33-3.29,1.12-6.84,2.28-10.81,4.2l3.99-5.81c-2.97,3.3-8.28,5.32-13.84,5.95-5.59.66-11.4-.34-15.86-2.36,1.07.94,2.9,1.72,1.99,2.57-2.52.41-4.76-.66-6.12-1.96-1.39-1.33-1.95-2.98-.86-3.95-2.25,1.52-7.48-1.26-15.22-4.47-3.82-1.53-8.2-2.96-12.48-3.24-4.25-.3-8.27.57-11.12,2.65-7.4,6.06-12.8,13.92-17.42,21.3-6.51.38-15.04-.36-20.99,1.83-1.19-.07-2.36-.09-3.16-.02-7.36,3.65-23.87,3.97-34.61,5.78.9-.37,2.68-1.1,1.34-1.84-15.43,1.82-22.25.87-39.76,4.29l-1.33,4.41c-15.52,1.96-5.35,12.53-8.94,14.05-3.38.74-5.84,3.71-9.21,1.89l1.33-1.84c-9.45,2.64-2.23,4.79-11,5.22-1.67.86-2.07,1.28-1.81,1.47-5.14,1.15-9.95,2.53-14.36,3.77.85-.71,2.34-1.36,4.94-1.83l-8.8-2.15c9.46-2.65,3.6-1.49,13.49-3.04,3.81-4.79,2.23-7.36,5.81-11.44-3.57,1.49-2.2,4.79-7.85,5.22-6.97-.32.68-2.22,1.1-3.69-8.08,5.94-10.8-3.22-17.96,2.34,2.47,4.77.88,4.78,7.21,7.29-5.41,2.25-13.26-.26-13.51-4.66l-.46,4.05c-1.51-.82-6.05-.37-6.53-1.34l-1.58,2.14c4.73,2.53,8.35,3.61,15.31,1.34-2.45,2.95,5.21,6.2-4.01,8.11-4.05.41-.9-2.18-1.36-3.29-20.47,5.31-22.31-4.23-38.46-.07,3.81-2.23,14.37-.86,21.78-4.58-5.4-2.89-10.11,2.27-14.84,2.33,3.81-2.24,4.24-3.71-.91-4.78l-1.58,2.59c-2.92.29-8.1,1.16-8.7.05.03.9,1.43,1.39,4.21,1.83-3.37,2.04-8.42,3.83-14.3,5.06-5.89,1.31-12.42,1.74-19.74,2.1-.11-2.67,4.98-4.14,8.26-5.05,3.23-.94,5.19-1.6.13-3.02-2.45.74-5.1,2.62-7.92,4.25-2.89,1.67-6.33,3.05-11.33,3.04,3.38-4.02-4.97-1.75-5.22-3.51-3.88,3.35-7.55,6.89-11.18,10.41-5.49,1.48-11.41,3.48-16.1,6.3,1.43-.72,3.18-1.35,5.3-1.88-6.73,8.95-15.21,3.35-24.7,7.34,1.42-.84,2.82-1.85,4.22-2.82-7.57.22-13.88,2.31-20.17,4.57l-.43-3.66c.03,5.11-14.34,6.75-17.4,8.45,10.16-2.2,14.71-1.31,19.19-.58,2.22.36,4.44.72,7.25.62,2.83-.08,6.27-.6,10.58-2.26-.82.88-1.63,1.63-2.44,2.33-5.48.96-10.96,1.95-16.43,2.88-4.52.76-9.04,1.39-13.55,1.92.08-.67-.48-1.51-2.08-2.6l-3.48,3.11c-3.71.18-4.08-1.82-2.3-2.45-4.47,1.01-3.53.19-5.07,2.58-1.33.15-2.48.26-3.49.33-1.31-.44.99-2.75-4.05-1.63.33.47-.57.81-2.1,1.08-.53-.46-.43-1.13-.32-1.89.27-1.81.58-4.35-10.08-3.48,2.12-1.76,7.96-2.41,6.31-4.93,3.83-.15,7.66-.21,11.46-.12l-.43-3.67c-13.77.83-21.27,7.03-26.39,14.57-2.07,0-4.12.04-6.21.11.66-.46,1.63-.98,3.04-1.58-7.46,2.21-11.08,1.24-10.93-.51-.9,1.26-1.11,2.06-.96,2.61-.73.07-1.46.05-2.19.13-3.71.36-7.44,1-11.14,1.81-.05-.02-.11-.04-.15-.06-.08.05-.2.09-.28.15-4.89,1.09-9.72,2.51-14.34,4.35-11.64,4.58-25.56,3.31-39.55,1.9-13.97-1.51-28.08-2.79-40.15-.53-6.04.92-11.58,2.89-16.42,5.01l-.85.35-.42.12-.8.27c-.49.24-1.1.26-1.63.39-1.03.29-2.22.25-3.22.33-4.2,2.09-10.18,2.14-17.79,1.49-7.49-.57-16.79-1.62-26.41,1.27-9.33,3-16.07,7.97-21.1,10.16-1.16.52-2.16.92-3.11,1.26-.01,0-.02-.02-.03-.03-1.03.16-1.55.38-1.84.61-.51.13-1.02.24-1.55.33l-.24-.55c-.88.18-1.59.59-2.22,1-3.06.53-5.99,1.24-8.7,2.19l2.59-1.98c-3.82.91-9.68,2.55-16.5,4.79-6.83,2.17-14.57,4.96-22.49,6.04-2,.25-3.94.39-6.05.43-2.49,0-5.03,0-7.62,0-1.87,0-3.85,0-5.82.02l-2.08-1-.78,1.03c-1.9.03-3.89.14-5.89.25.04-.66.41-1.28,2.45-1.97l-3.54,1.2c-.1-.38-.14-.69-.6-.75l-1.13,1.66c-.91.07-1.86.25-2.78.34-.86-.57-1.96-.87-4.05-.03l-.64.61c-.18.03-.35.03-.54.07-4.29-.17-8.74-.08-14.32,1.99l2.23-4.22c7.07.65,16.74-4.17,28.2-5.2-4.28-.59-3.62-3.13-6.03-4.33l-9.83,1.93,8.83,1.9c-3.79,1.29-3.97-1.78-8.4,2.14,4.43-3.92-7.52-2.18-7.9-3.51-16.23,1.12-23.9,3.28-39.15,5.02l-4.43-1.14c5.12-1.06,12.09-3.27,14.7-1.34l-.98-.95c5.9-.97,12.19-3.1,15.95-1.95l3.5-2.36c2.64,2.01,11.72-2.47,10.74,1.42,9.1-2.1-1.28-4.55,9.97-6.4,5.68-1.98,12.88-1.09,21.57-2.37l-.72-.11c-1.69-1.15,10.05-1.49,9.94-1.94-12.71,1.89-15.94-4.73-22.94.1l-4.12-2.31c-1.57,1.97-4.98,2.07-9.05,2.52l1.7,1.07c-2.42-1.2-11.21-.34-16.36,1.02l-4.19,2.27-2.65-1.98-18.55,4.92c6.03-.51-7.48,2.67,5.33-.56-3.38,2.47-8.8,5.21-14.36,7.15l-7.5-2.17c.85-1.74,1.96-2.56,4.35-3.77l5.86-1.03-1.93-1.89,8.75-3.03-6.43-3.05-16.24,5.37c-9.01-.42-19.67,4.9-29.64,7.58l-6.14-.27c-8.06,2.32-19.56,3.93-27.67,10.11l.02-2.23c-1.89,2.55-6.32.9-9.4,1.58-3.23,2.44,3.21,1.99-1.78,5.2l11.42-1.43-14.39,4.75,1.19,1.86c3.11-.65,10.52-4.59,10.11-1.52l-7.94,2.11-.27,1.31-5.37-.44c3.36.28-1.62,1.67-1.23,2.25-1.55-.61-1.94-1.76-4.38-1.39-2.96,1.12-8.43,4.46-12.99,4.47l.63,2.28c-1.71,1.72-6.48,2.34-8.79,3.47-1.44.1-2.96.22-4.67.39.03.05.03.1.05.15-.21.05-.42.1-.62.15-.36.11-.71.23-1.06.34-.71.28-1.41.56-2.13.84-.66.31-1.35.65-2.08,1.01-2.71.44-5.49.97-8.22,1.71.47-.35,1.06-.72,1.72-1.1,2.43-1.46,6.34-2.9,7.72-3.67-5.27.86-8.67,2.43-11.53,3.85-2.81,1.42-5.11,2.77-7.53,3.53.11-.71.32-1.4,1.08-2.16.73-.73,1.92-1.5,4.16-2.36l-.45-3.64c-5.27,2.38-9.04,4.26-11.67,5.18,1.16-2.09-.75-1.6-1.9-1.4-.48.08-.83.14-1.06.11-.04.09-.08.19-.14.25-.27.21-.3.18-.85.22-1.22.08-3.19-.06-4.97.19-.64-1.01-1.34-2.03-2.06-3.04l-4.63,2.38c-3.2-.33-6.91-.5-11-.15,1.95,1.13-2.42,2.1-7.3,4.1-1.27.5-2.54,1-3.47,1.52,3.22-.74,5.91-.98,1.41,2.15.8-.59,1.64-1.14,2.57-1.68,7.18-3.75,14.85-4.76,19.61-4.6,4.88.15,7.38,1.13,8.33,2.34-1.48,1.42-4.75,2.32-9.9,3.28-5.04.9-11.81,2.47-16.72,4.14-1.03.27-1.87.43-2.56.49l-5.51.03c-1.29,2.38-5.64,5.96-.28,5.49l-8.2,4.36-8.05.72c2.04-1.53-1.48-.58-1.25-1.63-1.6.6-3.49,1.18-4.27,1.67-.1-.02-.18-.06-.27-.09l.03-1.73c-.62.21-1.21.41-1.79.6-.46-.96.3-2.38,2.31-4.28,3.57-1.68,4.52-.85,3.77,1.03l1.95-2.44,7.46-2.48-.28-.89,11.07-4.17-7.1,1.53c1.58-1.49,3.97-2.62,5.97-2.79l-2.45-1.15,7.02-3.8c4.33-2.11,8.61-3.58,12.39-4.62-3.82.64-8.18,1.8-12.63,3.71-7.16,3.09-14.3,6.74-21.25,9.97-3.47,1.61-6.9,3.11-10.24,4.38-1.67.63-3.33,1.21-4.96,1.71-1.65.51-3.26.93-4.67,1.16.42.32,1.27.65,2.21.99,1.02.3,2.13.62,2.98.97.64.27,1.12.55,1.3.87l1.45-1.16c3.39-.7,2.21.75.9,2.43-3.24,1.12-5.79,2-7.7,2.46,1.44-1.97-.52-1.67-1.69-1.58-.49.04-.84.05-1.06.01-.05.08-.1.18-.18.24-.29.18-.33.15-.87.14-1.22-.04-3.16-.37-4.95-.29-.5-1.07-1.05-2.15-1.62-3.22l-4.91,1.92c-3.13-.64-6.78-1.17-10.88-1.22,1.78,1.31-2.69,1.86-7.79,3.37-1.32.37-2.65.75-3.64,1.17,3.3-.43,5.99-.4,1.1,2.28.88-.51,1.78-.97,2.77-1.42,7.63-3.04,15.37-3.3,20.06-2.68,4.81.62,7.16,1.85,7.94,3.14-.09.07-.21.13-.31.19-.19.05-.37.1-.55.15.2-.53-1.03-.71-1.15-1.17-.33.77-.16,1.25-.03,1.81-1.89.62-4.59,1-8.22,1.32-5.12.41-12.05,1.31-17.14,2.49-1.06.17-1.92.25-2.61.24l-5.46-.5c-1.61,2.25-6.41,5.38-1.03,5.44l-5.07,2.06-5.42-.05-2.79,1.5-3.53-.03c2.23-1.32-1.39-.72-1.02-1.75-1.67.44-3.62.84-4.46,1.25-2.85-.95-2.55-2.75,1.02-5.43,3.77-1.32,4.6-.41,3.6,1.39l2.27-2.24,7.73-1.74-.16-.91,11.54-3.07-7.24.84c1.77-1.33,4.29-2.22,6.3-2.2l-2.27-1.38,7.48-3.1c4.58-1.68,9.02-2.73,12.92-3.4-3.88.26-8.36,1-13.02,2.47-7.52,2.38-15.1,5.32-22.43,7.86-3.66,1.27-7.26,2.43-10.75,3.36-1.75.47-3.47.88-5.15,1.22-1.71.35-3.36.61-4.79.7.37.36,1.17.77,2.06,1.2.97.4,2.03.82,2.83,1.25.6.33,1.04.66,1.17.99l1.59-1.02c3.95-.42,1.6,1.37-.09,3.17-5.14,1.09-9.44,1.82-14.15,2.59.27-.51-.92-.81-.98-1.27-1.01,1.71.89,2.13-1.74,5.27,1-.07,2.29-.16,4-.28l-2.54-.18,6.71-.94-5.51,3.68c-3.33.82-7.04,1.41-11.07,2.03l-.14-.05,4.8-1.91c-3.01,1.13-6-1.34-3.06-2.94l-8.13,1.66.34-1.79c-5.25-.73-7.27,1.25-7.66,1.75,0,0,0-.01.01-.02-1.36-.53-5.66-.42-3.38-1.81l-2.39-.37.34,1.81-11.16,3.07-5.76-.62-7.52,3.09c-1.97-.05-3.99-.05-6.12.1-2.52.06-5.22.55-7.94,1-.05.01-.09.02-.14.04.14-.19.32-.41.56-.66,3.43-1.47,7.38-2.34,5.19-3.02-4.96,2.47-4.03,1.61-3.75.97.17-.31.23-.55-.54-.25-.78.3-2.41,1.15-5.3,3.05l-1.33,1.22c-.67.17-1.31.33-1.99.5-2.72.63-5.71.97-8.92,1.22l-1.95.12c-12.81-3.14-23.25-.34-31.28-.77l-2.84,2.29s-.03,1.13-.08,3.14c-4,.3-8.32.07-12.96-.64-4.87-.71-10.01-1.78-15.37-2.8-2.76-.47-5.5-.93-8.22-1.4-1.41-.17-2.82-.35-4.22-.52l-2.43-.19-2.67-.1c-12.27-4.37-23-2.6-30.9-3.81l-3.12,2s-1.46,8.67-3.23,21.56c-1.74,12.98-4.17,29.72-5.97,47.31-.92,8.75-1.41,17.81-1.19,26.79.3,8.97.93,17.91,3.38,26.3,2.38,8.49,6.22,16.12,11.63,21.67,5.32,5.58,12.22,8.45,18.98,9.46l-.52,4.05c3.47-1.42,6.5-2.63,9.19-3.38,2.19-.04,4.08-.07,5.68-.1.7-.01,1.33-.02,1.9-.03.56-.05,1.6.1,2.22.11,2.8.19,4.06.36,3.65,2.13-2.74-.72-5.99-1.45-7.27-1.63-1.8-.13-3.7-.14-5.89.27,4.68-.27,5.01.9,4.34,1.71-.73.87-2.98,2.17-4.77,3.68,2.01-.26,3.81-.33,5.31.02,1.66.27,2.39.87,4.8,1.9,1.17-.49.73-.96-.23-1.47-.48-.22-1.1-.5-1.71-.79-.44-.21-.76-.39-1.06-.63.67-.32,2.82-.33,4.63-.43,1.91-.07,3.99-.09,6.16.02,4.36.23,9.15.98,13.84,2.78,7.38,1.59,7.79,2.97,8.37,4.61.39.88.81,1.99,3.09,2.81-2.72-.5-5.88-.41-9.71.16-4.72.65-10.52,2.19-18.16,2.84,4.41,1.44,10.12,1.25,15.47.28,5.34-.94,10.2-2.33,14.07-2.83,1.49.32,3.48.55,6.19.62,3.05-.03,6.14-.19,9.34-.77-1.29,5.63-2.67,12.27-3.95,19.59-1.66.01-3.47-.11-5.43-.39-4.88-.84-9.7-1.67-14.44-2.49-2.27-1.51-4.71-2.96-7.29-4.32-2.87-1.32-5.8-2.47-8.7-3.12-5.82-1.5-11.46-1.4-16.2-1.3l-3.74,2.68s-1.71,9.13-3.2,22.66c-1.5,13.56-3.17,31.44-3.82,49.79-.6,18.3.13,37.29,4.95,52.46,2.47,7.58,6.14,13.98,10.82,18.45,1.32,1.3,2.73,2.39,4.15,3.39-.37.97-.77,1.98-1.77,2.91.43-.34.83-.66,1.32-1.06l1.36,4.56c1.2-1.82,2.61-2.5,4.07-3.38.1.05.2.11.3.16l-6.6,10.47c.42.26.89.35,1.39.38-1.62.63-3.38,1.38-5.36,2.27,3.66.79,8.17-.16,11.97-.96,3.84-.79,6.81-1.24,9.62-.72-2.9-2.83-5.93-3.61-11.02-2.33.28-.16.56-.3.84-.46,1.41-.82,2.88-1.67,4.23-2.27l-.02.26c2.35-.8,4.34-1.2,6.4-1.18.47.16.92.31,1.36.45.56.16,1.1.32,1.62.47,1.14.28,2.2.53,3.16.76,2.14.37,3.89.68,5.25.92,2.88.44,4.23.65,3.77,2.4l-8.35-2.57-3.66-1.01-1.68-.39-1.27-.21c.47.14.88.26,1.26.37.49.19.91.34,1.29.49.73.29,1.33.63,1.69.9.73.55.68.95.17,1.28-.52.32-1.47.58-2.45.9-1.05.31-1.65.77-2.38,1.25.81.15,1.34.31,2.36.6,1.03.36,2.04.71,3.03,1.05,2.12.83,4.22,1.83,6.32,3.01,2.45-.74-1.84-2.09-3.6-3.39,4.56.14,11.36.47,19.25,1.07.07,3.86-21.11,8.11-4.82,13.22l-7.71.12c.97.25,1.26.99.78,1.61l-10.19,1.07c6.39,1.37,21.42,1.31,14.76,7.42l-14.73,2.22c4.18,4.12-1.15,6.2-.11,9.64l14.18,1.96c-.28.87-.55,1.69-.83,2.57-1.35,4.25-2.71,8.68-3.99,13.2-1.31,4.55-2.51,9.18-3.32,13.93-1.79,8.32-2.74,17.59-3.07,26-.14,2.85-.41,5.75-.71,8.63-1.68-1.12-3.31-2.2-5.03-3.32l-3.87.13s-2.66,7.47-5.73,19.36c-2.12,8.13-4.37,18.47-6.12,29.79l-.68-.16-2.16-.93c-2.85-1.35-5.6-3.1-8.57-6.21-1.44-1.45-2.83-3.01-4.17-4.65-1.32-1.8-2.6-3.72-3.83-5.69-1.23-1.97-2.4-4-3.51-6.05-1.04-2.02-1.93-4.01-2.83-6.01-1.72-3.91-3.48-8.14-4.58-11.41-2.21-6.54-3.8-12.06-4.76-15.64.35,1.63,1.06,4.47,2.13,8.2.54,1.86,1.16,3.94,1.87,6.19.36,1.11.74,2.28,1.14,3.49.5,1.32,1.03,2.7,1.57,4.12,4.08,10.92,11.5,25.08,20.09,31.83,2.59,2.03,5.04,3.24,7.36,4.03-1.81.03-3.67-.03-5.64-.28-.14.04-.25.07-.39.11-2.13-1.38-4.44-3.46-6.63-5.74,2.08,2.21,4.37,4.37,6.49,5.78-18.58,5.1,11.39,11.45-16.03,10.91l17.93,4.19c-4.45,2.45-1.36,6.21-13.41,5.18-3.93-2.82-11.54-6.33-18.01-6.37,26.16,4.56-22.19,10.08,2.27,16.5l-8.99.18c1.13.24,1.46.98.89,1.61l-11.89,1.16c7.44,1.31,24.95,1.12,17.14,7.3l-17.19,2.34c4.83,4.08-1.4,6.22-.21,9.65l51.21,5.7c-2.13-2.5-9.53-3.81-6.94-6.59,3.56-.79,6.02-.87,7.96-.64.51,5.91,1.32,11.71,2.55,17.27,3.48,15.68,9.8,29.66,21.85,39.81h-.67c1.07.26,1.38,1,.85,1.62l-10.79,1.08c-1.69-.44-3.41-.84-5.21-1.14,4.2,3.79,10.86,6.53,18.29,8.92l-13.54,1.91c4.58,4.1-1.3,6.21-.17,9.65l27.36,3.3c-.78,2.26-1.22,4.6-2.12,6.86-1.5,3.82-4.4,7.48-11.67,10.51,6.48,3.01-5.58,10.41-3.13,12.73-.85-.32-2.56-.41-3.97-.65-3.61,3.77-8.6,9.07-12.78,13.14-4.22,4.23-7.65,7.15-8.92,9.69,0,0,.41.12,1.15.33.74.24,1.82.55,3.21.72,2.76.45,6.75.49,11.23-.2,8.94-1.34,19.78-4.81,24.69-4.22-11.3,7.72-2.69,3.47-.05,4.09l.36-2.51c6.97-3.81,7.88,1.13,11.43.05-.07-.39-.25-.79-.42-1.21l-.32.95c-.46-.64-.38-1.36-.1-2.09-.26-.98-.08-2.01,1.82-3l-.27.76c2.72-2.61,7.7-4.83,9.89-5.77l.66,4.07c.62-1.79,2.02-3.16,3.86-4.26l15.36,2.07c-1.47-1.97-5.75-3.23-6.46-5.01,3.42-.61,7.18-.96,10.87-1.2,2.45.92,4.71,1.75,10.32-.39l-.34-.22c3.88-.29,7.06-.7,8.74-1.57,4.9.87,9.78-3.54,15-7.6.38,0,.77-.02,1.16-.04.7.23,1.41.43,2.03.76,1.91.87,3.46,1.98,4.6,3-5.94-.64-6.81.52-5.7.9,1.09.48,3.93,1.53,5.12,2.82l.66-2.03c6.98,1.94,6.98,7.37,10.32,9.13,0-.4-.11-.91-.21-1.43l-.41.61c-.33-.94-.15-1.53.19-1.98-.1-1.09.2-1.9,2-1.31l-.34.47c2.76-.29,7.48,1.31,9.52,1.83l.14,4.23c2.27-3.78,10.62-.57,19.07,4.74.34.21.68.42,1.02.63-8.39,3.73-17.35,7.32-25.45,14.11,2.93,8.84,5.53,17.9,7.93,27.08-2.01.92-4.79,2.87-10.63,3.45-4.42.47-10.51.04-19.6-1.64-9.11-1.71-20.99-3.93-36.68-6.87l-.06-.84c-1.86.47-1.93,1.91-5.16,1l9.61,3.04c-6,3.16-11,8.25-18.83,10.26-1.74-.64-2.44-2.27-2.7-3.59-6.36,1.6-12.58,3.03-18.72,4.06-1.99-1.67-3.98-3.31-5.91-5.09-2.7,1.62-3.29,5.26-5.1,7.69-.46.61-.99,1.15-1.65,1.56-.34.21-.67.38-1.12.52-.52.14-1.08.24-1.71.3-2.5.19-5.87-.06-10.61-.91,3.79,3.5,1.51,4.93-1.2,6.23-2.75,1.24-5.94,2.36-4.7,4.09-.95-.76-3.05-1.68-4.73-2.58-4.97,1.95-11.62,5.18-17.13,7.82-5.55,2.73-10.19,4.59-12.04,6.72,0,0,8.13,4.16,18.86,5.95,5.34,1.03,11.28,1.93,16.58,3.36,5.31,1.4,9.93,3.41,12.68,5.4-14.11-.17-3.58,1.36-.71,3.75l.81-2.07c4.27.69,6.39,2.62,7.94,4.26,1.58,1.67,2.66,3.37,4.72,3.96-.02-.41-.17-.89-.3-1.39l-.48.7c-.42-.88-.23-1.51.18-2.03-.15-1.08.18-1.94,2.39-1.73l-.39.55c3.32-.8,9.16-.61,11.7-.56l.32,4.22c5.39-8.29,41.01,4.87,48.87,4.64,6.39,3.31,13.46-.02,21.06-.16-.27.51-.69,1.05-1.4,1.68l-15.27,2.24c4.32,4.11-1.21,6.21-.13,9.64l45.58,5.99c-1.91-2.51-8.5-3.86-6.22-6.62.81-.2,1.55-.34,2.24-.46,2.16.62,2.75.38,2.6-.25,3.72-.1,5.51,1.15,7.85,1.75-3.76.58-.68,2.9.49,4.41,5.32.77,12.28,3.3,18.36,4.34,6.07,1.04,11.23.64,12.67-3.73,3.73.79,6.53,1.4,8.82,2.01,2.34.6,4.06,1.04,5.5,1.41,2.85.77,4.56,1.25,7.75.5-2.25-.84-6.67-1.1-6.85-2.8,6.34,2.12,2.77-1.67.26-1.85,4.44-2.68,16.37-3.44,25.97-3.08,4.85.2,9.18.97,12.35,1.33,1.56.23,2.86.19,4.15-.13,1.18-.34,1.92-1.03,2.11-2.18l.06,1.69c1.78-6.84-1.68-13.63,4.25-17.26l4.15,3.2,5.98-2.79c4.16,2.36,2.22,4.14,2.25,4.98,9.76-2.86,23.88,1.31,36.01,1.84l-7.34-10.04,28.1.92,2.8,2.59c20.94,10.61,13.84-6.3,22.12-3.31l10.54,6-10.1.75c10.3,2.63,14.46,4.5,22.74,8.29,0-.07.08-.13.08-.19-.57-.24-.95-.53-1.04-.94l1.4-.29c1.02-3.52,6.13-6.35,13.21-6.67,10.08.19,17.68-5.49,34,1.23l3.65-7.16,12.17,4.1.23,5.6c-11.71-.55-33.67,2.61-48.79,4.17l-.12,2.58c8.98-.75,19.01-3.8,24.95-3.53,2.64.86,9.01,5.48,6.59,9.26l4.06-4.4c30.07-1.15,28.56-.47,61.4,9.27l-2.92-3.07c6.43-.96,13.02-2.41,15.06,2.19,10.2.51,20.96.63,31.31-1.34l1.93-.35c.64-.11,1.33-.25,1.68-.23.87-.03,1.72-.06,2.56-.09,1.66-.07,3.41.27,5.01.47,3.3.67,6.44,1.83,9.23,3.37l2.07-6.73c3.63.12,9.78,10.17,11.31.96l8.45-2.74c5.65.56,8.96-3.1,15.97.18h0s.04.02.04.02c.43.22.89.46,1.33.68-.01-.2-.06-.37-.11-.54,6.98.68,6.89-.93,7-2.32.15-1.56.42-2.41,8.73-2.86,5.54,3.05,5.69-10.83,11.37-11.51,2.31,2.36,4.59,4.9,6.83,7.5,5.55,1.38,8.67-.03,12.58-2.15,3.93-2.1,8.58-4.69,17.76-5.08,1.19.46,2.31.89,3.35,1.29,1.24.44,2.42,1,3.42,1.47,2.05,1.04,3.62,2.24,4.64,3.67,2.04,2.87,2,6.81-1.48,11.23,4.82-5.48,5.6-7.36,6.98-8.66,1.29-1.33,3.24-2.26,8.34-6.64,2.04,2.8,1.04,4.03-.97,8.22,5.1-.03,6.11-1.34,7.05-3.08.87-1.71,1.48-3.87,4.37-4.85.86-7.18,1.76-18.48,3.51-19.25-.76-.54-1.53-1.09-2.34-1.55,1.44-1.35,2.86-2.41,4.33-3.23,1.71-.82,3.72-1.45,5.64-1.89,3.93-.81,8.08-.72,12.46.68l-.14,3.4,9.06-2.31.81,4.29,13.17-2.23-1.89-1.03c3.09-.78,13.31-3.12,19.43-1.68l-.06,2.43c8.68,2.65,16.48.65,24.52-3.14,2.01-.96,4.03-1.97,6.1-3.16,1.92-1.09,3.87-2.21,5.88-3.35,2.76-1.56,5.75-2.8,8.91-3.79.8.29,1.64.51,2.5.69l-1.33,3.66c3.6,2.19,3.45-.68,4.01-3.28,1.57.12,3.2.09,4.88-.04l.36,2.86c1.42-2.04,2.65-3.03,3.75-3.36.22-.03.44-.07.65-.11,3.2-.2,5.46,5.19,8.85,7.15l-2.56-7.77,8.87,1.23c9.99,2.15,6.61,9.66,5.33,13.89l6.52-6.62,1.73,6.88c2.37-4.27,3.47-3.98,5.64-3.45,2.06.58,4.73,1.46,9.35-1.85,1.01,2.42-1.27,4.54,2.08,4.83,4.94-4.63,9.37-9.54,13.59-14.3-2.57,2.35-5.28,4.76-8.09,7.12l.06-9.32,14.09-2.95c-2.12-.97-4.83-2.25-7.79-3.54,4.25-1.67,7.23,1.14,11.05-1.93l-3.66,4.14c4.61-2.68,6.97-2.7,8.89-2.01.96.35,1.8.87,2.69,1.45.45.26.91.53,1.42.82.63.25,1.31.48,2.08.67-.96-.83-2.3-1.85-2.61-2.92-.15-.46-.22-.91-.09-1.36.97-.57,1.46-1.09,1.67-1.57.09-.04.16-.09.26-.13,3.1-.96,1.93,3.36,4.98,4.11.07-1.71.57-3.28,1.4-4.65,5.6.53,12.31,2.55,15.57,4.3,9.49.27,30.82-7.5,46.13-5.45-3.78-1.47-8.96-3.21-12.07-5.67,2.96-.58,5.93-1.14,8.88-1.75l.95,5.88c2.1-9,15.97-1.26,14.05-11.29,1.15.79,2.64.87,4.27.61,2,2.84,5.35,5.26,14.54,5.56l-15.92,5.33c17.56-5,4.4,4.11,19.17,4.97l-6.09-4.45c8.93-1.4,12.26-.74,17.43,2.46l-7.98-6.97c4.79-1.17,13.7-2.57,14.05,1.77,1.15-1.86,1.51-3.31,1.44-4.57,1.01,1.18,3.34,1.84,8.99,1.3-3.36-.67-5.74-.08-5.92-2.26,21.7.61,4.63-8.24,18.06-8.23-2.21-1.59,1.49-3.91,6.24-5.07.29,11.62,26.89,11.75,34.24,17.8l-.09-.17,18.32,3.71c-3.71-.75.07-4.13,5.26-5.63l-.85.1c5.65-2.1-7.49-12.24,9.91-9.8l9.23,2.95c-1.64-.33-.18-2.18.63-3.11l9.49,2.66c13.69-11.58,27.24,4.69,43.74-1.5-4.79,1.17-12.21.74-9.23-2.95,3.18-1.49,8.16-.48,10.77,1.1l-.91-1.25,32.34,5.47c-2.8-3.77-20.7-3.12-12.94-7.96,4.45-5.54,13.92-.42,19.68-.32-.58,3.09-11.02,6.36-.24,7.44,1.23-1.57,11.24-5.27,6.32-7.21,11.12,2.55,27.12,3.6,37.21,8.52,3.04-1.5-1.92-2.51-3.57-2.85l-.74.92c-6.69-1.35-1.43-7.8-14.22-3.95-1.61-9.99,18.53-3.76,29.82-5.76l-18.47-5.88c29.8-15.37,71.77-2.61,102.02-4.01-8.71,3.6-16.28,1-14.81,8.79,18.98,2.79,16.43,1.2,35.25,1.8l-1.63-.33c9.48-4.53,23.11,2.53,29.1-4.84-4.41-4.1-13.54,4.78-14.23-3.95l23.67-.56c-7.7-4.79-23.67.56-32.75-.2-6.47.83,13.13.52,10.34,6.39-22.08.88-27.4-4.48-38.69-12.12-6.93-5.72,9.31-6.68,13.41-6.95,14.52,8.31,35.25,11.43,56.92,6.18l11.67-7.26c11.15,5.45,7.16,17.52,26.65,15.01l-6.09-4.45c4.19-2.09,6.97-2.87,9.05-2.93-8.6-3.15-17.88-6.73-25.68-10.07,10.6-10.7,32.23,3.32,48.7,4.49-.92-1.24-6.66-1.34-8.5-3.85,24.29-3.67,50.48,7,69.42,7.61,7.74-4.84-15.81-2.11-12.27-8.88,10.04,2.01,20.94-4.34,23.91,1.61-4.79-8.46,22.75-1.83,3.36-8.97,35.53-5.66,75.28.26,111.65,3.31-1.89-2.52-2-4.7-.58-6.54-12.22.75-30.3-.79-37.4-6.49,7.8-4.86,19.31,4.95,21.48,2.2-4.21-1.93-12.35-1.44-12.72-5.79,10.2-5.45,16.43,1.18,23.84,1.62l-3.88,2.42c23.26,4.71,13.46,14.51,37.71,10.84,8.55-5.76-.31-4.34-.8-10.89,5.88,2.27,24.01-5.84,30.35.8l-14.72,1.33c10.42,1.3,20.19.77,27.46,2.67-.81-1.37-1.49-2.78-3.71-3.23,8.31,1.68,18.82.59,23.24,4.73l1.94-7.14c-4.73,3.36-19.34,4.69-22.01.91,1.08-6.21,16.09-3.17,22.54-4-28.69-.45-29.61-11.34-53.57-5.51l4.19,1.94c-14.78,6.09-30.75-1.85-43.93-.94,3.64-1.62,4.26-4.23,2.45-5.31-3.87.94-7.75,1.68-11.63,2.32,6-2.08,11.37-3.68,15.99-4.22.74-.05,1.2-.22,2.17-.2.88-.01,1.76-.03,2.63-.04,1.74-.03,3.45-.07,5.12-.1,3.34-.1,6.53-.19,9.52-.27,11.97-.42,20.76-1.05,23.19-1.79l-13.29-8.93c20.66-1.17,36.16.3,50.8,1.46,14.66,1.15,28.54,1.92,46.37-1.04l-1.92,1.79c5.3,2.09,7.54-16.87,66.16,7.84l.03.85c1.82-.09,1.93-1.49,5.04.05l-9.21-4.93c5.9-1.98,10.98-5.89,18.93-6.27,1.73.98,2.37,2.74,2.59,4.1l19.5-.92,6.2,5.63c5.87-2.82,2.71-14.44,18.94-7.6-6.33-8.17,7.75-4.61,5.63-8.74.84,1.01,2.73,2.54,4.26,3.95,9.47-.69,27.3-2.49,31.57-6.49,0,0-37.84-17.82-48.17-26.65,13.47,2.52,3.49-.89.75-3.66l-.82,1.97c-8.1-2.16-8.28-7.22-12.35-8.73.02.41.15.9.29,1.41l.49-.66c.41.9.21,1.51-.2,2.01.14,1.08-.2,1.93-2.4,1.57l.4-.52c-3.32.65-9.14-.29-11.67-.71l-.21-4.23c-5.64,7.9-40.42-13.29-48.41-13.76-8.22-5.53-17.92.86-28.03-2.06-11.7-1.29-10.7-4.1-12.48-7.02,2.07-.66,4.16-1.4,6.25-2.28,7.02-2.98,14.48-5.8,23.2-8.75l-1.82,2.13c2.63.61,4.3-4.06,12.92-6.26,4.33-1.03,10.41-1.34,19.4.43,2.24.43,4.68,1,7.31,1.7,1.36.36,2.76.74,4.21,1.13,1.7.37,3.49.81,5.28,1.08,7.22,1.33,15.2,1.67,23.39,2.03l.08.84c1.92-.73,2.04-2.15,5.11-1.84l-10.02-1.55c6.55-4.04,11.65-10.18,19.33-12.85,1.73.48,2.39,2.13,2.67,3.43,6.39-2.02,10.84-2.81,17.28-2.34l6,6.43c3.05-.9,3.97-4.32,6.16-6.34,2.34-2.09,5.71-2.33,15.5,1.88-3.74-4.39-1.39-5.27,1.62-5.81,3.01-.49,6.82-.97,5.47-2.94,1.04,1.01,3.49,2.24,5.53,3.32,1.54-.31,3.34-.99,5.2-1.59,1.91-.89,3.97-1.68,6.01-2.99,4.13-2.46,7.96-5.95,10.61-8.44,2.64-2.51,4.24-4.01,5.64-5.2,1.37-1.22,2.62-2.04,3.35-3.08,0,0-.41-.27-1.13-.76-.72-.44-1.74-1.09-3.03-1.55-1.3-.49-2.88-.83-5.04-.64-2.14.16-4.95.98-8.15,1.67-3.22.75-6.8.93-10.18.62-3.37-.51-6.58-1.39-9.48-2.68-5.82-2.53-10.51-5.84-13.29-8.4,14.89,3.77,3.84-.46.92-3.53l-.95,1.85c-8.79-3.39-8.75-8.61-13.1-10.81,0,.4.14.92.26,1.45l.55-.57c.41.97.18,1.54-.28,1.95.11,1.1-.28,1.87-2.63,1.12l.45-.44c-3.6,0-9.76-1.64-12.44-2.11l-.19-4.23c-1.54,1.99-4.94,2.02-9.38,2.02-.62-.03-1.27-.06-1.93-.1l.86-6.58c-4.25,3.79-18.6,6.52-21.78,3.04.23-6.26,15.58-4.71,21.89-6.15-28.62,2.34-31.03-8.36-54.08-.25l4.44,1.52c-7.62,4.1-16.17,4.05-24.49,3.53-6.12-.64-7.97-1.78-9-3.33-1.05-1.54-1.27-3.36-4.33-4.72.59-.12,1.03-.29,1.88-.36.88-.1,1.75-.2,2.61-.3,1.73-.2,3.42-.4,5.08-.6,3.31-.42,6.47-.82,9.44-1.2,11.86-1.58,20.52-3.06,22.84-4.02l-14.45-7.56c20.41-3.16,36.03-3.21,50.77-3.49,14.75-.28,28.67-.87,46.01-5.54l-1.67,1.96c5.56,1.56,5.19-17.45,66.93,1.34l.15.84c1.8-.26,1.72-1.67,5.02-.44l-9.84-3.99c5.6-2.53,10.12-6.91,17.98-8.05,1.86.81,2.74,2.48,3.14,3.81l19.29-2.81,6.94,4.98c5.45-3.36.72-14.58,17.81-9.37-7.42-7.48,7.09-5.32,4.4-9.21.98.92,3.07,2.25,4.78,3.5,9.33-1.6,26.83-5.12,30.54-9.5,0,0-40.11-13.99-51.6-21.73,13.75,1.18,3.36-1.23.25-3.7l-.54,2.04c-8.35-1.35-9.24-6.35-13.48-7.45.07.4.28.88.48,1.37l.39-.7c.53.85.42,1.48.08,2.01.29,1.06.06,1.93-2.17,1.79l.33-.55c-3.22.97-9.13.6-11.71.43l-.79-4.17c-4.53,8.38-42.06-9.25-50.08-8.93-4.05-2.13-8.07-1.79-12.23-.96.7-.35,1.28-.83,1.65-1.52l-16.64.63.77-1.42c-2.91,1.23-8.05,1.16-11.4.8l.16-.35c-.33.08-.59.17-.82.27-.59-.07-1.12-.16-1.53-.24-.03-.04-.06-.08-.08-.12.31-.71.15-1.75,2.96-1.91-1.58,0-2.94.04-4.12.12-.09-.12-.17-.24-.27-.36,1.98-.85,3.95-1.79,5.91-2.86,6.57-3.64,13.62-7.16,21.9-10.93l-1.52,2.29c2.7.34,3.72-4.45,12-7.46,4.17-1.45,10.18-2.34,19.36-1.46,2.29.2,4.79.54,7.5.97,1.4.23,2.85.47,4.35.71,1.74.2,3.58.47,5.4.56,7.37.61,15.36.18,23.56-.26l.2.82c1.81-.91,1.73-2.33,4.84-2.32l-10.19-.56c5.96-4.64,10.2-11.22,17.48-14.62,1.79.31,2.68,1.88,3.13,3.14,6.08-2.63,10.41-3.84,16.88-4l6.86,5.79c2.91-1.19,3.36-4.67,5.26-6.88,2.04-2.3,5.36-2.86,15.68.35-4.33-3.98-2.11-5.09.82-5.91,2.93-.78,6.66-1.62,5.04-3.44,1.17.9,3.78,1.88,5.95,2.75,1.49-.45,3.19-1.3,4.96-2.08,1.78-1.07,3.72-2.05,5.58-3.54,3.77-2.84,7.11-6.68,9.4-9.4,2.29-2.74,3.67-4.38,4.9-5.7,1.2-1.34,2.33-2.28,2.92-3.37,0,0-.44-.23-1.23-.64-.78-.37-1.88-.91-3.22-1.25ZM2152.58,439.32c-1.05.63-1.98,1.29-2.46,2.53l-3.45.29c-.05-.33-.08-.74-.07-1.21,1.99-.58,3.99-1.13,5.98-1.62ZM2110.3,430.49l.89,7.92s0-.03,0-.05l-.93-8.26-.02-.14.06.53ZM2104.88,427.16c-.03-.12-.06-.23-.1-.35.03.12.07.23.1.35h0ZM2105.43,429.09c-.04-.15-.08-.29-.13-.44,0,0,0,0,0,0,.04.14.08.29.13.44ZM2106.1,431.5c-.25-.9-.53-1.87-.8-2.85,0,0,0,0,0,0,.16.56.32,1.11.48,1.68,0,.02,0,.03.01.04.12.44.23.83.35,1.27.11.4.23.82.34,1.21-.06-.24-.15-.53-.22-.78.18.66.34,1.25.51,1.88l-.67-2.46ZM2110.05,428.27c-.01-.13-.03-.26-.04-.38l-.04-.37.09.75ZM2109.46,423l.23,2.09-.04-.33c.09.77.14,1.3.19,1.67-.08-.74-.22-1.98-.38-3.43h0ZM2103.97,424.04l.26.87c.08.26.15.51.22.77.14.48.28.98.42,1.48h0c-.36-1.27-.73-2.54-1.1-3.79.07.22.13.44.2.67ZM2105.75,227.13c.44.66,1,1.09,1.61,1.4,0,.04-.02.06-.03.09.01-.03.03-.05.04-.08.66.34,1.39.54,2.12.7.82.19,1.58.41,2.3.68-2.06,2.2-2.51,9.32-5.6,5.76.33-1.06-.3-1.96-.56-2.8-.36.82-.83,1.22-1.26,1.68.33-1.91-3.53-5.36,1.38-7.43ZM2103.8,235.35c-.18.34-.33.76-.4,1.35l-1.63-.13c-.03-.2-.05-.44-.07-.69,1.04-.07,1.69-.27,2.1-.53ZM1801.69,14.07l-1.71.17c.52-.63,1.1-.94,1.71-.17ZM1340.06,142.06c3.78-1.1,7.63-1.32,10.6-1.03,6.45,3.43-2.28,4.04-4.98,7.43-1.49-.16-3.12-.25-4.69-.43-.49-.86-1.69-1.36-4.43-1.05-.05-.02-.09-.05-.14-.07.03.03.05.06.07.08-.88.1-1.91.28-3.13.56l-.39-.04c.8-2.56,3.55-4.38,7.09-5.46ZM63.68,682.92c.2-.42.43-.83.63-1.25.69.34,1.38.69,2.05,1.02-.63.03-1.48.1-2.68.23ZM87.13,960.31c-4.77-2.83-9.72-5.09-15.15-6.63,3.19.46,7.46.78,10.87,1.41l-.2.86,5.25.98c.87.82.77,1.91-.77,3.38ZM1888.39,837.94c.34-1.09-.06-2.05-1.08-2.52-1.2.42-2.39.81-3.6,1.19-.54-.15-1.07-.3-1.61-.44,1.57-.65,3.09-1.22,4.56-1.72,1.46,1.39,3.7,3.03,1.72,3.49ZM1302.06,1024.23c-.33-.24-.7-.44-1.05-.67.36-.05.71-.07,1.06-.13-.09.28-.12.54-.01.79ZM1293.75,1046.97c1.56.5,3.2.89,4.82,1.08-2.77-.25-4.13-.63-4.82-1.08-3.51-1.14-6.23-3-5.35-5.5,8.47,1.71,3.24,4.02,5.35,5.5ZM1251.61,1042.67c.14.34.2.68.09,1.02,0-.35-.04-.69-.09-1.02ZM1143.62,189.5s.04-.03.06-.05c.04.03.05.06.09.09-.05-.01-.1-.02-.15-.03ZM1164.75,187.13c1.99-3.54,8.74-3.05,10.22-5.43.02.69.09,1.39.79,1.75-7.54,2.83-13.93,5.29-19.53,6.57l1.82-5.4c6.27-1.94-2.81,5.86,6.71,2.52ZM1589.91,115.6c1.97-3.98,4.93-5.51,7.62-6.99-.83,2.86-2.44,4.3-3.44,6.47l-4.18.52ZM1746.65,100.56c.17-.12.35-.23.53-.35.46.55.95,1.05,1.45,1.49-.55-.17-1.1-.25-1.66-.25-.08-.31-.17-.62-.32-.9ZM1805.19,104.34c.18.04.38.03.57.04.45,1.06,0,1.68-.61,2.15-.1-.72-.16-1.49.04-2.18ZM1852.65,83.36c.45-.06.9-.05,1.33.03-.52,1.13-2.3.63-2.03,2.18l-1.56-.97s.04-.05.06-.08c.46-.19.89-.5,1.27-.91.27.08.56.13.95.12,0-.08-.01-.26-.02-.37ZM1852.95,81.59c.11-.24.24-.46.34-.73.13-.06.19-.18.38-.2.01.03.01.05.02.08-.23.31-.48.61-.74.85ZM1855.87,85.74c.11,1.66-2.29,1.92-2.17,4.94,2.15-.83,1.61-1.51,2.2-3.79.28.05.54,0,.81-.01.42,1.07.13,2.32-.25,3.67-.1.13-.12.34-.15.53-.85.1-1.7.19-2.55.29-.13-1-.24-2.02-.5-2.84l-.95.48c-.2-.81-.61-1.4-1.42-1.53.54-.42.96-.94,1.11-1.59.11.37.3.81.63,1.4,2.21-.18,2.7-1.45,2.68-2.96.28.46.45.86.51,1.19-.04.02-.08.03-.12.05.07.05.11.1.17.15ZM1854.82,97.08c-.03.1-.09.18-.12.28-.8-.01-1.64-.01-2.47-.01,1.37-.58,1.89-1.98,2.5-3,.26.3.57.54.99.67-.24.38-.39.87-.58,1.31l-.52.5.19.26ZM1874.54,98.44c-1.51-.14-3.11-.27-4.79-.39.3-.39.55-.86.84-1.27,1.72-.07,3.39-.53,4.15-2.86.12-1.07.07-2.2-.08-3.39.47-.03.95-.06,1.41-.09l-.3,1.29c.35-.45.74-.88,1.16-1.34,1.99-.12,3.97-.24,5.98-.36-.05.18-.12.32-.16.51-1.69-.89-3.43,2.2-5.58,1.08,1.15,1.8-1.53,6.69,2.67,3.87-.33.3-.01.7-.33,1.01,3.46,2.3,3.83-2.3,6.39-2.64,1.4,1.26-.38,2.47-.71,3.24l-6.71,1.7c-1.22-.11-2.53-.23-3.89-.35l.14-.13-.19.13ZM1885.81,86.29c-.79.46-1.5,1.05-2.06,1.85-1.79.18-3.59.36-5.38.55.23-.3.46-.61.7-.97l-1.8,1.08c-.28.03-.57.06-.85.09l.48-2.07c2.73-.18,5.71-.27,8.91-.52ZM1876.3,88.89c-.32.03-.64.06-.96.1.27-.49.54-.97.81-1.46.14.46.2.94.15,1.36ZM1852.21,97.34c-.72,0-1.44,0-2.18,0l-.37-4.96c.36-.03.72-.06,1.08-.09-.21.72-.57,1.44-.49,2.16l2.05-.86c-.67,1.53-1.83,3.36-.08,3.76ZM1850.86,91.71c-.41.05-.83.1-1.24.15l-.02-.27c.5-.1.91-.15,1.27-.18,0,.1.01.2,0,.3ZM1937.87,101.38c-.11,0-.21.03-.32.02.68-1.45.14-2.16-.7-2.8,1.86.95,2.78,2.11,1.02,2.77ZM1862.39,94.77c-.31.74-.44,1.76-.4,2.81-.72-.03-1.43-.07-2.17-.1.29-1.33.74-2.41,2.57-2.71ZM1860.84,78.76c.11-.29.22-.6.34-.91.4.43.58.93.59,1.45l-.88,2.3c-.13.15-.25.27-.38.36-.18-.99-.02-2.09.34-3.2ZM1858.56,97.45l-.28-1.74c-.92.17-1.04.89-1.06,1.71-.79-.02-1.57-.05-2.39-.06l.09-.22,1.56-1.47-.25-.36-.95.9.46-1.19s0,0,0,0c0,0,0-.02,0-.03l.04-.09s-.02.05-.03.07c-.1-1,.09-2.01.34-2.98l-2.07.86c.09.34.21.64.35.93-.63.09-1.02-.14-1.27-.54l.92-.39c-.07-.26-.09-.55-.13-.82.74-.06,1.49-.11,2.23-.17l-.03.13.24-.1c.05.26.15.56.28.88l-.82,2.12c.45-.7.96-1.28,1.54-1.57,1.16,2.26,1.87,3.14,2.04,4.14-.26,0-.54-.01-.8-.02ZM1849.11,84.46c-.14-.06-.26-.12-.38-.18l.53-2.41c.48-.07.89-.24,1.03-.83.08.75.21,1.52.65,2.05-.56.36-1.17.82-1.83,1.37ZM1847.53,83.27c-.19-.35-.24-.73-.21-1.13.48-.2,1.04-.19,1.55-.22-.37.56-.82,1-1.34,1.35ZM1849.01,92.74c-.34,2.46-1.48,3.7-2.87,4.65-.03,0-.06,0-.09,0-.11,0-.22,0-.33.01.19-1.6.38-3.28.87-4.59.89-.1,1.75-.16,2.42-.07ZM1839.11,97.85c.41-.41.8-.79,1.08-1.07.11.26.34.55.59.84-.56.05-1.11.17-1.67.22ZM1838.78,85.46c-.68.49-1.25.6-1.75.49.32-.39.72-.76,1.33-1.05l.43.06c.03.15.05.3-.02.5ZM1764.48,94.1c.1-.31.2-.58.28-1,.12.64.24,1.19.36,1.73-.26-.22-.48-.45-.64-.73ZM1760.43,99.68c-.14-.43-.27-.92-.35-1.53.82-1.75,1.73-1.76,2.57-1.96l-2.22,3.49ZM1757.44,99.67c-.64,0-1.26.05-1.87.17-.19-.69-.43-1.47-.69-2.29.99.61,1.9,1.22,2.59,1.03-.02.35-.03.72-.03,1.08ZM2042.92,635.09c-1.12.52-2.14,1.09-2.79,2.28l-3.46-.04c0-.33.02-.75.1-1.21,2.06-.38,4.11-.74,6.15-1.03ZM2002.02,630.16s0-.03,0-.05l.13-5.31h0s-.13,5.35-.13,5.35ZM2016.2,98.92c-2.02.44-4.05.87-6.06,1.29l-.45-1.6c2.13.04,4.3.15,6.51.31ZM2009.58,98.61l.45,1.62c-.15.03-.3.06-.45.09l-.48-1.72c.16,0,.32,0,.48,0ZM1969.62,82.99c.99-.27,1.98-.5,2.96-.73,7.39-.94,14.98-2.08,22.37-3.39-.12.6-.72,1.15.02,1.19v-1.19c2.26-.4,4.52-.81,6.74-1.24l2.88,10.3s-.08.06-.12.1c.04-.03.08-.06.12-.09l1.9,6.8c-.88.67-1.9,1.28-3.16,1.84v-.77c-.27.67-1.43,1.94-2.06.82l.33-1.82-1.51,2.95c-.54.16-1.12.31-1.73.46-.03-1.18-.46-2.44-1.11-3.22,1.56-1.46,1.35,3.48,2.15.14-.33-2.36-2.34-1.05-2.77-.62l.42,4.01c-1.25.28-2.61.53-4.11.78-1.47-.7-2.95-1.04-3.57-.13.42-.42,1.15-.06,1.93.4-.43.07-.88.14-1.32.21l-1.35-.23c.37.11.78.19,1.22.25-.78.12-1.59.26-2.41.39l-.25-.86-1.97-.23c.14.47.28.95.43,1.39-.11.02-.22.04-.32.06-1.58-.53-4.09.47-6.01-.04.43-.68,1.04-1.18,2-1.18-1.17,0-2.24.2-3.26.48-.46-.43-.84-1.03-1.08-1.94-1.39.1-3.28,1.2-3.56,3.15-2.85-.7-6.3-1-10.16-1.17,2.77-1.31,5.84-2.56,9.27-3.54,11.95-3.18,21.15-3.62,25.82-5.23,3.33-.99,5-2.06,6.12-3.05-1.11.87-2.75,1.82-5.96,2.73-2.39.68-5.66,1.25-10.11,1.89-4.42.67-9.85,1.43-15.99,3.08-3.91,1.08-7.39,2.55-10.5,4.07-.83-.03-1.65-.06-2.51-.09l-1.2-.54c-.08.16-.19.34-.28.5-3.38-.09-6.98-.19-10.66-.43.59-.42,1.77-.03,1.45-.58-2.08-1.02-3.6-.54-5.03.27-2.62-.25-5.26-.61-7.91-1.11-.36-.25-.71-.53-1.02-.87-2.3,1.39-6.46,2.25-10.49,3.51-3.02-.37-5.92-.65-8.61-.84,1.28-.43,2.53-.82,3.72-1.13,3.9-1.03,7.44-1.59,10.58-1.98,2.79-.28,5.54-.55,8.28-.82l3.24-.31c.38-.05.76-.08,1.12-.17l1.1-.29c.36-.14.66-.24,1.29-.52,1.19-.54,2.82-1.4,4.96-2.6,4.25-2.31,10.74-6.34,19.69-8.81ZM1905.73,88.71s-.06.05-.09.09l-.02-.08s.07,0,.1,0ZM1910.85,88.41c1.85-.11,3.68-.21,5.57-.33-3.64,1.23-8.85,3.44-12.16,5.55-3.74,2.35-5.11,3.46-.46,1.39-1.01.26-1.01.05.57-.96,1.18-.71,3.06-1.77,5.56-2.87,2.53-1.09,5.68-2.21,8.9-3.03.41-.11.83-.2,1.24-.3,4.19-.26,8.46-.54,12.82-.84-6.27.29-6.73-.16-.94-.87,5-.34,12.42-.89,21.07-1.71-1.16.61-2.23,1.19-3.18,1.7-4.37,2.41-6.97,3.6-7.76,3.66,1.11.13,2.68-.37,2.72-.06.17.22-.75.95-1.3,1.45-.87.9-1.98,1.77.13,2.05-.65.12-1.37.21-2.17.15-2.28.09-4.72.19-7.31.3-3.29.18-7.36.49-12.09,1.36-3.88.7-8.56,2.06-13.17,4.08-5.48-.44-10.74-1.12-16.28-2.75,1.53-.49,2.51-1.59,1.88-4.5,2.24-.75,2.85.76,3.78,1.96,2.06-7.03,11.77-.21,12.58-5.42ZM1900.51,89.01c-2.82,1.29-6.95,1.12-9.82,1.59,0-.4-.1-.72-.25-1.01,3.31-.19,6.67-.38,10.08-.58ZM1900.14,72.72c-.45-.84-1-1.66-1.39-2.66.93.14,1.46-.49,1.95-1.24,1.28,2.03.39,2.8-.57,3.9ZM1919.64,63.39c-.1.39-.15.82-.08,1.35.55.45.81.87.9,1.27-1.26,2.37-3.84,3.6-5.5,3.15.54-1.18.65-2.59,1.42-4.17-.09-.77-.29-1.3-.54-1.74,1.21-.2,2.58.02,3.8.15ZM1896.26,68.04c0,.43,0,.85.02,1.19-.86.7-1.38,2.02-1.88,3.44-.15.03-.31.06-.47.1l.56-.77-.73.72c.06-2.59,1.13-4.04,2.5-4.69ZM1909.77,49.12c.24-.41.52-.74.89-.84-.04.22-.09.47-.15.73-.22,0-.46.04-.74.11ZM1909.56,52.98v-.05s0,0,.01,0c0,.02,0,.04-.01.06ZM1850.48,69.67c1.71,1.09,3.94-2.21,5.13.69,1.24-1.43-.67-4.7,1.7-3.95.07.72.33,1.08-.13,1.07.61.56,1.52.64,2.25.32.65-.26,1.19-1.02,1.38-2.22-1.43-.54-.47-.77-2.07-.95-.4-1.81.7-4.93,2.95-3.14-1.44,5.03,2.78,4.02,2.17,6.74,3.83-.23,5.21-6.39,8.2-10.8,3.88-.76,9.4.58,12.61-2.64-1.04,4.05-2.07,8.11-3.06,12.17-.16-.08-.33-.16-.49-.24.13.17.28.33.43.48-.18.73-.36,1.46-.54,2.19-1.77-.16-3.25-2.66-2.73-4.87-1.64,4.42-9.81-2.48-12.1,3.27l-3.63,9.45s-.04-.06-.06-.08c.02.03.04.06.05.1l-.29.75-1-.37c.56-1.5,1.17-3.12,1.5-4-2.39-.14-2.61,4.11-5.61,5.13,1.02.19,1.92,1.43,2.69,2.49.09.35.11.62.14.9-.76.13-1.93.23-1.91-.82l1.01-.98c-1.44-1.07-2.46,2.02-4.01,1.64-.15-.87-.26-1.68-.17-2.29-.07.15-.22.11-.44.04.03-.11.06-.21.06-.32-.06.12-.13.18-.18.29-.1-.03-.21-.07-.34-.08-.3-1.85,1.91-.45,1.29-2.68-.46-.07-.87.14-1.24.42.03-.29.09-.56.1-.85-.31.17-.55.41-.76.69-.23-1.31-2.37-2.32-3.75-2.55l.85-5.01ZM1846.56,71.97c.93,2.47,3.32-.33,3.05,2.7-.25-.04-.47-.06-.65-.04-.9,1.11-2.29,1.75-3.89,2.18.62-1.42.97-3.34,1.49-4.84ZM1844.28,81.58l-.14.35h.14c0,.85.17,1.61,1.12,1.69-.1.28-.26.48-.44.65-.66.12-1.36.17-2.08.16l.32-4.91c1.21-.17,1.11.95,1.08,2.07ZM1839.89,74.48c.49,1.84,1.86,2.28,2.66,2.85-2.26.34-4.63.52-6.56,1.02.93-2.26,1.93-4.43,3.9-3.87ZM1836.33,82.31c-.02.22,0,.39.06.52l.04-.6c.4-.37.75-.82,1.02-1.38,1.58,2.84-.61,3.11-2.05,3.54-.17-.39-.3-.82-.34-1.28.45-.2.88-.47,1.27-.8ZM1831.42,82.47l-.65.62c1.22.53,2.52.62,3.69.3-1.19,1.12-3.56.56-5.54.9.75-1.04,1.48-1.96,2.5-1.82ZM1824.63,92.67c-.07.32-.15.65-.23.97-.04-.1-.09-.16-.13-.29.14-.23.23-.46.36-.69ZM1822.48,101.95c-.02.08-.04.15-.05.23-.12.04-.25.09-.37.13-.12.05-.23.1-.36.15.24-.27.5-.43.78-.52ZM1820.15,95.72c.16.18.27.39.45.55-.19.02-.31.02-.46.03v-.58ZM1814.95,86.78c.45-.5.9-1,1.36-1.51.33.44.71.56,1.1.61-.51,3.67,1.72,9.22.84,10.09-.54.22-.97.8-1.41,1.28-.3-.63-1.08-1.01-1.88-1.17l.11-.58c-.28.16-.46.33-.67.49-.29-.02-.55,0-.77.04l1.31-9.26ZM1806.78,58.19c.61-.27,1-.22,1.24-.03-.48.07-.94.15-1.4.22.06-.08.09-.11.16-.19ZM1809.74,106.67l-.18-4.39c.31.17.61.32.91.4.04.5.09.99.24,1.36-.53,1.05-.71,2.61-1.27,3.74-.87.37-1.77.75-2.6,1.07-.43-.09-.86-.18-1.44-.46,0-.01,0-.03,0-.04.2-.46.52-.91,1.01-1.33l3.33-.35ZM1803.73,58.85c-.45.07-.88.15-1.31.22l-.37-3.28c.72.59,1.18,1.74,1.67,3.07ZM1804.31,99.27c-.06.32-.08.68-.02,1.16-.07,0-.13.02-.19.04l-.78-.56s-.01-.03-.02-.05c.41-.23.74-.43,1.01-.59ZM1798.88,89.85c.57,3.94,2.29,5.24,2.85,7.33-1.75-.43-3.64-2.82-4.07-5.95l.27,3.97c-.22-.28-.54-.45-.89-.59-.09-.47-.45-.89-1.35-1.18l3.2-3.57ZM1795.87,97.45c.07-.13.15-.27.25-.42,1.56,1.62,2.97,2.14,4.96.75-.24,1.02.07,2.16.39,3.27-.04.13-.08.27-.12.39-1.8.58-3.34.88-5.13,1.64-3.9.19-6.07-3.41-9.14-3.99.42-.22.86-.43,1.3-.6.09-.03.18-.06.28-.09.48-.07.96-.19,1.43-.37.52-.07.99-.06,1.3.12l.07.72c1.42-.1,3.35-4.64,4.41-1.42ZM1787.72,51.05s.04-.08.05-.12c.84-.41,1.69-.81,2.53-1.21.4.27.7.81.74,1.81-2.4-.54.28,9.17-3.05,4.28.37,2.76,1.12,3.6,1.99,3.81-.11.66-.11,1.31.03,1.95-.78.2-1.51.4-2.19.58-.68-.09-1.31-.28-1.42-1.45-.92-4.35,1.52-5.62,1.32-9.65ZM1778.7,64c1.82-1.05,3.79-1.81,5.31-1.32l-.45.87c-4.54,1.89-5.65,3.3-4.57,5.98,1.01,2.59,4.53,5.73,8.42,8.63-1.53.41-3.53.73-5.39.72-1.89.02-3.79-.2-5.64-.37l.81,1.94c-1.28-.63-1.75,2.04-2.79-.33-.18-.92,3.51-12.58,4.3-16.13ZM1771.41,64.25c.02.98.25,1.59.58,2-.64.24-1.29.48-1.94.72.02-1.72-.74-3.61,1.36-2.72ZM1766.34,55.75c-.68,1.11-1.99,2.31-4.36,3.7l-1.58-2.47c2.39-1.12,3.73-1.7,5.94-1.23ZM1760.55,60.25c.46.2,1,.15,1.68-.38l-.16-.26c.57-.18,1.23-.33,2.04-.41.91-.48,1.83-.7,2.66-.77l1.68,2.84c-.72.14-1.66,3.34-2.2-.3.27,1.83-.42,4.76,1.52,3.24l-1.18,2.79c.16.44.35.79.54,1.06-.46.18-.92.37-1.39.55-.83-1.2-1.92-1.02-3.39-3.81-.27-1.12.7-1.58,1.21-2.15-1.79-1.51-3.05-.74-3.76.21,2.53.51,1.58,2.44,2.66,5.5-1.18,1.44-3.61,1.07-4.27,2.1-1.63-.64-3.4-2.45-3.88-4.68.86-.09,1.68-.16,2.4-.14,1.8-1.41,1.48-3.92,3.86-5.39-.54.27-1.04.52-1.66.83l-1.33-4.44c1.2,1.18,1.89,3.14,2.99,3.61ZM1754.85,55.84c.68-.16,1.21-.06,1.7.14-1.33,1.24-2.82,1.77-4.42,2.43,1.07-.68,2.22-1.29,2.72-2.57ZM1744.65,68.26c1.51-.53,2.92-.98,4.24-1.35-.46.27-.88.67-1.23,1.4.54.63,2.82.36,2.23-1.69.67-.17,1.27-.29,1.89-.42-.22.47-.41,1.11-.51,2.05,1.5-4.5,1.91,7.5,3.76,1.66,2.04,4.71-1.75,3.96-3.77,2.75.58-1.18-.51-2.54-.67-4-1.84,2.84.2,5.88,2.12,6.44l-1.87,3.9c.1-.01.18-.02.28-.03-.76.86-1.51,1.7-2.24,2.53-1.41-3.7-2.2-6.25-1.22-5.72l-2.12-1.83,1.84-2.24c-1.77-2.69-2.5.87-3.6,1.47-1.16-.92-.09-2.5.89-4.93ZM1734.87,70.05c.7-.55,1.59-1.16,2.48-1.55-.08.52-.15,1.07-.2,1.64-.68.93-1.75,1.79-2.9,2.6.07-.9.3-1.79.62-2.68ZM1736.43,74.55c-.32.78-.78,1.37-1.62,1.48-.07-.15-.09-.3-.15-.45.66-.36,1.24-.7,1.77-1.02ZM1727.89,60.08c.15.76.31,1.65.54,2.42-.56.32-1.15.61-1.82.82-.98-.79-.19-2.09,1.28-3.24ZM1727.66,66.33c-.33.88-.73,1.89-.27,3.07-.35-.95-.76-1.72-1.19-2.4.47-.23.96-.45,1.46-.67ZM1724.31,74.38c.39.29.75.68.97,1.38-.58.84-1.65.69-2.71.12.54-.47,1.13-.98,1.74-1.5ZM1723.6,73.95c-.19.45-.77.98-1.59,1.56-.14-.1-.29-.18-.43-.29-1.16-.84-2.2-1.92-2.37-2.45-.1.72-1.68.88-2.9.32,1.11-.26,2.23-.43,3.34-.72.82.03,1.47.1,2.02.18.48.79,1.21,1.07,1.93,1.4ZM1717.99,67.22c.12.95.11,1.92-.4,3.04,1.55-1.68,2.65,1.61,3.59-1.15-.05.56-.03.98,0,1.41-2.77-.09-5,.45-7.07,1.26.03-.57,0-1.24-.17-2.11l2.42.14c.01-.9-.07-1.45-.19-1.87.61-.24,1.22-.51,1.82-.72ZM1711.38,60.9l.32,1.09c-.75-3.65,2.99-2.35,3.83-4.43,1.59,1.62,1.49,3.04.99,4.22-1.71,1.19-3.36,2.4-4.91,3.67-.21-1.63,1.73-.66.63-2.71-1.18.74-1.28,2.27-1.49,3.46-.44.37-.87.75-1.3,1.13-.49-.31-.91-1.11-1.14-2.26,3.22,1.23.65-4.29,3.08-4.17ZM1699.19,82.83c1.78-1.41,6.79-4.15,9.79.64.05.02.07.01.12.03-4.41,2.51-8.02,2.16-10.64,1.09l.72-1.76ZM1696.39,97.13l.41-.27s-.02-.06-.03-.09c2-1.79,5.16-3.57,8-4.66-.02.16-.03.3-.04.47.04-.18.07-.32.11-.49.45-.17.89-.33,1.31-.47l-.1-.92c.3-.31.39-.75.07-1.55h-.23s-.14-1.28-.14-1.28c1.99-2.69,4.57-2.96,7.12-3.36-.01.1-.04.19-.04.3.06-.09.08-.22.13-.32,2.37-.37,4.71-.87,6.51-3.56l-6.05-.37c.12-.22.53-.47.84-.72-1.6.87-2.99,1.66-3.88,2.41-.14-1.18-.64-2.86-.61-4.14.68-3.58,2.88.11,3.95-1.62-.31-1.31-.14-2.07.07-2.86.59-.13,1.18-.24,1.77-.38l-.29,4.77c1.31-.23,2.67-1.95,3.32-.48-.31.17-.62.33-.93.5.35-.11.69-.21,1.02-.29.13.37.23.85.28,1.58l1.08-1.72c.21.02.37.08.51.17-.68,5.92-.73,5.94-2.04,9.18,2.67,2.08,4.25.15,5.66-1.89,1.4-2.02,2.56-4.18,4.78-2.56l-.37.75c6.05-4.37,9.34.95,12.88,7.65-.84,1.07-1.64,2.11-2.36,3.04l-1.11-3.15c-2.42.69-3.86,3.56-5.49,6.25-1.14,2-2.52,3.87-4.24,4.66-.16.05-.31.09-.47.13-.49.16-.98.3-1.53.26-.05-3.19,2.38-2.08,1.75-3.53-1.58.13-1.84,2.12-2.11,3.76-.14.03-.27.07-.41.1l-.21-.98c-.45.16-.84.39-1.24.6-.78-.45-2.1-.98-.95-2.89-4.03,5.69-10.73.7-13.79,2.71.86,1.21.34,2.35-.13,3.2-.32.06-.64.08-.96.14-.08.02-.17.04-.26.06-.16-.65-.09-1.44.31-1.63-2.16-1.31-3.1-3.98-3.42-6.75l.87-.39c.1.01.19-.01.29,0l-.5,2.35c.6-.43,4.73-3.42,3.31-5.47-.73.31-1.37.59-1.98.86-.75-.75-1.44-1.57-2.09-1.66v-.02s0,.02,0,.02c-.46-.07-.89.2-1.32,1.18-.22.88-.19,1.4-.05,2.07-2.27,1.02-4.06,1.64-7.69,2.04.2-.25.45-.5.71-.76ZM1677.93,106.36c2.39-.64,4.73-1.51,6.92-3.19-.18.78-1.01,1.27.48,1.05,8.78-1.36,11.79-7.1,18.18-7.7.05.2.09.38.15.63-.63,2.55-1.43,5.69-2.49,9.56l-.06-.71-3.62,2.07.09-1.79-1.1,2.46c-.23.09-.47.17-.7.27-.63-2.38-.92-.87-1.32-3.17-2.85-5.86-4.41,4.2-8.13,2.27l.09-1.8c-.89,3.95-5.84,1.53-8.71,1.34l-.06-.73c.12-.18.17-.37.27-.55ZM1671.32,81.72c.17-.13.31-.25.52-.4.46-.09,1.1-.23,1.79-.38-.55,1.11-1.15,2.19-1.85,3.19-.64-.07-1.15-.2-1.45-.41.43-.43.74-1.21,1-2ZM1667.45,79.21c-.16.43-.17.81-.12,1.18-.39,0-.77.02-1.16.03.17-.4.56-.8,1.28-1.2ZM1661.25,112.45c.12-.09.24-.17.36-.25-.13.25-.26.46-.39.73,0,0,0-.22.03-.47ZM1645.38,81.95c5.71-.67,9.14,1.21,13.01,1.41-2.97.91-6.21,2.44-9.58,1.42.25.41.74,1.22.77,1.92-1.47-1.23-3.18-2.44-4.77-3.6l.77-.98-.21-.16ZM1642.66,93.5l.07-.1s-.04.03-.06.05c.19-.51.42-1.04.73-1.61,1.82.21,1.25,1.42,1.35,2.68-.69.2-1.5.29-2.47.23.09-.4.22-.82.38-1.24ZM1620.11,86.63c.18,1.19-.21,2.81-.03,4.22-.34-.91-.23-2.49.03-4.22ZM1610.34,96.63c.49-.2.99-.39,1.49-.57l-1.54,1.23.05-.66ZM1603.68,99.69c1.06-.57,2.24-1.15,3.51-1.72-.52,2.24-.75,4.54,1.06,4.04-1.17,3.74-3.29-.99-4.2,1.19-.54-1.42-.23-2.55-.37-3.51ZM1597.88,109.17c-.04-.23,0-.49-.02-.74,1.35-.75,2.59-1.55,3.6-2.65-.31.69-.53,1.3-.33,1.78.29-.82.35-2,1.67-1.28-1.38,2.39-2.81,3.53-4.93,2.88ZM1589.63,106.03c-1.75,2.03-7.9,1.77-7.58.13,9.98-1.94,5.09-5.22,16.39-6.79-4.81,3.63,1.16,1.22.69,3.68.22-.44.79-.98,1.6-1.57.29.66.26,1.77,1.64,1.86-.09.52-.29,1.03-.5,1.51-1.41-.17-2.64-.08-3.73.2.1-.76.14-1.36-.07-1.6.04.62,0,1.11-.02,1.63-6.33,1.68-8.2,9.89-16.85,12.88-9.85-2.36,9.61-7.23,8.43-11.94ZM1307.67,152.22c.1.32.34.6.63.87-.53-.1-1.06-.2-1.6-.43-.03-.06-.02-.11-.03-.17.33-.09.65-.17,1-.27ZM1308.29,155.28c7.6,4.38-5.35,3.74-6.1,8.44.99-.16,1.79-.31,2.47-.46-.78.31-1.49.68-2.05,1.19-1.12-.6-2.48-.95-3.96-1.26.07-2.11-.61-4.01-8.47-2.94,1.68-5.03,11.89-6.02,18.1-4.97ZM1290.18,155.23c1.79-.19,3.58-.37,5.24-.57.81-.09,1.59-.2,2.37-.3-2.67.68-5.6,1.39-8.97,2.56l1.36-1.69ZM1289.42,165.05c1,.24,2.28.49,3.94.77-1.02-.1-.33.55-1.34.46,1.05.67,1.96,1.15,2.83,1.56-1.91.08-3.82.18-5.76.31l.33-3.1ZM1238.46,178.21c1.83-1.26,3.69-2.5,5.55-3.72.14,2.3,2.15,3.58,7.26.9,2.16-1.87,4.27-3.76,6.39-5.61l4.33-1.24-.68-.37-3.26,1.26c1.48-1.29,3-2.47,4.51-3.68,3.91,1.92,17.54.26,24.76.59-.52.83-1.22,1.52-2.02,2.13-1,.09-1.99.15-2.99.26-4.77.55-9.6,1.4-14.39,2.68-2.4.62-4.78,1.41-7.16,2.25-2.07.83-4.14,1.66-6.2,2.49-4.66,1.87-10.21,2.48-16.29,2.41.06-.12.13-.24.18-.35ZM1201.96,168.98l2.63-6.23c6.46-.71-3.08,5.12,6.74,3.68.51-.7,1.29-1.12,2.19-1.4-4.01,3.77-7.98,7.64-11.91,11.6-5.29.46-10.2,1.55-14.68,2.9-.14-.83-.25-1.6.08-2.31-.27.21-.75.23-1.45.33-.03-.32-.09-.64-.17-.96,1.31-.86,4.15-1.13,3.39-2.67-1.35.18-2.57.78-3.73,1.46-.72-2.46-1.18-4.73,5.95-6.44l10.97.03ZM1160.22,169.46l-5.8.04c2.15-.6,4.27-.86,5.8-.04ZM1140.75,187.14c.54-.43.87-.9.37-1.23l4.26-14.15c-.07-.41.09-1.07.64-2.12l-.64,2.12c.25,1.3,3.26-.2,6.69-1.48-.5,1.45-.99,3.2,3.23,2.54,8.99,1.4,12.56-5.24,18.87-5.31l-1.81.75c6.09.68,13.48-.44,17.47-3.35,5.67,4.77-16.55,2.92-6.66,6.58-6.75-1.04-15.27,3.8-20.21,4.56,2.58.09,5.12.56,7.36,1.25-7.58,4.22-20.48,7.26-29.69,10.27l.13-.42ZM1010.34,214.84c-2.94,1.05-5.86,1.99-8.75,2.56-.03,0-.05,0-.08.01,2.7-1.1,5.45-1.95,8.83-2.57ZM887.19,227.95c-1.61-.02-3.24-.02-4.87-.02,4.54-2.44,4.95-1.57,4.87.02ZM364.74,1011.31l1.05.25c-.36.07-.73.14-1.09.21.01-.15.02-.3.04-.45ZM167.75,513.43c.47-.43.91-1,1.33-1.64.13.32.23.72.32,1.21-.54.15-1.1.31-1.63.45,0,0-.01-.02-.02-.02ZM170.49,509.96v-.04s.02,0,.03,0l-.03.04ZM171.13,512.53c.45-.68,1.05-1.44,1.29-2.38.87.1,1.71.18,2.6.3.28.21.55.44.79.78.1-.14.22-.28.34-.42.02.11.04.21.04.34-1.74.46-3.42.92-5.07,1.38ZM157.51,511.92c.31.72-.5,1.1-.39,1.53l-5.82,2.51c-.05,0-.11,0-.16,0-1.67-.15-3.39-.27-5.1-.4,3.43-2.67,7.02-5.29,11.47-3.64ZM161.4,511.6l-3.89,1.68c.76-.95,1.72-2,1.89-2.94-.05.75-.19,1.76-.69,1.92,1-.68,1.88-.78,2.69-.67ZM163.62,514.5c-.27.06-.54.14-.8.19-1.83.4-3.55.67-5.24.89,1.64-2.57,5.24-2.88,6.22-1.28-.07.06-.11.13-.17.19ZM139.47,513.87c.69-.11,1.35-.18,2.05-.31,0,.52-.02,1.1-.07,1.71-.84-.05-1.67-.09-2.5-.12.2-.37.38-.8.53-1.27ZM215.57,343.61c-.11.15-.26.3-.42.47-.04.01-.08.03-.12.04-.23.08-.48.14-.72.21.38-.22.79-.45,1.26-.72ZM216.37,1141.25l2.34,1.3c-1.08-.01-1.86-.55-2.34-1.3ZM348.93,1117.09s.03-.06.05-.1c1.77.76,3.78,1.62,5.91,2.49-.09,1.41-.99,2.74-1.18,4.14l-4.78-6.54ZM1227.43,1047.36c-8.24-1.67-11.8-3.62-15.78-6.38,1.87-.7,3.77-1.42,5.71-2.16,1.09,1.98,1.32,4.13.84,5.58,9.24,2.96,7.24-1.76,12.03-2.92l-2.79,5.87ZM1271.44,1055.2l-22.19-1.29,21.52.35-2.92-4.11,4.36,4.14-1.43-.02.67.94ZM1275.2,1050.59l13.27,2.69-6.8-3.52,20.12,6.23c-11.14,4.17-24.58-.7-26.59-5.39ZM1298.91,1030.76c1.34-4.02,16.91-4.09,21.18-2.15-6.52.83-23.52,2.74-21.18,2.15ZM1323.2,1021.82l-5.53-2.27c5.34-.03,6.02,1.06,5.53,2.27l4.61,1.93c-11.57,3.3-5.68.41-4.61-1.93ZM1483.13,1030.55c-11.14-.46-32.06,2.58-40.3,6.32-.44.97-1.32,1.76-3.22,2.01.52-.69,1.75-1.35,3.22-2.01.45-1.17.1-2.59-.84-3.75-1.63-.37-3.08-.97-3.8-2.03,1.45-.1,2.88.81,3.8,2.03,4.3.96,10.59-.01,13.38-1.77-1.84-2.51-8.35-1.67-10.96-3.27,9.35-6.69,32.07,10.76,24.93-6.76,4.21,1.92,18.48,5.88,13.79,9.24ZM1548.66,1030.94l2.28-2.76,5.71.09-7.99,2.67ZM1609.18,1020.71c-19.16-4.97-48.29-.14-51.71-12.64-34.72,6.92-78.5,1.27-107.97,1.73-3.89,2.43,2.6,1.61,1.15,3.45-12.01-6.72-38.75,7.16-39.28.62-5.53,2.1-7.63,7.03-9.06,8.86-7.63-2.75-16.64-3.81-26.17-4.22l7.03,1.44-.71.93-9.98-2.04.34-.42c-16.36-.44-34.35.81-51.1-.29,5.89-1.58,11.85-2.63,17.77-1.6,4.08-3.69,6.19-5.07,7.17-5.57-.81-.03-2.1-.71-2.81-4.06.69.12,1.5.07,2.31,0v.13c1.36.3,1.9.06,2.21-.43.47-.09.92-.14,1.39-.24l5.36.14h2.6c.54.57.85,1.44.83,2.74l-1.16,1.02c-.08,7.02,14.37-6.9,19.99-1.39l-1.23-2.51c.76,0,1.53-.05,2.29-.06,13.87,2.03,13.11.72,29.51,1.33l-1.54-.33c8.48-4.28,20.46,1.77,26.47-3.9,3.36-.35,6.7-.62,10.08-1.05,6.63-.88,13.29-1.89,19.97-3.08,4.4-.71,8.83-1.01,13.32-1.11,2.51,1.26,5.98,1.81,11.4,1.09l-.07-.05c20.82,3.34,44.04,6.26,69.53,6.49,6.81-.07,13.68-.14,20.58-.21,6.82.02,13.71.19,20.65.56,1.96.1,3.92.26,5.89.4-6.3.69-3.16,6.44-11.24,5.61,5.33,5.36,20.53.94,16.2,8.65ZM1610.27,1006.92c1.11.1,2.23.23,3.35.34.08.15.16.31.28.48-1.36-.35-2.54-.61-3.63-.82ZM1624.08,1011.93c-11.18,2.19-8.76-2.1-9.68-4.6,3.29.33,6.59.73,9.9,1.17l-.22,3.43ZM1634.8,1013.02l-6.45-3.97c4.05.61,8.11,1.28,12.18,2.08.46.32,1.19.61,2.04.89-2.58.31-5.14.6-7.76,1ZM1653.45,1021.08l4.45-5.52,5.35,5.38-9.81.14ZM1855.82,920.95l-.58-.29c.46-.1.92-.25,1.37-.36.06.37-.13.62-.79.65ZM1976.73,845.94c-3.75-.19-7.95-.4-12.22-.62-2.92-.17-5.85-.37-8.66-.61-.45-.21-.97-.37-1.61-.44,7.83.79,17.18-.91,22.49,1.67ZM1943.25,843.27c-2.27-.29-4.11-.49-5.32-.42-.27-.13-.54-.23-.81-.34,2.27-.16,4.37.02,6.13.76ZM2036.76,743.21c-3.76.83-7.67,1.62-11.84,1,2.1-1.99,7.57-.79,11.84-1Z"/>
  <path class="cls-1" d="M1723.54,108.01c.11-.18.23-.36.34-.56-.13.2-.24.38-.34.56Z"/>
  <path class="cls-1" d="M2108.53,251.49c-.02.05-.04.11-.05.19,0-.08.03-.13.05-.19Z"/>
  <path class="cls-1" d="M1862.88,84.64c-.12-.25-.25-.49-.35-.64.1.26.23.45.35.64Z"/>
  <path class="cls-1" d="M2196.19,432.28c-1.48.66-1.59,1.17-1.33,1.64.49-.44.95-.94,1.33-1.64Z"/>
  <path class="cls-1" d="M2183.94,476.16l1.66,1.07c-.64-.68-.96-1.02-1.66-1.07Z"/>
  <path class="cls-1" d="M2199.25,429.8c.77-1.42,4.17.22,4.93-1.9l-.04.62,1.84-1.43c-1.89.41-5.95.66-6.73,2.7Z"/>
  <path class="cls-1" d="M2172.47,240.15c-1.49-.35-1.7.01-1.54.58.55-.07,1.07-.21,1.54-.58Z"/>
  <path class="cls-1" d="M2159.09,275.34l1.01,1.16c-.39-.71-.61-1.06-1.01-1.16Z"/>
  <path class="cls-1" d="M2179.31,239.49l-.04.59c.47-.26.9-.73,1.33-1.07-1.32.31-4.15-.79-5.08.61.78-.91,3.17,1.83,3.8-.13Z"/>
  <path class="cls-1" d="M2044.95,67.28c-1.29.17-1.36.72-1.18,1.21.4-.34.82-.64,1.18-1.21Z"/>
  <path class="cls-1" d="M1922.75,43.7c-.14-.32-.32-.62-.44-.81.13.32.28.58.44.81Z"/>
  <path class="cls-1" d="M1904.53,65.51l.6-.38c-.23.02-.48.04-.64.06,0,.12.02.2.04.32Z"/>
  <path class="cls-1" d="M1939.07,81.6c-.33.12-.43.41-.44.76l.44-.76Z"/>
  <path class="cls-1" d="M1971.42,110.07l.69-.62c-.35.18-.55.4-.69.62Z"/>
  <polygon class="cls-1" points="1984.22 110.62 1984.44 109.04 1983.12 108.94 1984.22 110.62"/>
  <path class="cls-1" d="M1984.44,109.04l1.31.16c-.29-1.07-.57-2.11-.92-2.81l-.39,2.65Z"/>
  <path class="cls-1" d="M1987.73,109.47l1.45.25c-.55-.21-1.06-.44-1.57-.7l.12.45Z"/>
  <polygon class="cls-1" points="1915.04 64.09 1916.63 62.54 1916.38 62.17 1914.79 63.73 1915.04 64.09"/>
  <path class="cls-1" d="M1924.04,43.31c.44,1.94.87-.41,1.45-.57-.8-.19-1.04.05-1.45.57Z"/>
  <path class="cls-1" d="M1952.45,75.38l-1.94,2.27c.56-.16,1.02.69,1.54,1.59-.07-.87,1.12-2.71.4-3.86Z"/>
  <path class="cls-1" d="M1949.65,78.63l.85-.98c-.26.07-.53.35-.85.98Z"/>
  <path class="cls-1" d="M1952.05,79.25c.02.18.07.35.25.43l-.25-.43Z"/>
  <path class="cls-1" d="M2052.56,67.31l-.16.48,1.89.3c-1.7-1.38-5.34-3.63-6.41-2,.99-1.02,3.61,2.38,4.68,1.22Z"/>
  <path class="cls-1" d="M2153.03,255.89c-.65.49-.67.99-.52,1.48.2-.39.39-.83.52-1.48Z"/>
  <path class="cls-1" d="M2177.93,132.73c.2-1.16.47-2.26.7-3.39-1.1-3.46-2.13-6.97-3.16-10.47l-.75.17c-.24,12.95.12,26.21,1.22,39.55.05-8.97.57-17.74,1.99-25.85Z"/>
  <path class="cls-1" d="M2218.83,362.09c-3.7,1.61-11.33,2.16-14.03,2.08.33-.56-.07-1.34,2.92-1.83-20.64,2.51-4.65,6.07-21.57,9.36,1.06-.22,2.39-.35,4.28-.3,4.14-.84,8.05.24,6.59,1.15,8.2-3.03,8.75-.9,9.23-4.71,5.16-2.53,11.42-.82,5.45,1.5l15.38-4.34-9.52.69c2.05-3.39,15.22-1.09,17.6-5.05l-17.01,2.57.68-1.12Z"/>
  <path class="cls-1" d="M2160.27,288.28c.55-.07,1.08-.21,1.57-.53-1.49-.25-1.71.06-1.57.53Z"/>
  <path class="cls-1" d="M2168.75,287l-.06.5c.48-.24.93-.64,1.37-.94-1.34.3-4.15-.55-5.13.66.81-.79,3.14,1.45,3.83-.22Z"/>
</svg>