<?xml version="1.0" encoding="UTF-8"?>
<svg id="Layer_1" data-name="Layer 1" xmlns="http://www.w3.org/2000/svg" viewBox="0 0 1440 6100">
  <defs>
    <style>
      .cls-1 {
        fill: #000;
      }

      .cls-1, .cls-2, .cls-3, .cls-4 {
        stroke-width: 0px;
      }

      .cls-2 {
        fill: #ff5a85;
      }

      .cls-3 {
        fill: #231f20;
      }

      .cls-4 {
        fill: #ffe600;
      }
    </style>
  </defs>
        <path class="cls-2" d="M1440,207.21v5892.79l-160.35-202.5s-539.65,416-1278.05,3.27v-101.52H0V295.87h1.6V7.97l160.35,202.5s584.57-453.22,1278.05-3.26Z"/>
  <g>
    <g>
      <g>
        <path class="cls-1" d="M446.9,387.18l-16.4,7.77-35.82-69.94,19.18-9.09,25.5,34.29-5.1-45.18,18.79-8.9,33.08,76.23-19.77,8.64-13.55-36.55.06,22.73-7.55,3.58-12.12-10.93,13.69,27.35Z"/>
        <path class="cls-1" d="M534.42,336.2l5.01,22.91-43.54,10.9-21.3-80.27,47.42-12.59,4.43,24.19-29.9.79,2.92,11.29,21.89-8.49,4.62,17.89-23.07,3.91,5.47,21.19,26.06-11.73Z"/>
        <path class="cls-1" d="M593,329.25l1.49,23.4-44.68,4.2-8.92-82.57,48.78-5.27.72,24.58-29.68-3.74,1.18,11.6,22.92-5.09,1.86,18.39-23.4.38,2.21,21.78,27.53-7.65Z"/>
        <path class="cls-1" d="M606.66,290.04l.79-21.77,50.97,2.83-.71,19.79-15.21-2.42,1.78,66.66-25.18-.8,3.16-66.37-15.6,2.08Z"/>
        <path class="cls-1" d="M719.49,300.77l5.04-21.19,49.43,12.77-4.58,19.26-14.44-5.35-11.32,65.71-24.53-5.72,16.11-64.46-15.7-1.02Z"/>
        <path class="cls-1" d="M813.04,340.02l10.35-32.03,21.14,6.83-29.25,76.9-18-5.82,11.23-34.75-15.07-4.87-11.64,36.01-17.79-5.75,22.8-78.76,21.88,7.07-10.96,30.33,15.32,4.83Z"/>
        <path class="cls-1" d="M878.74,388.48l-7.99,22.04-42.64-14.02,24.84-79.25,46.82,14.67-9.17,22.82-25.71-15.29-3.56,11.1,23.05,4.5-5.64,17.6-21.6-9.01-6.68,20.84,28.29,3.99Z"/>
        <path class="cls-1" d="M953.68,405.79c-.56,1.75-.89,3.37-.99,4.86-.05,1.28.12,2.53.51,3.73.39,1.21,1.31,2.09,2.75,2.64,1.99.78,3.85.93,5.58.45,1.73-.48,2.91-1.33,3.56-2.56.64-1.23.57-2.77-.21-4.62-.79-1.85-2.65-3.79-5.59-5.81-3.33-2.28-6.34-4.38-9.05-6.31-2.71-1.92-4.92-4.05-6.63-6.38-1.72-2.33-2.83-5.06-3.35-8.16s-.27-6.92.74-11.43c.73-3.22,1.87-6.05,3.41-8.47,1.54-2.43,3.38-4.49,5.52-6.18,3.03-2.44,6.53-4.04,10.5-4.82,3.98-.77,7.91-.77,11.81,0,3.9.77,7.48,2.26,10.75,4.49,3.27,2.23,5.75,5.1,7.45,8.6,1.58,3.4,2.3,7.34,2.17,11.83-.13,4.49-1.36,9.72-3.68,15.7l-19.53-6.96c.85-1.44,1.63-2.97,2.35-4.6.71-1.63,1.12-3.19,1.23-4.68.1-1.49-.17-2.86-.81-4.1-.65-1.24-1.84-2.18-3.56-2.8-2.06-.79-3.91-.73-5.53.19-1.62.92-2.81,2.27-3.56,4.04-.75,1.77-.97,3.73-.64,5.87.32,2.14,1.4,4.04,3.23,5.68.97.88,2.04,1.7,3.2,2.48,1.16.77,2.3,1.58,3.44,2.43,2.5,1.68,4.88,3.47,7.13,5.38,2.25,1.91,4.1,4.05,5.54,6.43,1.44,2.37,2.34,4.98,2.7,7.81.36,2.84-.08,5.98-1.34,9.44-1.29,3.6-3.27,6.57-5.93,8.92-2.66,2.35-5.64,4.12-8.93,5.31-3.29,1.19-6.73,1.79-10.3,1.79-3.58,0-6.92-.57-10.02-1.72-3.6-1.29-6.51-2.89-8.72-4.79-2.22-1.9-3.94-3.92-5.18-6.04-1.24-2.13-2.07-4.31-2.48-6.56-.41-2.24-.55-4.39-.4-6.44.14-2.05.48-3.88.99-5.49.52-1.61,1.02-2.88,1.5-3.81l20.39,4.69Z"/>
        <path class="cls-1" d="M1035.56,403.79l6.62-33,21.79,4.37-20.26,79.74-18.55-3.72,7.18-35.81-15.53-3.12-7.44,37.1-18.33-3.68,13.64-80.85,22.54,4.52-7.42,31.38,15.77,3.05Z"/>
        <path class="cls-1" d="M1068.51,377.19l24.5,2.64-12.34,78.66-17.06-1.84,4.91-79.46Z"/>
        <path class="cls-1" d="M1115.95,378.12l21.41,47.43-2.43-44.4,20.67-.85-1.17,79.13-17.71.35-19.72-39.65,5.98,40.26-24.08.48,1.02-81.22,16.03-1.53Z"/>
        <path class="cls-1" d="M1216.09,425.56l4.23,23.06-43.88,9.42-18.56-80.95,47.82-10.97,3.61,24.33-29.91-.22,2.53,11.38,22.17-7.75,4.01,18.04-23.19,3.13,4.75,21.37,26.44-10.84Z"/>
        <path class="cls-1" d="M1261.6,373.52l-28.54,7.4,4.28,10.01c2.64-1.29,5.63-2.64,8.97-4.07,3.34-1.43,6.73-2.35,10.17-2.79,3.44-.43,6.81-.1,10.12,1,3.3,1.1,6.25,3.57,8.84,7.41,2.25,3.58,3.62,7.27,4.12,11.04.5,3.78.27,7.54-.68,11.29-.6,2.33-1.5,4.57-2.69,6.71-1.2,2.15-2.62,4.09-4.27,5.83-1.65,1.74-3.53,3.26-5.65,4.56-2.12,1.3-4.39,2.27-6.83,2.92-3.24.82-6.64,1.08-10.2.77-3.56-.31-7.21-1.47-10.93-3.47l7.72-18.61c2.9,1.56,5.53,2.22,7.91,2,2.38-.22,4.29-.97,5.73-2.27,1.44-1.29,2.28-2.97,2.52-5.02.24-2.05-.35-4.18-1.76-6.36-.9-1.37-2.06-2.21-3.47-2.52-1.41-.31-2.93-.32-4.56-.03-1.63.3-3.24.81-4.85,1.53-1.6.73-3.08,1.48-4.42,2.25-1.34.77-2.84,1.75-4.49,2.93l-8.36,6.2-19.88-40.67,48.03-18.6,3.15,20.54Z"/>
        <path class="cls-1" d="M1297.92,326.81c4.47-1.42,8.89-1.46,13.23-.12,4.35,1.34,8.42,3.55,12.21,6.62,3.79,3.08,7.18,6.82,10.16,11.22,2.98,4.41,5.35,9,7.1,13.79,1.75,4.79,2.78,9.53,3.09,14.23.31,4.7-.33,8.89-1.92,12.57-.94,2.23-2.16,4.28-3.68,6.14-1.52,1.86-3.24,3.5-5.16,4.92-1.92,1.42-4,2.6-6.23,3.52-2.23.93-4.55,1.54-6.96,1.84-4.62.65-9.27-.07-13.95-2.15-4.68-2.08-9.03-5-13.04-8.77-4.01-3.76-7.49-8.13-10.44-13.12-2.96-4.98-4.98-10.08-6.08-15.27-1.1-5.2-1.04-10.25.16-15.16,1.2-4.91,3.92-9.17,8.15-12.78,1.98-1.67,4.13-3.15,6.44-4.43,2.31-1.28,4.62-2.29,6.92-3.04ZM1319.41,379.04c2.05-1.29,3.25-3.16,3.6-5.64.35-2.47.11-5.11-.74-7.91-.85-2.8-2.17-5.59-3.95-8.36-1.79-2.77-3.77-5.14-5.95-7.11-2.18-1.96-4.45-3.33-6.8-4.11-2.35-.78-4.52-.54-6.5.71-1.99,1.25-3.16,3.11-3.51,5.58-.35,2.47-.12,5.12.7,7.94.82,2.82,2.07,5.65,3.76,8.48,1.69,2.83,3.63,5.23,5.82,7.19,2.18,1.96,4.47,3.32,6.85,4.08,2.38.76,4.63.47,6.74-.85Z"/>
      </g>
      <g>
        <g>
          <path class="cls-3" d="M444.5,420.95c-1.82,0-3.57-1-4.45-2.72l-35.82-69.94c-.62-1.2-.72-2.61-.28-3.89.44-1.28,1.37-2.33,2.59-2.91l19.18-9.09c.69-.33,1.42-.48,2.14-.48,1.54,0,3.05.71,4.01,2.02l14.44,19.42-3.02-26.76c-.24-2.12.9-4.16,2.83-5.08l18.79-8.9c.68-.32,1.41-.48,2.14-.48.59,0,1.19.11,1.76.32,1.27.48,2.29,1.45,2.83,2.69l33.08,76.23c1.1,2.53-.06,5.47-2.58,6.57l-19.77,8.64c-.64.28-1.32.42-2,.42s-1.33-.13-1.96-.4c-1.27-.54-2.25-1.57-2.73-2.86l-4.7-12.69c-.49.7-1.15,1.27-1.95,1.65l-7.55,3.58c-.26.12-.52.22-.79.29l4.69,9.37c.6,1.2.69,2.6.26,3.87-.44,1.27-1.37,2.31-2.59,2.89l-16.4,7.77c-.69.33-1.42.48-2.14.48Z"/>
          <path class="cls-3" d="M509.88,396.01c-2.22,0-4.24-1.48-4.83-3.72l-21.3-80.27c-.71-2.67.88-5.41,3.55-6.11l47.42-12.58c.42-.11.85-.17,1.28-.17.94,0,1.87.26,2.68.78,1.18.75,1.99,1.95,2.24,3.32l4.43,24.19c.26,1.44-.12,2.92-1.04,4.05-.86,1.06-2.11,1.72-3.45,1.83l3.94,15.25c.35,1.35.12,2.79-.65,3.97-.76,1.17-1.98,1.98-3.36,2.21l-17.71,3,2.63,10.18,20.65-9.29c.65-.29,1.35-.44,2.05-.44.77,0,1.54.18,2.25.53,1.35.68,2.31,1.93,2.64,3.4l5.01,22.91c.58,2.64-1.05,5.26-3.67,5.92l-43.54,10.9c-.41.1-.82.15-1.22.15Z"/>
          <path class="cls-3" d="M563.8,382.84c-2.52,0-4.69-1.9-4.97-4.46l-8.92-82.57c-.3-2.75,1.69-5.21,4.43-5.51l48.78-5.27c.18-.02.36-.03.54-.03,1.2,0,2.37.43,3.29,1.23,1.05.92,1.67,2.23,1.71,3.62l.72,24.58c.04,1.46-.55,2.87-1.64,3.85-.93.84-2.13,1.3-3.36,1.3-.11,0-.22,0-.33-.01l1.59,15.67c.14,1.39-.31,2.78-1.24,3.83-.93,1.05-2.26,1.65-3.66,1.68l-17.96.29,1.06,10.46,21.81-6.06c.44-.12.89-.18,1.34-.18,1.03,0,2.04.32,2.9.93,1.23.87,2,2.25,2.09,3.76l1.49,23.4c.17,2.7-1.83,5.04-4.52,5.29l-44.69,4.19c-.16.02-.32.02-.47.02Z"/>
          <path class="cls-3" d="M632.93,380.32c-1.34-.04-2.61-.62-3.51-1.6s-1.39-2.29-1.32-3.63l2.88-60.38-9.66,1.29c-.22.03-.44.04-.66.04-1.24,0-2.44-.46-3.36-1.3-1.09-.99-1.69-2.41-1.64-3.88l.79-21.77c.05-1.34.63-2.61,1.63-3.51.92-.84,2.13-1.31,3.37-1.31.09,0,.18,0,.28,0l50.97,2.83c2.72.15,4.82,2.45,4.72,5.17l-.71,19.79c-.05,1.43-.71,2.77-1.82,3.68-.9.74-2.03,1.14-3.18,1.14-.26,0-.52-.02-.79-.06l-9.27-1.47,1.62,60.64c.04,1.38-.5,2.71-1.47,3.68-.94.93-2.21,1.46-3.53,1.46-.05,0-25.34-.8-25.34-.8Z"/>
          <path class="cls-3" d="M757.61,397.96c-.38,0-.76-.04-1.13-.13l-24.53-5.72c-1.3-.3-2.43-1.12-3.13-2.26-.7-1.14-.91-2.52-.58-3.82l14.66-58.65-9.72-.63c-1.47-.1-2.82-.83-3.7-2.02s-1.18-2.69-.84-4.13l5.04-21.19c.31-1.31,1.13-2.43,2.28-3.13.79-.47,1.68-.72,2.58-.72.42,0,.84.05,1.25.16l49.43,12.77c2.64.68,4.24,3.35,3.61,6l-4.58,19.26c-.33,1.39-1.24,2.58-2.51,3.25-.73.39-1.54.59-2.36.59-.59,0-1.18-.1-1.74-.31l-8.8-3.26-10.3,59.78c-.23,1.36-1.02,2.56-2.16,3.32-.83.55-1.79.83-2.76.83Z"/>
          <path class="cls-3" d="M829.28,417.73c-.51,0-1.03-.08-1.54-.24l-18-5.82c-2.63-.85-4.07-3.67-3.22-6.3l9.69-29.99-5.56-1.8-10.1,31.25c-.41,1.26-1.3,2.31-2.48,2.91-.71.36-1.49.55-2.28.55-.52,0-1.04-.08-1.54-.24l-17.79-5.75c-2.57-.83-4.02-3.55-3.26-6.15l22.8-78.76c.38-1.3,1.26-2.39,2.46-3.03.73-.39,1.54-.58,2.34-.58.52,0,1.04.08,1.54.24l21.88,7.07c1.29.42,2.36,1.34,2.95,2.56.6,1.22.67,2.62.21,3.9l-9.19,25.43,5.61,1.77,8.83-27.3c.68-2.12,2.65-3.46,4.76-3.46.51,0,1.03.08,1.54.24l21.14,6.83c1.3.42,2.38,1.36,2.97,2.59s.65,2.66.17,3.94l-29.25,76.9c-.76,1.99-2.65,3.22-4.67,3.22Z"/>
          <path class="cls-3" d="M884.75,436.52c-.52,0-1.04-.08-1.56-.25l-42.64-14.02c-2.6-.85-4.03-3.64-3.21-6.25l24.84-79.25c.67-2.14,2.64-3.51,4.77-3.51.5,0,1,.07,1.5.23l46.82,14.67c1.33.42,2.43,1.37,3.02,2.63.6,1.26.64,2.71.12,4.01l-9.17,22.82c-.54,1.36-1.65,2.4-3.04,2.87-.52.18-1.06.26-1.6.26-.79,0-1.58-.19-2.3-.56l-4.81,15c-.43,1.33-1.39,2.43-2.67,3.01-.66.31-1.38.46-2.1.46-.65,0-1.31-.13-1.92-.39l-16.58-6.91-3.21,10.01,22.42,3.16c1.49.21,2.81,1.08,3.59,2.37.78,1.29.93,2.86.42,4.28l-7.99,22.04c-.74,2.03-2.65,3.3-4.7,3.3Z"/>
          <path class="cls-3" d="M971.55,461.95c-4.14,0-8.08-.69-11.72-2.04-4.11-1.48-7.57-3.39-10.24-5.68-2.63-2.25-4.73-4.72-6.25-7.32-1.53-2.62-2.56-5.37-3.08-8.17-.49-2.64-.64-5.23-.47-7.7.17-2.44.58-4.68,1.22-6.66.61-1.89,1.2-3.38,1.82-4.58.87-1.68,2.6-2.7,4.44-2.7.37,0,.75.04,1.12.13l8,1.84c-1.04-1.06-1.99-2.17-2.83-3.32-2.18-2.96-3.61-6.43-4.25-10.3-.63-3.78-.37-8.15.8-13.34.86-3.78,2.22-7.16,4.07-10.06,1.83-2.89,4.06-5.39,6.64-7.42,3.62-2.92,7.89-4.88,12.66-5.8,2.3-.45,4.62-.67,6.91-.67s4.57.22,6.82.67c4.54.89,8.78,2.67,12.6,5.26,3.98,2.72,7.05,6.27,9.13,10.55,1.93,4.17,2.82,8.91,2.67,14.16-.15,5.05-1.5,10.89-4.02,17.37-.77,1.97-2.66,3.19-4.66,3.19-.56,0-1.12-.09-1.68-.29l-4.04-1.44c.91,1.11,1.73,2.27,2.47,3.48,1.8,2.97,2.94,6.26,3.39,9.78.46,3.62-.08,7.58-1.6,11.78-1.57,4.37-4.03,8.06-7.32,10.97-3.13,2.76-6.67,4.87-10.54,6.26-3.82,1.38-7.85,2.08-11.99,2.09h-.06ZM971.83,433.38c.65.24,1.2.36,1.68.36.25,0,.47-.03.7-.09.08-.02.14-.04.2-.06-.03-.1-.08-.22-.13-.35-.12-.27-.61-1.17-2.42-2.61-.08.45-.14.88-.17,1.29-.01.51.04.99.15,1.47ZM979.87,395.63c-.13,0-.21.02-.33.09-.67.38-1.11.89-1.43,1.65-.39.91-.49,1.94-.3,3.16.09.62.36,1.57,1.63,2.71.12.11.24.22.37.32.48-.89.94-1.83,1.36-2.81.48-1.09.75-2.11.82-3.03.05-.73-.12-1.17-.26-1.43,0,0,0,0,0,0-.01,0-.23-.19-.84-.42-.58-.22-.88-.25-1.01-.25Z"/>
          <path class="cls-3" d="M1057.71,480.9c-.33,0-.66-.03-.99-.1l-18.55-3.72c-2.71-.54-4.46-3.18-3.92-5.89l6.2-30.9-5.73-1.15-6.46,32.2c-.26,1.3-1.03,2.44-2.13,3.18-.83.55-1.79.84-2.77.84-.33,0-.66-.03-.98-.1l-18.33-3.68c-2.65-.53-4.4-3.07-3.95-5.73l13.64-80.85c.23-1.33.98-2.52,2.1-3.29.84-.58,1.83-.88,2.83-.88.33,0,.66.03.98.1l22.54,4.52c1.33.27,2.49,1.06,3.23,2.2.73,1.14.97,2.53.66,3.85l-6.22,26.31,5.78,1.12,5.65-28.13c.48-2.38,2.56-4.02,4.9-4.02.33,0,.66.03.99.1l21.79,4.37c1.34.27,2.52,1.08,3.25,2.24.73,1.16.95,2.57.61,3.9l-20.26,79.74c-.57,2.25-2.6,3.77-4.84,3.77Z"/>
          <path class="cls-3" d="M1094.67,484.49c-.18,0-.36,0-.54-.03l-17.06-1.84c-2.66-.29-4.62-2.61-4.46-5.28l4.91-79.46c.08-1.36.72-2.63,1.77-3.51.91-.76,2.05-1.18,3.22-1.18.18,0,.36,0,.54.03l24.5,2.64c1.36.15,2.6.84,3.43,1.93s1.18,2.47.97,3.82l-12.34,78.66c-.38,2.46-2.5,4.23-4.93,4.23Z"/>
          <path class="cls-3" d="M1112.91,486.87c-1.32,0-2.58-.52-3.52-1.45-.96-.95-1.49-2.26-1.48-3.61l1.02-81.22c.03-2.55,1.98-4.67,4.52-4.92l16.03-1.53c.16-.02.32-.02.48-.02,1.95,0,3.74,1.14,4.56,2.94l10.4,23.04-.97-17.68c-.07-1.34.39-2.65,1.29-3.63.9-.99,2.16-1.58,3.5-1.63l20.67-.85c.07,0,.14,0,.21,0,1.3,0,2.55.51,3.49,1.42.99.96,1.53,2.28,1.51,3.66l-1.17,79.13c-.04,2.69-2.21,4.87-4.9,4.93,0,0-17.77.35-17.81.35-1.89,0-3.63-1.07-4.48-2.77l-5.66-11.38,1.34,9.02c.21,1.42-.2,2.86-1.13,3.96-.93,1.1-2.28,1.74-3.72,1.77,0,0-24.15.48-24.18.48Z"/>
          <path class="cls-3" d="M1190.43,484.04c-2.28,0-4.34-1.57-4.87-3.88l-18.56-80.95c-.62-2.69,1.06-5.37,3.75-5.99l47.82-10.97c.37-.08.75-.13,1.12-.13,1,0,1.98.3,2.82.87,1.15.79,1.92,2.02,2.13,3.4l3.61,24.33c.21,1.44-.21,2.91-1.17,4.01-.89,1.03-2.16,1.64-3.51,1.71l3.42,15.37c.3,1.37.02,2.8-.78,3.94-.8,1.15-2.05,1.91-3.43,2.1l-17.8,2.4,2.28,10.26,20.95-8.59c.61-.25,1.25-.37,1.9-.37.83,0,1.65.21,2.4.61,1.32.72,2.25,2,2.52,3.49l4.23,23.06c.49,2.66-1.23,5.22-3.87,5.79l-43.88,9.42c-.35.08-.71.11-1.05.11Z"/>
          <path class="cls-3" d="M1266.15,461.74c-1.1,0-2.22-.05-3.34-.15-4.22-.37-8.55-1.73-12.85-4.04-2.26-1.21-3.24-3.95-2.25-6.32l7.72-18.61c.54-1.3,1.61-2.32,2.94-2.79.54-.19,1.11-.29,1.68-.29.82,0,1.63.2,2.37.6,1.79.96,3.35,1.45,4.65,1.45.15,0,.29,0,.44-.02,1.28-.12,2.24-.46,2.85-1.01.37-.33.77-.82.89-1.88.1-.86-.23-1.9-.99-3.08-.06-.09-.23-.33-.36-.36-.36-.08-.76-.12-1.17-.12-.44,0-.91.05-1.4.13-1.22.22-2.46.62-3.68,1.17-1.45.65-2.79,1.34-3.99,2.03-1.2.69-2.56,1.59-4.06,2.66l-8.29,6.15c-.87.65-1.92.98-2.98.98-.39,0-.79-.05-1.18-.14-1.44-.35-2.66-1.33-3.31-2.66l-19.88-40.67c-.61-1.26-.67-2.72-.16-4.02.51-1.3,1.54-2.33,2.85-2.84l48.03-18.6c.58-.23,1.2-.34,1.81-.34.87,0,1.73.23,2.5.67,1.31.76,2.21,2.07,2.44,3.57l3.15,20.54c.39,2.54-1.2,4.95-3.69,5.6l-2.18.57c2.54.12,5.06.59,7.51,1.41,4.36,1.45,8.19,4.6,11.4,9.35.03.05.06.1.09.14,2.62,4.18,4.25,8.57,4.84,13.05.58,4.39.31,8.82-.79,13.17-.71,2.76-1.78,5.42-3.18,7.92-1.4,2.5-3.08,4.8-5.01,6.83-1.93,2.04-4.17,3.85-6.65,5.38-2.53,1.55-5.28,2.73-8.18,3.49-2.78.71-5.65,1.06-8.57,1.06Z"/>
          <path class="cls-3" d="M1330.48,427.78c-4.22,0-8.49-.95-12.69-2.81-5.18-2.3-10.03-5.56-14.43-9.69-4.33-4.06-8.14-8.85-11.32-14.21-3.22-5.43-5.47-11.08-6.67-16.79-1.25-5.91-1.18-11.76.19-17.39,1.45-5.93,4.74-11.1,9.76-15.39,2.23-1.89,4.67-3.57,7.26-5,2.58-1.43,5.2-2.58,7.79-3.42,2.82-.9,5.64-1.35,8.42-1.35,2.63,0,5.27.4,7.84,1.2,4.94,1.52,9.61,4.05,13.88,7.52,4.16,3.37,7.91,7.51,11.15,12.3,3.2,4.73,5.77,9.73,7.65,14.88,1.91,5.22,3.04,10.47,3.38,15.62.36,5.48-.42,10.48-2.32,14.88-1.09,2.61-2.58,5.09-4.39,7.32-1.77,2.17-3.81,4.12-6.05,5.78-2.24,1.66-4.7,3.05-7.29,4.12-2.64,1.09-5.42,1.83-8.26,2.18-1.24.17-2.58.27-3.9.27ZM1316.94,371.47c-.28,0-.67.04-1.22.39-.61.38-1.05.88-1.22,2.05-.25,1.75-.07,3.72.55,5.84.7,2.4,1.79,4.86,3.26,7.31,1.43,2.39,3.06,4.42,4.86,6.04,1.64,1.48,3.33,2.5,5.02,3.04.37.12.72.18,1.03.18s.82-.05,1.54-.5c.67-.42,1.14-.94,1.31-2.11.25-1.73.05-3.67-.58-5.75-.71-2.34-1.84-4.73-3.37-7.11-1.54-2.39-3.25-4.44-5.09-6.09-1.66-1.49-3.35-2.52-5.03-3.08-.39-.13-.74-.19-1.05-.19Z"/>
        </g>
        <g>
          <path class="cls-3" d="M442.5,417.95c-1.82,0-3.57-1-4.45-2.72l-35.82-69.94c-.62-1.2-.72-2.61-.28-3.89.44-1.28,1.37-2.33,2.59-2.91l19.18-9.09c.69-.33,1.42-.48,2.14-.48,1.54,0,3.05.71,4.01,2.02l14.44,19.42-3.02-26.76c-.24-2.12.9-4.16,2.83-5.08l18.79-8.9c.68-.32,1.41-.48,2.14-.48.59,0,1.19.11,1.76.32,1.27.48,2.29,1.45,2.83,2.69l33.08,76.23c1.1,2.53-.06,5.47-2.58,6.57l-19.77,8.64c-.64.28-1.32.42-2,.42s-1.33-.13-1.96-.4c-1.27-.54-2.25-1.57-2.73-2.86l-4.7-12.69c-.49.7-1.15,1.27-1.95,1.65l-7.55,3.58c-.26.12-.52.22-.79.29l4.69,9.37c.6,1.2.69,2.6.26,3.87-.44,1.27-1.37,2.31-2.59,2.89l-16.4,7.77c-.69.33-1.42.48-2.14.48Z"/>
          <path class="cls-3" d="M507.88,393.01c-2.22,0-4.24-1.48-4.83-3.72l-21.3-80.27c-.71-2.67.88-5.41,3.55-6.11l47.42-12.58c.42-.11.85-.17,1.28-.17.94,0,1.87.26,2.68.78,1.18.75,1.99,1.95,2.24,3.32l4.43,24.19c.26,1.44-.12,2.92-1.04,4.05-.86,1.06-2.11,1.72-3.45,1.83l3.94,15.25c.35,1.35.12,2.79-.65,3.97-.76,1.17-1.98,1.98-3.36,2.21l-17.71,3,2.63,10.18,20.65-9.29c.65-.29,1.35-.44,2.05-.44.77,0,1.54.18,2.25.53,1.35.68,2.31,1.93,2.64,3.4l5.01,22.91c.58,2.64-1.05,5.26-3.67,5.92l-43.54,10.9c-.41.1-.82.15-1.22.15Z"/>
          <path class="cls-3" d="M561.8,379.84c-2.52,0-4.69-1.9-4.97-4.46l-8.92-82.57c-.3-2.75,1.69-5.21,4.43-5.51l48.78-5.27c.18-.02.36-.03.54-.03,1.2,0,2.37.43,3.29,1.23,1.05.92,1.67,2.23,1.71,3.62l.72,24.58c.04,1.46-.55,2.87-1.64,3.85-.93.84-2.13,1.3-3.36,1.3-.11,0-.22,0-.33-.01l1.59,15.67c.14,1.39-.31,2.78-1.24,3.83-.93,1.05-2.26,1.65-3.66,1.68l-17.96.29,1.06,10.46,21.81-6.06c.44-.12.89-.18,1.34-.18,1.03,0,2.04.32,2.9.93,1.23.87,2,2.25,2.09,3.76l1.49,23.4c.17,2.7-1.83,5.04-4.52,5.29l-44.69,4.19c-.16.02-.32.02-.47.02Z"/>
          <path class="cls-3" d="M630.93,377.32c-1.34-.04-2.61-.62-3.51-1.6s-1.39-2.29-1.32-3.63l2.88-60.38-9.66,1.29c-.22.03-.44.04-.66.04-1.24,0-2.44-.46-3.36-1.3-1.09-.99-1.69-2.41-1.64-3.88l.79-21.77c.05-1.34.63-2.61,1.63-3.51.92-.84,2.13-1.31,3.37-1.31.09,0,.18,0,.28,0l50.97,2.83c2.72.15,4.82,2.45,4.72,5.17l-.71,19.79c-.05,1.43-.71,2.77-1.82,3.68-.9.74-2.03,1.14-3.18,1.14-.26,0-.52-.02-.79-.06l-9.27-1.47,1.62,60.64c.04,1.38-.5,2.71-1.47,3.68-.94.93-2.21,1.46-3.53,1.46-.05,0-25.34-.8-25.34-.8Z"/>
          <path class="cls-3" d="M755.61,394.96c-.38,0-.76-.04-1.13-.13l-24.53-5.72c-1.3-.3-2.43-1.12-3.13-2.26-.7-1.14-.91-2.52-.58-3.82l14.66-58.65-9.72-.63c-1.47-.1-2.82-.83-3.7-2.02s-1.18-2.69-.84-4.13l5.04-21.19c.31-1.31,1.13-2.43,2.28-3.13.79-.47,1.68-.72,2.58-.72.42,0,.84.05,1.25.16l49.43,12.77c2.64.68,4.24,3.35,3.61,6l-4.58,19.26c-.33,1.39-1.24,2.58-2.51,3.25-.73.39-1.54.59-2.36.59-.59,0-1.18-.1-1.74-.31l-8.8-3.26-10.3,59.78c-.23,1.36-1.02,2.56-2.16,3.32-.83.55-1.79.83-2.76.83Z"/>
          <path class="cls-3" d="M827.28,414.73c-.51,0-1.03-.08-1.54-.24l-18-5.82c-2.63-.85-4.07-3.67-3.22-6.3l9.69-29.99-5.56-1.8-10.1,31.25c-.41,1.26-1.3,2.31-2.48,2.91-.71.36-1.49.55-2.28.55-.52,0-1.04-.08-1.54-.24l-17.79-5.75c-2.57-.83-4.02-3.55-3.26-6.15l22.8-78.76c.38-1.3,1.26-2.39,2.46-3.03.73-.39,1.54-.58,2.34-.58.52,0,1.04.08,1.54.24l21.88,7.07c1.29.42,2.36,1.34,2.95,2.56.6,1.22.67,2.62.21,3.9l-9.19,25.43,5.61,1.77,8.83-27.3c.68-2.12,2.65-3.46,4.76-3.46.51,0,1.03.08,1.54.24l21.14,6.83c1.3.42,2.38,1.36,2.97,2.59s.65,2.66.17,3.94l-29.25,76.9c-.76,1.99-2.65,3.22-4.67,3.22Z"/>
          <path class="cls-3" d="M882.75,433.52c-.52,0-1.04-.08-1.56-.25l-42.64-14.02c-2.6-.85-4.03-3.64-3.21-6.25l24.84-79.25c.67-2.14,2.64-3.51,4.77-3.51.5,0,1,.07,1.5.23l46.82,14.67c1.33.42,2.43,1.37,3.02,2.63.6,1.26.64,2.71.12,4.01l-9.17,22.82c-.54,1.36-1.65,2.4-3.04,2.87-.52.18-1.06.26-1.6.26-.79,0-1.58-.19-2.3-.56l-4.81,15c-.43,1.33-1.39,2.43-2.67,3.01-.66.31-1.38.46-2.1.46-.65,0-1.31-.13-1.92-.39l-16.58-6.91-3.21,10.01,22.42,3.16c1.49.21,2.81,1.08,3.59,2.37.78,1.29.93,2.86.42,4.28l-7.99,22.04c-.74,2.03-2.65,3.3-4.7,3.3Z"/>
          <path class="cls-3" d="M969.55,458.95c-4.14,0-8.08-.69-11.72-2.04-4.11-1.48-7.57-3.39-10.24-5.68-2.63-2.25-4.73-4.72-6.25-7.32-1.53-2.62-2.56-5.37-3.08-8.17-.49-2.64-.64-5.23-.47-7.7.17-2.44.58-4.68,1.22-6.66.61-1.89,1.2-3.38,1.82-4.58.87-1.68,2.6-2.7,4.44-2.7.37,0,.75.04,1.12.13l8,1.84c-1.04-1.06-1.99-2.17-2.83-3.32-2.18-2.96-3.61-6.43-4.25-10.3-.63-3.78-.37-8.15.8-13.34.86-3.78,2.22-7.16,4.07-10.06,1.83-2.89,4.06-5.39,6.64-7.42,3.62-2.92,7.89-4.88,12.66-5.8,2.3-.45,4.62-.67,6.91-.67s4.57.22,6.82.67c4.54.89,8.78,2.67,12.6,5.26,3.98,2.72,7.05,6.27,9.13,10.55,1.93,4.17,2.82,8.91,2.67,14.16-.15,5.05-1.5,10.89-4.02,17.37-.77,1.97-2.66,3.19-4.66,3.19-.56,0-1.12-.09-1.68-.29l-4.04-1.44c.91,1.11,1.73,2.27,2.47,3.48,1.8,2.97,2.94,6.26,3.39,9.78.46,3.62-.08,7.58-1.6,11.78-1.57,4.37-4.03,8.06-7.32,10.97-3.13,2.76-6.67,4.87-10.54,6.26-3.82,1.38-7.85,2.08-11.99,2.09h-.06ZM969.83,430.38c.65.24,1.2.36,1.68.36.25,0,.47-.03.7-.09.08-.02.14-.04.2-.06-.03-.1-.08-.22-.13-.35-.12-.27-.61-1.17-2.42-2.61-.08.45-.14.88-.17,1.29-.01.51.04.99.15,1.47ZM977.87,392.63c-.13,0-.21.02-.33.09-.67.38-1.11.89-1.43,1.65-.39.91-.49,1.94-.3,3.16.09.62.36,1.57,1.63,2.71.12.11.24.22.37.32.48-.89.94-1.83,1.36-2.81.48-1.09.75-2.11.82-3.03.05-.73-.12-1.17-.26-1.43,0,0,0,0,0,0-.01,0-.23-.19-.84-.42-.58-.22-.88-.25-1.01-.25Z"/>
          <path class="cls-3" d="M1055.71,477.9c-.33,0-.66-.03-.99-.1l-18.55-3.72c-2.71-.54-4.46-3.18-3.92-5.89l6.2-30.9-5.73-1.15-6.46,32.2c-.26,1.3-1.03,2.44-2.13,3.18-.83.55-1.79.84-2.77.84-.33,0-.66-.03-.98-.1l-18.33-3.68c-2.65-.53-4.4-3.07-3.95-5.73l13.64-80.85c.23-1.33.98-2.52,2.1-3.29.84-.58,1.83-.88,2.83-.88.33,0,.66.03.98.1l22.54,4.52c1.33.27,2.49,1.06,3.23,2.2.73,1.14.97,2.53.66,3.85l-6.22,26.31,5.78,1.12,5.65-28.13c.48-2.38,2.56-4.02,4.9-4.02.33,0,.66.03.99.1l21.79,4.37c1.34.27,2.52,1.08,3.25,2.24.73,1.16.95,2.57.61,3.9l-20.26,79.74c-.57,2.25-2.6,3.77-4.84,3.77Z"/>
          <path class="cls-3" d="M1092.67,481.49c-.18,0-.36,0-.54-.03l-17.06-1.84c-2.66-.29-4.62-2.61-4.46-5.28l4.91-79.46c.08-1.36.72-2.63,1.77-3.51.91-.76,2.05-1.18,3.22-1.18.18,0,.36,0,.54.03l24.5,2.64c1.36.15,2.6.84,3.43,1.93s1.18,2.47.97,3.82l-12.34,78.66c-.38,2.46-2.5,4.23-4.93,4.23Z"/>
          <path class="cls-3" d="M1110.91,483.87c-1.32,0-2.58-.52-3.52-1.45-.96-.95-1.49-2.26-1.48-3.61l1.02-81.22c.03-2.55,1.98-4.67,4.52-4.92l16.03-1.53c.16-.02.32-.02.48-.02,1.95,0,3.74,1.14,4.56,2.94l10.4,23.04-.97-17.68c-.07-1.34.39-2.65,1.29-3.63.9-.99,2.16-1.58,3.5-1.63l20.67-.85c.07,0,.14,0,.21,0,1.3,0,2.55.51,3.49,1.42.99.96,1.53,2.28,1.51,3.66l-1.17,79.13c-.04,2.69-2.21,4.87-4.9,4.93,0,0-17.77.35-17.81.35-1.89,0-3.63-1.07-4.48-2.77l-5.66-11.38,1.34,9.02c.21,1.42-.2,2.86-1.13,3.96-.93,1.1-2.28,1.74-3.72,1.77,0,0-24.15.48-24.18.48Z"/>
          <path class="cls-3" d="M1188.43,481.04c-2.28,0-4.34-1.57-4.87-3.88l-18.56-80.95c-.62-2.69,1.06-5.37,3.75-5.99l47.82-10.97c.37-.08.75-.13,1.12-.13,1,0,1.98.3,2.82.87,1.15.79,1.92,2.02,2.13,3.4l3.61,24.33c.21,1.44-.21,2.91-1.17,4.01-.89,1.03-2.16,1.64-3.51,1.71l3.42,15.37c.3,1.37.02,2.8-.78,3.94-.8,1.15-2.05,1.91-3.43,2.1l-17.8,2.4,2.28,10.26,20.95-8.59c.61-.25,1.25-.37,1.9-.37.83,0,1.65.21,2.4.61,1.32.72,2.25,2,2.52,3.49l4.23,23.06c.49,2.66-1.23,5.22-3.87,5.79l-43.88,9.42c-.35.08-.71.11-1.05.11Z"/>
          <path class="cls-3" d="M1264.15,458.74c-1.1,0-2.22-.05-3.34-.15-4.22-.37-8.55-1.73-12.85-4.04-2.26-1.21-3.24-3.95-2.25-6.32l7.72-18.61c.54-1.3,1.61-2.32,2.94-2.79.54-.19,1.11-.29,1.68-.29.82,0,1.63.2,2.37.6,1.79.96,3.35,1.45,4.65,1.45.15,0,.29,0,.44-.02,1.28-.12,2.24-.46,2.85-1.01.37-.33.77-.82.89-1.88.1-.86-.23-1.9-.99-3.08-.06-.09-.23-.33-.36-.36-.36-.08-.76-.12-1.17-.12-.44,0-.91.05-1.4.13-1.22.22-2.46.62-3.68,1.17-1.45.65-2.79,1.34-3.99,2.03-1.2.69-2.56,1.59-4.06,2.66l-8.29,6.15c-.87.65-1.92.98-2.98.98-.39,0-.79-.05-1.18-.14-1.44-.35-2.66-1.33-3.31-2.66l-19.88-40.67c-.61-1.26-.67-2.72-.16-4.02.51-1.3,1.54-2.33,2.85-2.84l48.03-18.6c.58-.23,1.2-.34,1.81-.34.87,0,1.73.23,2.5.67,1.31.76,2.21,2.07,2.44,3.57l3.15,20.54c.39,2.54-1.2,4.95-3.69,5.6l-2.18.57c2.54.12,5.06.59,7.51,1.41,4.36,1.45,8.19,4.6,11.4,9.35.03.05.06.1.09.14,2.62,4.18,4.25,8.57,4.84,13.05.58,4.39.31,8.82-.79,13.17-.71,2.76-1.78,5.42-3.18,7.92-1.4,2.5-3.08,4.8-5.01,6.83-1.93,2.04-4.17,3.85-6.65,5.38-2.53,1.55-5.28,2.73-8.18,3.49-2.78.71-5.65,1.06-8.57,1.06Z"/>
          <path class="cls-3" d="M1328.48,424.78c-4.22,0-8.49-.95-12.69-2.81-5.18-2.3-10.03-5.56-14.43-9.69-4.33-4.06-8.14-8.85-11.32-14.21-3.22-5.43-5.47-11.08-6.67-16.79-1.25-5.91-1.18-11.76.19-17.39,1.45-5.93,4.74-11.1,9.76-15.39,2.23-1.89,4.67-3.57,7.26-5,2.58-1.43,5.2-2.58,7.79-3.42,2.82-.9,5.64-1.35,8.42-1.35,2.63,0,5.27.4,7.84,1.2,4.94,1.52,9.61,4.05,13.88,7.52,4.16,3.37,7.91,7.51,11.15,12.3,3.2,4.73,5.77,9.73,7.65,14.88,1.91,5.22,3.04,10.47,3.38,15.62.36,5.48-.42,10.48-2.32,14.88-1.09,2.61-2.58,5.09-4.39,7.32-1.77,2.17-3.81,4.12-6.05,5.78-2.24,1.66-4.7,3.05-7.29,4.12-2.64,1.09-5.42,1.83-8.26,2.18-1.24.17-2.58.27-3.9.27ZM1314.94,368.47c-.28,0-.67.04-1.22.39-.61.38-1.05.88-1.22,2.05-.25,1.75-.07,3.72.55,5.84.7,2.4,1.79,4.86,3.26,7.31,1.43,2.39,3.06,4.42,4.86,6.04,1.64,1.48,3.33,2.5,5.02,3.04.37.12.72.18,1.03.18s.82-.05,1.54-.5c.67-.42,1.14-.94,1.31-2.11.25-1.73.05-3.67-.58-5.75-.71-2.34-1.84-4.73-3.37-7.11-1.54-2.39-3.25-4.44-5.09-6.09-1.66-1.49-3.35-2.52-5.03-3.08-.39-.13-.74-.19-1.05-.19Z"/>
        </g>
        <g>
          <path class="cls-3" d="M440.5,414.95c-1.82,0-3.57-1-4.45-2.72l-35.82-69.94c-.62-1.2-.72-2.61-.28-3.89.44-1.28,1.37-2.33,2.59-2.91l19.18-9.09c.69-.33,1.42-.48,2.14-.48,1.54,0,3.05.71,4.01,2.02l14.44,19.42-3.02-26.76c-.24-2.12.9-4.16,2.83-5.08l18.79-8.9c.68-.32,1.41-.48,2.14-.48.59,0,1.19.11,1.76.32,1.27.48,2.29,1.45,2.83,2.69l33.08,76.23c1.1,2.53-.06,5.47-2.58,6.57l-19.77,8.64c-.64.28-1.32.42-2,.42s-1.33-.13-1.96-.4c-1.27-.54-2.25-1.57-2.73-2.86l-4.7-12.69c-.49.7-1.15,1.27-1.95,1.65l-7.55,3.58c-.26.12-.52.22-.79.29l4.69,9.37c.6,1.2.69,2.6.26,3.87-.44,1.27-1.37,2.31-2.59,2.89l-16.4,7.77c-.69.33-1.42.48-2.14.48Z"/>
          <path class="cls-3" d="M505.88,390.01c-2.22,0-4.24-1.48-4.83-3.72l-21.3-80.27c-.71-2.67.88-5.41,3.55-6.11l47.42-12.58c.42-.11.85-.17,1.28-.17.94,0,1.87.26,2.68.78,1.18.75,1.99,1.95,2.24,3.32l4.43,24.19c.26,1.44-.12,2.92-1.04,4.05-.86,1.06-2.11,1.72-3.45,1.83l3.94,15.25c.35,1.35.12,2.79-.65,3.97-.76,1.17-1.98,1.98-3.36,2.21l-17.71,3,2.63,10.18,20.65-9.29c.65-.29,1.35-.44,2.05-.44.77,0,1.54.18,2.25.53,1.35.68,2.31,1.93,2.64,3.4l5.01,22.91c.58,2.64-1.05,5.26-3.67,5.92l-43.54,10.9c-.41.1-.82.15-1.22.15Z"/>
          <path class="cls-3" d="M559.8,376.84c-2.52,0-4.69-1.9-4.97-4.46l-8.92-82.57c-.3-2.75,1.69-5.21,4.43-5.51l48.78-5.27c.18-.02.36-.03.54-.03,1.2,0,2.37.43,3.29,1.23,1.05.92,1.67,2.23,1.71,3.62l.72,24.58c.04,1.46-.55,2.87-1.64,3.85-.93.84-2.13,1.3-3.36,1.3-.11,0-.22,0-.33-.01l1.59,15.67c.14,1.39-.31,2.78-1.24,3.83-.93,1.05-2.26,1.65-3.66,1.68l-17.96.29,1.06,10.46,21.81-6.06c.44-.12.89-.18,1.34-.18,1.03,0,2.04.32,2.9.93,1.23.87,2,2.25,2.09,3.76l1.49,23.4c.17,2.7-1.83,5.04-4.52,5.29l-44.69,4.19c-.16.02-.32.02-.47.02Z"/>
          <path class="cls-3" d="M628.93,374.32c-1.34-.04-2.61-.62-3.51-1.6s-1.39-2.29-1.32-3.63l2.88-60.38-9.66,1.29c-.22.03-.44.04-.66.04-1.24,0-2.44-.46-3.36-1.3-1.09-.99-1.69-2.41-1.64-3.88l.79-21.77c.05-1.34.63-2.61,1.63-3.51.92-.84,2.13-1.31,3.37-1.31.09,0,.18,0,.28,0l50.97,2.83c2.72.15,4.82,2.45,4.72,5.17l-.71,19.79c-.05,1.43-.71,2.77-1.82,3.68-.9.74-2.03,1.14-3.18,1.14-.26,0-.52-.02-.79-.06l-9.27-1.47,1.62,60.64c.04,1.38-.5,2.71-1.47,3.68-.94.93-2.21,1.46-3.53,1.46-.05,0-25.34-.8-25.34-.8Z"/>
          <path class="cls-3" d="M753.61,391.96c-.38,0-.76-.04-1.13-.13l-24.53-5.72c-1.3-.3-2.43-1.12-3.13-2.26-.7-1.14-.91-2.52-.58-3.82l14.66-58.65-9.72-.63c-1.47-.1-2.82-.83-3.7-2.02s-1.18-2.69-.84-4.13l5.04-21.19c.31-1.31,1.13-2.43,2.28-3.13.79-.47,1.68-.72,2.58-.72.42,0,.84.05,1.25.16l49.43,12.77c2.64.68,4.24,3.35,3.61,6l-4.58,19.26c-.33,1.39-1.24,2.58-2.51,3.25-.73.39-1.54.59-2.36.59-.59,0-1.18-.1-1.74-.31l-8.8-3.26-10.3,59.78c-.23,1.36-1.02,2.56-2.16,3.32-.83.55-1.79.83-2.76.83Z"/>
          <path class="cls-3" d="M825.28,411.73c-.51,0-1.03-.08-1.54-.24l-18-5.82c-2.63-.85-4.07-3.67-3.22-6.3l9.69-29.99-5.56-1.8-10.1,31.25c-.41,1.26-1.3,2.31-2.48,2.91-.71.36-1.49.55-2.28.55-.52,0-1.04-.08-1.54-.24l-17.79-5.75c-2.57-.83-4.02-3.55-3.26-6.15l22.8-78.76c.38-1.3,1.26-2.39,2.46-3.03.73-.39,1.54-.58,2.34-.58.52,0,1.04.08,1.54.24l21.88,7.07c1.29.42,2.36,1.34,2.95,2.56.6,1.22.67,2.62.21,3.9l-9.19,25.43,5.61,1.77,8.83-27.3c.68-2.12,2.65-3.46,4.76-3.46.51,0,1.03.08,1.54.24l21.14,6.83c1.3.42,2.38,1.36,2.97,2.59s.65,2.66.17,3.94l-29.25,76.9c-.76,1.99-2.65,3.22-4.67,3.22Z"/>
          <path class="cls-3" d="M880.75,430.52c-.52,0-1.04-.08-1.56-.25l-42.64-14.02c-2.6-.85-4.03-3.64-3.21-6.25l24.84-79.25c.67-2.14,2.64-3.51,4.77-3.51.5,0,1,.07,1.5.23l46.82,14.67c1.33.42,2.43,1.37,3.02,2.63.6,1.26.64,2.71.12,4.01l-9.17,22.82c-.54,1.36-1.65,2.4-3.04,2.87-.52.18-1.06.26-1.6.26-.79,0-1.58-.19-2.3-.56l-4.81,15c-.43,1.33-1.39,2.43-2.67,3.01-.66.31-1.38.46-2.1.46-.65,0-1.31-.13-1.92-.39l-16.58-6.91-3.21,10.01,22.42,3.16c1.49.21,2.81,1.08,3.59,2.37.78,1.29.93,2.86.42,4.28l-7.99,22.04c-.74,2.03-2.65,3.3-4.7,3.3Z"/>
          <path class="cls-3" d="M967.55,455.95c-4.14,0-8.08-.69-11.72-2.04-4.11-1.48-7.57-3.39-10.24-5.68-2.63-2.25-4.73-4.72-6.25-7.32-1.53-2.62-2.56-5.37-3.08-8.17-.49-2.64-.64-5.23-.47-7.7.17-2.44.58-4.68,1.22-6.66.61-1.89,1.2-3.38,1.82-4.58.87-1.68,2.6-2.7,4.44-2.7.37,0,.75.04,1.12.13l8,1.84c-1.04-1.06-1.99-2.17-2.83-3.32-2.18-2.96-3.61-6.43-4.25-10.3-.63-3.78-.37-8.15.8-13.34.86-3.78,2.22-7.16,4.07-10.06,1.83-2.89,4.06-5.39,6.64-7.42,3.62-2.92,7.89-4.88,12.66-5.8,2.3-.45,4.62-.67,6.91-.67s4.57.22,6.82.67c4.54.89,8.78,2.67,12.6,5.26,3.98,2.72,7.05,6.27,9.13,10.55,1.93,4.17,2.82,8.91,2.67,14.16-.15,5.05-1.5,10.89-4.02,17.37-.77,1.97-2.66,3.19-4.66,3.19-.56,0-1.12-.09-1.68-.29l-4.04-1.44c.91,1.11,1.73,2.27,2.47,3.48,1.8,2.97,2.94,6.26,3.39,9.78.46,3.62-.08,7.58-1.6,11.78-1.57,4.37-4.03,8.06-7.32,10.97-3.13,2.76-6.67,4.87-10.54,6.26-3.82,1.38-7.85,2.08-11.99,2.09h-.06ZM967.83,427.38c.65.24,1.2.36,1.68.36.25,0,.47-.03.7-.09.08-.02.14-.04.2-.06-.03-.1-.08-.22-.13-.35-.12-.27-.61-1.17-2.42-2.61-.08.45-.14.88-.17,1.29-.01.51.04.99.15,1.47ZM975.87,389.63c-.13,0-.21.02-.33.09-.67.38-1.11.89-1.43,1.65-.39.91-.49,1.94-.3,3.16.09.62.36,1.57,1.63,2.71.12.11.24.22.37.32.48-.89.94-1.83,1.36-2.81.48-1.09.75-2.11.82-3.03.05-.73-.12-1.17-.26-1.43,0,0,0,0,0,0-.01,0-.23-.19-.84-.42-.58-.22-.88-.25-1.01-.25Z"/>
          <path class="cls-3" d="M1053.71,474.9c-.33,0-.66-.03-.99-.1l-18.55-3.72c-2.71-.54-4.46-3.18-3.92-5.89l6.2-30.9-5.73-1.15-6.46,32.2c-.26,1.3-1.03,2.44-2.13,3.18-.83.55-1.79.84-2.77.84-.33,0-.66-.03-.98-.1l-18.33-3.68c-2.65-.53-4.4-3.07-3.95-5.73l13.64-80.85c.23-1.33.98-2.52,2.1-3.29.84-.58,1.83-.88,2.83-.88.33,0,.66.03.98.1l22.54,4.52c1.33.27,2.49,1.06,3.23,2.2.73,1.14.97,2.53.66,3.85l-6.22,26.31,5.78,1.12,5.65-28.13c.48-2.38,2.56-4.02,4.9-4.02.33,0,.66.03.99.1l21.79,4.37c1.34.27,2.52,1.08,3.25,2.24.73,1.16.95,2.57.61,3.9l-20.26,79.74c-.57,2.25-2.6,3.77-4.84,3.77Z"/>
          <path class="cls-3" d="M1090.67,478.49c-.18,0-.36,0-.54-.03l-17.06-1.84c-2.66-.29-4.62-2.61-4.46-5.28l4.91-79.46c.08-1.36.72-2.63,1.77-3.51.91-.76,2.05-1.18,3.22-1.18.18,0,.36,0,.54.03l24.5,2.64c1.36.15,2.6.84,3.43,1.93s1.18,2.47.97,3.82l-12.34,78.66c-.38,2.46-2.5,4.23-4.93,4.23Z"/>
          <path class="cls-3" d="M1108.91,480.87c-1.32,0-2.58-.52-3.52-1.45-.96-.95-1.49-2.26-1.48-3.61l1.02-81.22c.03-2.55,1.98-4.67,4.52-4.92l16.03-1.53c.16-.02.32-.02.48-.02,1.95,0,3.74,1.14,4.56,2.94l10.4,23.04-.97-17.68c-.07-1.34.39-2.65,1.29-3.63.9-.99,2.16-1.58,3.5-1.63l20.67-.85c.07,0,.14,0,.21,0,1.3,0,2.55.51,3.49,1.42.99.96,1.53,2.28,1.51,3.66l-1.17,79.13c-.04,2.69-2.21,4.87-4.9,4.93,0,0-17.77.35-17.81.35-1.89,0-3.63-1.07-4.48-2.77l-5.66-11.38,1.34,9.02c.21,1.42-.2,2.86-1.13,3.96-.93,1.1-2.28,1.74-3.72,1.77,0,0-24.15.48-24.18.48Z"/>
          <path class="cls-3" d="M1186.43,478.04c-2.28,0-4.34-1.57-4.87-3.88l-18.56-80.95c-.62-2.69,1.06-5.37,3.75-5.99l47.82-10.97c.37-.08.75-.13,1.12-.13,1,0,1.98.3,2.82.87,1.15.79,1.92,2.02,2.13,3.4l3.61,24.33c.21,1.44-.21,2.91-1.17,4.01-.89,1.03-2.16,1.64-3.51,1.71l3.42,15.37c.3,1.37.02,2.8-.78,3.94-.8,1.15-2.05,1.91-3.43,2.1l-17.8,2.4,2.28,10.26,20.95-8.59c.61-.25,1.25-.37,1.9-.37.83,0,1.65.21,2.4.61,1.32.72,2.25,2,2.52,3.49l4.23,23.06c.49,2.66-1.23,5.22-3.87,5.79l-43.88,9.42c-.35.08-.71.11-1.05.11Z"/>
          <path class="cls-3" d="M1262.15,455.74c-1.1,0-2.22-.05-3.34-.15-4.22-.37-8.55-1.73-12.85-4.04-2.26-1.21-3.24-3.95-2.25-6.32l7.72-18.61c.54-1.3,1.61-2.32,2.94-2.79.54-.19,1.11-.29,1.68-.29.82,0,1.63.2,2.37.6,1.79.96,3.35,1.45,4.65,1.45.15,0,.29,0,.44-.02,1.28-.12,2.24-.46,2.85-1.01.37-.33.77-.82.89-1.88.1-.86-.23-1.9-.99-3.08-.06-.09-.23-.33-.36-.36-.36-.08-.76-.12-1.17-.12-.44,0-.91.05-1.4.13-1.22.22-2.46.62-3.68,1.17-1.45.65-2.79,1.34-3.99,2.03-1.2.69-2.56,1.59-4.06,2.66l-8.29,6.15c-.87.65-1.92.98-2.98.98-.39,0-.79-.05-1.18-.14-1.44-.35-2.66-1.33-3.31-2.66l-19.88-40.67c-.61-1.26-.67-2.72-.16-4.02.51-1.3,1.54-2.33,2.85-2.84l48.03-18.6c.58-.23,1.2-.34,1.81-.34.87,0,1.73.23,2.5.67,1.31.76,2.21,2.07,2.44,3.57l3.15,20.54c.39,2.54-1.2,4.95-3.69,5.6l-2.18.57c2.54.12,5.06.59,7.51,1.41,4.36,1.45,8.19,4.6,11.4,9.35.03.05.06.1.09.14,2.62,4.18,4.25,8.57,4.84,13.05.58,4.39.31,8.82-.79,13.17-.71,2.76-1.78,5.42-3.18,7.92-1.4,2.5-3.08,4.8-5.01,6.83-1.93,2.04-4.17,3.85-6.65,5.38-2.53,1.55-5.28,2.73-8.18,3.49-2.78.71-5.65,1.06-8.57,1.06Z"/>
          <path class="cls-3" d="M1326.48,421.78c-4.22,0-8.49-.95-12.69-2.81-5.18-2.3-10.03-5.56-14.43-9.69-4.33-4.06-8.14-8.85-11.32-14.21-3.22-5.43-5.47-11.08-6.67-16.79-1.25-5.91-1.18-11.76.19-17.39,1.45-5.93,4.74-11.1,9.76-15.39,2.23-1.89,4.67-3.57,7.26-5,2.58-1.43,5.2-2.58,7.79-3.42,2.82-.9,5.64-1.35,8.42-1.35,2.63,0,5.27.4,7.84,1.2,4.94,1.52,9.61,4.05,13.88,7.52,4.16,3.37,7.91,7.51,11.15,12.3,3.2,4.73,5.77,9.73,7.65,14.88,1.91,5.22,3.04,10.47,3.38,15.62.36,5.48-.42,10.48-2.32,14.88-1.09,2.61-2.58,5.09-4.39,7.32-1.77,2.17-3.81,4.12-6.05,5.78-2.24,1.66-4.7,3.05-7.29,4.12-2.64,1.09-5.42,1.83-8.26,2.18-1.24.17-2.58.27-3.9.27ZM1312.94,365.47c-.28,0-.67.04-1.22.39-.61.38-1.05.88-1.22,2.05-.25,1.75-.07,3.72.55,5.84.7,2.4,1.79,4.86,3.26,7.31,1.43,2.39,3.06,4.42,4.86,6.04,1.64,1.48,3.33,2.5,5.02,3.04.37.12.72.18,1.03.18s.82-.05,1.54-.5c.67-.42,1.14-.94,1.31-2.11.25-1.73.05-3.67-.58-5.75-.71-2.34-1.84-4.73-3.37-7.11-1.54-2.39-3.25-4.44-5.09-6.09-1.66-1.49-3.35-2.52-5.03-3.08-.39-.13-.74-.19-1.05-.19Z"/>
        </g>
        <g>
          <path class="cls-3" d="M438.5,411.95c-1.82,0-3.57-1-4.45-2.72l-35.82-69.94c-.62-1.2-.72-2.61-.28-3.89.44-1.28,1.37-2.33,2.59-2.91l19.18-9.09c.69-.33,1.42-.48,2.14-.48,1.54,0,3.05.71,4.01,2.02l14.44,19.42-3.02-26.76c-.24-2.12.9-4.16,2.83-5.08l18.79-8.9c.68-.32,1.41-.48,2.14-.48.59,0,1.19.11,1.76.32,1.27.48,2.29,1.45,2.83,2.69l33.08,76.23c1.1,2.53-.06,5.47-2.58,6.57l-19.77,8.64c-.64.28-1.32.42-2,.42s-1.33-.13-1.96-.4c-1.27-.54-2.25-1.57-2.73-2.86l-4.7-12.69c-.49.7-1.15,1.27-1.95,1.65l-7.55,3.58c-.26.12-.52.22-.79.29l4.69,9.37c.6,1.2.69,2.6.26,3.87-.44,1.27-1.37,2.31-2.59,2.89l-16.4,7.77c-.69.33-1.42.48-2.14.48Z"/>
          <path class="cls-3" d="M503.88,387.01c-2.22,0-4.24-1.48-4.83-3.72l-21.3-80.27c-.71-2.67.88-5.41,3.55-6.11l47.42-12.58c.42-.11.85-.17,1.28-.17.94,0,1.87.26,2.68.78,1.18.75,1.99,1.95,2.24,3.32l4.43,24.19c.26,1.44-.12,2.92-1.04,4.05-.86,1.06-2.11,1.72-3.45,1.83l3.94,15.25c.35,1.35.12,2.79-.65,3.97-.76,1.17-1.98,1.98-3.36,2.21l-17.71,3,2.63,10.18,20.65-9.29c.65-.29,1.35-.44,2.05-.44.77,0,1.54.18,2.25.53,1.35.68,2.31,1.93,2.64,3.4l5.01,22.91c.58,2.64-1.05,5.26-3.67,5.92l-43.54,10.9c-.41.1-.82.15-1.22.15Z"/>
          <path class="cls-3" d="M557.8,373.84c-2.52,0-4.69-1.9-4.97-4.46l-8.92-82.57c-.3-2.75,1.69-5.21,4.43-5.51l48.78-5.27c.18-.02.36-.03.54-.03,1.2,0,2.37.43,3.29,1.23,1.05.92,1.67,2.23,1.71,3.62l.72,24.58c.04,1.46-.55,2.87-1.64,3.85-.93.84-2.13,1.3-3.36,1.3-.11,0-.22,0-.33-.01l1.59,15.67c.14,1.39-.31,2.78-1.24,3.83-.93,1.05-2.26,1.65-3.66,1.68l-17.96.29,1.06,10.46,21.81-6.06c.44-.12.89-.18,1.34-.18,1.03,0,2.04.32,2.9.93,1.23.87,2,2.25,2.09,3.76l1.49,23.4c.17,2.7-1.83,5.04-4.52,5.29l-44.69,4.19c-.16.02-.32.02-.47.02Z"/>
          <path class="cls-3" d="M626.93,371.32c-1.34-.04-2.61-.62-3.51-1.6s-1.39-2.29-1.32-3.63l2.88-60.38-9.66,1.29c-.22.03-.44.04-.66.04-1.24,0-2.44-.46-3.36-1.3-1.09-.99-1.69-2.41-1.64-3.88l.79-21.77c.05-1.34.63-2.61,1.63-3.51.92-.84,2.13-1.31,3.37-1.31.09,0,.18,0,.28,0l50.97,2.83c2.72.15,4.82,2.45,4.72,5.17l-.71,19.79c-.05,1.43-.71,2.77-1.82,3.68-.9.74-2.03,1.14-3.18,1.14-.26,0-.52-.02-.79-.06l-9.27-1.47,1.62,60.64c.04,1.38-.5,2.71-1.47,3.68-.94.93-2.21,1.46-3.53,1.46-.05,0-25.34-.8-25.34-.8Z"/>
          <path class="cls-3" d="M751.61,388.96c-.38,0-.76-.04-1.13-.13l-24.53-5.72c-1.3-.3-2.43-1.12-3.13-2.26-.7-1.14-.91-2.52-.58-3.82l14.66-58.65-9.72-.63c-1.47-.1-2.82-.83-3.7-2.02s-1.18-2.69-.84-4.13l5.04-21.19c.31-1.31,1.13-2.43,2.28-3.13.79-.47,1.68-.72,2.58-.72.42,0,.84.05,1.25.16l49.43,12.77c2.64.68,4.24,3.35,3.61,6l-4.58,19.26c-.33,1.39-1.24,2.58-2.51,3.25-.73.39-1.54.59-2.36.59-.59,0-1.18-.1-1.74-.31l-8.8-3.26-10.3,59.78c-.23,1.36-1.02,2.56-2.16,3.32-.83.55-1.79.83-2.76.83Z"/>
          <path class="cls-3" d="M823.28,408.73c-.51,0-1.03-.08-1.54-.24l-18-5.82c-2.63-.85-4.07-3.67-3.22-6.3l9.69-29.99-5.56-1.8-10.1,31.25c-.41,1.26-1.3,2.31-2.48,2.91-.71.36-1.49.55-2.28.55-.52,0-1.04-.08-1.54-.24l-17.79-5.75c-2.57-.83-4.02-3.55-3.26-6.15l22.8-78.76c.38-1.3,1.26-2.39,2.46-3.03.73-.39,1.54-.58,2.34-.58.52,0,1.04.08,1.54.24l21.88,7.07c1.29.42,2.36,1.34,2.95,2.56.6,1.22.67,2.62.21,3.9l-9.19,25.43,5.61,1.77,8.83-27.3c.68-2.12,2.65-3.46,4.76-3.46.51,0,1.03.08,1.54.24l21.14,6.83c1.3.42,2.38,1.36,2.97,2.59s.65,2.66.17,3.94l-29.25,76.9c-.76,1.99-2.65,3.22-4.67,3.22Z"/>
          <path class="cls-3" d="M878.75,427.52c-.52,0-1.04-.08-1.56-.25l-42.64-14.02c-2.6-.85-4.03-3.64-3.21-6.25l24.84-79.25c.67-2.14,2.64-3.51,4.77-3.51.5,0,1,.07,1.5.23l46.82,14.67c1.33.42,2.43,1.37,3.02,2.63.6,1.26.64,2.71.12,4.01l-9.17,22.82c-.54,1.36-1.65,2.4-3.04,2.87-.52.18-1.06.26-1.6.26-.79,0-1.58-.19-2.3-.56l-4.81,15c-.43,1.33-1.39,2.43-2.67,3.01-.66.31-1.38.46-2.1.46-.65,0-1.31-.13-1.92-.39l-16.58-6.91-3.21,10.01,22.42,3.16c1.49.21,2.81,1.08,3.59,2.37.78,1.29.93,2.86.42,4.28l-7.99,22.04c-.74,2.03-2.65,3.3-4.7,3.3Z"/>
          <path class="cls-3" d="M965.55,452.95c-4.14,0-8.08-.69-11.72-2.04-4.11-1.48-7.57-3.39-10.24-5.68-2.63-2.25-4.73-4.72-6.25-7.32-1.53-2.62-2.56-5.37-3.08-8.17-.49-2.64-.64-5.23-.47-7.7.17-2.44.58-4.68,1.22-6.66.61-1.89,1.2-3.38,1.82-4.58.87-1.68,2.6-2.7,4.44-2.7.37,0,.75.04,1.12.13l8,1.84c-1.04-1.06-1.99-2.17-2.83-3.32-2.18-2.96-3.61-6.43-4.25-10.3-.63-3.78-.37-8.15.8-13.34.86-3.78,2.22-7.16,4.07-10.06,1.83-2.89,4.06-5.39,6.64-7.42,3.62-2.92,7.89-4.88,12.66-5.8,2.3-.45,4.62-.67,6.91-.67s4.57.22,6.82.67c4.54.89,8.78,2.67,12.6,5.26,3.98,2.72,7.05,6.27,9.13,10.55,1.93,4.17,2.82,8.91,2.67,14.16-.15,5.05-1.5,10.89-4.02,17.37-.77,1.97-2.66,3.19-4.66,3.19-.56,0-1.12-.09-1.68-.29l-4.04-1.44c.91,1.11,1.73,2.27,2.47,3.48,1.8,2.97,2.94,6.26,3.39,9.78.46,3.62-.08,7.58-1.6,11.78-1.57,4.37-4.03,8.06-7.32,10.97-3.13,2.76-6.67,4.87-10.54,6.26-3.82,1.38-7.85,2.08-11.99,2.09h-.06ZM965.83,424.38c.65.24,1.2.36,1.68.36.25,0,.47-.03.7-.09.08-.02.14-.04.2-.06-.03-.1-.08-.22-.13-.35-.12-.27-.61-1.17-2.42-2.61-.08.45-.14.88-.17,1.29-.01.51.04.99.15,1.47ZM973.87,386.63c-.13,0-.21.02-.33.09-.67.38-1.11.89-1.43,1.65-.39.91-.49,1.94-.3,3.16.09.62.36,1.57,1.63,2.71.12.11.24.22.37.32.48-.89.94-1.83,1.36-2.81.48-1.09.75-2.11.82-3.03.05-.73-.12-1.17-.26-1.43,0,0,0,0,0,0-.01,0-.23-.19-.84-.42-.58-.22-.88-.25-1.01-.25Z"/>
          <path class="cls-3" d="M1051.71,471.9c-.33,0-.66-.03-.99-.1l-18.55-3.72c-2.71-.54-4.46-3.18-3.92-5.89l6.2-30.9-5.73-1.15-6.46,32.2c-.26,1.3-1.03,2.44-2.13,3.18-.83.55-1.79.84-2.77.84-.33,0-.66-.03-.98-.1l-18.33-3.68c-2.65-.53-4.4-3.07-3.95-5.73l13.64-80.85c.23-1.33.98-2.52,2.1-3.29.84-.58,1.83-.88,2.83-.88.33,0,.66.03.98.1l22.54,4.52c1.33.27,2.49,1.06,3.23,2.2.73,1.14.97,2.53.66,3.85l-6.22,26.31,5.78,1.12,5.65-28.13c.48-2.38,2.56-4.02,4.9-4.02.33,0,.66.03.99.1l21.79,4.37c1.34.27,2.52,1.08,3.25,2.24.73,1.16.95,2.57.61,3.9l-20.26,79.74c-.57,2.25-2.6,3.77-4.84,3.77Z"/>
          <path class="cls-3" d="M1088.67,475.49c-.18,0-.36,0-.54-.03l-17.06-1.84c-2.66-.29-4.62-2.61-4.46-5.28l4.91-79.46c.08-1.36.72-2.63,1.77-3.51.91-.76,2.05-1.18,3.22-1.18.18,0,.36,0,.54.03l24.5,2.64c1.36.15,2.6.84,3.43,1.93s1.18,2.47.97,3.82l-12.34,78.66c-.38,2.46-2.5,4.23-4.93,4.23Z"/>
          <path class="cls-3" d="M1106.91,477.87c-1.32,0-2.58-.52-3.52-1.45-.96-.95-1.49-2.26-1.48-3.61l1.02-81.22c.03-2.55,1.98-4.67,4.52-4.92l16.03-1.53c.16-.02.32-.02.48-.02,1.95,0,3.74,1.14,4.56,2.94l10.4,23.04-.97-17.68c-.07-1.34.39-2.65,1.29-3.63.9-.99,2.16-1.58,3.5-1.63l20.67-.85c.07,0,.14,0,.21,0,1.3,0,2.55.51,3.49,1.42.99.96,1.53,2.28,1.51,3.66l-1.17,79.13c-.04,2.69-2.21,4.87-4.9,4.93,0,0-17.77.35-17.81.35-1.89,0-3.63-1.07-4.48-2.77l-5.66-11.38,1.34,9.02c.21,1.42-.2,2.86-1.13,3.96-.93,1.1-2.28,1.74-3.72,1.77,0,0-24.15.48-24.18.48Z"/>
          <path class="cls-3" d="M1184.43,475.04c-2.28,0-4.34-1.57-4.87-3.88l-18.56-80.95c-.62-2.69,1.06-5.37,3.75-5.99l47.82-10.97c.37-.08.75-.13,1.12-.13,1,0,1.98.3,2.82.87,1.15.79,1.92,2.02,2.13,3.4l3.61,24.33c.21,1.44-.21,2.91-1.17,4.01-.89,1.03-2.16,1.64-3.51,1.71l3.42,15.37c.3,1.37.02,2.8-.78,3.94-.8,1.15-2.05,1.91-3.43,2.1l-17.8,2.4,2.28,10.26,20.95-8.59c.61-.25,1.25-.37,1.9-.37.83,0,1.65.21,2.4.61,1.32.72,2.25,2,2.52,3.49l4.23,23.06c.49,2.66-1.23,5.22-3.87,5.79l-43.88,9.42c-.35.08-.71.11-1.05.11Z"/>
          <path class="cls-3" d="M1260.15,452.74c-1.1,0-2.22-.05-3.34-.15-4.22-.37-8.55-1.73-12.85-4.04-2.26-1.21-3.24-3.95-2.25-6.32l7.72-18.61c.54-1.3,1.61-2.32,2.94-2.79.54-.19,1.11-.29,1.68-.29.82,0,1.63.2,2.37.6,1.79.96,3.35,1.45,4.65,1.45.15,0,.29,0,.44-.02,1.28-.12,2.24-.46,2.85-1.01.37-.33.77-.82.89-1.88.1-.86-.23-1.9-.99-3.08-.06-.09-.23-.33-.36-.36-.36-.08-.76-.12-1.17-.12-.44,0-.91.05-1.4.13-1.22.22-2.46.62-3.68,1.17-1.45.65-2.79,1.34-3.99,2.03-1.2.69-2.56,1.59-4.06,2.66l-8.29,6.15c-.87.65-1.92.98-2.98.98-.39,0-.79-.05-1.18-.14-1.44-.35-2.66-1.33-3.31-2.66l-19.88-40.67c-.61-1.26-.67-2.72-.16-4.02.51-1.3,1.54-2.33,2.85-2.84l48.03-18.6c.58-.23,1.2-.34,1.81-.34.87,0,1.73.23,2.5.67,1.31.76,2.21,2.07,2.44,3.57l3.15,20.54c.39,2.54-1.2,4.95-3.69,5.6l-2.18.57c2.54.12,5.06.59,7.51,1.41,4.36,1.45,8.19,4.6,11.4,9.35.03.05.06.1.09.14,2.62,4.18,4.25,8.57,4.84,13.05.58,4.39.31,8.82-.79,13.17-.71,2.76-1.78,5.42-3.18,7.92-1.4,2.5-3.08,4.8-5.01,6.83-1.93,2.04-4.17,3.85-6.65,5.38-2.53,1.55-5.28,2.73-8.18,3.49-2.78.71-5.65,1.06-8.57,1.06Z"/>
          <path class="cls-3" d="M1324.48,418.78c-4.22,0-8.49-.95-12.69-2.81-5.18-2.3-10.03-5.56-14.43-9.69-4.33-4.06-8.14-8.85-11.32-14.21-3.22-5.43-5.47-11.08-6.67-16.79-1.25-5.91-1.18-11.76.19-17.39,1.45-5.93,4.74-11.1,9.76-15.39,2.23-1.89,4.67-3.57,7.26-5,2.58-1.43,5.2-2.58,7.79-3.42,2.82-.9,5.64-1.35,8.42-1.35,2.63,0,5.27.4,7.84,1.2,4.94,1.52,9.61,4.05,13.88,7.52,4.16,3.37,7.91,7.51,11.15,12.3,3.2,4.73,5.77,9.73,7.65,14.88,1.91,5.22,3.04,10.47,3.38,15.62.36,5.48-.42,10.48-2.32,14.88-1.09,2.61-2.58,5.09-4.39,7.32-1.77,2.17-3.81,4.12-6.05,5.78-2.24,1.66-4.7,3.05-7.29,4.12-2.64,1.09-5.42,1.83-8.26,2.18-1.24.17-2.58.27-3.9.27ZM1310.94,362.47c-.28,0-.67.04-1.22.39-.61.38-1.05.88-1.22,2.05-.25,1.75-.07,3.72.55,5.84.7,2.4,1.79,4.86,3.26,7.31,1.43,2.39,3.06,4.42,4.86,6.04,1.64,1.48,3.33,2.5,5.02,3.04.37.12.72.18,1.03.18s.82-.05,1.54-.5c.67-.42,1.14-.94,1.31-2.11.25-1.73.05-3.67-.58-5.75-.71-2.34-1.84-4.73-3.37-7.11-1.54-2.39-3.25-4.44-5.09-6.09-1.66-1.49-3.35-2.52-5.03-3.08-.39-.13-.74-.19-1.05-.19Z"/>
        </g>
        <g>
          <path class="cls-3" d="M436.5,408.95c-1.82,0-3.57-1-4.45-2.72l-35.82-69.94c-.62-1.2-.72-2.61-.28-3.89.44-1.28,1.37-2.33,2.59-2.91l19.18-9.09c.69-.33,1.42-.48,2.14-.48,1.54,0,3.05.71,4.01,2.02l14.44,19.42-3.02-26.76c-.24-2.12.9-4.16,2.83-5.08l18.79-8.9c.68-.32,1.41-.48,2.14-.48.59,0,1.19.11,1.76.32,1.27.48,2.29,1.45,2.83,2.69l33.08,76.23c1.1,2.53-.06,5.47-2.58,6.57l-19.77,8.64c-.64.28-1.32.42-2,.42s-1.33-.13-1.96-.4c-1.27-.54-2.25-1.57-2.73-2.86l-4.7-12.69c-.49.7-1.15,1.27-1.95,1.65l-7.55,3.58c-.26.12-.52.22-.79.29l4.69,9.37c.6,1.2.69,2.6.26,3.87-.44,1.27-1.37,2.31-2.59,2.89l-16.4,7.77c-.69.33-1.42.48-2.14.48Z"/>
          <path class="cls-3" d="M501.88,384.01c-2.22,0-4.24-1.48-4.83-3.72l-21.3-80.27c-.71-2.67.88-5.41,3.55-6.11l47.42-12.58c.42-.11.85-.17,1.28-.17.94,0,1.87.26,2.68.78,1.18.75,1.99,1.95,2.24,3.32l4.43,24.19c.26,1.44-.12,2.92-1.04,4.05-.86,1.06-2.11,1.72-3.45,1.83l3.94,15.25c.35,1.35.12,2.79-.65,3.97-.76,1.17-1.98,1.98-3.36,2.21l-17.71,3,2.63,10.18,20.65-9.29c.65-.29,1.35-.44,2.05-.44.77,0,1.54.18,2.25.53,1.35.68,2.31,1.93,2.64,3.4l5.01,22.91c.58,2.64-1.05,5.26-3.67,5.92l-43.54,10.9c-.41.1-.82.15-1.22.15Z"/>
          <path class="cls-3" d="M555.8,370.84c-2.52,0-4.69-1.9-4.97-4.46l-8.92-82.57c-.3-2.75,1.69-5.21,4.43-5.51l48.78-5.27c.18-.02.36-.03.54-.03,1.2,0,2.37.43,3.29,1.23,1.05.92,1.67,2.23,1.71,3.62l.72,24.58c.04,1.46-.55,2.87-1.64,3.85-.93.84-2.13,1.3-3.36,1.3-.11,0-.22,0-.33-.01l1.59,15.67c.14,1.39-.31,2.78-1.24,3.83-.93,1.05-2.26,1.65-3.66,1.68l-17.96.29,1.06,10.46,21.81-6.06c.44-.12.89-.18,1.34-.18,1.03,0,2.04.32,2.9.93,1.23.87,2,2.25,2.09,3.76l1.49,23.4c.17,2.7-1.83,5.04-4.52,5.29l-44.69,4.19c-.16.02-.32.02-.47.02Z"/>
          <path class="cls-3" d="M624.93,368.32c-1.34-.04-2.61-.62-3.51-1.6s-1.39-2.29-1.32-3.63l2.88-60.38-9.66,1.29c-.22.03-.44.04-.66.04-1.24,0-2.44-.46-3.36-1.3-1.09-.99-1.69-2.41-1.64-3.88l.79-21.77c.05-1.34.63-2.61,1.63-3.51.92-.84,2.13-1.31,3.37-1.31.09,0,.18,0,.28,0l50.97,2.83c2.72.15,4.82,2.45,4.72,5.17l-.71,19.79c-.05,1.43-.71,2.77-1.82,3.68-.9.74-2.03,1.14-3.18,1.14-.26,0-.52-.02-.79-.06l-9.27-1.47,1.62,60.64c.04,1.38-.5,2.71-1.47,3.68-.94.93-2.21,1.46-3.53,1.46-.05,0-25.34-.8-25.34-.8Z"/>
          <path class="cls-3" d="M749.61,385.96c-.38,0-.76-.04-1.13-.13l-24.53-5.72c-1.3-.3-2.43-1.12-3.13-2.26-.7-1.14-.91-2.52-.58-3.82l14.66-58.65-9.72-.63c-1.47-.1-2.82-.83-3.7-2.02s-1.18-2.69-.84-4.13l5.04-21.19c.31-1.31,1.13-2.43,2.28-3.13.79-.47,1.68-.72,2.58-.72.42,0,.84.05,1.25.16l49.43,12.77c2.64.68,4.24,3.35,3.61,6l-4.58,19.26c-.33,1.39-1.24,2.58-2.51,3.25-.73.39-1.54.59-2.36.59-.59,0-1.18-.1-1.74-.31l-8.8-3.26-10.3,59.78c-.23,1.36-1.02,2.56-2.16,3.32-.83.55-1.79.83-2.76.83Z"/>
          <path class="cls-3" d="M821.28,405.73c-.51,0-1.03-.08-1.54-.24l-18-5.82c-2.63-.85-4.07-3.67-3.22-6.3l9.69-29.99-5.56-1.8-10.1,31.25c-.41,1.26-1.3,2.31-2.48,2.91-.71.36-1.49.55-2.28.55-.52,0-1.04-.08-1.54-.24l-17.79-5.75c-2.57-.83-4.02-3.55-3.26-6.15l22.8-78.76c.38-1.3,1.26-2.39,2.46-3.03.73-.39,1.54-.58,2.34-.58.52,0,1.04.08,1.54.24l21.88,7.07c1.29.42,2.36,1.34,2.95,2.56.6,1.22.67,2.62.21,3.9l-9.19,25.43,5.61,1.77,8.83-27.3c.68-2.12,2.65-3.46,4.76-3.46.51,0,1.03.08,1.54.24l21.14,6.83c1.3.42,2.38,1.36,2.97,2.59s.65,2.66.17,3.94l-29.25,76.9c-.76,1.99-2.65,3.22-4.67,3.22Z"/>
          <path class="cls-3" d="M876.75,424.52c-.52,0-1.04-.08-1.56-.25l-42.64-14.02c-2.6-.85-4.03-3.64-3.21-6.25l24.84-79.25c.67-2.14,2.64-3.51,4.77-3.51.5,0,1,.07,1.5.23l46.82,14.67c1.33.42,2.43,1.37,3.02,2.63.6,1.26.64,2.71.12,4.01l-9.17,22.82c-.54,1.36-1.65,2.4-3.04,2.87-.52.18-1.06.26-1.6.26-.79,0-1.58-.19-2.3-.56l-4.81,15c-.43,1.33-1.39,2.43-2.67,3.01-.66.31-1.38.46-2.1.46-.65,0-1.31-.13-1.92-.39l-16.58-6.91-3.21,10.01,22.42,3.16c1.49.21,2.81,1.08,3.59,2.37.78,1.29.93,2.86.42,4.28l-7.99,22.04c-.74,2.03-2.65,3.3-4.7,3.3Z"/>
          <path class="cls-3" d="M963.55,449.95c-4.14,0-8.08-.69-11.72-2.04-4.11-1.48-7.57-3.39-10.24-5.68-2.63-2.25-4.73-4.72-6.25-7.32-1.53-2.62-2.56-5.37-3.08-8.17-.49-2.64-.64-5.23-.47-7.7.17-2.44.58-4.68,1.22-6.66.61-1.89,1.2-3.38,1.82-4.58.87-1.68,2.6-2.7,4.44-2.7.37,0,.75.04,1.12.13l8,1.84c-1.04-1.06-1.99-2.17-2.83-3.32-2.18-2.96-3.61-6.43-4.25-10.3-.63-3.78-.37-8.15.8-13.34.86-3.78,2.22-7.16,4.07-10.06,1.83-2.89,4.06-5.39,6.64-7.42,3.62-2.92,7.89-4.88,12.66-5.8,2.3-.45,4.62-.67,6.91-.67s4.57.22,6.82.67c4.54.89,8.78,2.67,12.6,5.26,3.98,2.72,7.05,6.27,9.13,10.55,1.93,4.17,2.82,8.91,2.67,14.16-.15,5.05-1.5,10.89-4.02,17.37-.77,1.97-2.66,3.19-4.66,3.19-.56,0-1.12-.09-1.68-.29l-4.04-1.44c.91,1.11,1.73,2.27,2.47,3.48,1.8,2.97,2.94,6.26,3.39,9.78.46,3.62-.08,7.58-1.6,11.78-1.57,4.37-4.03,8.06-7.32,10.97-3.13,2.76-6.67,4.87-10.54,6.26-3.82,1.38-7.85,2.08-11.99,2.09h-.06ZM963.83,421.38c.65.24,1.2.36,1.68.36.25,0,.47-.03.7-.09.08-.02.14-.04.2-.06-.03-.1-.08-.22-.13-.35-.12-.27-.61-1.17-2.42-2.61-.08.45-.14.88-.17,1.29-.01.51.04.99.15,1.47ZM971.87,383.63c-.13,0-.21.02-.33.09-.67.38-1.11.89-1.43,1.65-.39.91-.49,1.94-.3,3.16.09.62.36,1.57,1.63,2.71.12.11.24.22.37.32.48-.89.94-1.83,1.36-2.81.48-1.09.75-2.11.82-3.03.05-.73-.12-1.17-.26-1.43,0,0,0,0,0,0-.01,0-.23-.19-.84-.42-.58-.22-.88-.25-1.01-.25Z"/>
          <path class="cls-3" d="M1049.71,468.9c-.33,0-.66-.03-.99-.1l-18.55-3.72c-2.71-.54-4.46-3.18-3.92-5.89l6.2-30.9-5.73-1.15-6.46,32.2c-.26,1.3-1.03,2.44-2.13,3.18-.83.55-1.79.84-2.77.84-.33,0-.66-.03-.98-.1l-18.33-3.68c-2.65-.53-4.4-3.07-3.95-5.73l13.64-80.85c.23-1.33.98-2.52,2.1-3.29.84-.58,1.83-.88,2.83-.88.33,0,.66.03.98.1l22.54,4.52c1.33.27,2.49,1.06,3.23,2.2.73,1.14.97,2.53.66,3.85l-6.22,26.31,5.78,1.12,5.65-28.13c.48-2.38,2.56-4.02,4.9-4.02.33,0,.66.03.99.1l21.79,4.37c1.34.27,2.52,1.08,3.25,2.24.73,1.16.95,2.57.61,3.9l-20.26,79.74c-.57,2.25-2.6,3.77-4.84,3.77Z"/>
          <path class="cls-3" d="M1086.67,472.49c-.18,0-.36,0-.54-.03l-17.06-1.84c-2.66-.29-4.62-2.61-4.46-5.28l4.91-79.46c.08-1.36.72-2.63,1.77-3.51.91-.76,2.05-1.18,3.22-1.18.18,0,.36,0,.54.03l24.5,2.64c1.36.15,2.6.84,3.43,1.93s1.18,2.47.97,3.82l-12.34,78.66c-.38,2.46-2.5,4.23-4.93,4.23Z"/>
          <path class="cls-3" d="M1104.91,474.87c-1.32,0-2.58-.52-3.52-1.45-.96-.95-1.49-2.26-1.48-3.61l1.02-81.22c.03-2.55,1.98-4.67,4.52-4.92l16.03-1.53c.16-.02.32-.02.48-.02,1.95,0,3.74,1.14,4.56,2.94l10.4,23.04-.97-17.68c-.07-1.34.39-2.65,1.29-3.63.9-.99,2.16-1.58,3.5-1.63l20.67-.85c.07,0,.14,0,.21,0,1.3,0,2.55.51,3.49,1.42.99.96,1.53,2.28,1.51,3.66l-1.17,79.13c-.04,2.69-2.21,4.87-4.9,4.93,0,0-17.77.35-17.81.35-1.89,0-3.63-1.07-4.48-2.77l-5.66-11.38,1.34,9.02c.21,1.42-.2,2.86-1.13,3.96-.93,1.1-2.28,1.74-3.72,1.77,0,0-24.15.48-24.18.48Z"/>
          <path class="cls-3" d="M1182.43,472.04c-2.28,0-4.34-1.57-4.87-3.88l-18.56-80.95c-.62-2.69,1.06-5.37,3.75-5.99l47.82-10.97c.37-.08.75-.13,1.12-.13,1,0,1.98.3,2.82.87,1.15.79,1.92,2.02,2.13,3.4l3.61,24.33c.21,1.44-.21,2.91-1.17,4.01-.89,1.03-2.16,1.64-3.51,1.71l3.42,15.37c.3,1.37.02,2.8-.78,3.94-.8,1.15-2.05,1.91-3.43,2.1l-17.8,2.4,2.28,10.26,20.95-8.59c.61-.25,1.25-.37,1.9-.37.83,0,1.65.21,2.4.61,1.32.72,2.25,2,2.52,3.49l4.23,23.06c.49,2.66-1.23,5.22-3.87,5.79l-43.88,9.42c-.35.08-.71.11-1.05.11Z"/>
          <path class="cls-3" d="M1258.15,449.74c-1.1,0-2.22-.05-3.34-.15-4.22-.37-8.55-1.73-12.85-4.04-2.26-1.21-3.24-3.95-2.25-6.32l7.72-18.61c.54-1.3,1.61-2.32,2.94-2.79.54-.19,1.11-.29,1.68-.29.82,0,1.63.2,2.37.6,1.79.96,3.35,1.45,4.65,1.45.15,0,.29,0,.44-.02,1.28-.12,2.24-.46,2.85-1.01.37-.33.77-.82.89-1.88.1-.86-.23-1.9-.99-3.08-.06-.09-.23-.33-.36-.36-.36-.08-.76-.12-1.17-.12-.44,0-.91.05-1.4.13-1.22.22-2.46.62-3.68,1.17-1.45.65-2.79,1.34-3.99,2.03-1.2.69-2.56,1.59-4.06,2.66l-8.29,6.15c-.87.65-1.92.98-2.98.98-.39,0-.79-.05-1.18-.14-1.44-.35-2.66-1.33-3.31-2.66l-19.88-40.67c-.61-1.26-.67-2.72-.16-4.02.51-1.3,1.54-2.33,2.85-2.84l48.03-18.6c.58-.23,1.2-.34,1.81-.34.87,0,1.73.23,2.5.67,1.31.76,2.21,2.07,2.44,3.57l3.15,20.54c.39,2.54-1.2,4.95-3.69,5.6l-2.18.57c2.54.12,5.06.59,7.51,1.41,4.36,1.45,8.19,4.6,11.4,9.35.03.05.06.1.09.14,2.62,4.18,4.25,8.57,4.84,13.05.58,4.39.31,8.82-.79,13.17-.71,2.76-1.78,5.42-3.18,7.92-1.4,2.5-3.08,4.8-5.01,6.83-1.93,2.04-4.17,3.85-6.65,5.38-2.53,1.55-5.28,2.73-8.18,3.49-2.78.71-5.65,1.06-8.57,1.06Z"/>
          <path class="cls-3" d="M1322.48,415.78c-4.22,0-8.49-.95-12.69-2.81-5.18-2.3-10.03-5.56-14.43-9.69-4.33-4.06-8.14-8.85-11.32-14.21-3.22-5.43-5.47-11.08-6.67-16.79-1.25-5.91-1.18-11.76.19-17.39,1.45-5.93,4.74-11.1,9.76-15.39,2.23-1.89,4.67-3.57,7.26-5,2.58-1.43,5.2-2.58,7.79-3.42,2.82-.9,5.64-1.35,8.42-1.35,2.63,0,5.27.4,7.84,1.2,4.94,1.52,9.61,4.05,13.88,7.52,4.16,3.37,7.91,7.51,11.15,12.3,3.2,4.73,5.77,9.73,7.65,14.88,1.91,5.22,3.04,10.47,3.38,15.62.36,5.48-.42,10.48-2.32,14.88-1.09,2.61-2.58,5.09-4.39,7.32-1.77,2.17-3.81,4.12-6.05,5.78-2.24,1.66-4.7,3.05-7.29,4.12-2.64,1.09-5.42,1.83-8.26,2.18-1.24.17-2.58.27-3.9.27ZM1308.94,359.47c-.28,0-.67.04-1.22.39-.61.38-1.05.88-1.22,2.05-.25,1.75-.07,3.72.55,5.84.7,2.4,1.79,4.86,3.26,7.31,1.43,2.39,3.06,4.42,4.86,6.04,1.64,1.48,3.33,2.5,5.02,3.04.37.12.72.18,1.03.18s.82-.05,1.54-.5c.67-.42,1.14-.94,1.31-2.11.25-1.73.05-3.67-.58-5.75-.71-2.34-1.84-4.73-3.37-7.11-1.54-2.39-3.25-4.44-5.09-6.09-1.66-1.49-3.35-2.52-5.03-3.08-.39-.13-.74-.19-1.05-.19Z"/>
        </g>
        <g>
          <path class="cls-3" d="M434.5,405.95c-1.82,0-3.57-1-4.45-2.72l-35.82-69.94c-.62-1.2-.72-2.61-.28-3.89.44-1.28,1.37-2.33,2.59-2.91l19.18-9.09c.69-.33,1.42-.48,2.14-.48,1.54,0,3.05.71,4.01,2.02l14.44,19.42-3.02-26.76c-.24-2.12.9-4.16,2.83-5.08l18.79-8.9c.68-.32,1.41-.48,2.14-.48.59,0,1.19.11,1.76.32,1.27.48,2.29,1.45,2.83,2.69l33.08,76.23c1.1,2.53-.06,5.47-2.58,6.57l-19.77,8.64c-.64.28-1.32.42-2,.42s-1.33-.13-1.96-.4c-1.27-.54-2.25-1.57-2.73-2.86l-4.7-12.69c-.49.7-1.15,1.27-1.95,1.65l-7.55,3.58c-.26.12-.52.22-.79.29l4.69,9.37c.6,1.2.69,2.6.26,3.87-.44,1.27-1.37,2.31-2.59,2.89l-16.4,7.77c-.69.33-1.42.48-2.14.48Z"/>
          <path class="cls-3" d="M499.88,381.01c-2.22,0-4.24-1.48-4.83-3.72l-21.3-80.27c-.71-2.67.88-5.41,3.55-6.11l47.42-12.58c.42-.11.85-.17,1.28-.17.94,0,1.87.26,2.68.78,1.18.75,1.99,1.95,2.24,3.32l4.43,24.19c.26,1.44-.12,2.92-1.04,4.05-.86,1.06-2.11,1.72-3.45,1.83l3.94,15.25c.35,1.35.12,2.79-.65,3.97-.76,1.17-1.98,1.98-3.36,2.21l-17.71,3,2.63,10.18,20.65-9.29c.65-.29,1.35-.44,2.05-.44.77,0,1.54.18,2.25.53,1.35.68,2.31,1.93,2.64,3.4l5.01,22.91c.58,2.64-1.05,5.26-3.67,5.92l-43.54,10.9c-.41.1-.82.15-1.22.15Z"/>
          <path class="cls-3" d="M553.8,367.84c-2.52,0-4.69-1.9-4.97-4.46l-8.92-82.57c-.3-2.75,1.69-5.21,4.43-5.51l48.78-5.27c.18-.02.36-.03.54-.03,1.2,0,2.37.43,3.29,1.23,1.05.92,1.67,2.23,1.71,3.62l.72,24.58c.04,1.46-.55,2.87-1.64,3.85-.93.84-2.13,1.3-3.36,1.3-.11,0-.22,0-.33-.01l1.59,15.67c.14,1.39-.31,2.78-1.24,3.83-.93,1.05-2.26,1.65-3.66,1.68l-17.96.29,1.06,10.46,21.81-6.06c.44-.12.89-.18,1.34-.18,1.03,0,2.04.32,2.9.93,1.23.87,2,2.25,2.09,3.76l1.49,23.4c.17,2.7-1.83,5.04-4.52,5.29l-44.69,4.19c-.16.02-.32.02-.47.02Z"/>
          <path class="cls-3" d="M622.93,365.32c-1.34-.04-2.61-.62-3.51-1.6s-1.39-2.29-1.32-3.63l2.88-60.38-9.66,1.29c-.22.03-.44.04-.66.04-1.24,0-2.44-.46-3.36-1.3-1.09-.99-1.69-2.41-1.64-3.88l.79-21.77c.05-1.34.63-2.61,1.63-3.51.92-.84,2.13-1.31,3.37-1.31.09,0,.18,0,.28,0l50.97,2.83c2.72.15,4.82,2.45,4.72,5.17l-.71,19.79c-.05,1.43-.71,2.77-1.82,3.68-.9.74-2.03,1.14-3.18,1.14-.26,0-.52-.02-.79-.06l-9.27-1.47,1.62,60.64c.04,1.38-.5,2.71-1.47,3.68-.94.93-2.21,1.46-3.53,1.46-.05,0-25.34-.8-25.34-.8Z"/>
          <path class="cls-3" d="M747.61,382.96c-.38,0-.76-.04-1.13-.13l-24.53-5.72c-1.3-.3-2.43-1.12-3.13-2.26-.7-1.14-.91-2.52-.58-3.82l14.66-58.65-9.72-.63c-1.47-.1-2.82-.83-3.7-2.02s-1.18-2.69-.84-4.13l5.04-21.19c.31-1.31,1.13-2.43,2.28-3.13.79-.47,1.68-.72,2.58-.72.42,0,.84.05,1.25.16l49.43,12.77c2.64.68,4.24,3.35,3.61,6l-4.58,19.26c-.33,1.39-1.24,2.58-2.51,3.25-.73.39-1.54.59-2.36.59-.59,0-1.18-.1-1.74-.31l-8.8-3.26-10.3,59.78c-.23,1.36-1.02,2.56-2.16,3.32-.83.55-1.79.83-2.76.83Z"/>
          <path class="cls-3" d="M819.28,402.73c-.51,0-1.03-.08-1.54-.24l-18-5.82c-2.63-.85-4.07-3.67-3.22-6.3l9.69-29.99-5.56-1.8-10.1,31.25c-.41,1.26-1.3,2.31-2.48,2.91-.71.36-1.49.55-2.28.55-.52,0-1.04-.08-1.54-.24l-17.79-5.75c-2.57-.83-4.02-3.55-3.26-6.15l22.8-78.76c.38-1.3,1.26-2.39,2.46-3.03.73-.39,1.54-.58,2.34-.58.52,0,1.04.08,1.54.24l21.88,7.07c1.29.42,2.36,1.34,2.95,2.56.6,1.22.67,2.62.21,3.9l-9.19,25.43,5.61,1.77,8.83-27.3c.68-2.12,2.65-3.46,4.76-3.46.51,0,1.03.08,1.54.24l21.14,6.83c1.3.42,2.38,1.36,2.97,2.59s.65,2.66.17,3.94l-29.25,76.9c-.76,1.99-2.65,3.22-4.67,3.22Z"/>
          <path class="cls-3" d="M874.75,421.52c-.52,0-1.04-.08-1.56-.25l-42.64-14.02c-2.6-.85-4.03-3.64-3.21-6.25l24.84-79.25c.67-2.14,2.64-3.51,4.77-3.51.5,0,1,.07,1.5.23l46.82,14.67c1.33.42,2.43,1.37,3.02,2.63.6,1.26.64,2.71.12,4.01l-9.17,22.82c-.54,1.36-1.65,2.4-3.04,2.87-.52.18-1.06.26-1.6.26-.79,0-1.58-.19-2.3-.56l-4.81,15c-.43,1.33-1.39,2.43-2.67,3.01-.66.31-1.38.46-2.1.46-.65,0-1.31-.13-1.92-.39l-16.58-6.91-3.21,10.01,22.42,3.16c1.49.21,2.81,1.08,3.59,2.37.78,1.29.93,2.86.42,4.28l-7.99,22.04c-.74,2.03-2.65,3.3-4.7,3.3Z"/>
          <path class="cls-3" d="M961.55,446.95c-4.14,0-8.08-.69-11.72-2.04-4.11-1.48-7.57-3.39-10.24-5.68-2.63-2.25-4.73-4.72-6.25-7.32-1.53-2.62-2.56-5.37-3.08-8.17-.49-2.64-.64-5.23-.47-7.7.17-2.44.58-4.68,1.22-6.66.61-1.89,1.2-3.38,1.82-4.58.87-1.68,2.6-2.7,4.44-2.7.37,0,.75.04,1.12.13l8,1.84c-1.04-1.06-1.99-2.17-2.83-3.32-2.18-2.96-3.61-6.43-4.25-10.3-.63-3.78-.37-8.15.8-13.34.86-3.78,2.22-7.16,4.07-10.06,1.83-2.89,4.06-5.39,6.64-7.42,3.62-2.92,7.89-4.88,12.66-5.8,2.3-.45,4.62-.67,6.91-.67s4.57.22,6.82.67c4.54.89,8.78,2.67,12.6,5.26,3.98,2.72,7.05,6.27,9.13,10.55,1.93,4.17,2.82,8.91,2.67,14.16-.15,5.05-1.5,10.89-4.02,17.37-.77,1.97-2.66,3.19-4.66,3.19-.56,0-1.12-.09-1.68-.29l-4.04-1.44c.91,1.11,1.73,2.27,2.47,3.48,1.8,2.97,2.94,6.26,3.39,9.78.46,3.62-.08,7.58-1.6,11.78-1.57,4.37-4.03,8.06-7.32,10.97-3.13,2.76-6.67,4.87-10.54,6.26-3.82,1.38-7.85,2.08-11.99,2.09h-.06ZM961.83,418.38c.65.24,1.2.36,1.68.36.25,0,.47-.03.7-.09.08-.02.14-.04.2-.06-.03-.1-.08-.22-.13-.35-.12-.27-.61-1.17-2.42-2.61-.08.45-.14.88-.17,1.29-.01.51.04.99.15,1.47ZM969.87,380.63c-.13,0-.21.02-.33.09-.67.38-1.11.89-1.43,1.65-.39.91-.49,1.94-.3,3.16.09.62.36,1.57,1.63,2.71.12.11.24.22.37.32.48-.89.94-1.83,1.36-2.81.48-1.09.75-2.11.82-3.03.05-.73-.12-1.17-.26-1.43,0,0,0,0,0,0-.01,0-.23-.19-.84-.42-.58-.22-.88-.25-1.01-.25Z"/>
          <path class="cls-3" d="M1047.71,465.9c-.33,0-.66-.03-.99-.1l-18.55-3.72c-2.71-.54-4.46-3.18-3.92-5.89l6.2-30.9-5.73-1.15-6.46,32.2c-.26,1.3-1.03,2.44-2.13,3.18-.83.55-1.79.84-2.77.84-.33,0-.66-.03-.98-.1l-18.33-3.68c-2.65-.53-4.4-3.07-3.95-5.73l13.64-80.85c.23-1.33.98-2.52,2.1-3.29.84-.58,1.83-.88,2.83-.88.33,0,.66.03.98.1l22.54,4.52c1.33.27,2.49,1.06,3.23,2.2.73,1.14.97,2.53.66,3.85l-6.22,26.31,5.78,1.12,5.65-28.13c.48-2.38,2.56-4.02,4.9-4.02.33,0,.66.03.99.1l21.79,4.37c1.34.27,2.52,1.08,3.25,2.24.73,1.16.95,2.57.61,3.9l-20.26,79.74c-.57,2.25-2.6,3.77-4.84,3.77Z"/>
          <path class="cls-3" d="M1084.67,469.49c-.18,0-.36,0-.54-.03l-17.06-1.84c-2.66-.29-4.62-2.61-4.46-5.28l4.91-79.46c.08-1.36.72-2.63,1.77-3.51.91-.76,2.05-1.18,3.22-1.18.18,0,.36,0,.54.03l24.5,2.64c1.36.15,2.6.84,3.43,1.93s1.18,2.47.97,3.82l-12.34,78.66c-.38,2.46-2.5,4.23-4.93,4.23Z"/>
          <path class="cls-3" d="M1102.91,471.87c-1.32,0-2.58-.52-3.52-1.45-.96-.95-1.49-2.26-1.48-3.61l1.02-81.22c.03-2.55,1.98-4.67,4.52-4.92l16.03-1.53c.16-.02.32-.02.48-.02,1.95,0,3.74,1.14,4.56,2.94l10.4,23.04-.97-17.68c-.07-1.34.39-2.65,1.29-3.63.9-.99,2.16-1.58,3.5-1.63l20.67-.85c.07,0,.14,0,.21,0,1.3,0,2.55.51,3.49,1.42.99.96,1.53,2.28,1.51,3.66l-1.17,79.13c-.04,2.69-2.21,4.87-4.9,4.93,0,0-17.77.35-17.81.35-1.89,0-3.63-1.07-4.48-2.77l-5.66-11.38,1.34,9.02c.21,1.42-.2,2.86-1.13,3.96-.93,1.1-2.28,1.74-3.72,1.77,0,0-24.15.48-24.18.48Z"/>
          <path class="cls-3" d="M1180.43,469.04c-2.28,0-4.34-1.57-4.87-3.88l-18.56-80.95c-.62-2.69,1.06-5.37,3.75-5.99l47.82-10.97c.37-.08.75-.13,1.12-.13,1,0,1.98.3,2.82.87,1.15.79,1.92,2.02,2.13,3.4l3.61,24.33c.21,1.44-.21,2.91-1.17,4.01-.89,1.03-2.16,1.64-3.51,1.71l3.42,15.37c.3,1.37.02,2.8-.78,3.94-.8,1.15-2.05,1.91-3.43,2.1l-17.8,2.4,2.28,10.26,20.95-8.59c.61-.25,1.25-.37,1.9-.37.83,0,1.65.21,2.4.61,1.32.72,2.25,2,2.52,3.49l4.23,23.06c.49,2.66-1.23,5.22-3.87,5.79l-43.88,9.42c-.35.08-.71.11-1.05.11Z"/>
          <path class="cls-3" d="M1256.15,446.74c-1.1,0-2.22-.05-3.34-.15-4.22-.37-8.55-1.73-12.85-4.04-2.26-1.21-3.24-3.95-2.25-6.32l7.72-18.61c.54-1.3,1.61-2.32,2.94-2.79.54-.19,1.11-.29,1.68-.29.82,0,1.63.2,2.37.6,1.79.96,3.35,1.45,4.65,1.45.15,0,.29,0,.44-.02,1.28-.12,2.24-.46,2.85-1.01.37-.33.77-.82.89-1.88.1-.86-.23-1.9-.99-3.08-.06-.09-.23-.33-.36-.36-.36-.08-.76-.12-1.17-.12-.44,0-.91.05-1.4.13-1.22.22-2.46.62-3.68,1.17-1.45.65-2.79,1.34-3.99,2.03-1.2.69-2.56,1.59-4.06,2.66l-8.29,6.15c-.87.65-1.92.98-2.98.98-.39,0-.79-.05-1.18-.14-1.44-.35-2.66-1.33-3.31-2.66l-19.88-40.67c-.61-1.26-.67-2.72-.16-4.02.51-1.3,1.54-2.33,2.85-2.84l48.03-18.6c.58-.23,1.2-.34,1.81-.34.87,0,1.73.23,2.5.67,1.31.76,2.21,2.07,2.44,3.57l3.15,20.54c.39,2.54-1.2,4.95-3.69,5.6l-2.18.57c2.54.12,5.06.59,7.51,1.41,4.36,1.45,8.19,4.6,11.4,9.35.03.05.06.1.09.14,2.62,4.18,4.25,8.57,4.84,13.05.58,4.39.31,8.82-.79,13.17-.71,2.76-1.78,5.42-3.18,7.92-1.4,2.5-3.08,4.8-5.01,6.83-1.93,2.04-4.17,3.85-6.65,5.38-2.53,1.55-5.28,2.73-8.18,3.49-2.78.71-5.65,1.06-8.57,1.06Z"/>
          <path class="cls-3" d="M1320.48,412.78c-4.22,0-8.49-.95-12.69-2.81-5.18-2.3-10.03-5.56-14.43-9.69-4.33-4.06-8.14-8.85-11.32-14.21-3.22-5.43-5.47-11.08-6.67-16.79-1.25-5.91-1.18-11.76.19-17.39,1.45-5.93,4.74-11.1,9.76-15.39,2.23-1.89,4.67-3.57,7.26-5,2.58-1.43,5.2-2.58,7.79-3.42,2.82-.9,5.64-1.35,8.42-1.35,2.63,0,5.27.4,7.84,1.2,4.94,1.52,9.61,4.05,13.88,7.52,4.16,3.37,7.91,7.51,11.15,12.3,3.2,4.73,5.77,9.73,7.65,14.88,1.91,5.22,3.04,10.47,3.38,15.62.36,5.48-.42,10.48-2.32,14.88-1.09,2.61-2.58,5.09-4.39,7.32-1.77,2.17-3.81,4.12-6.05,5.78-2.24,1.66-4.7,3.05-7.29,4.12-2.64,1.09-5.42,1.83-8.26,2.18-1.24.17-2.58.27-3.9.27ZM1306.94,356.47c-.28,0-.67.04-1.22.39-.61.38-1.05.88-1.22,2.05-.25,1.75-.07,3.72.55,5.84.7,2.4,1.79,4.86,3.26,7.31,1.43,2.39,3.06,4.42,4.86,6.04,1.64,1.48,3.33,2.5,5.02,3.04.37.12.72.18,1.03.18s.82-.05,1.54-.5c.67-.42,1.14-.94,1.31-2.11.25-1.73.05-3.67-.58-5.75-.71-2.34-1.84-4.73-3.37-7.11-1.54-2.39-3.25-4.44-5.09-6.09-1.66-1.49-3.35-2.52-5.03-3.08-.39-.13-.74-.19-1.05-.19Z"/>
        </g>
        <g>
          <path class="cls-3" d="M432.5,402.95c-1.82,0-3.57-1-4.45-2.72l-35.82-69.94c-.62-1.2-.72-2.61-.28-3.89.44-1.28,1.37-2.33,2.59-2.91l19.18-9.09c.69-.33,1.42-.48,2.14-.48,1.54,0,3.05.71,4.01,2.02l14.44,19.42-3.02-26.76c-.24-2.12.9-4.16,2.83-5.08l18.79-8.9c.68-.32,1.41-.48,2.14-.48.59,0,1.19.11,1.76.32,1.27.48,2.29,1.45,2.83,2.69l33.08,76.23c1.1,2.53-.06,5.47-2.58,6.57l-19.77,8.64c-.64.28-1.32.42-2,.42s-1.33-.13-1.96-.4c-1.27-.54-2.25-1.57-2.73-2.86l-4.7-12.69c-.49.7-1.15,1.27-1.95,1.65l-7.55,3.58c-.26.12-.52.22-.79.29l4.69,9.37c.6,1.2.69,2.6.26,3.87-.44,1.27-1.37,2.31-2.59,2.89l-16.4,7.77c-.69.33-1.42.48-2.14.48Z"/>
          <path class="cls-3" d="M497.88,378.01c-2.22,0-4.24-1.48-4.83-3.72l-21.3-80.27c-.71-2.67.88-5.41,3.55-6.11l47.42-12.58c.42-.11.85-.17,1.28-.17.94,0,1.87.26,2.68.78,1.18.75,1.99,1.95,2.24,3.32l4.43,24.19c.26,1.44-.12,2.92-1.04,4.05-.86,1.06-2.11,1.72-3.45,1.83l3.94,15.25c.35,1.35.12,2.79-.65,3.97-.76,1.17-1.98,1.98-3.36,2.21l-17.71,3,2.63,10.18,20.65-9.29c.65-.29,1.35-.44,2.05-.44.77,0,1.54.18,2.25.53,1.35.68,2.31,1.93,2.64,3.4l5.01,22.91c.58,2.64-1.05,5.26-3.67,5.92l-43.54,10.9c-.41.1-.82.15-1.22.15Z"/>
          <path class="cls-3" d="M551.8,364.84c-2.52,0-4.69-1.9-4.97-4.46l-8.92-82.57c-.3-2.75,1.69-5.21,4.43-5.51l48.78-5.27c.18-.02.36-.03.54-.03,1.2,0,2.37.43,3.29,1.23,1.05.92,1.67,2.23,1.71,3.62l.72,24.58c.04,1.46-.55,2.87-1.64,3.85-.93.84-2.13,1.3-3.36,1.3-.11,0-.22,0-.33-.01l1.59,15.67c.14,1.39-.31,2.78-1.24,3.83-.93,1.05-2.26,1.65-3.66,1.68l-17.96.29,1.06,10.46,21.81-6.06c.44-.12.89-.18,1.34-.18,1.03,0,2.04.32,2.9.93,1.23.87,2,2.25,2.09,3.76l1.49,23.4c.17,2.7-1.83,5.04-4.52,5.29l-44.69,4.19c-.16.02-.32.02-.47.02Z"/>
          <path class="cls-3" d="M620.93,362.32c-1.34-.04-2.61-.62-3.51-1.6s-1.39-2.29-1.32-3.63l2.88-60.38-9.66,1.29c-.22.03-.44.04-.66.04-1.24,0-2.44-.46-3.36-1.3-1.09-.99-1.69-2.41-1.64-3.88l.79-21.77c.05-1.34.63-2.61,1.63-3.51.92-.84,2.13-1.31,3.37-1.31.09,0,.18,0,.28,0l50.97,2.83c2.72.15,4.82,2.45,4.72,5.17l-.71,19.79c-.05,1.43-.71,2.77-1.82,3.68-.9.74-2.03,1.14-3.18,1.14-.26,0-.52-.02-.79-.06l-9.27-1.47,1.62,60.64c.04,1.38-.5,2.71-1.47,3.68-.94.93-2.21,1.46-3.53,1.46-.05,0-25.34-.8-25.34-.8Z"/>
          <path class="cls-3" d="M745.61,379.96c-.38,0-.76-.04-1.13-.13l-24.53-5.72c-1.3-.3-2.43-1.12-3.13-2.26-.7-1.14-.91-2.52-.58-3.82l14.66-58.65-9.72-.63c-1.47-.1-2.82-.83-3.7-2.02s-1.18-2.69-.84-4.13l5.04-21.19c.31-1.31,1.13-2.43,2.28-3.13.79-.47,1.68-.72,2.58-.72.42,0,.84.05,1.25.16l49.43,12.77c2.64.68,4.24,3.35,3.61,6l-4.58,19.26c-.33,1.39-1.24,2.58-2.51,3.25-.73.39-1.54.59-2.36.59-.59,0-1.18-.1-1.74-.31l-8.8-3.26-10.3,59.78c-.23,1.36-1.02,2.56-2.16,3.32-.83.55-1.79.83-2.76.83Z"/>
          <path class="cls-3" d="M817.28,399.73c-.51,0-1.03-.08-1.54-.24l-18-5.82c-2.63-.85-4.07-3.67-3.22-6.3l9.69-29.99-5.56-1.8-10.1,31.25c-.41,1.26-1.3,2.31-2.48,2.91-.71.36-1.49.55-2.28.55-.52,0-1.04-.08-1.54-.24l-17.79-5.75c-2.57-.83-4.02-3.55-3.26-6.15l22.8-78.76c.38-1.3,1.26-2.39,2.46-3.03.73-.39,1.54-.58,2.34-.58.52,0,1.04.08,1.54.24l21.88,7.07c1.29.42,2.36,1.34,2.95,2.56.6,1.22.67,2.62.21,3.9l-9.19,25.43,5.61,1.77,8.83-27.3c.68-2.12,2.65-3.46,4.76-3.46.51,0,1.03.08,1.54.24l21.14,6.83c1.3.42,2.38,1.36,2.97,2.59s.65,2.66.17,3.94l-29.25,76.9c-.76,1.99-2.65,3.22-4.67,3.22Z"/>
          <path class="cls-3" d="M872.75,418.52c-.52,0-1.04-.08-1.56-.25l-42.64-14.02c-2.6-.85-4.03-3.64-3.21-6.25l24.84-79.25c.67-2.14,2.64-3.51,4.77-3.51.5,0,1,.07,1.5.23l46.82,14.67c1.33.42,2.43,1.37,3.02,2.63.6,1.26.64,2.71.12,4.01l-9.17,22.82c-.54,1.36-1.65,2.4-3.04,2.87-.52.18-1.06.26-1.6.26-.79,0-1.58-.19-2.3-.56l-4.81,15c-.43,1.33-1.39,2.43-2.67,3.01-.66.31-1.38.46-2.1.46-.65,0-1.31-.13-1.92-.39l-16.58-6.91-3.21,10.01,22.42,3.16c1.49.21,2.81,1.08,3.59,2.37.78,1.29.93,2.86.42,4.28l-7.99,22.04c-.74,2.03-2.65,3.3-4.7,3.3Z"/>
          <path class="cls-3" d="M959.55,443.95c-4.14,0-8.08-.69-11.72-2.04-4.11-1.48-7.57-3.39-10.24-5.68-2.63-2.25-4.73-4.72-6.25-7.32-1.53-2.62-2.56-5.37-3.08-8.17-.49-2.64-.64-5.23-.47-7.7.17-2.44.58-4.68,1.22-6.66.61-1.89,1.2-3.38,1.82-4.58.87-1.68,2.6-2.7,4.44-2.7.37,0,.75.04,1.12.13l8,1.84c-1.04-1.06-1.99-2.17-2.83-3.32-2.18-2.96-3.61-6.43-4.25-10.3-.63-3.78-.37-8.15.8-13.34.86-3.78,2.22-7.16,4.07-10.06,1.83-2.89,4.06-5.39,6.64-7.42,3.62-2.92,7.89-4.88,12.66-5.8,2.3-.45,4.62-.67,6.91-.67s4.57.22,6.82.67c4.54.89,8.78,2.67,12.6,5.26,3.98,2.72,7.05,6.27,9.13,10.55,1.93,4.17,2.82,8.91,2.67,14.16-.15,5.05-1.5,10.89-4.02,17.37-.77,1.97-2.66,3.19-4.66,3.19-.56,0-1.12-.09-1.68-.29l-4.04-1.44c.91,1.11,1.73,2.27,2.47,3.48,1.8,2.97,2.94,6.26,3.39,9.78.46,3.62-.08,7.58-1.6,11.78-1.57,4.37-4.03,8.06-7.32,10.97-3.13,2.76-6.67,4.87-10.54,6.26-3.82,1.38-7.85,2.08-11.99,2.09h-.06ZM959.83,415.38c.65.24,1.2.36,1.68.36.25,0,.47-.03.7-.09.08-.02.14-.04.2-.06-.03-.1-.08-.22-.13-.35-.12-.27-.61-1.17-2.42-2.61-.08.45-.14.88-.17,1.29-.01.51.04.99.15,1.47ZM967.87,377.63c-.13,0-.21.02-.33.09-.67.38-1.11.89-1.43,1.65-.39.91-.49,1.94-.3,3.16.09.62.36,1.57,1.63,2.71.12.11.24.22.37.32.48-.89.94-1.83,1.36-2.81.48-1.09.75-2.11.82-3.03.05-.73-.12-1.17-.26-1.43,0,0,0,0,0,0-.01,0-.23-.19-.84-.42-.58-.22-.88-.25-1.01-.25Z"/>
          <path class="cls-3" d="M1045.71,462.9c-.33,0-.66-.03-.99-.1l-18.55-3.72c-2.71-.54-4.46-3.18-3.92-5.89l6.2-30.9-5.73-1.15-6.46,32.2c-.26,1.3-1.03,2.44-2.13,3.18-.83.55-1.79.84-2.77.84-.33,0-.66-.03-.98-.1l-18.33-3.68c-2.65-.53-4.4-3.07-3.95-5.73l13.64-80.85c.23-1.33.98-2.52,2.1-3.29.84-.58,1.83-.88,2.83-.88.33,0,.66.03.98.1l22.54,4.52c1.33.27,2.49,1.06,3.23,2.2.73,1.14.97,2.53.66,3.85l-6.22,26.31,5.78,1.12,5.65-28.13c.48-2.38,2.56-4.02,4.9-4.02.33,0,.66.03.99.1l21.79,4.37c1.34.27,2.52,1.08,3.25,2.24.73,1.16.95,2.57.61,3.9l-20.26,79.74c-.57,2.25-2.6,3.77-4.84,3.77Z"/>
          <path class="cls-3" d="M1082.67,466.49c-.18,0-.36,0-.54-.03l-17.06-1.84c-2.66-.29-4.62-2.61-4.46-5.28l4.91-79.46c.08-1.36.72-2.63,1.77-3.51.91-.76,2.05-1.18,3.22-1.18.18,0,.36,0,.54.03l24.5,2.64c1.36.15,2.6.84,3.43,1.93s1.18,2.47.97,3.82l-12.34,78.66c-.38,2.46-2.5,4.23-4.93,4.23Z"/>
          <path class="cls-3" d="M1100.91,468.87c-1.32,0-2.58-.52-3.52-1.45-.96-.95-1.49-2.26-1.48-3.61l1.02-81.22c.03-2.55,1.98-4.67,4.52-4.92l16.03-1.53c.16-.02.32-.02.48-.02,1.95,0,3.74,1.14,4.56,2.94l10.4,23.04-.97-17.68c-.07-1.34.39-2.65,1.29-3.63.9-.99,2.16-1.58,3.5-1.63l20.67-.85c.07,0,.14,0,.21,0,1.3,0,2.55.51,3.49,1.42.99.96,1.53,2.28,1.51,3.66l-1.17,79.13c-.04,2.69-2.21,4.87-4.9,4.93,0,0-17.77.35-17.81.35-1.89,0-3.63-1.07-4.48-2.77l-5.66-11.38,1.34,9.02c.21,1.42-.2,2.86-1.13,3.96-.93,1.1-2.28,1.74-3.72,1.77,0,0-24.15.48-24.18.48Z"/>
          <path class="cls-3" d="M1178.43,466.04c-2.28,0-4.34-1.57-4.87-3.88l-18.56-80.95c-.62-2.69,1.06-5.37,3.75-5.99l47.82-10.97c.37-.08.75-.13,1.12-.13,1,0,1.98.3,2.82.87,1.15.79,1.92,2.02,2.13,3.4l3.61,24.33c.21,1.44-.21,2.91-1.17,4.01-.89,1.03-2.16,1.64-3.51,1.71l3.42,15.37c.3,1.37.02,2.8-.78,3.94-.8,1.15-2.05,1.91-3.43,2.1l-17.8,2.4,2.28,10.26,20.95-8.59c.61-.25,1.25-.37,1.9-.37.83,0,1.65.21,2.4.61,1.32.72,2.25,2,2.52,3.49l4.23,23.06c.49,2.66-1.23,5.22-3.87,5.79l-43.88,9.42c-.35.08-.71.11-1.05.11Z"/>
          <path class="cls-3" d="M1254.15,443.74c-1.1,0-2.22-.05-3.34-.15-4.22-.37-8.55-1.73-12.85-4.04-2.26-1.21-3.24-3.95-2.25-6.32l7.72-18.61c.54-1.3,1.61-2.32,2.94-2.79.54-.19,1.11-.29,1.68-.29.82,0,1.63.2,2.37.6,1.79.96,3.35,1.45,4.65,1.45.15,0,.29,0,.44-.02,1.28-.12,2.24-.46,2.85-1.01.37-.33.77-.82.89-1.88.1-.86-.23-1.9-.99-3.08-.06-.09-.23-.33-.36-.36-.36-.08-.76-.12-1.17-.12-.44,0-.91.05-1.4.13-1.22.22-2.46.62-3.68,1.17-1.45.65-2.79,1.34-3.99,2.03-1.2.69-2.56,1.59-4.06,2.66l-8.29,6.15c-.87.65-1.92.98-2.98.98-.39,0-.79-.05-1.18-.14-1.44-.35-2.66-1.33-3.31-2.66l-19.88-40.67c-.61-1.26-.67-2.72-.16-4.02.51-1.3,1.54-2.33,2.85-2.84l48.03-18.6c.58-.23,1.2-.34,1.81-.34.87,0,1.73.23,2.5.67,1.31.76,2.21,2.07,2.44,3.57l3.15,20.54c.39,2.54-1.2,4.95-3.69,5.6l-2.18.57c2.54.12,5.06.59,7.51,1.41,4.36,1.45,8.19,4.6,11.4,9.35.03.05.06.1.09.14,2.62,4.18,4.25,8.57,4.84,13.05.58,4.39.31,8.82-.79,13.17-.71,2.76-1.78,5.42-3.18,7.92-1.4,2.5-3.08,4.8-5.01,6.83-1.93,2.04-4.17,3.85-6.65,5.38-2.53,1.55-5.28,2.73-8.18,3.49-2.78.71-5.65,1.06-8.57,1.06Z"/>
          <path class="cls-3" d="M1318.48,409.78c-4.22,0-8.49-.95-12.69-2.81-5.18-2.3-10.03-5.56-14.43-9.69-4.33-4.06-8.14-8.85-11.32-14.21-3.22-5.43-5.47-11.08-6.67-16.79-1.25-5.91-1.18-11.76.19-17.39,1.45-5.93,4.74-11.1,9.76-15.39,2.23-1.89,4.67-3.57,7.26-5,2.58-1.43,5.2-2.58,7.79-3.42,2.82-.9,5.64-1.35,8.42-1.35,2.63,0,5.27.4,7.84,1.2,4.94,1.52,9.61,4.05,13.88,7.52,4.16,3.37,7.91,7.51,11.15,12.3,3.2,4.73,5.77,9.73,7.65,14.88,1.91,5.22,3.04,10.47,3.38,15.62.36,5.48-.42,10.48-2.32,14.88-1.09,2.61-2.58,5.09-4.39,7.32-1.77,2.17-3.81,4.12-6.05,5.78-2.24,1.66-4.7,3.05-7.29,4.12-2.64,1.09-5.42,1.83-8.26,2.18-1.24.17-2.58.27-3.9.27ZM1304.94,353.47c-.28,0-.67.04-1.22.39-.61.38-1.05.88-1.22,2.05-.25,1.75-.07,3.72.55,5.84.7,2.4,1.79,4.86,3.26,7.31,1.43,2.39,3.06,4.42,4.86,6.04,1.64,1.48,3.33,2.5,5.02,3.04.37.12.72.18,1.03.18s.82-.05,1.54-.5c.67-.42,1.14-.94,1.31-2.11.25-1.73.05-3.67-.58-5.75-.71-2.34-1.84-4.73-3.37-7.11-1.54-2.39-3.25-4.44-5.09-6.09-1.66-1.49-3.35-2.52-5.03-3.08-.39-.13-.74-.19-1.05-.19Z"/>
        </g>
        <g>
          <path class="cls-3" d="M430.5,399.95c-1.82,0-3.57-1-4.45-2.72l-35.82-69.94c-.62-1.2-.72-2.61-.28-3.89.44-1.28,1.37-2.33,2.59-2.91l19.18-9.09c.69-.33,1.42-.48,2.14-.48,1.54,0,3.05.71,4.01,2.02l14.44,19.42-3.02-26.76c-.24-2.12.9-4.16,2.83-5.08l18.79-8.9c.68-.32,1.41-.48,2.14-.48.59,0,1.19.11,1.76.32,1.27.48,2.29,1.45,2.83,2.69l33.08,76.23c1.1,2.53-.06,5.47-2.58,6.57l-19.77,8.64c-.64.28-1.32.42-2,.42s-1.33-.13-1.96-.4c-1.27-.54-2.25-1.57-2.73-2.86l-4.7-12.69c-.49.7-1.15,1.27-1.95,1.65l-7.55,3.58c-.26.12-.52.22-.79.29l4.69,9.37c.6,1.2.69,2.6.26,3.87-.44,1.27-1.37,2.31-2.59,2.89l-16.4,7.77c-.69.33-1.42.48-2.14.48Z"/>
          <path class="cls-3" d="M495.88,375.01c-2.22,0-4.24-1.48-4.83-3.72l-21.3-80.27c-.71-2.67.88-5.41,3.55-6.11l47.42-12.58c.42-.11.85-.17,1.28-.17.94,0,1.87.26,2.68.78,1.18.75,1.99,1.95,2.24,3.32l4.43,24.19c.26,1.44-.12,2.92-1.04,4.05-.86,1.06-2.11,1.72-3.45,1.83l3.94,15.25c.35,1.35.12,2.79-.65,3.97-.76,1.17-1.98,1.98-3.36,2.21l-17.71,3,2.63,10.18,20.65-9.29c.65-.29,1.35-.44,2.05-.44.77,0,1.54.18,2.25.53,1.35.68,2.31,1.93,2.64,3.4l5.01,22.91c.58,2.64-1.05,5.26-3.67,5.92l-43.54,10.9c-.41.1-.82.15-1.22.15Z"/>
          <path class="cls-3" d="M549.8,361.84c-2.52,0-4.69-1.9-4.97-4.46l-8.92-82.57c-.3-2.75,1.69-5.21,4.43-5.51l48.78-5.27c.18-.02.36-.03.54-.03,1.2,0,2.37.43,3.29,1.23,1.05.92,1.67,2.23,1.71,3.62l.72,24.58c.04,1.46-.55,2.87-1.64,3.85-.93.84-2.13,1.3-3.36,1.3-.11,0-.22,0-.33-.01l1.59,15.67c.14,1.39-.31,2.78-1.24,3.83-.93,1.05-2.26,1.65-3.66,1.68l-17.96.29,1.06,10.46,21.81-6.06c.44-.12.89-.18,1.34-.18,1.03,0,2.04.32,2.9.93,1.23.87,2,2.25,2.09,3.76l1.49,23.4c.17,2.7-1.83,5.04-4.52,5.29l-44.69,4.19c-.16.02-.32.02-.47.02Z"/>
          <path class="cls-3" d="M618.93,359.32c-1.34-.04-2.61-.62-3.51-1.6s-1.39-2.29-1.32-3.63l2.88-60.38-9.66,1.29c-.22.03-.44.04-.66.04-1.24,0-2.44-.46-3.36-1.3-1.09-.99-1.69-2.41-1.64-3.88l.79-21.77c.05-1.34.63-2.61,1.63-3.51.92-.84,2.13-1.31,3.37-1.31.09,0,.18,0,.28,0l50.97,2.83c2.72.15,4.82,2.45,4.72,5.17l-.71,19.79c-.05,1.43-.71,2.77-1.82,3.68-.9.74-2.03,1.14-3.18,1.14-.26,0-.52-.02-.79-.06l-9.27-1.47,1.62,60.64c.04,1.38-.5,2.71-1.47,3.68-.94.93-2.21,1.46-3.53,1.46-.05,0-25.34-.8-25.34-.8Z"/>
          <path class="cls-3" d="M743.61,376.96c-.38,0-.76-.04-1.13-.13l-24.53-5.72c-1.3-.3-2.43-1.12-3.13-2.26-.7-1.14-.91-2.52-.58-3.82l14.66-58.65-9.72-.63c-1.47-.1-2.82-.83-3.7-2.02s-1.18-2.69-.84-4.13l5.04-21.19c.31-1.31,1.13-2.43,2.28-3.13.79-.47,1.68-.72,2.58-.72.42,0,.84.05,1.25.16l49.43,12.77c2.64.68,4.24,3.35,3.61,6l-4.58,19.26c-.33,1.39-1.24,2.58-2.51,3.25-.73.39-1.54.59-2.36.59-.59,0-1.18-.1-1.74-.31l-8.8-3.26-10.3,59.78c-.23,1.36-1.02,2.56-2.16,3.32-.83.55-1.79.83-2.76.83Z"/>
          <path class="cls-3" d="M815.28,396.73c-.51,0-1.03-.08-1.54-.24l-18-5.82c-2.63-.85-4.07-3.67-3.22-6.3l9.69-29.99-5.56-1.8-10.1,31.25c-.41,1.26-1.3,2.31-2.48,2.91-.71.36-1.49.55-2.28.55-.52,0-1.04-.08-1.54-.24l-17.79-5.75c-2.57-.83-4.02-3.55-3.26-6.15l22.8-78.76c.38-1.3,1.26-2.39,2.46-3.03.73-.39,1.54-.58,2.34-.58.52,0,1.04.08,1.54.24l21.88,7.07c1.29.42,2.36,1.34,2.95,2.56.6,1.22.67,2.62.21,3.9l-9.19,25.43,5.61,1.77,8.83-27.3c.68-2.12,2.65-3.46,4.76-3.46.51,0,1.03.08,1.54.24l21.14,6.83c1.3.42,2.38,1.36,2.97,2.59s.65,2.66.17,3.94l-29.25,76.9c-.76,1.99-2.65,3.22-4.67,3.22Z"/>
          <path class="cls-3" d="M870.75,415.52c-.52,0-1.04-.08-1.56-.25l-42.64-14.02c-2.6-.85-4.03-3.64-3.21-6.25l24.84-79.25c.67-2.14,2.64-3.51,4.77-3.51.5,0,1,.07,1.5.23l46.82,14.67c1.33.42,2.43,1.37,3.02,2.63.6,1.26.64,2.71.12,4.01l-9.17,22.82c-.54,1.36-1.65,2.4-3.04,2.87-.52.18-1.06.26-1.6.26-.79,0-1.58-.19-2.3-.56l-4.81,15c-.43,1.33-1.39,2.43-2.67,3.01-.66.31-1.38.46-2.1.46-.65,0-1.31-.13-1.92-.39l-16.58-6.91-3.21,10.01,22.42,3.16c1.49.21,2.81,1.08,3.59,2.37.78,1.29.93,2.86.42,4.28l-7.99,22.04c-.74,2.03-2.65,3.3-4.7,3.3Z"/>
          <path class="cls-3" d="M957.55,440.95c-4.14,0-8.08-.69-11.72-2.04-4.11-1.48-7.57-3.39-10.24-5.68-2.63-2.25-4.73-4.72-6.25-7.32-1.53-2.62-2.56-5.37-3.08-8.17-.49-2.64-.64-5.23-.47-7.7.17-2.44.58-4.68,1.22-6.66.61-1.89,1.2-3.38,1.82-4.58.87-1.68,2.6-2.7,4.44-2.7.37,0,.75.04,1.12.13l8,1.84c-1.04-1.06-1.99-2.17-2.83-3.32-2.18-2.96-3.61-6.43-4.25-10.3-.63-3.78-.37-8.15.8-13.34.86-3.78,2.22-7.16,4.07-10.06,1.83-2.89,4.06-5.39,6.64-7.42,3.62-2.92,7.89-4.88,12.66-5.8,2.3-.45,4.62-.67,6.91-.67s4.57.22,6.82.67c4.54.89,8.78,2.67,12.6,5.26,3.98,2.72,7.05,6.27,9.13,10.55,1.93,4.17,2.82,8.91,2.67,14.16-.15,5.05-1.5,10.89-4.02,17.37-.77,1.97-2.66,3.19-4.66,3.19-.56,0-1.12-.09-1.68-.29l-4.04-1.44c.91,1.11,1.73,2.27,2.47,3.48,1.8,2.97,2.94,6.26,3.39,9.78.46,3.62-.08,7.58-1.6,11.78-1.57,4.37-4.03,8.06-7.32,10.97-3.13,2.76-6.67,4.87-10.54,6.26-3.82,1.38-7.85,2.08-11.99,2.09h-.06ZM957.83,412.38c.65.24,1.2.36,1.68.36.25,0,.47-.03.7-.09.08-.02.14-.04.2-.06-.03-.1-.08-.22-.13-.35-.12-.27-.61-1.17-2.42-2.61-.08.45-.14.88-.17,1.29-.01.51.04.99.15,1.47ZM965.87,374.63c-.13,0-.21.02-.33.09-.67.38-1.11.89-1.43,1.65-.39.91-.49,1.94-.3,3.16.09.62.36,1.57,1.63,2.71.12.11.24.22.37.32.48-.89.94-1.83,1.36-2.81.48-1.09.75-2.11.82-3.03.05-.73-.12-1.17-.26-1.43,0,0,0,0,0,0-.01,0-.23-.19-.84-.42-.58-.22-.88-.25-1.01-.25Z"/>
          <path class="cls-3" d="M1043.71,459.9c-.33,0-.66-.03-.99-.1l-18.55-3.72c-2.71-.54-4.46-3.18-3.92-5.89l6.2-30.9-5.73-1.15-6.46,32.2c-.26,1.3-1.03,2.44-2.13,3.18-.83.55-1.79.84-2.77.84-.33,0-.66-.03-.98-.1l-18.33-3.68c-2.65-.53-4.4-3.07-3.95-5.73l13.64-80.85c.23-1.33.98-2.52,2.1-3.29.84-.58,1.83-.88,2.83-.88.33,0,.66.03.98.1l22.54,4.52c1.33.27,2.49,1.06,3.23,2.2.73,1.14.97,2.53.66,3.85l-6.22,26.31,5.78,1.12,5.65-28.13c.48-2.38,2.56-4.02,4.9-4.02.33,0,.66.03.99.1l21.79,4.37c1.34.27,2.52,1.08,3.25,2.24.73,1.16.95,2.57.61,3.9l-20.26,79.74c-.57,2.25-2.6,3.77-4.84,3.77Z"/>
          <path class="cls-3" d="M1080.67,463.49c-.18,0-.36,0-.54-.03l-17.06-1.84c-2.66-.29-4.62-2.61-4.46-5.28l4.91-79.46c.08-1.36.72-2.63,1.77-3.51.91-.76,2.05-1.18,3.22-1.18.18,0,.36,0,.54.03l24.5,2.64c1.36.15,2.6.84,3.43,1.93s1.18,2.47.97,3.82l-12.34,78.66c-.38,2.46-2.5,4.23-4.93,4.23Z"/>
          <path class="cls-3" d="M1098.91,465.87c-1.32,0-2.58-.52-3.52-1.45-.96-.95-1.49-2.26-1.48-3.61l1.02-81.22c.03-2.55,1.98-4.67,4.52-4.92l16.03-1.53c.16-.02.32-.02.48-.02,1.95,0,3.74,1.14,4.56,2.94l10.4,23.04-.97-17.68c-.07-1.34.39-2.65,1.29-3.63.9-.99,2.16-1.58,3.5-1.63l20.67-.85c.07,0,.14,0,.21,0,1.3,0,2.55.51,3.49,1.42.99.96,1.53,2.28,1.51,3.66l-1.17,79.13c-.04,2.69-2.21,4.87-4.9,4.93,0,0-17.77.35-17.81.35-1.89,0-3.63-1.07-4.48-2.77l-5.66-11.38,1.34,9.02c.21,1.42-.2,2.86-1.13,3.96-.93,1.1-2.28,1.74-3.72,1.77,0,0-24.15.48-24.18.48Z"/>
          <path class="cls-3" d="M1176.43,463.04c-2.28,0-4.34-1.57-4.87-3.88l-18.56-80.95c-.62-2.69,1.06-5.37,3.75-5.99l47.82-10.97c.37-.08.75-.13,1.12-.13,1,0,1.98.3,2.82.87,1.15.79,1.92,2.02,2.13,3.4l3.61,24.33c.21,1.44-.21,2.91-1.17,4.01-.89,1.03-2.16,1.64-3.51,1.71l3.42,15.37c.3,1.37.02,2.8-.78,3.94-.8,1.15-2.05,1.91-3.43,2.1l-17.8,2.4,2.28,10.26,20.95-8.59c.61-.25,1.25-.37,1.9-.37.83,0,1.65.21,2.4.61,1.32.72,2.25,2,2.52,3.49l4.23,23.06c.49,2.66-1.23,5.22-3.87,5.79l-43.88,9.42c-.35.08-.71.11-1.05.11Z"/>
          <path class="cls-3" d="M1252.15,440.74c-1.1,0-2.22-.05-3.34-.15-4.22-.37-8.55-1.73-12.85-4.04-2.26-1.21-3.24-3.95-2.25-6.32l7.72-18.61c.54-1.3,1.61-2.32,2.94-2.79.54-.19,1.11-.29,1.68-.29.82,0,1.63.2,2.37.6,1.79.96,3.35,1.45,4.65,1.45.15,0,.29,0,.44-.02,1.28-.12,2.24-.46,2.85-1.01.37-.33.77-.82.89-1.88.1-.86-.23-1.9-.99-3.08-.06-.09-.23-.33-.36-.36-.36-.08-.76-.12-1.17-.12-.44,0-.91.05-1.4.13-1.22.22-2.46.62-3.68,1.17-1.45.65-2.79,1.34-3.99,2.03-1.2.69-2.56,1.59-4.06,2.66l-8.29,6.15c-.87.65-1.92.98-2.98.98-.39,0-.79-.05-1.18-.14-1.44-.35-2.66-1.33-3.31-2.66l-19.88-40.67c-.61-1.26-.67-2.72-.16-4.02.51-1.3,1.54-2.33,2.85-2.84l48.03-18.6c.58-.23,1.2-.34,1.81-.34.87,0,1.73.23,2.5.67,1.31.76,2.21,2.07,2.44,3.57l3.15,20.54c.39,2.54-1.2,4.95-3.69,5.6l-2.18.57c2.54.12,5.06.59,7.51,1.41,4.36,1.45,8.19,4.6,11.4,9.35.03.05.06.1.09.14,2.62,4.18,4.25,8.57,4.84,13.05.58,4.39.31,8.82-.79,13.17-.71,2.76-1.78,5.42-3.18,7.92-1.4,2.5-3.08,4.8-5.01,6.83-1.93,2.04-4.17,3.85-6.65,5.38-2.53,1.55-5.28,2.73-8.18,3.49-2.78.71-5.65,1.06-8.57,1.06Z"/>
          <path class="cls-3" d="M1316.48,406.78c-4.22,0-8.49-.95-12.69-2.81-5.18-2.3-10.03-5.56-14.43-9.69-4.33-4.06-8.14-8.85-11.32-14.21-3.22-5.43-5.47-11.08-6.67-16.79-1.25-5.91-1.18-11.76.19-17.39,1.45-5.93,4.74-11.1,9.76-15.39,2.23-1.89,4.67-3.57,7.26-5,2.58-1.43,5.2-2.58,7.79-3.42,2.82-.9,5.64-1.35,8.42-1.35,2.63,0,5.27.4,7.84,1.2,4.94,1.52,9.61,4.05,13.88,7.52,4.16,3.37,7.91,7.51,11.15,12.3,3.2,4.73,5.77,9.73,7.65,14.88,1.91,5.22,3.04,10.47,3.38,15.62.36,5.48-.42,10.48-2.32,14.88-1.09,2.61-2.58,5.09-4.39,7.32-1.77,2.17-3.81,4.12-6.05,5.78-2.24,1.66-4.7,3.05-7.29,4.12-2.64,1.09-5.42,1.83-8.26,2.18-1.24.17-2.58.27-3.9.27ZM1302.94,350.47c-.28,0-.67.04-1.22.39-.61.38-1.05.88-1.22,2.05-.25,1.75-.07,3.72.55,5.84.7,2.4,1.79,4.86,3.26,7.31,1.43,2.39,3.06,4.42,4.86,6.04,1.64,1.48,3.33,2.5,5.02,3.04.37.12.72.18,1.03.18s.82-.05,1.54-.5c.67-.42,1.14-.94,1.31-2.11.25-1.73.05-3.67-.58-5.75-.71-2.34-1.84-4.73-3.37-7.11-1.54-2.39-3.25-4.44-5.09-6.09-1.66-1.49-3.35-2.52-5.03-3.08-.39-.13-.74-.19-1.05-.19Z"/>
        </g>
      </g>
      <g>
        <path class="cls-4" d="M446.9,387.18l-16.4,7.77-35.82-69.94,19.18-9.09,25.5,34.29-5.1-45.18,18.79-8.9,33.08,76.23-19.77,8.64-13.55-36.55.06,22.73-7.55,3.58-12.12-10.93,13.69,27.35Z"/>
        <path class="cls-4" d="M534.42,336.2l5.01,22.91-43.54,10.9-21.3-80.27,47.42-12.59,4.43,24.19-29.9.79,2.92,11.29,21.89-8.49,4.62,17.89-23.07,3.91,5.47,21.19,26.06-11.73Z"/>
        <path class="cls-4" d="M593,329.25l1.49,23.4-44.68,4.2-8.92-82.57,48.78-5.27.72,24.58-29.68-3.74,1.18,11.6,22.92-5.09,1.86,18.39-23.4.38,2.21,21.78,27.53-7.65Z"/>
        <path class="cls-4" d="M606.66,290.04l.79-21.77,50.97,2.83-.71,19.79-15.21-2.42,1.78,66.66-25.18-.8,3.16-66.37-15.6,2.08Z"/>
        <path class="cls-4" d="M719.49,300.77l5.04-21.19,49.43,12.77-4.58,19.26-14.44-5.35-11.32,65.71-24.53-5.72,16.11-64.46-15.7-1.02Z"/>
        <path class="cls-4" d="M813.04,340.02l10.35-32.03,21.14,6.83-29.25,76.9-18-5.82,11.23-34.75-15.07-4.87-11.64,36.01-17.79-5.75,22.8-78.76,21.88,7.07-10.96,30.33,15.32,4.83Z"/>
        <path class="cls-4" d="M878.74,388.48l-7.99,22.04-42.64-14.02,24.84-79.25,46.82,14.67-9.17,22.82-25.71-15.29-3.56,11.1,23.05,4.5-5.64,17.6-21.6-9.01-6.68,20.84,28.29,3.99Z"/>
        <path class="cls-4" d="M953.68,405.79c-.56,1.75-.89,3.37-.99,4.86-.05,1.28.12,2.53.51,3.73.39,1.21,1.31,2.09,2.75,2.64,1.99.78,3.85.93,5.58.45,1.73-.48,2.91-1.33,3.56-2.56.64-1.23.57-2.77-.21-4.62-.79-1.85-2.65-3.79-5.59-5.81-3.33-2.28-6.34-4.38-9.05-6.31-2.71-1.92-4.92-4.05-6.63-6.38-1.72-2.33-2.83-5.06-3.35-8.16s-.27-6.92.74-11.43c.73-3.22,1.87-6.05,3.41-8.47,1.54-2.43,3.38-4.49,5.52-6.18,3.03-2.44,6.53-4.04,10.5-4.82,3.98-.77,7.91-.77,11.81,0,3.9.77,7.48,2.26,10.75,4.49,3.27,2.23,5.75,5.1,7.45,8.6,1.58,3.4,2.3,7.34,2.17,11.83-.13,4.49-1.36,9.72-3.68,15.7l-19.53-6.96c.85-1.44,1.63-2.97,2.35-4.6.71-1.63,1.12-3.19,1.23-4.68.1-1.49-.17-2.86-.81-4.1-.65-1.24-1.84-2.18-3.56-2.8-2.06-.79-3.91-.73-5.53.19-1.62.92-2.81,2.27-3.56,4.04-.75,1.77-.97,3.73-.64,5.87.32,2.14,1.4,4.04,3.23,5.68.97.88,2.04,1.7,3.2,2.48,1.16.77,2.3,1.58,3.44,2.43,2.5,1.68,4.88,3.47,7.13,5.38,2.25,1.91,4.1,4.05,5.54,6.43,1.44,2.37,2.34,4.98,2.7,7.81.36,2.84-.08,5.98-1.34,9.44-1.29,3.6-3.27,6.57-5.93,8.92-2.66,2.35-5.64,4.12-8.93,5.31-3.29,1.19-6.73,1.79-10.3,1.79-3.58,0-6.92-.57-10.02-1.72-3.6-1.29-6.51-2.89-8.72-4.79-2.22-1.9-3.94-3.92-5.18-6.04-1.24-2.13-2.07-4.31-2.48-6.56-.41-2.24-.55-4.39-.4-6.44.14-2.05.48-3.88.99-5.49.52-1.61,1.02-2.88,1.5-3.81l20.39,4.69Z"/>
        <path class="cls-4" d="M1035.56,403.79l6.62-33,21.79,4.37-20.26,79.74-18.55-3.72,7.18-35.81-15.53-3.12-7.44,37.1-18.33-3.68,13.64-80.85,22.54,4.52-7.42,31.38,15.77,3.05Z"/>
        <path class="cls-4" d="M1068.51,377.19l24.5,2.64-12.34,78.66-17.06-1.84,4.91-79.46Z"/>
        <path class="cls-4" d="M1115.95,378.12l21.41,47.43-2.43-44.4,20.67-.85-1.17,79.13-17.71.35-19.72-39.65,5.98,40.26-24.08.48,1.02-81.22,16.03-1.53Z"/>
        <path class="cls-4" d="M1216.09,425.56l4.23,23.06-43.88,9.42-18.56-80.95,47.82-10.97,3.61,24.33-29.91-.22,2.53,11.38,22.17-7.75,4.01,18.04-23.19,3.13,4.75,21.37,26.44-10.84Z"/>
        <path class="cls-4" d="M1261.6,373.52l-28.54,7.4,4.28,10.01c2.64-1.29,5.63-2.64,8.97-4.07,3.34-1.43,6.73-2.35,10.17-2.79,3.44-.43,6.81-.1,10.12,1,3.3,1.1,6.25,3.57,8.84,7.41,2.25,3.58,3.62,7.27,4.12,11.04.5,3.78.27,7.54-.68,11.29-.6,2.33-1.5,4.57-2.69,6.71-1.2,2.15-2.62,4.09-4.27,5.83-1.65,1.74-3.53,3.26-5.65,4.56-2.12,1.3-4.39,2.27-6.83,2.92-3.24.82-6.64,1.08-10.2.77-3.56-.31-7.21-1.47-10.93-3.47l7.72-18.61c2.9,1.56,5.53,2.22,7.91,2,2.38-.22,4.29-.97,5.73-2.27,1.44-1.29,2.28-2.97,2.52-5.02.24-2.05-.35-4.18-1.76-6.36-.9-1.37-2.06-2.21-3.47-2.52-1.41-.31-2.93-.32-4.56-.03-1.63.3-3.24.81-4.85,1.53-1.6.73-3.08,1.48-4.42,2.25-1.34.77-2.84,1.75-4.49,2.93l-8.36,6.2-19.88-40.67,48.03-18.6,3.15,20.54Z"/>
        <path class="cls-4" d="M1297.92,326.81c4.47-1.42,8.89-1.46,13.23-.12,4.35,1.34,8.42,3.55,12.21,6.62,3.79,3.08,7.18,6.82,10.16,11.22,2.98,4.41,5.35,9,7.1,13.79,1.75,4.79,2.78,9.53,3.09,14.23.31,4.7-.33,8.89-1.92,12.57-.94,2.23-2.16,4.28-3.68,6.14-1.52,1.86-3.24,3.5-5.16,4.92-1.92,1.42-4,2.6-6.23,3.52-2.23.93-4.55,1.54-6.96,1.84-4.62.65-9.27-.07-13.95-2.15-4.68-2.08-9.03-5-13.04-8.77-4.01-3.76-7.49-8.13-10.44-13.12-2.96-4.98-4.98-10.08-6.08-15.27-1.1-5.2-1.04-10.25.16-15.16,1.2-4.91,3.92-9.17,8.15-12.78,1.98-1.67,4.13-3.15,6.44-4.43,2.31-1.28,4.62-2.29,6.92-3.04ZM1319.41,379.04c2.05-1.29,3.25-3.16,3.6-5.64.35-2.47.11-5.11-.74-7.91-.85-2.8-2.17-5.59-3.95-8.36-1.79-2.77-3.77-5.14-5.95-7.11-2.18-1.96-4.45-3.33-6.8-4.11-2.35-.78-4.52-.54-6.5.71-1.99,1.25-3.16,3.11-3.51,5.58-.35,2.47-.12,5.12.7,7.94.82,2.82,2.07,5.65,3.76,8.48,1.69,2.83,3.63,5.23,5.82,7.19,2.18,1.96,4.47,3.32,6.85,4.08,2.38.76,4.63.47,6.74-.85Z"/>
      </g>
    </g>
    <g>
      <path class="cls-4" d="M229.67,374.62c-5.88,11.62-14.63,25.92-21.39,37.05,45.72-6.86,104.43-20.98,150-28.79-8.21,19.26-17.94,37.64-29.3,55.23,25.63-2.65,55.38-4.88,80.86-8.71-40.62,16.47-82.34,28.01-124.42,40.3,7.57-13.5,14.8-27.88,22.38-41.37-50.22,11.55-98.99,20.63-149.21,32.18,6.91-15.15,13-30.08,21.31-44.52-49.68,7.6-99.02,14.03-148.44,23.2,63.34-24.09,135.46-41.28,198.21-64.57Z"/>
      <path class="cls-4" d="M424.6,459.53c10.54,35.81,21.87,71.85,31.57,108.48-13.39-.17-26.78-.34-40.16-.51,3.31-34.78,6.15-72.37,8.59-107.97Z"/>
      <path class="cls-4" d="M389.14,467.1c-9.37,20.05-18.41,40.6-28.58,60.58-7.21-6.79-14.41-13.57-21.62-20.36,16.46-12.68,33.86-26.76,50.2-40.22Z"/>
    </g>
    <g>
      <path class="cls-4" d="M1194.34,231.02c3.2-8.86,6.38-20.56,8.88-29.65,19.08,27.47,40.79,65.38,59.3,93.24,6.06-13.88,10.91-28.13,14.52-42.83,11.32,14.81,24.92,31.57,35.55,46.88-11.49-29.56-26.13-57.25-40.55-85.49-3.34,10.69-7.32,21.63-10.67,32.31-18.85-32.16-38.27-62.34-57.12-94.51-4.54,11.16-9.38,21.77-12.85,33.31-20.66-29.92-41.76-59.08-61.46-89.64,18.76,45.3,45.51,91.79,64.4,136.38Z"/>
      <path class="cls-4" d="M1335.78,291.48c24.08-12.23,48.67-24.15,72.77-37.23-6.73-6.96-13.47-13.92-20.2-20.89-16.66,19-35.04,39.16-52.56,58.11Z"/>
      <path class="cls-4" d="M1322.16,269.06c5.9-14.89,12.23-29.84,17.7-45.11-7.15-.42-14.3-.85-21.45-1.27,1.5,14.96,2.72,31.1,3.75,46.38Z"/>
    </g>
  </g>
</svg>