<?xml version="1.0" encoding="UTF-8"?>
<svg id="Layer_1" data-name="Layer 1" xmlns="http://www.w3.org/2000/svg" viewBox="0 0 1003.7 675.82">
  <defs>
    <style>
      .cls-1 {
        fill: #e62a65;
        stroke-width: 0px;
      }
    </style>
  </defs>
  <path class="cls-1" d="M757.51,328.96c-46.64-6.3-92.41-16.25-135.5-35.97-41.3-18.91-71.74-48.34-88.42-91.34-12.47-32.14-18.35-65.64-21.94-99.65-3.37-31.96-8.52-88.49-8.79-91.44,0-.08-.02-.2-.03-.28v-.33c-.12-1.29-.98-9.95-.98-9.95,0,0,0,.04,0,.05,0,0,0-.05,0-.05,0,0-.86,8.67-.98,9.95l-.02.57s0,.03,0,.04c-.27,2.94-5.42,59.48-8.79,91.44-3.59,34-9.46,67.51-21.94,99.65-16.68,42.99-47.12,72.43-88.42,91.34-43.08,19.72-88.85,29.67-135.5,35.97-26.48,3.58-53.08,6.29-79.77,10.18,16.06,1.77,32.11,3.58,48.17,5.31,46.65,5.03,93.07,10.88,138.15,25.09,64.41,20.31,103.96,63.4,122,127.85,12.02,42.95,17.69,86.87,22.51,131,1.33,12.14,3.11,23.78,4.5,36.58.03.28.07.59.09.87,0-.01,0-.03,0-.04,0,.01,0,.03,0,.04.03-.28.07-.59.09-.87,1.39-12.8,3.18-24.44,4.5-36.58,4.82-44.13,10.49-88.05,22.51-131,18.03-64.45,57.59-107.55,122-127.85,45.08-14.21,91.49-20.07,138.15-25.09,16.06-1.73,32.11-3.54,48.17-5.31-26.69-3.89-53.29-6.61-79.77-10.18Z"/>
</svg>