<?xml version="1.0" encoding="UTF-8"?>
<svg id="Layer_1" data-name="Layer 1" xmlns="http://www.w3.org/2000/svg" viewBox="0 0 754.67 961.33">
  <defs>
    <style>
      .cls-1 {
        fill: #ffe500;
      }

      .cls-1, .cls-2, .cls-3 {
        stroke-width: 0px;
      }

      .cls-2 {
        fill: #000;
      }

      .cls-4 {
        fill: #ff5a85;
        stroke: #000;
        stroke-miterlimit: 10;
        stroke-width: 7.2px;
      }

      .cls-3 {
        fill: #fff;
      }
    </style>
  </defs>
  <ellipse class="cls-2" cx="369.55" cy="908.53" rx="270.13" ry="44.81"/>
  <g>
    <path class="cls-2" d="M323.74,526.87c-37.8,46.97-58.74,104.09-58.77,164.54,0,14.13,12.43,27.67,27.01,27.01,14.64-.66,27.01-11.87,27.01-27.01,0-8.86.63-17.61,1.4-26.43.38-3.15.37-3.21-.04-.18.24-1.71.5-3.42.78-5.13.44-2.68.92-5.34,1.45-8,1.24-6.21,2.74-12.36,4.49-18.44,3.78-13.15,8.34-24.76,14.63-36.67,3.2-6.06,6.67-11.97,10.42-17.71,1.66-2.55,3.37-5.06,5.14-7.54,1.15-1.62,2.32-3.22,3.52-4.81-1.23,1.59-.84,1.12,1.17-1.42,9.14-11.36,11.1-27.11,0-38.2-9.46-9.46-29.01-11.42-38.2,0h0Z"/>
    <path class="cls-4" d="M256.71,731.62v-31.75c0-6.01,2.92-11.7,7.93-15.02,6.21-4.12,15.73-8.46,27.74-7.82,9.82.53,17.55,4.18,22.86,7.74,4.99,3.34,7.9,9,7.9,15v42.45c0,5.36-2.34,10.46-6.45,13.9-4.56,3.82-11.32,7.87-19.96,8.53-15.52,1.17-31.22-9.08-38.56-25.85-.99-2.26-1.46-4.72-1.46-7.19Z"/>
    <path class="cls-4" d="M322.64,746.44l15.4,121.5c.5,3.95-.42,7.92-2.55,11.29-3.62,5.72-9.08,12.45-17.16,17.89-13.69,9.23-27.79,10.01-48.38,11.14-4.09.23-18.59.9-38.87-1.54-11.13-1.34-25-3.74-40.7-8.22-5.6-1.6-9.98-5.92-11.7-11.48-5.73-18.59-3.94-31.75-.83-40.73,7.68-22.15,26.43-27.42,42.7-55.61,8.54-14.8,12.29-28.8,14.13-38.44,5.64-13.15,17.54-22.15,30.44-22.74,17.32-.8,34.32,13.67,36.79,34.31,1.08-2.54,3.67-7.7,9.21-11.97,4.47-3.45,8.92-4.82,11.51-5.41Z"/>
    <path class="cls-2" d="M175.65,873.6c22.08,6.14,58.49,13.05,102.27,6.32,24.11-3.71,44.17-10.58,59.46-17.24l-2.48-19.55c-11.21,7.81-39.3,25.15-79.39,27.18-38.52,1.96-67.28-11.28-79.37-17.72-.16,7-.33,14-.49,21Z"/>
    <path class="cls-2" d="M276.76,802.92l2.19-4.53c2.32-4.81.94-10.65-3.39-13.78-4.05-2.93-9.19-5.96-15.45-8.27-4.92-1.81-36.98-12.94-53.83,5.53-11.52,12.63-8.71,31.18-8,35.22,2.13-3.33,10.17-15.02,25.15-18.73,12.44-3.08,25.89.28,36.67,8.65,5.52,4.29,13.62,2.2,16.66-4.09Z"/>
  </g>
  <g>
    <path class="cls-2" d="M427.7,526.87c37.8,46.97,58.74,104.09,58.77,164.54,0,14.13-12.43,27.67-27.01,27.01-14.64-.66-27.01-11.87-27.01-27.01,0-8.86-.63-17.61-1.4-26.43-.38-3.15-.37-3.21.04-.18-.24-1.71-.5-3.42-.78-5.13-.44-2.68-.92-5.34-1.45-8-1.24-6.21-2.74-12.36-4.49-18.44-3.78-13.15-8.34-24.76-14.63-36.67-3.2-6.06-6.67-11.97-10.42-17.71-1.66-2.55-3.37-5.06-5.14-7.54-1.15-1.62-2.32-3.22-3.52-4.81,1.23,1.59.84,1.12-1.17-1.42-9.14-11.36-11.1-27.11,0-38.2,9.46-9.46,29.01-11.42,38.2,0h0Z"/>
    <path class="cls-4" d="M494.73,731.62v-31.75c0-6.01-2.92-11.7-7.93-15.02-6.21-4.12-15.73-8.46-27.74-7.82-9.82.53-17.55,4.18-22.86,7.74-4.99,3.34-7.9,9-7.9,15v42.45c0,5.36,2.34,10.46,6.45,13.9,4.56,3.82,11.32,7.87,19.96,8.53,15.52,1.17,31.22-9.08,38.56-25.85.99-2.26,1.46-4.72,1.46-7.19Z"/>
    <path class="cls-4" d="M428.8,746.44l-15.4,121.5c-.5,3.95.42,7.92,2.55,11.29,3.62,5.72,9.08,12.45,17.16,17.89,13.69,9.23,27.79,10.01,48.38,11.14,4.09.23,18.59.9,38.87-1.54,11.13-1.34,25-3.74,40.7-8.22,5.6-1.6,9.98-5.92,11.7-11.48,5.73-18.59,3.94-31.75.83-40.73-7.68-22.15-26.43-27.42-42.7-55.61-8.54-14.8-12.29-28.8-14.13-38.44-5.64-13.15-17.54-22.15-30.44-22.74-17.32-.8-34.32,13.67-36.79,34.31-1.08-2.54-3.67-7.7-9.21-11.97-4.47-3.45-8.92-4.82-11.51-5.41Z"/>
    <path class="cls-2" d="M575.79,873.6c-22.08,6.14-58.49,13.05-102.27,6.32-24.11-3.71-44.17-10.58-59.46-17.24l2.48-19.55c11.21,7.81,39.3,25.15,79.39,27.18,38.52,1.96,67.28-11.28,79.37-17.72.16,7,.33,14,.49,21Z"/>
    <path class="cls-2" d="M474.68,802.92l-2.19-4.53c-2.32-4.81-.94-10.65,3.39-13.78,4.05-2.93,9.19-5.96,15.45-8.27,4.92-1.81,36.98-12.94,53.83,5.53,11.52,12.63,8.71,31.18,8,35.22-2.13-3.33-10.17-15.02-25.15-18.73-12.44-3.08-25.89.28-36.67,8.65-5.52,4.29-13.62,2.2-16.66-4.09Z"/>
  </g>
  <g>
    <polygon class="cls-2" points="744.25 175.42 482.37 400.57 605.78 477.96 177.95 714.08 111.28 683.03 275.21 468.71 180.08 432.29 293.37 30.45 367.27 7.33 744.25 175.42"/>
    <polygon class="cls-1" points="707.89 178.48 445.11 422.73 564.62 478.34 177.95 702.2 341.88 487.88 246.74 451.46 367.14 24.41 707.89 178.48"/>
  </g>
  <path class="cls-2" d="M479.97,402.33c-10.79-1.75-21.96-3.95-33.47-6.68-19.03-4.52-36.4-9.89-52-15.55-3.08-5.06-6.23-10.76-9.25-17.1-3.75-7.89-6.61-15.34-8.82-22.08-1.57-6.41-7.49-10.5-13.27-9.76-4.61.59-8.56,4.16-9.93,9.02-.62,5.45-.97,11.74-.71,18.71.19,5.2.69,9.97,1.34,14.25-61.68-21.06-71.78-14.93-74.01-11.1-1.19,2.04-.79,4.54-.66,5.3,2.58,15.19,38.05,19.6,42.01,20.06-.76,2.45-3.96,13.72,2.23,24.08,3.21,5.38,7.53,8.11,9.21,9.16,16.26,10.06,38.01-.5,40.36-1.68,17.48,6.81,37.05,13.36,58.61,18.97,25.01,6.51,52.46,10.66,76.76,13.23l-28.4-48.83Z"/>
  <path class="cls-2" d="M278.53,223.97c-27.99-.68-61.36-3.94-98.1-12.66-19.03-4.52-36.4-9.89-52-15.55-3.08-5.06-6.23-10.76-9.25-17.1-3.75-7.89-6.61-15.34-8.82-22.08-1.57-6.41-7.49-10.5-13.27-9.76-4.61.59-8.56,4.16-9.93,9.02-.62,5.45-.97,11.74-.71,18.71.19,5.2.69,9.97,1.34,14.25-61.68-21.06-71.78-14.93-74.01-11.1-1.19,2.04-.79,4.54-.66,5.3,2.58,15.19,38.05,19.6,42.01,20.06-.76,2.45-3.96,13.72,2.23,24.08,3.21,5.38,7.53,8.11,9.21,9.16,16.26,10.06,38.01-.5,40.36-1.68,17.48,6.81,37.05,13.36,58.61,18.97,38.51,10.02,82.8,14.46,112.48,16.12,3.23-15.26-2.71-30.49.52-45.74Z"/>
  <g>
    <path class="cls-2" d="M364.39,236.39c-4.07-1.01-8.2,1.63-8.88,5.77-7.6,46.16,23.77,89.68,66.29,96.59,38.07,6.18,77.65-18.19,90.5-57.89,1.29-3.98-1.12-8.21-5.18-9.22-47.58-11.75-95.15-23.5-142.73-35.26Z"/>
    <path class="cls-3" d="M408.71,316.49c-1.47-1.04-1.65-3.13-.4-4.42,4.44-4.55,12.87-11.62,25.42-14.74,18.54-4.6,33.98,2.42,40.49,6.13,1.58.9,1.95,3.01.77,4.4-4.62,5.39-16.14,16.47-34.18,17.79-15.32,1.12-26.82-5.43-32.1-9.16Z"/>
  </g>
</svg>