<?xml version="1.0" encoding="UTF-8"?>
<svg id="Layer_1" data-name="Layer 1" xmlns="http://www.w3.org/2000/svg" viewBox="0 0 1003.7 675.82">
  <defs>
    <style>
      .cls-1 {
        fill: #231f20;
      }

      .cls-1, .cls-2 {
        stroke-width: 0px;
      }

      .cls-2 {
        fill: #ffe600;
      }
    </style>
  </defs>
  <g>
    <path class="cls-1" d="M660.71,613.86c-2.73,0-5.37-1.15-7.23-3.15l-223.96-240.84-31.04,110.08c-1.08,3.84-4.35,6.64-8.31,7.12-.4.05-.8.07-1.2.07-3.54,0-6.83-1.91-8.58-4.99L182.91,135.2c-2.31-4.05-1.44-9.23,2.07-12.31,1.8-1.58,4.12-2.46,6.52-2.46,2.17,0,4.23.69,5.96,2l180.73,136.77,25.55-116.42c.73-3.35,3.21-6.13,6.46-7.24,1.03-.35,2.1-.53,3.18-.53,2.32,0,4.57.82,6.35,2.31l257.88,216.44c2.34,1.96,3.65,4.95,3.52,8l-10.55,242.65c-.17,3.99-2.71,7.46-6.45,8.84-1.1.4-2.25.61-3.42.61Z"/>
    <path class="cls-1" d="M663.18,613.86c-2.73,0-5.37-1.15-7.23-3.15l-223.96-240.84-31.04,110.08c-1.08,3.84-4.35,6.64-8.31,7.12-.4.05-.8.07-1.2.07-3.54,0-6.83-1.91-8.58-4.99L185.38,135.2c-2.31-4.05-1.44-9.23,2.07-12.31,1.8-1.58,4.12-2.46,6.52-2.46,2.17,0,4.23.69,5.96,2l180.73,136.77,25.55-116.42c.73-3.35,3.21-6.13,6.46-7.24,1.03-.35,2.1-.53,3.18-.53,2.32,0,4.57.82,6.35,2.31l257.88,216.44c2.34,1.96,3.65,4.95,3.52,8l-10.55,242.65c-.17,3.99-2.71,7.46-6.45,8.84-1.1.4-2.25.61-3.42.61Z"/>
    <path class="cls-1" d="M665.65,613.86c-2.73,0-5.37-1.15-7.23-3.15l-223.96-240.84-31.04,110.08c-1.08,3.84-4.35,6.64-8.31,7.12-.4.05-.8.07-1.2.07-3.54,0-6.83-1.91-8.58-4.99L187.85,135.2c-2.31-4.05-1.44-9.23,2.07-12.31,1.8-1.58,4.12-2.46,6.52-2.46,2.17,0,4.23.69,5.96,2l180.73,136.77,25.55-116.42c.73-3.35,3.21-6.13,6.46-7.24,1.03-.35,2.1-.53,3.18-.53,2.32,0,4.57.82,6.35,2.31l257.88,216.44c2.34,1.96,3.65,4.95,3.52,8l-10.55,242.65c-.17,3.99-2.71,7.46-6.45,8.84-1.1.4-2.25.61-3.42.61Z"/>
    <path class="cls-1" d="M668.12,613.86c-2.73,0-5.37-1.15-7.23-3.15l-223.96-240.84-31.04,110.08c-1.08,3.84-4.35,6.64-8.31,7.12-.4.05-.8.07-1.2.07-3.54,0-6.83-1.91-8.58-4.99L190.32,135.2c-2.31-4.05-1.44-9.23,2.07-12.31,1.8-1.58,4.12-2.46,6.52-2.46,2.17,0,4.23.69,5.96,2l180.73,136.77,25.55-116.42c.73-3.35,3.21-6.13,6.46-7.24,1.03-.35,2.1-.53,3.18-.53,2.32,0,4.57.82,6.35,2.31l257.88,216.44c2.34,1.96,3.65,4.95,3.52,8l-10.55,242.65c-.17,3.99-2.71,7.46-6.45,8.84-1.1.4-2.25.61-3.42.61Z"/>
    <path class="cls-1" d="M670.59,613.86c-2.73,0-5.37-1.15-7.23-3.15l-223.96-240.84-31.04,110.08c-1.08,3.84-4.35,6.64-8.31,7.12-.4.05-.8.07-1.2.07-3.54,0-6.83-1.91-8.58-4.99L192.79,135.2c-2.31-4.05-1.44-9.23,2.07-12.31,1.8-1.58,4.12-2.46,6.52-2.46,2.17,0,4.23.69,5.96,2l180.73,136.77,25.55-116.42c.73-3.35,3.21-6.13,6.46-7.24,1.03-.35,2.1-.53,3.18-.53,2.32,0,4.57.82,6.35,2.31l257.88,216.44c2.34,1.96,3.65,4.95,3.52,8l-10.55,242.65c-.17,3.99-2.71,7.46-6.45,8.84-1.1.4-2.25.61-3.42.61Z"/>
    <path class="cls-1" d="M673.06,613.86c-2.73,0-5.37-1.15-7.23-3.15l-223.96-240.84-31.04,110.08c-1.08,3.84-4.35,6.64-8.31,7.12-.4.05-.8.07-1.2.07-3.54,0-6.83-1.91-8.58-4.99L195.26,135.2c-2.31-4.05-1.44-9.23,2.07-12.31,1.8-1.58,4.12-2.46,6.52-2.46,2.17,0,4.23.69,5.96,2l180.73,136.77,25.55-116.42c.73-3.35,3.21-6.13,6.46-7.24,1.03-.35,2.1-.53,3.18-.53,2.32,0,4.57.82,6.35,2.31l257.88,216.44c2.34,1.96,3.65,4.95,3.52,8l-10.55,242.65c-.17,3.99-2.71,7.46-6.45,8.84-1.1.4-2.25.61-3.42.61Z"/>
    <path class="cls-1" d="M675.53,613.86c-2.73,0-5.37-1.15-7.23-3.15l-223.96-240.84-31.04,110.08c-1.08,3.84-4.35,6.64-8.31,7.12-.4.05-.8.07-1.2.07-3.54,0-6.83-1.91-8.58-4.99L197.73,135.2c-2.31-4.05-1.44-9.23,2.07-12.31,1.8-1.58,4.12-2.46,6.52-2.46,2.17,0,4.23.69,5.96,2l180.73,136.77,25.55-116.42c.73-3.35,3.21-6.13,6.46-7.24,1.03-.35,2.1-.53,3.18-.53,2.32,0,4.57.82,6.35,2.31l257.88,216.44c2.34,1.96,3.65,4.95,3.52,8l-10.55,242.65c-.17,3.99-2.71,7.46-6.45,8.84-1.1.4-2.25.61-3.42.61Z"/>
    <path class="cls-1" d="M678,613.86c-2.73,0-5.37-1.15-7.23-3.15l-223.96-240.84-31.04,110.08c-1.08,3.84-4.35,6.64-8.31,7.12-.4.05-.8.07-1.2.07-3.54,0-6.83-1.91-8.58-4.99L200.2,135.2c-2.31-4.05-1.44-9.23,2.07-12.31,1.8-1.58,4.12-2.46,6.52-2.46,2.17,0,4.23.69,5.96,2l180.73,136.77,25.55-116.42c.73-3.35,3.21-6.13,6.46-7.24,1.03-.35,2.1-.53,3.18-.53,2.32,0,4.57.82,6.35,2.31l257.88,216.44c2.34,1.96,3.65,4.95,3.52,8l-10.55,242.65c-.17,3.99-2.71,7.46-6.45,8.84-1.1.4-2.25.61-3.42.61Z"/>
    <path class="cls-1" d="M680.47,613.86c-2.73,0-5.37-1.15-7.23-3.15l-223.96-240.84-31.04,110.08c-1.08,3.84-4.35,6.64-8.31,7.12-.4.05-.8.07-1.2.07-3.54,0-6.83-1.91-8.58-4.99L202.67,135.2c-2.31-4.05-1.44-9.23,2.07-12.31,1.8-1.58,4.12-2.46,6.52-2.46,2.17,0,4.23.69,5.96,2l180.73,136.77,25.55-116.42c.73-3.35,3.21-6.13,6.46-7.24,1.03-.35,2.1-.53,3.18-.53,2.32,0,4.57.82,6.35,2.31l257.88,216.44c2.34,1.96,3.65,4.95,3.52,8l-10.55,242.65c-.17,3.99-2.71,7.46-6.45,8.84-1.1.4-2.25.61-3.42.61Z"/>
    <path class="cls-1" d="M682.94,613.86c-2.73,0-5.37-1.15-7.23-3.15l-223.96-240.84-31.04,110.08c-1.08,3.84-4.35,6.64-8.31,7.12-.4.05-.8.07-1.2.07-3.54,0-6.83-1.91-8.58-4.99L205.14,135.2c-2.31-4.05-1.44-9.23,2.07-12.31,1.8-1.58,4.12-2.46,6.52-2.46,2.17,0,4.23.69,5.96,2l180.73,136.77,25.55-116.42c.73-3.35,3.21-6.13,6.46-7.24,1.03-.35,2.1-.53,3.18-.53,2.32,0,4.57.82,6.35,2.31l257.88,216.44c2.34,1.96,3.65,4.95,3.52,8l-10.55,242.65c-.17,3.99-2.71,7.46-6.45,8.84-1.1.4-2.25.61-3.42.61Z"/>
    <path class="cls-1" d="M685.41,613.86c-2.73,0-5.37-1.15-7.23-3.15l-223.96-240.84-31.04,110.08c-1.08,3.84-4.35,6.64-8.31,7.12-.4.05-.8.07-1.2.07-3.54,0-6.83-1.91-8.58-4.99L207.61,135.2c-2.31-4.05-1.44-9.23,2.07-12.31,1.8-1.58,4.12-2.46,6.52-2.46,2.17,0,4.23.69,5.96,2l180.73,136.77,25.55-116.42c.73-3.35,3.21-6.13,6.46-7.24,1.03-.35,2.1-.53,3.18-.53,2.32,0,4.57.82,6.35,2.31l257.88,216.44c2.34,1.96,3.65,4.95,3.52,8l-10.55,242.65c-.17,3.99-2.71,7.46-6.45,8.84-1.1.4-2.25.61-3.42.61Z"/>
    <path class="cls-1" d="M687.88,613.86c-2.73,0-5.37-1.15-7.23-3.15l-223.96-240.84-31.04,110.08c-1.08,3.84-4.35,6.64-8.31,7.12-.4.05-.8.07-1.2.07-3.54,0-6.83-1.91-8.58-4.99L210.08,135.2c-2.31-4.05-1.44-9.23,2.07-12.31,1.8-1.58,4.12-2.46,6.52-2.46,2.17,0,4.23.69,5.96,2l180.73,136.77,25.55-116.42c.73-3.35,3.21-6.13,6.46-7.24,1.03-.35,2.1-.53,3.18-.53,2.32,0,4.57.82,6.35,2.31l257.88,216.44c2.34,1.96,3.65,4.95,3.52,8l-10.55,242.65c-.17,3.99-2.71,7.46-6.45,8.84-1.1.4-2.25.61-3.42.61Z"/>
    <path class="cls-1" d="M690.35,613.86c-2.73,0-5.37-1.15-7.23-3.15l-223.96-240.84-31.04,110.08c-1.08,3.84-4.35,6.64-8.31,7.12-.4.05-.8.07-1.2.07-3.54,0-6.83-1.91-8.58-4.99L212.55,135.2c-2.31-4.05-1.44-9.23,2.07-12.31,1.8-1.58,4.12-2.46,6.52-2.46,2.17,0,4.23.69,5.96,2l180.73,136.77,25.55-116.42c.73-3.35,3.21-6.13,6.46-7.24,1.03-.35,2.1-.53,3.18-.53,2.32,0,4.57.82,6.35,2.31l257.88,216.44c2.34,1.96,3.65,4.95,3.52,8l-10.55,242.65c-.17,3.99-2.71,7.46-6.45,8.84-1.1.4-2.25.61-3.42.61Z"/>
    <path class="cls-1" d="M692.82,613.86c-2.73,0-5.37-1.15-7.23-3.15l-223.96-240.84-31.04,110.08c-1.08,3.84-4.35,6.64-8.31,7.12-.4.05-.8.07-1.2.07-3.54,0-6.83-1.91-8.58-4.99L215.02,135.2c-2.31-4.05-1.44-9.23,2.07-12.31,1.8-1.58,4.12-2.46,6.52-2.46,2.17,0,4.23.69,5.96,2l180.73,136.77,25.55-116.42c.73-3.35,3.21-6.13,6.46-7.24,1.03-.35,2.1-.53,3.18-.53,2.32,0,4.57.82,6.35,2.31l257.88,216.44c2.34,1.96,3.65,4.95,3.52,8l-10.55,242.65c-.17,3.99-2.71,7.46-6.45,8.84-1.1.4-2.25.61-3.42.61Z"/>
    <path class="cls-1" d="M695.29,613.86c-2.73,0-5.37-1.15-7.23-3.15l-223.96-240.84-31.04,110.08c-1.08,3.84-4.35,6.64-8.31,7.12-.4.05-.8.07-1.2.07-3.54,0-6.83-1.91-8.58-4.99L217.49,135.2c-2.31-4.05-1.44-9.23,2.07-12.31,1.8-1.58,4.12-2.46,6.52-2.46,2.17,0,4.23.69,5.96,2l180.73,136.77,25.55-116.42c.73-3.35,3.21-6.13,6.46-7.24,1.03-.35,2.1-.53,3.18-.53,2.32,0,4.57.82,6.35,2.31l257.88,216.44c2.34,1.96,3.65,4.95,3.52,8l-10.55,242.65c-.17,3.99-2.71,7.46-6.45,8.84-1.1.4-2.25.61-3.42.61Z"/>
    <path class="cls-1" d="M697.76,613.86c-2.73,0-5.37-1.15-7.23-3.15l-223.96-240.84-31.04,110.08c-1.08,3.84-4.35,6.64-8.31,7.12-.4.05-.8.07-1.2.07-3.54,0-6.83-1.91-8.58-4.99L219.96,135.2c-2.31-4.05-1.44-9.23,2.07-12.31,1.8-1.58,4.12-2.46,6.52-2.46,2.17,0,4.23.69,5.96,2l180.73,136.77,25.55-116.42c.73-3.35,3.21-6.13,6.46-7.24,1.03-.35,2.1-.53,3.18-.53,2.32,0,4.57.82,6.35,2.31l257.88,216.44c2.34,1.96,3.65,4.95,3.52,8l-10.55,242.65c-.17,3.99-2.71,7.46-6.45,8.84-1.1.4-2.25.61-3.42.61Z"/>
    <path class="cls-1" d="M700.23,613.86c-2.73,0-5.37-1.15-7.23-3.15l-223.96-240.84-31.04,110.08c-1.08,3.84-4.35,6.64-8.31,7.12-.4.05-.8.07-1.2.07-3.54,0-6.83-1.91-8.58-4.99L222.43,135.2c-2.31-4.05-1.44-9.23,2.07-12.31,1.8-1.58,4.12-2.46,6.52-2.46,2.17,0,4.23.69,5.96,2l180.73,136.77,25.55-116.42c.73-3.35,3.21-6.13,6.46-7.24,1.03-.35,2.1-.53,3.18-.53,2.32,0,4.57.82,6.35,2.31l257.88,216.44c2.34,1.96,3.65,4.95,3.52,8l-10.55,242.65c-.17,3.99-2.71,7.46-6.45,8.84-1.1.4-2.25.61-3.42.61Z"/>
    <path class="cls-1" d="M702.7,613.86c-2.73,0-5.37-1.15-7.23-3.15l-223.96-240.84-31.04,110.08c-1.08,3.84-4.35,6.64-8.31,7.12-.4.05-.8.07-1.2.07-3.54,0-6.83-1.91-8.58-4.99L224.9,135.2c-2.31-4.05-1.44-9.23,2.07-12.31,1.8-1.58,4.12-2.46,6.52-2.46,2.17,0,4.23.69,5.96,2l180.73,136.77,25.55-116.42c.73-3.35,3.21-6.13,6.46-7.24,1.03-.35,2.1-.53,3.18-.53,2.32,0,4.57.82,6.35,2.31l257.88,216.44c2.34,1.96,3.65,4.95,3.52,8l-10.55,242.65c-.17,3.99-2.71,7.46-6.45,8.84-1.1.4-2.25.61-3.42.61Z"/>
    <path class="cls-1" d="M705.17,613.86c-2.73,0-5.37-1.15-7.23-3.15l-223.96-240.84-31.04,110.08c-1.08,3.84-4.35,6.64-8.31,7.12-.4.05-.8.07-1.2.07-3.54,0-6.83-1.91-8.58-4.99L227.37,135.2c-2.31-4.05-1.44-9.23,2.07-12.31,1.8-1.58,4.12-2.46,6.52-2.46,2.17,0,4.23.69,5.96,2l180.73,136.77,25.55-116.42c.73-3.35,3.21-6.13,6.46-7.24,1.03-.35,2.1-.53,3.18-.53,2.32,0,4.57.82,6.35,2.31l257.88,216.44c2.34,1.96,3.65,4.95,3.52,8l-10.55,242.65c-.17,3.99-2.71,7.46-6.45,8.84-1.1.4-2.25.61-3.42.61Z"/>
    <path class="cls-1" d="M707.64,613.86c-2.73,0-5.37-1.15-7.23-3.15l-223.96-240.84-31.04,110.08c-1.08,3.84-4.35,6.64-8.31,7.12-.4.05-.8.07-1.2.07-3.54,0-6.83-1.91-8.58-4.99L229.84,135.2c-2.31-4.05-1.44-9.23,2.07-12.31,1.8-1.58,4.12-2.46,6.52-2.46,2.17,0,4.23.69,5.96,2l180.73,136.77,25.55-116.42c.73-3.35,3.21-6.13,6.46-7.24,1.03-.35,2.1-.53,3.18-.53,2.32,0,4.57.82,6.35,2.31l257.88,216.44c2.34,1.96,3.65,4.95,3.52,8l-10.55,242.65c-.17,3.99-2.71,7.46-6.45,8.84-1.1.4-2.25.61-3.42.61Z"/>
    <path class="cls-1" d="M710.11,613.86c-2.73,0-5.37-1.15-7.23-3.15l-223.96-240.84-31.04,110.08c-1.08,3.84-4.35,6.64-8.31,7.12-.4.05-.8.07-1.2.07-3.54,0-6.83-1.91-8.58-4.99L232.31,135.2c-2.31-4.05-1.44-9.23,2.07-12.31,1.8-1.58,4.12-2.46,6.52-2.46,2.17,0,4.23.69,5.96,2l180.73,136.77,25.55-116.42c.73-3.35,3.21-6.13,6.46-7.24,1.03-.35,2.1-.53,3.18-.53,2.32,0,4.57.82,6.35,2.31l257.88,216.44c2.34,1.96,3.65,4.95,3.52,8l-10.55,242.65c-.17,3.99-2.71,7.46-6.45,8.84-1.1.4-2.25.61-3.42.61Z"/>
    <path class="cls-1" d="M712.58,613.86c-2.73,0-5.37-1.15-7.23-3.15l-223.96-240.84-31.04,110.08c-1.08,3.84-4.35,6.64-8.31,7.12-.4.05-.8.07-1.2.07-3.54,0-6.83-1.91-8.58-4.99L234.78,135.2c-2.31-4.05-1.44-9.23,2.07-12.31,1.8-1.58,4.12-2.46,6.52-2.46,2.17,0,4.23.69,5.96,2l180.73,136.77,25.55-116.42c.73-3.35,3.21-6.13,6.46-7.24,1.03-.35,2.1-.53,3.18-.53,2.32,0,4.57.82,6.35,2.31l257.88,216.44c2.34,1.96,3.65,4.95,3.52,8l-10.55,242.65c-.17,3.99-2.71,7.46-6.45,8.84-1.1.4-2.25.61-3.42.61Z"/>
    <path class="cls-1" d="M715.05,613.86c-2.73,0-5.37-1.15-7.23-3.15l-223.96-240.84-31.04,110.08c-1.08,3.84-4.35,6.64-8.31,7.12-.4.05-.8.07-1.2.07-3.54,0-6.83-1.91-8.58-4.99L237.25,135.2c-2.31-4.05-1.44-9.23,2.07-12.31,1.8-1.58,4.12-2.46,6.52-2.46,2.17,0,4.23.69,5.96,2l180.73,136.77,25.55-116.42c.73-3.35,3.21-6.13,6.46-7.24,1.03-.35,2.1-.53,3.18-.53,2.32,0,4.57.82,6.35,2.31l257.88,216.44c2.34,1.96,3.65,4.95,3.52,8l-10.55,242.65c-.17,3.99-2.71,7.46-6.45,8.84-1.1.4-2.25.61-3.42.61Z"/>
    <path class="cls-1" d="M717.52,613.86c-2.73,0-5.37-1.15-7.23-3.15l-223.96-240.84-31.04,110.08c-1.08,3.84-4.35,6.64-8.31,7.12-.4.05-.8.07-1.2.07-3.54,0-6.83-1.91-8.58-4.99L239.72,135.2c-2.31-4.05-1.44-9.23,2.07-12.31,1.8-1.58,4.12-2.46,6.52-2.46,2.17,0,4.23.69,5.96,2l180.73,136.77,25.55-116.42c.73-3.35,3.21-6.13,6.46-7.24,1.03-.35,2.1-.53,3.18-.53,2.32,0,4.57.82,6.35,2.31l257.88,216.44c2.34,1.96,3.65,4.95,3.52,8l-10.55,242.65c-.17,3.99-2.71,7.46-6.45,8.84-1.1.4-2.25.61-3.42.61Z"/>
    <path class="cls-1" d="M719.98,613.86c-2.73,0-5.37-1.15-7.23-3.15l-223.96-240.84-31.04,110.08c-1.08,3.84-4.35,6.64-8.31,7.12-.4.05-.8.07-1.2.07-3.54,0-6.83-1.91-8.58-4.99L242.19,135.2c-2.31-4.05-1.44-9.23,2.07-12.31,1.8-1.58,4.12-2.46,6.52-2.46,2.17,0,4.23.69,5.96,2l180.73,136.77,25.55-116.42c.73-3.35,3.21-6.13,6.46-7.24,1.03-.35,2.1-.53,3.18-.53,2.32,0,4.57.82,6.35,2.31l257.88,216.44c2.34,1.96,3.65,4.95,3.52,8l-10.55,242.65c-.17,3.99-2.71,7.46-6.45,8.84-1.1.4-2.25.61-3.42.61Z"/>
    <path class="cls-1" d="M722.45,613.86c-2.73,0-5.37-1.15-7.23-3.15l-223.96-240.84-31.04,110.08c-1.08,3.84-4.35,6.64-8.31,7.12-.4.05-.8.07-1.2.07-3.54,0-6.83-1.91-8.58-4.99L244.66,135.2c-2.31-4.05-1.44-9.23,2.07-12.31,1.8-1.58,4.12-2.46,6.52-2.46,2.17,0,4.23.69,5.96,2l180.73,136.77,25.55-116.42c.73-3.35,3.21-6.13,6.46-7.24,1.03-.35,2.1-.53,3.18-.53,2.32,0,4.57.82,6.35,2.31l257.88,216.44c2.34,1.96,3.65,4.95,3.52,8l-10.55,242.65c-.17,3.99-2.71,7.46-6.45,8.84-1.1.4-2.25.61-3.42.61Z"/>
    <path class="cls-1" d="M724.92,613.86c-2.73,0-5.37-1.15-7.23-3.15l-223.96-240.84-31.04,110.08c-1.08,3.84-4.35,6.64-8.31,7.12-.4.05-.8.07-1.2.07-3.54,0-6.83-1.91-8.58-4.99L247.12,135.2c-2.31-4.05-1.44-9.23,2.07-12.31,1.8-1.58,4.12-2.46,6.52-2.46,2.17,0,4.23.69,5.96,2l180.73,136.77,25.55-116.42c.73-3.35,3.21-6.13,6.46-7.24,1.03-.35,2.1-.53,3.18-.53,2.32,0,4.57.82,6.35,2.31l257.88,216.44c2.34,1.96,3.65,4.95,3.52,8l-10.55,242.65c-.17,3.99-2.71,7.46-6.45,8.84-1.1.4-2.25.61-3.42.61Z"/>
    <path class="cls-1" d="M727.39,613.86c-2.73,0-5.37-1.15-7.23-3.15l-223.96-240.84-31.04,110.08c-1.08,3.84-4.35,6.64-8.31,7.12-.4.05-.8.07-1.2.07-3.54,0-6.83-1.91-8.58-4.99L249.59,135.2c-2.31-4.05-1.44-9.23,2.07-12.31,1.8-1.58,4.12-2.46,6.52-2.46,2.17,0,4.23.69,5.96,2l180.73,136.77,25.55-116.42c.73-3.35,3.21-6.13,6.46-7.24,1.03-.35,2.1-.53,3.18-.53,2.32,0,4.57.82,6.35,2.31l257.88,216.44c2.34,1.96,3.65,4.95,3.52,8l-10.55,242.65c-.17,3.99-2.71,7.46-6.45,8.84-1.1.4-2.25.61-3.42.61Z"/>
    <path class="cls-1" d="M729.86,613.86c-2.73,0-5.37-1.15-7.23-3.15l-223.96-240.84-31.04,110.08c-1.08,3.84-4.35,6.64-8.31,7.12-.4.05-.8.07-1.2.07-3.54,0-6.83-1.91-8.58-4.99L252.06,135.2c-2.31-4.05-1.44-9.23,2.07-12.31,1.8-1.58,4.12-2.46,6.52-2.46,2.17,0,4.23.69,5.96,2l180.73,136.77,25.55-116.42c.73-3.35,3.21-6.13,6.46-7.24,1.03-.35,2.1-.53,3.18-.53,2.32,0,4.57.82,6.35,2.31l257.88,216.44c2.34,1.96,3.65,4.95,3.52,8l-10.55,242.65c-.17,3.99-2.71,7.46-6.45,8.84-1.1.4-2.25.61-3.42.61Z"/>
    <path class="cls-1" d="M732.33,613.86c-2.73,0-5.37-1.15-7.23-3.15l-223.96-240.84-31.04,110.08c-1.08,3.84-4.35,6.64-8.31,7.12-.4.05-.8.07-1.2.07-3.54,0-6.83-1.91-8.58-4.99L254.53,135.2c-2.31-4.05-1.44-9.23,2.07-12.31,1.8-1.58,4.12-2.46,6.52-2.46,2.17,0,4.23.69,5.96,2l180.73,136.77,25.55-116.42c.73-3.35,3.21-6.13,6.46-7.24,1.03-.35,2.1-.53,3.18-.53,2.32,0,4.57.82,6.35,2.31l257.88,216.44c2.34,1.96,3.65,4.95,3.52,8l-10.55,242.65c-.17,3.99-2.71,7.46-6.45,8.84-1.1.4-2.25.61-3.42.61Z"/>
    <path class="cls-1" d="M734.8,613.86c-2.73,0-5.37-1.15-7.23-3.15l-223.96-240.84-31.04,110.08c-1.08,3.84-4.35,6.64-8.31,7.12-.4.05-.8.07-1.2.07-3.54,0-6.83-1.91-8.58-4.99l-197.48-346.96c-2.31-4.05-1.44-9.23,2.07-12.31,1.8-1.58,4.12-2.46,6.52-2.46,2.17,0,4.23.69,5.96,2l180.73,136.77,25.55-116.42c.73-3.35,3.21-6.13,6.46-7.24,1.03-.35,2.1-.53,3.18-.53,2.32,0,4.57.82,6.35,2.31l257.88,216.44c2.34,1.96,3.65,4.95,3.52,8l-10.55,242.65c-.17,3.99-2.71,7.46-6.45,8.84-1.1.4-2.25.61-3.42.61Z"/>
    <path class="cls-1" d="M737.27,613.86c-2.73,0-5.37-1.15-7.23-3.15l-223.96-240.84-31.04,110.08c-1.08,3.84-4.35,6.64-8.31,7.12-.4.05-.8.07-1.2.07-3.54,0-6.83-1.91-8.58-4.99l-197.48-346.96c-2.31-4.05-1.44-9.23,2.07-12.31,1.8-1.58,4.12-2.46,6.52-2.46,2.17,0,4.23.69,5.96,2l180.73,136.77,25.55-116.42c.73-3.35,3.21-6.13,6.46-7.24,1.03-.35,2.1-.53,3.18-.53,2.32,0,4.57.82,6.35,2.31l257.88,216.44c2.34,1.96,3.65,4.95,3.52,8l-10.55,242.65c-.17,3.99-2.71,7.46-6.45,8.84-1.1.4-2.25.61-3.42.61Z"/>
    <path class="cls-1" d="M739.74,613.86c-2.73,0-5.37-1.15-7.23-3.15l-223.96-240.84-31.04,110.08c-1.08,3.84-4.35,6.64-8.31,7.12-.4.05-.8.07-1.2.07-3.54,0-6.83-1.91-8.58-4.99l-197.48-346.96c-2.31-4.05-1.44-9.23,2.07-12.31,1.8-1.58,4.12-2.46,6.52-2.46,2.17,0,4.23.69,5.96,2l180.73,136.77,25.55-116.42c.73-3.35,3.21-6.13,6.46-7.24,1.03-.35,2.1-.53,3.18-.53,2.32,0,4.57.82,6.35,2.31l257.88,216.44c2.34,1.96,3.65,4.95,3.52,8l-10.55,242.65c-.17,3.99-2.71,7.46-6.45,8.84-1.1.4-2.25.61-3.42.61Z"/>
    <path class="cls-1" d="M742.21,613.86c-2.73,0-5.37-1.15-7.23-3.15l-223.96-240.84-31.04,110.08c-1.08,3.84-4.35,6.64-8.31,7.12-.4.05-.8.07-1.2.07-3.54,0-6.83-1.91-8.58-4.99l-197.48-346.96c-2.31-4.05-1.44-9.23,2.07-12.31,1.8-1.58,4.12-2.46,6.52-2.46,2.17,0,4.23.69,5.96,2l180.73,136.77,25.55-116.42c.73-3.35,3.21-6.13,6.46-7.24,1.03-.35,2.1-.53,3.18-.53,2.32,0,4.57.82,6.35,2.31l257.88,216.44c2.34,1.96,3.65,4.95,3.52,8l-10.55,242.65c-.17,3.99-2.71,7.46-6.45,8.84-1.1.4-2.25.61-3.42.61Z"/>
    <path class="cls-1" d="M744.68,613.86c-2.73,0-5.37-1.15-7.23-3.15l-223.96-240.84-31.04,110.08c-1.08,3.84-4.35,6.64-8.31,7.12-.4.05-.8.07-1.2.07-3.54,0-6.83-1.91-8.58-4.99l-197.48-346.96c-2.31-4.05-1.44-9.23,2.07-12.31,1.8-1.58,4.12-2.46,6.52-2.46,2.17,0,4.23.69,5.96,2l180.73,136.77,25.55-116.42c.73-3.35,3.21-6.13,6.46-7.24,1.03-.35,2.1-.53,3.18-.53,2.32,0,4.57.82,6.35,2.31l257.88,216.44c2.34,1.96,3.65,4.95,3.52,8l-10.55,242.65c-.17,3.99-2.71,7.46-6.45,8.84-1.1.4-2.25.61-3.42.61Z"/>
    <path class="cls-1" d="M747.15,613.86c-2.73,0-5.37-1.15-7.23-3.15l-223.96-240.84-31.04,110.08c-1.08,3.84-4.35,6.64-8.31,7.12-.4.05-.8.07-1.2.07-3.54,0-6.83-1.91-8.58-4.99l-197.48-346.96c-2.31-4.05-1.44-9.23,2.07-12.31,1.8-1.58,4.12-2.46,6.52-2.46,2.17,0,4.23.69,5.96,2l180.73,136.77,25.55-116.42c.73-3.35,3.21-6.13,6.46-7.24,1.03-.35,2.1-.53,3.18-.53,2.32,0,4.57.82,6.35,2.31l257.88,216.44c2.34,1.96,3.65,4.95,3.52,8l-10.55,242.65c-.17,3.99-2.71,7.46-6.45,8.84-1.1.4-2.25.61-3.42.61Z"/>
    <path class="cls-1" d="M749.62,613.86c-2.73,0-5.37-1.15-7.23-3.15l-223.96-240.84-31.04,110.08c-1.08,3.84-4.35,6.64-8.31,7.12-.4.05-.8.07-1.2.07-3.54,0-6.83-1.91-8.58-4.99l-197.48-346.96c-2.31-4.05-1.44-9.23,2.07-12.31,1.8-1.58,4.12-2.46,6.52-2.46,2.17,0,4.23.69,5.96,2l180.73,136.77,25.55-116.42c.73-3.35,3.21-6.13,6.46-7.24,1.03-.35,2.1-.53,3.18-.53,2.32,0,4.57.82,6.35,2.31l257.88,216.44c2.34,1.96,3.65,4.95,3.52,8l-10.55,242.65c-.17,3.99-2.71,7.46-6.45,8.84-1.1.4-2.25.61-3.42.61Z"/>
    <path class="cls-1" d="M752.09,613.86c-2.73,0-5.37-1.15-7.23-3.15l-223.96-240.84-31.04,110.08c-1.08,3.84-4.35,6.64-8.31,7.12-.4.05-.8.07-1.2.07-3.54,0-6.83-1.91-8.58-4.99l-197.48-346.96c-2.31-4.05-1.44-9.23,2.07-12.31,1.8-1.58,4.12-2.46,6.52-2.46,2.17,0,4.23.69,5.96,2l180.73,136.77,25.55-116.42c.73-3.35,3.21-6.13,6.46-7.24,1.03-.35,2.1-.53,3.18-.53,2.32,0,4.57.82,6.35,2.31l257.88,216.44c2.34,1.96,3.65,4.95,3.52,8l-10.55,242.65c-.17,3.99-2.71,7.46-6.45,8.84-1.1.4-2.25.61-3.42.61Z"/>
    <path class="cls-1" d="M754.56,613.86c-2.73,0-5.37-1.15-7.23-3.15l-223.96-240.84-31.04,110.08c-1.08,3.84-4.35,6.64-8.31,7.12-.4.05-.8.07-1.2.07-3.54,0-6.83-1.91-8.58-4.99l-197.48-346.96c-2.31-4.05-1.44-9.23,2.07-12.31,1.8-1.58,4.12-2.46,6.52-2.46,2.17,0,4.23.69,5.96,2l180.73,136.77,25.55-116.42c.73-3.35,3.21-6.13,6.46-7.24,1.03-.35,2.1-.53,3.18-.53,2.32,0,4.57.82,6.35,2.31l257.88,216.44c2.34,1.96,3.65,4.95,3.52,8l-10.55,242.65c-.17,3.99-2.71,7.46-6.45,8.84-1.1.4-2.25.61-3.42.61Z"/>
    <path class="cls-1" d="M757.03,613.86c-2.73,0-5.37-1.15-7.23-3.15l-223.96-240.84-31.04,110.08c-1.08,3.84-4.35,6.64-8.31,7.12-.4.05-.8.07-1.2.07-3.54,0-6.83-1.91-8.58-4.99l-197.48-346.96c-2.31-4.05-1.44-9.23,2.07-12.31,1.8-1.58,4.12-2.46,6.52-2.46,2.17,0,4.23.69,5.96,2l180.73,136.77,25.55-116.42c.73-3.35,3.21-6.13,6.46-7.24,1.03-.35,2.1-.53,3.18-.53,2.32,0,4.57.82,6.35,2.31l257.88,216.44c2.34,1.96,3.65,4.95,3.52,8l-10.55,242.65c-.17,3.99-2.71,7.46-6.45,8.84-1.1.4-2.25.61-3.42.61Z"/>
    <path class="cls-1" d="M759.5,613.86c-2.73,0-5.37-1.15-7.23-3.15l-223.96-240.84-31.04,110.08c-1.08,3.84-4.35,6.64-8.31,7.12-.4.05-.8.07-1.2.07-3.54,0-6.83-1.91-8.58-4.99l-197.48-346.96c-2.31-4.05-1.44-9.23,2.07-12.31,1.8-1.58,4.12-2.46,6.52-2.46,2.17,0,4.23.69,5.96,2l180.73,136.77,25.55-116.42c.73-3.35,3.21-6.13,6.46-7.24,1.03-.35,2.1-.53,3.18-.53,2.32,0,4.57.82,6.35,2.31l257.88,216.44c2.34,1.96,3.65,4.95,3.52,8l-10.55,242.65c-.17,3.99-2.71,7.46-6.45,8.84-1.1.4-2.25.61-3.42.61Z"/>
  </g>
  <path class="cls-2" d="M759.5,608.92c-1.35,0-2.67-.55-3.62-1.57l-229.94-247.28-33.42,118.55c-.54,1.92-2.18,3.32-4.16,3.56-.2.02-.4.04-.6.04-1.76,0-3.41-.94-4.29-2.5l-197.48-346.96c-1.16-2.04-.73-4.61,1.03-6.15.93-.82,2.09-1.23,3.26-1.23,1.05,0,2.1.33,2.98,1l186.88,141.42,27.2-123.96c.37-1.69,1.59-3.06,3.23-3.62.52-.18,1.06-.26,1.59-.26,1.15,0,2.27.4,3.18,1.16l257.88,216.43c1.17.99,1.83,2.46,1.76,4l-10.55,242.65c-.09,1.99-1.36,3.73-3.23,4.42-.56.21-1.13.3-1.71.3Z"/>
</svg>