<?xml version="1.0" encoding="UTF-8"?>
<svg id="Layer_1" data-name="Layer 1" xmlns="http://www.w3.org/2000/svg" viewBox="0 0 1021.67 984.7">
  <defs>
    <style>
      .cls-1 {
        fill: #ffe600;
        stroke-width: 0px;
      }
    </style>
  </defs>
  <path class="cls-1" d="M498.12,28.06h89c18,80.33,0,160.67-54,241h-35c16.9-82.28,17.77-162.71,0-241Z"/>
  <path class="cls-1" d="M268.82,94.33l77.08-44.5c55.76,60.57,80.33,139.14,73.73,235.71l-30.31,17.5c-26.5-79.71-65.97-149.79-120.5-208.71Z"/>
  <path class="cls-1" d="M103.38,266.36l44.5-77.08c78.57,24.58,139.14,80.33,181.71,167.27l-17.5,30.31c-62.8-55.78-132.03-96.74-208.71-120.5Z"/>
  <path class="cls-1" d="M46.12,498.06v-89c80.33-18,160.67,0,241,54v35c-82.28-16.9-162.71-17.77-241,0Z"/>
  <path class="cls-1" d="M112.38,727.36l-44.5-77.08c60.57-55.76,139.14-80.33,235.71-73.73l17.5,30.31c-79.71,26.5-149.79,65.97-208.71,120.5Z"/>
  <path class="cls-1" d="M284.41,892.8l-77.08-44.5c24.58-78.57,80.33-139.14,167.27-181.71l30.31,17.5c-55.78,62.8-96.74,132.03-120.5,208.71Z"/>
  <path class="cls-1" d="M516.12,950.06h-89c-18-80.33,0-160.67,54-241h35c-16.9,82.28-17.77,162.71,0,241Z"/>
  <path class="cls-1" d="M745.41,883.8l-77.08,44.5c-55.76-60.57-80.33-139.14-73.73-235.71l30.31-17.5c26.5,79.71,65.97,149.79,120.5,208.71Z"/>
  <path class="cls-1" d="M910.85,711.77l-44.5,77.08c-78.57-24.58-139.14-80.33-181.71-167.27l17.5-30.31c62.8,55.78,132.03,96.74,208.71,120.5Z"/>
  <path class="cls-1" d="M968.12,480.06v89c-80.33,18-160.67,0-241-54v-35c82.28,16.9,162.71,17.77,241,0Z"/>
  <path class="cls-1" d="M901.85,250.77l44.5,77.08c-60.57,55.76-139.14,80.33-235.71,73.73l-17.5-30.31c79.71-26.5,149.79-65.97,208.71-120.5Z"/>
  <path class="cls-1" d="M729.82,85.33l77.08,44.5c-24.58,78.57-80.33,139.14-167.27,181.71l-30.31-17.5c55.78-62.8,96.74-132.03,120.5-208.71Z"/>
</svg>