<?xml version="1.0" encoding="UTF-8"?>
<svg id="Layer_1" data-name="Layer 1" xmlns="http://www.w3.org/2000/svg" viewBox="0 0 1203 835.9">
  <defs>
    <style>
      .cls-1 {
        fill: #fff;
        stroke-width: 0px;
      }
    </style>
  </defs>
  <path class="cls-1" d="M472.16,288.8l-285.66-43.12v106.73c28.73-1.44,60.89-2.16,96.47-2.16s69.72,4.67,102.42,14.02c32.69,9.34,61.8,25.33,87.31,47.97,25.5,22.64,42.58,56.23,51.2,100.78,6.47,40.97,4.67,79.42-5.39,115.36s-26.59,68.98-49.58,99.17c-14.38,18.69-31.09,35.41-50.14,50.12-19.05,14.73-39.34,26.77-60.91,36.11s-44.38,15.81-68.45,19.41-48.33,3.59-72.77,0c-32.34-5.03-63.95-15.81-94.86-32.34s-59.3-40.95-85.16-73.3l141.22-137.98c20.11,25.16,41.31,41.31,63.59,48.5s42.41,7.73,60.38,1.62,31.97-17.97,42.03-35.58c10.06-17.59,12.94-38.98,8.62-64.14-2.88-15.81-10.06-27.84-21.56-36.11s-25.14-14.19-40.95-17.78-32.34-5.2-49.59-4.84-33.42,1.44-48.52,3.23-32.33,4.84-51.73,9.14l-99.17,23.72L18.33,74.28l504.5,17.23-50.67,197.28Z"/>
  <path class="cls-1" d="M974.39,72.84c44.55,11.5,81.38,34.12,110.48,67.91s51.39,73.31,66.84,118.59c15.44,45.28,24.06,93.97,25.86,146.06,1.8,52.11-2.52,102.59-12.92,151.45-10.42,48.88-26.59,93.61-48.52,134.22s-49.05,72.05-81.39,94.31c-19.41,13.66-40.23,24.27-62.52,31.81s-45.11,12.2-68.45,14.02c-23.36,1.78-46.72.7-70.08-3.23-23.36-3.95-45.81-10.97-67.38-21.03-41.69-18.69-76.53-48.86-104.56-90.55s-48.86-88.58-62.52-140.69c-13.66-52.09-19.77-106.53-18.33-163.31,1.44-56.77,11.12-109.58,29.09-158.45s44.73-90.55,80.31-125.05,80.31-55.7,134.22-63.61c25.16-3.59,50.66-4.67,76.53-3.23s50.31,5.03,73.31,10.78ZM880.61,618.31c23.7,0,43.47-9.34,59.28-28.03s27.48-41.86,35.03-69.53c7.55-27.66,11.14-57.67,10.78-90.02s-4.48-62.34-12.39-90.02c-7.91-27.66-19.59-50.84-35.05-69.53s-34.67-28.03-57.66-28.03-42.41,9.34-58.22,28.03-27.67,41.88-35.58,69.53c-7.91,27.67-12.22,57.67-12.94,90.02s2.88,62.36,10.78,90.02c7.91,27.67,19.77,50.84,35.58,69.53s35.94,28.03,60.38,28.03Z"/>
</svg>