<?xml version="1.0" encoding="UTF-8"?>
<svg id="Layer_1" data-name="Layer 1" xmlns="http://www.w3.org/2000/svg" viewBox="0 0 2500 835.9">
  <defs>
    <style>
      .cls-1 {
        fill: #fff;
        stroke-width: 0px;
      }
    </style>
  </defs>
  <path class="cls-1" d="M209.85,547.99c-.72,17.66.34,33.55,3.17,47.66,2.81,12,7.58,23.12,14.3,33.36,6.7,10.25,17.47,16.06,32.3,17.47,20.47,2.12,38.11-1.22,52.94-10.05s23.66-19.77,26.48-32.83c2.81-13.06-1.77-27.17-13.77-42.36s-34.25-28.42-66.72-39.72c-36.72-12.7-70.08-24.53-100.08-35.47s-55.95-25.06-77.83-42.36c-21.89-17.3-39.19-39.72-51.89-67.25-12.72-27.53-20.12-63.55-22.23-108.03-1.42-31.77,1.92-60.89,10.05-87.36s19.95-50.3,35.48-71.48c21.88-30.36,50.3-54.19,85.25-71.48,34.94-17.3,71.48-27.36,109.61-30.19,38.12-2.81,75.19,1.95,111.19,14.3,36,12.36,66.36,32.66,91.08,60.89,23.28,27.55,40.05,62.33,50.3,104.33,10.23,42,12.17,93.72,5.83,155.14l-199.09-14.83c4.23-15.53,7.59-31.77,10.06-48.72,2.47-16.94,2.28-32.47-.53-46.59-2.83-14.12-8.83-26.12-18-36-9.19-9.88-22.59-15.53-40.25-16.95-21.19-2.11-38.12,3.19-50.83,15.89s-20.3,28.25-22.77,46.59c-2.47,18.36.53,37.06,9,56.12s23.3,33.89,44.48,44.48c11.28,5.66,23.28,10.59,36,14.83,12.7,4.23,25.41,8.83,38.12,13.77,27.53,9.19,54.17,19.77,79.95,31.77,25.77,12,48.36,27.19,67.78,45.53,19.41,18.36,34.41,40.25,45,65.66,10.59,25.42,14.47,55.78,11.66,91.08-2.83,36.72-13.59,69.36-32.3,97.95-18.72,28.59-41.84,52.61-69.38,72.02-27.53,19.42-57.89,33.72-91.08,42.89s-65.66,12.34-97.42,9.53c-36.72-2.83-67.78-10.23-93.19-22.23-25.42-12-46.61-26.3-63.55-42.89s-30.17-34.77-39.7-54.53-16.25-39.36-20.12-58.78c-3.89-19.41-5.48-37.23-4.77-53.48.7-16.23,2.11-29.3,4.23-39.19l201.22-8.47Z"/>
  <path class="cls-1" d="M913.97,345.97V22.03h213.91l-40.23,790.59h-182.16v-351.59h-152.48v364h-180.03l-24.36-788.3h221.33l-10.59,310.3,154.62-1.06Z"/>
  <path class="cls-1" d="M1151.07,41.03h237.22l-37.06,765h-165.2l-34.95-765Z"/>
  <path class="cls-1" d="M1597.93,14.03l196.97,460.55-14.83-427.84,199.09-4.23-26.47,761.53h-170.5l-182.16-385.56,49.78,388.56h-231.92l25.41-781.36,154.62-11.64Z"/>
  <path class="cls-1" d="M2460.88,595.44l-8.47,225.59-432.34-3.17-5.3-799.66,472.58-3.17-16.94,236.19-280.64-64.61v112.27l224.52-26.47v177.92l-224.52-19.06v210.77l271.11-46.59Z"/>
</svg>