<?xml version="1.0" encoding="UTF-8"?>
<svg id="Layer_1" data-name="Layer 1" xmlns="http://www.w3.org/2000/svg" viewBox="0 0 88.87 83.76">
  <defs>
    <style>
      .cls-1 {
        fill: #fff;
        stroke-width: 0px;
      }
    </style>
  </defs>
  <path class="cls-1" d="M77.6,41.5c-5.85-.79-11.59-2.04-17-4.51-5.18-2.37-9-6.07-11.09-11.46-1.56-4.03-2.3-8.24-2.75-12.5-.42-4.01-1.07-11.1-1.1-11.47,0-.01,0-.02,0-.04v-.04c-.02-.16-.12-1.25-.12-1.25,0,0,0,0,0,0,0,0,0,0,0,0,0,0-.11,1.09-.12,1.25v.07s0,0,0,0c-.03.37-.68,7.46-1.1,11.47-.45,4.27-1.19,8.47-2.75,12.5-2.09,5.39-5.91,9.09-11.09,11.46-5.41,2.47-11.15,3.72-17,4.51-3.32.45-6.66.79-10.01,1.28,2.01.22,4.03.45,6.04.67,5.85.63,11.68,1.37,17.33,3.15,8.08,2.55,13.04,7.95,15.31,16.04,1.51,5.39,2.22,10.9,2.82,16.44.17,1.52.39,2.98.56,4.59,0,.04,0,.07.01.11,0,0,0,0,0,0,0,0,0,0,0,0,0-.04,0-.07.01-.11.17-1.61.4-3.07.56-4.59.6-5.54,1.32-11.05,2.82-16.44,2.26-8.09,7.23-13.49,15.31-16.04,5.66-1.78,11.48-2.52,17.33-3.15,2.02-.22,4.03-.44,6.04-.67-3.35-.49-6.69-.83-10.01-1.28Z"/>
</svg>