<?xml version="1.0" encoding="UTF-8"?>
<svg id="Layer_1" data-name="Layer 1" xmlns="http://www.w3.org/2000/svg" viewBox="0 0 163.11 157.08">
  <defs>
    <style>
      .cls-1 {
        fill: #60c5f0;
        stroke-width: 0px;
      }
    </style>
  </defs>
  <path class="cls-1" d="M32.51,88.62c2.08-25.55,4.13-51.09,6.19-76.64.76-9.43-13.95-9.98-14.7-.54-1.97,24.76-3.96,49.53-5.92,74.29-.74,9.31,13.65,12.33,14.42,2.89h0Z"/>
  <path class="cls-1" d="M65.99,100.35c11.71-27.16,23.54-54.28,35.07-81.52,3.65-8.62-9.08-15.83-12.87-7.13-11.92,27.34-23.62,54.77-35.4,82.16-3.73,8.68,9.45,15.19,13.2,6.49h0Z"/>
  <path class="cls-1" d="M93.06,113.12c12.58-11.3,25.14-22.62,37.79-33.85,7.09-6.3-3.07-17.05-10.09-10.7-12.66,11.43-25.39,22.78-38.1,34.15-7.07,6.32,3.38,16.71,10.4,10.4h0Z"/>
  <path class="cls-1" d="M104.8,152.84c10.5-1.14,21-2.29,31.49-3.45,9.39-1.03,8.32-15.73-1.12-14.67-10.07,1.13-20.13,2.26-30.2,3.41-9.26,1.05-9.61,15.74-.18,14.71h0Z"/>
</svg>