<?xml version="1.0" encoding="UTF-8"?>
<svg id="Layer_1" data-name="Layer 1" xmlns="http://www.w3.org/2000/svg" viewBox="0 0 222.67 685.8">
  <defs>
    <style>
      .cls-1 {
        opacity: .3;
      }

      .cls-2 {
        fill: #000;
        fill-rule: evenodd;
        stroke-width: 0px;
      }
    </style>
  </defs>
  <g class="cls-1">
    <path class="cls-2" d="M118.85,195.83c-.03,3.49-3.3,6.61-6.77,6.45-3.34-.16-6.27-3.23-6.25-6.57.03-3.48,3.3-6.61,6.77-6.45,3.34.15,6.28,3.23,6.25,6.56Z"/>
    <path class="cls-2" d="M115.22,167.41c-3.47.05-6.62-3.09-6.61-6.57.01-3.47,3.21-6.59,6.68-6.5,3.31.08,6.3,3.04,6.4,6.36.12,3.44-2.99,6.66-6.47,6.71Z"/>
    <path class="cls-2" d="M117.09,136.08c3.49.06,6.59,3.37,6.4,6.83-.19,3.34-3.31,6.25-6.62,6.18-3.49-.06-6.59-3.37-6.39-6.82.19-3.35,3.3-6.26,6.62-6.19Z"/>
    <path class="cls-2" d="M113.58,171.78c3.48.16,6.5,3.46,6.28,6.89-.21,3.49-3.57,6.45-6.99,6.17-3.33-.26-6.16-3.37-6.08-6.67.09-3.48,3.34-6.53,6.79-6.39Z"/>
    <path class="cls-2" d="M105.98,141.84c-.14,3.35-3.27,6.29-6.59,6.21-3.52-.08-6.59-3.45-6.31-6.91.28-3.36,3.49-6.21,6.79-6.01,3.35.21,6.25,3.38,6.11,6.7Z"/>
    <path class="cls-2" d="M104.18,158.96c.06,3.47-3.13,6.64-6.6,6.57-3.32-.06-6.3-3.06-6.37-6.39-.06-3.46,3.12-6.63,6.6-6.57,3.32.06,6.3,3.06,6.37,6.39Z"/>
    <path class="cls-2" d="M110.41,206.75c3.47-.07,6.64,3.1,6.59,6.58-.06,3.32-3.05,6.31-6.38,6.38-3.47.07-6.64-3.11-6.58-6.58.06-3.32,3.05-6.31,6.37-6.38Z"/>
    <path class="cls-2" d="M96.25,170.04c3.36.22,6.25,3.42,6.09,6.73-.16,3.52-3.58,6.51-7.03,6.16-3.39-.35-6.15-3.6-5.87-6.89.29-3.37,3.51-6.2,6.81-5.99Z"/>
    <path class="cls-2" d="M115.1,230.69c0,3.33-2.97,6.33-6.31,6.39-3.49.05-6.63-3.14-6.49-6.62.13-3.35,3.19-6.26,6.52-6.19,3.35.07,6.29,3.07,6.29,6.42Z"/>
    <path class="cls-2" d="M94.32,187.54c3.34.15,6.24,3.24,6.14,6.56-.1,3.51-3.41,6.52-6.87,6.23-3.36-.28-6.15-3.45-5.94-6.75.22-3.35,3.35-6.19,6.67-6.04Z"/>
    <path class="cls-2" d="M135.98,197.95c-.19,3.52-3.22,6.12-6.75,5.8-3.37-.3-5.82-3.14-5.63-6.52.2-3.52,3.22-6.11,6.76-5.8,3.36.3,5.82,3.14,5.63,6.52Z"/>
    <path class="cls-2" d="M107.04,241.8c3.4.09,6.26,3.09,6.16,6.48-.1,3.4-3.1,6.25-6.49,6.16-3.4-.09-6.26-3.09-6.16-6.48.09-3.41,3.1-6.26,6.49-6.16Z"/>
    <path class="cls-2" d="M132.69,155.59c3.47.05,6.28,2.98,6.18,6.45-.11,3.47-3.1,6.25-6.55,6.08-3.3-.16-5.96-2.93-5.97-6.24-.01-3.47,2.87-6.34,6.35-6.29Z"/>
    <path class="cls-2" d="M137.81,180.25c-.05,3.53-2.97,6.26-6.5,6.1-3.36-.16-5.95-2.92-5.9-6.29.06-3.54,2.97-6.27,6.5-6.1,3.36.16,5.94,2.91,5.89,6.3Z"/>
    <path class="cls-2" d="M140.62,144.29c.07,3.53-2.74,6.36-6.28,6.32-3.37-.04-6.05-2.7-6.12-6.08-.07-3.54,2.74-6.37,6.28-6.33,3.38.05,6.05,2.71,6.12,6.08Z"/>
    <path class="cls-2" d="M97.45,228.71c.08,3.53-2.72,6.38-6.26,6.34-3.38-.03-6.06-2.68-6.14-6.05-.08-3.54,2.72-6.38,6.26-6.35,3.38.03,6.06,2.68,6.14,6.06Z"/>
    <path class="cls-2" d="M134.17,215.03c0,3.38-2.61,6.1-5.98,6.21-3.53.12-6.41-2.65-6.42-6.19,0-3.54,2.86-6.32,6.39-6.21,3.37.1,6,2.81,6,6.19Z"/>
    <path class="cls-2" d="M124.99,125.39c-.14,3.53-3.12,6.18-6.66,5.92-3.36-.24-5.87-3.06-5.73-6.43.14-3.54,3.12-6.18,6.66-5.92,3.36.24,5.87,3.06,5.73,6.43Z"/>
    <path class="cls-2" d="M92.91,217.77c-3.39-.09-6.3-3.15-6.21-6.53.1-3.38,3.15-6.29,6.53-6.2,3.39.09,6.3,3.15,6.2,6.53-.09,3.38-3.15,6.3-6.52,6.2Z"/>
    <path class="cls-2" d="M104.81,271.77c-3.53-.14-6.18-3.11-5.93-6.65.24-3.36,3.05-5.87,6.43-5.74,3.53.14,6.18,3.11,5.93,6.65-.24,3.36-3.05,5.87-6.43,5.74Z"/>
    <path class="cls-2" d="M95.54,246.36c-.03,3.57-2.79,6.19-6.36,6.06-3.4-.14-5.88-2.75-5.85-6.16.03-3.58,2.79-6.2,6.37-6.06,3.4.13,5.88,2.74,5.85,6.16Z"/>
    <path class="cls-2" d="M126.18,238.64c-3.56.02-6.28-2.77-6.18-6.32.09-3.4,2.73-5.97,6.12-5.98,3.56-.02,6.28,2.77,6.18,6.34-.09,3.39-2.73,5.96-6.12,5.97Z"/>
    <path class="cls-2" d="M109.35,283.23c-.11,3.55-2.94,6.1-6.53,5.89-3.38-.21-5.8-2.89-5.69-6.31.12-3.55,2.94-6.11,6.53-5.88,3.38.2,5.8,2.88,5.69,6.31Z"/>
    <path class="cls-2" d="M124.57,243.84c3.56.12,6.09,2.97,5.86,6.55-.22,3.38-2.91,5.79-6.33,5.66-3.55-.13-6.09-2.96-5.86-6.56.23-3.38,2.91-5.78,6.33-5.66Z"/>
    <path class="cls-2" d="M93.59,264.65c-.04,3.47-2.59,5.95-6.06,5.92-3.46-.03-5.96-2.58-5.92-6.06.04-3.46,2.58-5.95,6.05-5.92,3.46.04,5.95,2.59,5.92,6.06Z"/>
    <path class="cls-2" d="M82.2,133.76c3.47.07,5.96,2.67,5.89,6.15-.07,3.47-2.67,5.95-6.15,5.89-3.47-.07-5.96-2.67-5.88-6.15.07-3.47,2.67-5.96,6.14-5.89Z"/>
    <path class="cls-2" d="M142.19,126.88c.03,3.45-2.53,6.03-5.97,6.01-3.28-.02-5.78-2.41-5.91-5.66-.14-3.45,2.35-6.13,5.77-6.22,3.46-.09,6.08,2.43,6.12,5.86Z"/>
    <path class="cls-2" d="M76.73,198.07c-3.46.06-6.06-2.48-6.06-5.92,0-3.45,2.58-6.01,6.02-5.97,3.27.05,5.75,2.46,5.86,5.71.11,3.46-2.39,6.11-5.82,6.17Z"/>
    <path class="cls-2" d="M120.76,278.82c3.48.05,5.98,2.61,5.95,6.09-.04,3.49-2.6,5.99-6.09,5.95-3.48-.04-5.99-2.59-5.95-6.08.04-3.48,2.6-5.99,6.09-5.96Z"/>
    <path class="cls-2" d="M86.27,157.13c.05,3.48-2.45,6.08-5.92,6.12-3.48.05-6.08-2.45-6.12-5.91-.04-3.49,2.45-6.08,5.92-6.13,3.48-.05,6.07,2.45,6.12,5.92Z"/>
    <path class="cls-2" d="M84.42,174.77c-.05,3.46-2.61,5.94-6.08,5.89-3.46-.05-5.95-2.61-5.9-6.07.05-3.47,2.61-5.95,6.07-5.9,3.46.05,5.95,2.61,5.9,6.08Z"/>
    <path class="cls-2" d="M128.56,267.56c-.09,3.44-2.66,5.92-6.11,5.88-3.6-.04-6.18-2.8-5.99-6.42.19-3.41,2.86-5.81,6.32-5.68,3.43.14,5.87,2.75,5.78,6.22Z"/>
    <path class="cls-2" d="M101.52,117.27c3.44.09,5.92,2.67,5.88,6.12-.04,3.6-2.82,6.18-6.43,5.98-3.41-.19-5.81-2.87-5.67-6.33.14-3.43,2.76-5.87,6.22-5.77Z"/>
    <path class="cls-2" d="M113.74,301.91c.19-3.38,2.91-5.77,6.35-5.57,3.39.2,5.77,2.91,5.57,6.35-.19,3.38-2.91,5.77-6.35,5.57-3.39-.2-5.77-2.92-5.57-6.35Z"/>
    <path class="cls-2" d="M107.38,301.2c.05,3.44-2.45,6.02-5.86,6.07-3.44.05-6.02-2.44-6.07-5.87-.05-3.44,2.44-6.02,5.86-6.07,3.44-.05,6.02,2.45,6.07,5.87Z"/>
    <path class="cls-2" d="M74.01,221.19c3.2.11,5.69,2.75,5.64,5.95-.06,3.37-2.91,5.96-6.27,5.74-3.17-.22-5.59-2.96-5.43-6.16.16-3.19,2.85-5.64,6.06-5.53Z"/>
    <path class="cls-2" d="M91.7,282.06c-.02,3.41-2.63,5.96-6.04,5.89-3.4-.06-5.91-2.72-5.78-6.15.11-3.24,2.59-5.64,5.83-5.68,3.42-.04,6.01,2.53,5.99,5.94Z"/>
    <path class="cls-2" d="M115.89,343.87c-3.2-.08-5.72-2.7-5.68-5.9.04-3.36,2.86-5.99,6.22-5.78,3.18.19,5.62,2.92,5.48,6.11-.15,3.2-2.81,5.67-6.01,5.57Z"/>
    <path class="cls-2" d="M89.79,299.66c-.1,3.15-2.75,5.69-5.9,5.65-3.31-.04-5.97-2.9-5.75-6.21.2-3.14,2.96-5.6,6.11-5.44,3.16.15,5.64,2.85,5.55,6Z"/>
    <path class="cls-2" d="M74.69,215.47c-3.41-.06-5.95-2.78-5.79-6.2.16-3.23,2.74-5.64,6-5.59,3.41.06,5.95,2.78,5.79,6.2-.15,3.23-2.74,5.64-5.99,5.59Z"/>
    <path class="cls-2" d="M83.96,116.48c3.2.04,5.76,2.62,5.77,5.82.01,3.37-2.77,6.03-6.13,5.87-3.19-.15-5.66-2.82-5.56-6.03.1-3.2,2.72-5.71,5.92-5.67Z"/>
    <path class="cls-2" d="M117.9,314.67c3.41.02,5.96,2.63,5.9,6.04-.07,3.4-2.73,5.9-6.14,5.79-3.24-.12-5.65-2.59-5.69-5.83-.04-3.42,2.53-6.02,5.93-6Z"/>
    <path class="cls-2" d="M100.43,312.86c3.25,0,5.79,2.46,5.89,5.7.1,3.42-2.48,6.1-5.9,6.1-3.42,0-6.01-2.69-5.89-6.11.11-3.24,2.64-5.68,5.89-5.68Z"/>
    <path class="cls-2" d="M104.42,336.58c-.2,3.14-3.05,5.64-6.19,5.44-3.14-.2-5.65-3.05-5.44-6.19.2-3.14,3.05-5.65,6.19-5.44,3.14.2,5.64,3.05,5.44,6.19Z"/>
    <path class="cls-2" d="M150.9,157.98c3.09,0,5.82,2.86,5.69,5.93-.13,2.94-2.79,5.49-5.72,5.49-3.08,0-5.82-2.86-5.69-5.93.12-2.94,2.78-5.49,5.71-5.49Z"/>
    <path class="cls-2" d="M139.21,339.73c.08,3.07-2.71,5.87-5.8,5.83-2.93-.05-5.55-2.66-5.62-5.59-.08-3.07,2.72-5.88,5.8-5.82,2.93.05,5.55,2.65,5.62,5.59Z"/>
    <path class="cls-2" d="M147.46,251.8c-.03,3.07-2.87,5.78-5.93,5.63-2.93-.14-5.45-2.8-5.43-5.71.02-3.08,2.87-5.79,5.93-5.64,2.93.14,5.45,2.81,5.43,5.72Z"/>
    <path class="cls-2" d="M149.1,186.82c-3.07.02-5.82-2.78-5.72-5.85.1-2.92,2.71-5.48,5.64-5.51,3.07-.04,5.82,2.78,5.72,5.84-.09,2.92-2.72,5.49-5.64,5.52Z"/>
    <path class="cls-2" d="M96.82,347.93c3.06.01,5.78,2.81,5.7,5.86-.08,3.07-2.93,5.86-5.96,5.56-3.3-.32-5.24-2.31-5.47-5.62-.2-3.04,2.66-5.81,5.73-5.8Z"/>
    <path class="cls-2" d="M72.1,251.09c-3.11.08-5.88-2.61-5.9-5.75-.02-3.12,2.73-5.84,5.85-5.79,2.95.04,5.56,2.58,5.7,5.54.14,3.09-2.53,5.92-5.64,6Z"/>
    <path class="cls-2" d="M103.32,100.14c3.07.09,5.72,2.95,5.57,5.99-.16,3.07-3.08,5.81-6.09,5.43-3.28-.41-5.2-2.41-5.33-5.75-.13-3.06,2.8-5.77,5.85-5.67Z"/>
    <path class="cls-2" d="M126.38,107.94c-.15,3.12-3.04,5.73-6.13,5.51-3.12-.21-5.67-3.15-5.4-6.23.26-2.96,2.96-5.39,5.91-5.31,3.12.09,5.76,2.91,5.62,6.02Z"/>
    <path class="cls-2" d="M157.58,146.08c.1,3.07-2.68,5.89-5.77,5.86-2.92-.03-5.56-2.61-5.65-5.55-.1-3.07,2.67-5.89,5.77-5.86,2.92.03,5.56,2.62,5.65,5.55Z"/>
    <path class="cls-2" d="M114.26,349.69c3.11.01,5.78,2.7,5.77,5.81-.01,3.11-2.71,5.78-5.82,5.77-3.11-.01-5.78-2.7-5.77-5.82.01-3.1,2.71-5.77,5.82-5.76Z"/>
    <path class="cls-2" d="M147.18,205.09c-3.07-.03-5.78-2.89-5.62-5.93.15-2.93,2.82-5.45,5.73-5.42,3.07.03,5.78,2.9,5.62,5.95-.16,2.92-2.82,5.44-5.73,5.41Z"/>
    <path class="cls-2" d="M145.64,269.15c.04,3.06-2.76,5.83-5.83,5.74-2.92-.09-5.49-2.69-5.53-5.62-.04-3.06,2.77-5.82,5.83-5.74,2.93.09,5.5,2.7,5.53,5.62Z"/>
    <path class="cls-2" d="M138.61,292.34c-3.09-.24-5.63-3.23-5.28-6.25.34-2.94,3.13-5.32,6.01-5.1,3.09.23,5.63,3.23,5.28,6.24-.34,2.95-3.14,5.32-6.01,5.11Z"/>
    <path class="cls-2" d="M137.07,298.42c3.08-.06,5.86,2.75,5.78,5.83-.07,2.93-2.69,5.52-5.63,5.57-3.07.06-5.86-2.76-5.78-5.83.07-2.94,2.7-5.53,5.63-5.57Z"/>
    <path class="cls-2" d="M129.97,369.07c3.08.06,5.76,2.96,5.56,5.99-.18,2.93-2.87,5.43-5.78,5.37-3.07-.07-5.76-2.95-5.57-5.99.18-2.92,2.88-5.42,5.79-5.37Z"/>
    <path class="cls-2" d="M87.87,316.95c0,3.05-2.8,5.78-5.85,5.71-3.06-.07-5.86-2.92-5.57-5.95.32-3.3,2.3-5.25,5.61-5.47,3.04-.21,5.82,2.66,5.81,5.72Z"/>
    <path class="cls-2" d="M70.39,257.06c3.1.14,5.73,3.1,5.46,6.15-.26,2.93-3.03,5.39-5.93,5.26-3.1-.14-5.73-3.1-5.46-6.15.26-2.94,3.03-5.4,5.93-5.26Z"/>
    <path class="cls-2" d="M112.39,367.2c3.05-.02,5.8,2.76,5.75,5.82-.05,3.06-2.87,5.88-5.91,5.61-3.31-.3-5.25-2.27-5.52-5.58-.24-3.03,2.61-5.83,5.67-5.85Z"/>
    <path class="cls-2" d="M141.04,321.45c.07,3.07-2.71,5.88-5.8,5.83-2.93-.05-5.55-2.66-5.62-5.59-.08-3.07,2.71-5.88,5.8-5.82,2.93.05,5.54,2.65,5.62,5.59Z"/>
    <path class="cls-2" d="M131.85,351.59c2.93.09,5.51,2.74,5.54,5.67.03,3.08-2.8,5.84-5.88,5.75-3.09-.1-5.76-3.03-5.54-6.08.22-2.92,2.97-5.42,5.87-5.33Z"/>
    <path class="cls-2" d="M143.71,109.66c-.08,2.95-2.75,5.53-5.69,5.49-3.09-.02-5.82-2.95-5.6-6,.22-2.96,2.99-5.44,5.9-5.29,2.95.15,5.48,2.87,5.39,5.8Z"/>
    <path class="cls-2" d="M110.44,395.97c-2.97-.09-5.53-2.79-5.44-5.76.09-2.97,2.79-5.52,5.75-5.44,2.97.09,5.53,2.79,5.44,5.76-.09,2.97-2.79,5.53-5.75,5.44Z"/>
    <path class="cls-2" d="M68.39,285.78c-2.94.04-5.58-2.57-5.62-5.52-.03-2.93,2.57-5.58,5.51-5.62,2.93-.03,5.58,2.57,5.62,5.52.04,2.94-2.56,5.59-5.51,5.62Z"/>
    <path class="cls-2" d="M68.36,155.56c-.09,2.95-2.78,5.5-5.71,5.42-2.95-.1-5.5-2.79-5.41-5.72.08-2.95,2.78-5.51,5.71-5.42,2.95.09,5.5,2.79,5.41,5.72Z"/>
    <path class="cls-2" d="M95.02,376.7c-2.96.04-5.61-2.57-5.65-5.55-.03-2.96,2.58-5.61,5.55-5.65,2.95-.03,5.61,2.58,5.65,5.55.03,2.96-2.58,5.61-5.55,5.64Z"/>
    <path class="cls-2" d="M128.2,386.6c2.97.09,5.53,2.79,5.44,5.76-.09,2.97-2.8,5.53-5.75,5.44-2.97-.1-5.54-2.8-5.44-5.76.09-2.97,2.8-5.54,5.75-5.44Z"/>
    <path class="cls-2" d="M81.2,339.99c-2.96.03-5.61-2.59-5.64-5.55-.03-2.96,2.58-5.62,5.55-5.64,2.96-.03,5.61,2.58,5.65,5.55.03,2.96-2.59,5.61-5.56,5.64Z"/>
    <path class="cls-2" d="M132.57,409.51c.08,2.99-2.47,5.63-5.47,5.65-3,.02-5.69-2.58-5.51-5.58.19-3.2,2.05-5.1,5.24-5.41,2.96-.29,5.66,2.34,5.75,5.34Z"/>
    <path class="cls-2" d="M143.86,228.67c2.95.15,5.48,2.86,5.39,5.79-.09,3.12-3.06,5.77-6.11,5.48-2.95-.28-5.4-3.1-5.18-5.99.22-2.95,2.99-5.43,5.9-5.28Z"/>
    <path class="cls-2" d="M55.52,173.01c-.09-2.99,2.41-5.57,5.41-5.6,3.01-.04,5.64,2.5,5.48,5.5-.17,3.19-2,5.08-5.17,5.38-2.97.28-5.62-2.28-5.71-5.28Z"/>
    <path class="cls-2" d="M64.77,132.36c2.97.09,5.53,2.8,5.44,5.76-.09,2.97-2.79,5.54-5.74,5.44-2.97-.08-5.54-2.8-5.45-5.74.09-2.97,2.8-5.54,5.75-5.45Z"/>
    <path class="cls-2" d="M153.81,123.32c3.01.07,5.46,2.68,5.34,5.68-.12,3-2.8,5.52-5.78,5.2-3.17-.33-4.98-2.24-5.11-5.44-.13-3.01,2.54-5.51,5.54-5.44Z"/>
    <path class="cls-2" d="M151.07,217.02c-.09,2.95-2.75,5.52-5.7,5.49-3.09-.02-5.82-2.96-5.6-6.01.21-2.95,2.99-5.43,5.9-5.29,2.96.15,5.48,2.87,5.39,5.8Z"/>
    <path class="cls-2" d="M64.48,190.18c-.18,3.2-1.78,5.16-5.06,5.41-3.13.23-5.66-2.21-5.53-5.33.14-3.26,1.96-5.16,5.22-5.2,3.26-.03,5.03,1.86,5.37,5.12Z"/>
    <path class="cls-2" d="M92.57,393.84c-3.01-.43-4.74-2.27-4.7-5.53.04-3.12,2.69-5.39,5.83-5,3.27.42,4.84,2.47,4.7,5.7-.12,2.94-2.63,5.02-5.82,4.83Z"/>
    <path class="cls-2" d="M114.96,407.69c-.04,3.3-2.54,5.73-5.62,5.47-3.22-.27-4.98-2.17-5.06-5.39-.08-3.08,2.52-5.51,5.59-5.26,3.23.27,4.88,2.19,5.08,5.18Z"/>
    <path class="cls-2" d="M66.41,302.98c-3.23-.33-5.08-2.05-5.17-5.33-.09-3.12,2.46-5.54,5.59-5.26,3.26.29,5.05,2.24,4.93,5.48-.12,3.28-2.13,4.9-5.35,5.11Z"/>
    <path class="cls-2" d="M79.48,357.19c-3.09.07-5.61-2.34-5.47-5.42.15-3.22,1.96-5.07,5.18-5.26,3.08-.19,5.61,2.31,5.47,5.38-.15,3.22-1.99,4.97-5.18,5.29Z"/>
    <path class="cls-2" d="M125.38,421.82c3.21.35,5.03,2.07,5.08,5.34.06,3.12-2.46,5.46-5.59,5.17-3.25-.31-4.98-2.25-4.85-5.48.14-3.26,2.16-4.84,5.35-5.02Z"/>
    <path class="cls-2" d="M80.35,104.05c.24-3.15,1.89-5.08,5.12-5.33,3.08-.24,5.57,2.19,5.59,5.29.02,3.08-2.43,5.56-5.51,5.37-3.23-.21-4.92-2.08-5.2-5.32Z"/>
    <path class="cls-2" d="M66.75,115.26c2.81.2,4.73,1.8,4.92,5.07.18,3.13-2.23,5.57-5.36,5.4-3.25-.17-5.02-2-5.1-5.25-.08-2.97,2.19-5.19,5.53-5.23Z"/>
    <path class="cls-2" d="M91.79,400.84c3.12.54,4.91,2.37,4.61,5.65-.31,3.29-2.42,4.89-5.65,4.58-3.08-.31-4.67-2.29-4.5-5.34.18-3.32,2.25-4.8,5.54-4.89Z"/>
    <path class="cls-2" d="M138.94,468.9c-3.12-.56-5.01-2.2-4.83-5.32.17-3.09,2.09-4.86,5.19-4.71,3.09.16,4.84,2.1,4.71,5.19-.14,3.12-2.2,4.54-5.06,4.84Z"/>
    <path class="cls-2" d="M57.67,261.16c-.56,2.95-2.25,4.88-5.35,4.63-2.83-.22-4.62-2.14-4.46-5.03.17-3.07,2.16-4.88,5.24-4.67,2.86.21,4.32,2.18,4.57,5.06Z"/>
    <path class="cls-2" d="M121.49,467.87c-2.98-.44-4.91-2.03-4.83-5.13.07-3.07,1.95-4.9,5.02-4.84,3.07.06,4.87,1.95,4.83,5.02-.04,3.1-2.02,4.62-5.03,4.95Z"/>
    <path class="cls-2" d="M149.66,411.33c.07,3.02-2.12,5.28-5.12,5.3-3.02.01-5.29-2.22-5.18-5.22.12-3.1,1.8-4.86,4.9-5.08,3.01-.2,5.33,2.01,5.4,5Z"/>
    <path class="cls-2" d="M106.48,438.53c2.49.27,4.34,1.81,4.5,4.92.15,2.95-2.28,5.34-5.22,5.11-3.08-.23-4.76-2.01-4.81-5.1-.05-2.77,2.24-4.94,5.53-4.94Z"/>
    <path class="cls-2" d="M93.45,441.71c-.4,2.94-1.98,4.91-5.06,4.86-2.84-.05-4.68-1.91-4.7-4.74-.03-3.05,1.9-4.94,4.94-4.91,2.86.03,4.38,1.95,4.82,4.79Z"/>
    <path class="cls-2" d="M59.58,243.59c-.43,3.01-2.02,4.93-5.15,4.85-3.1-.07-4.91-1.94-4.85-5.04.06-3.1,1.94-4.9,5.04-4.86,3.13.04,4.65,2.02,4.96,5.05Z"/>
    <path class="cls-2" d="M90.23,419.24c3.05.32,5.02,1.85,5.05,4.98.03,3.1-1.78,4.97-4.88,5.02-3.09.05-4.96-1.77-5.03-4.86-.07-3.14,1.86-4.71,4.85-5.14Z"/>
    <path class="cls-2" d="M60.64,226.11c-.33,3.01-1.87,4.83-4.98,4.98-2.97.14-5.25-2.15-5.21-5.12.03-2.97,2.36-5.21,5.34-4.99,3.11.24,4.61,2.09,4.86,5.12Z"/>
    <path class="cls-2" d="M62.07,355.01c-3.13-.42-5.11-2.02-5.04-5.12.06-2.88,1.91-4.72,4.78-4.73,3.08-.02,4.96,1.9,4.93,4.98-.02,2.92-2.02,4.36-4.67,4.86Z"/>
    <path class="cls-2" d="M62.49,208.14c-.2,2.97-2.63,5.01-5.64,4.76-2.96-.25-5.02-2.72-4.62-5.73.41-3.1,2.32-4.62,5.39-4.55,2.98.07,5.07,2.52,4.87,5.52Z"/>
    <path class="cls-2" d="M145.94,446.24c.06,2.97-2.18,5.31-5.15,5.18-3.08-.14-4.81-1.85-4.97-4.93-.16-2.97,2.16-5.24,5.13-5.2,2.81.04,4.93,2.15,4.99,4.95Z"/>
    <path class="cls-2" d="M147.89,381.67c-3.6-.01-5.86-2.31-5.66-5.31.21-3.11,1.97-4.79,5.09-4.86,3.01-.07,5.26,2.28,5.07,5.29-.2,3.14-2.05,4.65-4.5,4.89Z"/>
    <path class="cls-2" d="M149.11,364.22c-3.04-.34-4.88-1.89-5.01-5.03-.12-2.98,2.3-5.34,5.27-5.1,3.1.24,4.84,2.05,4.78,5.16-.07,3.14-2,4.67-5.04,4.97Z"/>
    <path class="cls-2" d="M67.66,98.09c2.95.58,4.87,2.27,4.61,5.37-.24,2.83-2.16,4.62-5.05,4.44-3.06-.17-4.88-2.17-4.65-5.25.21-2.86,2.19-4.31,5.08-4.56Z"/>
    <path class="cls-2" d="M147.89,428.64c-.35,3.5-2,5.45-5.32,5.37-3.29-.08-5.07-2.03-4.97-5.3.09-3.07,1.91-4.81,4.99-4.88,3.37-.07,4.85,2,5.3,4.82Z"/>
    <path class="cls-2" d="M140.01,97.12c-3.06-.31-5.03-1.84-5.08-4.97-.05-3.09,1.76-4.98,4.85-5.05,3.1-.06,4.97,1.76,5.05,4.85.09,3.13-1.84,4.72-4.82,5.16Z"/>
    <path class="cls-2" d="M151.54,393.89c-.42,3.48-2.13,5.37-5.43,5.22-3.3-.15-5.02-2.15-4.86-5.41.16-3.07,2.02-4.76,5.1-4.78,3.37,0,4.82,2.09,5.19,4.96Z"/>
    <path class="cls-2" d="M112.95,425.29c0,3.01-2.25,5.21-5.27,5.15-3.01-.05-5.23-2.35-5.03-5.37.2-3.09,1.94-4.8,5.04-4.92,3.02-.14,5.26,2.13,5.26,5.14Z"/>
    <path class="cls-2" d="M122.13,95.38c-2.94-.42-4.73-2.02-4.78-5.16-.05-3.01,2.29-5.2,5.3-5.08,2.98.12,5.16,2.53,4.85,5.53-.32,3.12-2.24,4.57-5.37,4.71Z"/>
    <path class="cls-2" d="M159.54,306.05c-.49,2.93-2.14,4.88-5.21,4.71-2.81-.15-4.63-2.04-4.55-4.89.09-3.04,2.05-4.89,5.1-4.75,2.84.13,4.34,2.08,4.66,4.93Z"/>
    <path class="cls-2" d="M110.1,88.52c-.38,3.01-1.95,4.84-5.09,4.93-2.97.09-5.32-2.37-5.05-5.33.28-3.1,2.11-4.82,5.22-4.72,3.14.1,4.65,2.05,4.92,5.11Z"/>
    <path class="cls-2" d="M123.39,449.65c-3.01-.02-5.26-2.33-5.05-5.33.23-3.11,2-4.79,5.11-4.85,3-.06,5.19,2.3,5.06,5.32-.12,2.82-2.28,4.87-5.12,4.86Z"/>
    <path class="cls-2" d="M163.31,448.29c-.48,2.98-2.11,4.92-5.19,4.78-3.04-.15-4.85-2.12-4.68-5.18.15-2.83,2-4.6,4.87-4.58,3.09.02,4.64,1.99,5,4.98Z"/>
    <path class="cls-2" d="M69.84,315.41c-.42,2.95-2,4.73-5.15,4.79-3.02.05-5.2-2.29-5.09-5.3.12-2.98,2.53-5.16,5.52-4.85,3.12.32,4.57,2.24,4.72,5.37Z"/>
    <path class="cls-2" d="M80.76,386.63c-.32,3.05-1.85,5.02-4.98,5.06-3.1.03-4.97-1.78-5.03-4.88s1.78-4.96,4.87-5.02c3.13-.08,4.71,1.85,5.13,4.85Z"/>
    <path class="cls-2" d="M160.6,111.17c-.26,3.08-1.78,4.95-4.87,5.18-2.93.22-5.39-2.18-5.23-5.11.17-3.08,1.92-4.87,5-4.91,3.12-.02,4.69,1.89,5.1,4.83Z"/>
    <path class="cls-2" d="M77.49,364.11c3.22.31,5.18,1.94,5.11,5.27-.07,3.29-2,5.08-5.28,4.99-3.07-.08-4.85-1.89-4.9-4.97-.06-3.31,1.85-4.98,5.07-5.3Z"/>
    <path class="cls-2" d="M86.83,81.67c2.8.45,4.7,2,4.71,4.86,0,3.04-1.92,4.98-4.96,4.89-3.03-.09-4.88-2.11-4.69-5.15.17-2.82,2.13-4.32,4.95-4.59Z"/>
    <path class="cls-2" d="M150.97,345.89c-3.03-.36-4.98-1.91-4.96-5.05,0-3.1,1.85-4.95,4.94-4.95,3.1,0,4.94,1.85,4.96,4.94.02,3.13-1.93,4.69-4.94,5.06Z"/>
    <path class="cls-2" d="M157.78,323.24c-.32,3-1.87,5.01-4.95,5.03-3.05.02-4.92-1.88-4.93-4.94,0-2.86,1.81-4.68,4.63-4.82,3.09-.15,4.72,1.78,5.25,4.73Z"/>
    <path class="cls-2" d="M104,456.02c3.16.47,5.12,2.12,4.99,5.21-.12,2.86-1.99,4.68-4.87,4.63-3.08-.05-4.93-1.99-4.84-5.08.08-2.9,2.09-4.32,4.72-4.77Z"/>
    <path class="cls-2" d="M160.11,425.77c2.97.41,4.95,2.01,4.88,5.11-.06,2.87-1.92,4.71-4.79,4.72-3.08,0-4.97-1.92-4.92-5,.04-2.89,1.97-4.41,4.83-4.84Z"/>
    <path class="cls-2" d="M156.32,470.57c-2.79-.49-4.68-2.05-4.66-4.91.03-3.04,1.97-4.97,5.01-4.84,3.02.12,4.85,2.15,4.63,5.2-.2,2.82-2.17,4.28-4.99,4.55Z"/>
    <path class="cls-2" d="M74.09,400.09c2.93.58,4.85,2.26,4.59,5.33-.23,2.8-2.16,4.58-5.01,4.42-3.02-.17-4.84-2.18-4.62-5.22.22-2.82,2.19-4.28,5.04-4.53Z"/>
    <path class="cls-2" d="M137.36,476.31c2.96.5,4.91,2.16,4.72,5.26-.16,2.84-2.06,4.65-4.94,4.56-3.07-.11-4.91-2.08-4.76-5.16.15-2.86,2.1-4.36,4.98-4.66Z"/>
    <path class="cls-2" d="M119.8,475.34c2.94.44,4.9,2.05,4.8,5.12-.09,2.83-1.96,4.66-4.8,4.65-3.04-.02-4.92-1.96-4.85-5.01.07-2.85,2-4.36,4.85-4.76Z"/>
    <path class="cls-2" d="M63.06,337.6c-3.04-.28-5.03-1.8-5.11-4.89-.08-3.07,1.72-4.98,4.78-5.09,3.07-.09,4.96,1.73,5.08,4.78.12,3.11-1.8,4.7-4.75,5.19Z"/>
    <path class="cls-2" d="M64.78,367.44c-.3,2.79-1.83,4.67-4.72,4.65-2.88-.01-4.65-1.86-4.62-4.73.03-2.68,1.78-4.43,4.43-4.52,2.88-.09,4.5,1.68,4.91,4.6Z"/>
    <path class="cls-2" d="M107.09,478.44c-.34,2.78-1.86,4.66-4.71,4.7-2.84.03-4.7-1.78-4.73-4.62-.05-2.84,1.78-4.7,4.62-4.74,2.86-.04,4.42,1.81,4.83,4.66Z"/>
    <path class="cls-2" d="M160.28,483.2c-.46,2.84-2.06,4.67-4.91,4.57-2.83-.09-4.62-1.97-4.53-4.82.09-2.83,1.97-4.61,4.82-4.53,2.85.09,4.34,1.99,4.62,4.78Z"/>
    <path class="cls-2" d="M174.23,148.17c-.48,2.81-2.05,4.7-4.92,4.68-2.87-.02-4.58-1.86-4.81-4.72-.21-2.6,2.48-5.2,5.06-4.91,2.86.31,4.36,2.13,4.68,4.95Z"/>
    <path class="cls-2" d="M168.42,396.03c-.49,2.92-2.16,4.62-5.08,4.38-2.7-.23-4.31-2.09-4.14-4.79.18-2.9,2.09-4.57,5-4.33,2.71.22,4.06,2.09,4.22,4.74Z"/>
    <path class="cls-2" d="M156.51,293.35c-2.79-.3-4.56-1.82-4.89-4.64-.3-2.54,2.31-5.23,4.88-5.03,2.84.23,4.66,1.95,4.69,4.78.02,2.86-1.85,4.42-4.68,4.89Z"/>
    <path class="cls-2" d="M55.68,278.37c-.48,2.97-2.08,4.8-4.93,4.7-2.83-.09-4.62-1.97-4.53-4.81.09-2.83,1.97-4.61,4.82-4.54,2.87.07,4.28,2.05,4.65,4.65Z"/>
    <path class="cls-2" d="M86.66,463.91c-3-.47-4.77-2.14-4.58-5.01.19-2.85,2.13-4.55,5.01-4.33,2.65.21,4.31,2.03,4.24,4.7-.08,2.9-2,4.35-4.67,4.64Z"/>
    <path class="cls-2" d="M168.17,170.34c-2.59-.31-4.36-1.84-4.64-4.67-.25-2.54,2.39-5.2,4.95-4.96,2.83.28,4.5,2,4.66,4.85.13,2.43-2.3,4.75-4.97,4.79Z"/>
    <path class="cls-2" d="M175.79,130.68c-.36,2.84-1.98,4.62-4.89,4.49-2.69-.12-4.39-1.9-4.34-4.61.06-2.92,1.91-4.66,4.82-4.54,2.7.11,4.16,1.9,4.41,4.65Z"/>
    <path class="cls-2" d="M164.67,195.7c2.79.3,4.66,1.83,4.65,4.72-.01,2.88-1.86,4.64-4.73,4.62-2.68-.04-4.43-1.77-4.52-4.44-.1-2.88,1.68-4.5,4.6-4.9Z"/>
    <path class="cls-2" d="M162.85,223.4c-2.82-.36-4.67-1.93-4.6-4.81.06-2.87,1.94-4.62,4.82-4.53,2.67.08,4.4,1.84,4.44,4.51.04,2.89-1.76,4.47-4.65,4.83Z"/>
    <path class="cls-2" d="M122.65,497.69c-.29,2.77-1.8,4.66-4.69,4.66-2.87.01-4.66-1.83-4.64-4.71.02-2.68,1.76-4.43,4.41-4.53,2.88-.12,4.51,1.66,4.92,4.59Z"/>
    <path class="cls-2" d="M136.21,494.79c2.78.33,4.66,1.86,4.7,4.71.04,2.85-1.79,4.7-4.62,4.74-2.84.04-4.7-1.77-4.74-4.62-.04-2.84,1.81-4.42,4.66-4.83Z"/>
    <path class="cls-2" d="M171.29,182.95c-.35,2.77-1.87,4.66-4.72,4.68-2.85.03-4.69-1.8-4.73-4.63-.03-2.84,1.79-4.68,4.63-4.72,2.86-.05,4.42,1.81,4.82,4.67Z"/>
    <path class="cls-2" d="M158.22,266.32c2.95.41,4.76,2.01,4.64,4.89-.12,2.87-2.02,4.59-4.9,4.44-2.66-.13-4.36-1.91-4.35-4.59,0-2.91,1.89-4.39,4.61-4.75Z"/>
    <path class="cls-2" d="M161.84,418.19c-2.82-.47-4.7-2.04-4.68-4.93.02-2.86,1.87-4.58,4.72-4.81,2.59-.22,5.2,2.48,4.91,5.06-.32,2.86-2.12,4.37-4.95,4.68Z"/>
    <path class="cls-2" d="M163.95,253.59c-.45,2.99-2.1,4.78-4.97,4.61-2.86-.16-4.56-2.1-4.37-4.97.18-2.65,1.98-4.32,4.67-4.28,2.91.05,4.35,1.96,4.67,4.64Z"/>
    <path class="cls-2" d="M76.77,422.47c-.45,3-2.1,4.78-4.97,4.62-2.86-.16-4.57-2.1-4.37-4.97.18-2.65,1.99-4.33,4.67-4.28,2.91.05,4.35,1.96,4.67,4.64Z"/>
    <path class="cls-2" d="M165.76,236.11c-.34,2.85-1.89,4.67-4.78,4.66-2.68,0-4.45-1.74-4.56-4.39-.12-2.87,1.63-4.77,4.49-4.86,2.88-.09,4.46,1.74,4.85,4.59Z"/>
    <path class="cls-2" d="M180.15,450.09c-.26,2.79-1.75,4.36-4.57,4.24-2.84-.1-4.28-1.82-4.15-4.6.13-2.61,1.69-4.05,4.3-4.05,2.84,0,4.24,1.63,4.41,4.41Z"/>
    <path class="cls-2" d="M172.92,117.44c-2.7-.26-4.3-1.68-4.18-4.49.1-2.59,1.63-4.05,4.22-4.02,2.8.03,4.31,1.64,4.22,4.43-.08,2.61-1.68,3.89-4.26,4.09Z"/>
    <path class="cls-2" d="M165.67,382.75c-2.75-.18-4.4-1.56-4.37-4.39.03-2.8,1.64-4.31,4.43-4.26,2.59.05,4.09,1.53,4.16,4.12.08,2.8-1.46,4.28-4.22,4.53Z"/>
    <path class="cls-2" d="M43.85,118.19c.47-2.65,2.1-4.06,4.88-3.74,2.62.31,3.89,2.04,3.66,4.6-.25,2.84-2.06,4.16-4.82,3.85-2.64-.28-3.74-2.04-3.73-4.71Z"/>
    <path class="cls-2" d="M47.31,308.99c2.53.25,4.12,1.54,4.16,4.15.04,2.79-1.48,4.4-4.29,4.36-2.81-.03-4.29-1.7-4.16-4.48.11-2.61,1.73-3.86,4.29-4.04Z"/>
    <path class="cls-2" d="M51.71,136.01c-.21,2.78-1.61,4.53-4.37,4.6-2.94.06-4.7-1.65-4.64-4.6.05-2.75,1.75-4.36,4.5-4.35,2.77,0,4.21,1.7,4.51,4.35Z"/>
    <path class="cls-2" d="M62.63,385.85c-.27,2.8-1.77,4.35-4.59,4.22-2.84-.12-4.27-1.84-4.11-4.63.14-2.6,1.71-4.04,4.32-4.02,2.84.02,4.23,1.66,4.39,4.43Z"/>
    <path class="cls-2" d="M87.37,493.9c-.29,2.94-1.71,4.53-4.52,4.42-2.59-.11-4.05-1.64-4.02-4.23.03-2.8,1.64-4.3,4.43-4.23,2.63.08,3.83,1.74,4.12,4.03Z"/>
    <path class="cls-2" d="M100.54,500.4c-2.87-.27-4.51-1.75-4.46-4.56.05-2.79,1.69-4.39,4.48-4.34,2.79.04,4.38,1.69,4.36,4.49-.03,2.82-1.75,4.19-4.38,4.42Z"/>
    <path class="cls-2" d="M49.78,153.71c-.28,2.77-1.78,4.33-4.57,4.24-2.79-.07-4.31-1.73-4.23-4.5.07-2.79,1.73-4.31,4.5-4.24,2.8.07,4.16,1.76,4.3,4.5Z"/>
    <path class="cls-2" d="M153.77,505.08c-2.68-.17-4.46-1.56-4.54-4.31-.1-2.93,1.59-4.71,4.55-4.68,2.75.02,4.37,1.7,4.39,4.45.01,2.75-1.63,4.25-4.4,4.55Z"/>
    <path class="cls-2" d="M181.87,432.86c-.34,2.46-1.69,3.98-4.3,3.93-2.8-.05-4.33-1.67-4.2-4.45.13-2.82,1.89-4.21,4.64-3.99,2.6.21,3.79,1.89,3.86,4.51Z"/>
    <path class="cls-2" d="M43.03,175.35c-2.65-.47-4.06-2.1-3.73-4.89.3-2.62,2.04-3.89,4.6-3.66,2.84.25,4.16,2.06,3.85,4.82-.29,2.64-2.05,3.74-4.72,3.73Z"/>
    <path class="cls-2" d="M171.06,506.66c-2.57-.27-4.13-1.59-4.14-4.2-.02-2.79,1.54-4.36,4.33-4.31,2.59.03,4.08,1.54,4.12,4.13.04,2.82-1.6,4.19-4.31,4.39Z"/>
    <path class="cls-2" d="M41.74,184.25c2.55.31,4.15,1.62,4.12,4.27-.04,2.61-1.57,4.13-4.18,4.11-2.61-.02-4.13-1.57-4.12-4.18,0-2.64,1.63-3.93,4.18-4.21Z"/>
    <path class="cls-2" d="M75.49,439.98c-.25,2.76-1.7,4.36-4.49,4.31-2.79-.05-4.35-1.66-4.3-4.44.04-2.78,1.66-4.34,4.44-4.3,2.8.03,4.18,1.69,4.36,4.43Z"/>
    <path class="cls-2" d="M81.48,507.35c2.45.52,4.08,1.91,3.83,4.52-.24,2.54-1.93,4.02-4.52,3.75-2.34-.23-3.77-1.81-3.67-4.2.11-2.61,1.79-3.86,4.35-4.07Z"/>
    <path class="cls-2" d="M103,513.43c-.23,2.57-1.54,4.15-4.18,4.18-2.82.04-4.43-1.48-4.39-4.33.04-2.84,1.72-4.31,4.53-4.18,2.64.12,3.89,1.75,4.04,4.33Z"/>
    <path class="cls-2" d="M121.41,515.07c-.23,2.88-1.65,4.51-4.45,4.49-2.78-.01-4.37-1.6-4.36-4.38.01-2.78,1.6-4.35,4.38-4.37,2.82-.01,4.19,1.65,4.43,4.25Z"/>
    <path class="cls-2" d="M134.43,512.52c2.75.24,4.41,1.69,4.39,4.5-.01,2.79-1.64,4.41-4.43,4.4-2.79,0-4.41-1.62-4.41-4.42,0-2.81,1.66-4.25,4.44-4.47Z"/>
    <path class="cls-2" d="M56.15,407.45c-2.46-.39-3.99-1.74-3.91-4.36.08-2.59,1.59-4.1,4.19-4.07,2.81.04,4.32,1.71,4.16,4.48-.15,2.6-1.83,3.83-4.44,3.94Z"/>
    <path class="cls-2" d="M156.26,518.69c-.25,2.95-1.71,4.55-4.54,4.46-2.83-.09-4.3-1.78-4.19-4.57.1-2.6,1.64-4.05,4.26-4.09,2.87-.05,4.21,1.63,4.47,4.19Z"/>
    <path class="cls-2" d="M173.54,520.04c-.45,2.45-1.81,4.04-4.41,3.9-2.56-.14-4.05-1.75-3.93-4.31.12-2.57,1.74-4.05,4.31-3.94,2.59.11,3.83,1.79,4.03,4.35Z"/>
    <path class="cls-2" d="M172.73,489.27c-2.74-.34-4.24-1.88-4.05-4.67.19-2.81,1.95-4.18,4.7-3.96,2.59.2,3.95,1.81,3.88,4.39-.07,2.83-1.76,4.14-4.53,4.24Z"/>
    <path class="cls-2" d="M84.76,472.2c2.87.24,4.5,1.66,4.49,4.46-.01,2.78-1.6,4.36-4.38,4.36-2.78,0-4.36-1.6-4.36-4.38-.01-2.82,1.66-4.19,4.26-4.43Z"/>
    <path class="cls-2" d="M71.62,474.9c-.42,2.5-1.77,4.15-4.38,4.01-2.57-.13-4.07-1.79-3.92-4.37.14-2.36,1.68-3.83,4.07-3.83,2.61,0,3.91,1.66,4.23,4.19Z"/>
    <path class="cls-2" d="M97.75,535.04c-2.53-.3-4.16-1.57-4.18-4.18-.02-2.57,1.51-4.13,4.08-4.17,2.57-.03,4.13,1.51,4.17,4.09.04,2.6-1.58,3.9-4.07,4.26Z"/>
    <path class="cls-2" d="M115.33,536.96c-2.95-.3-4.53-1.73-4.41-4.54.11-2.59,1.65-4.05,4.24-4,2.81.03,4.3,1.66,4.21,4.45-.08,2.63-1.76,3.81-4.04,4.1Z"/>
    <path class="cls-2" d="M136.92,534.54c-.26,2.61-1.59,4.16-4.23,4.18-2.82.01-4.39-1.54-4.35-4.37.04-2.62,1.54-4.11,4.16-4.15,2.85-.04,4.24,1.59,4.42,4.34Z"/>
    <path class="cls-2" d="M154.3,536.3c-.27,2.53-1.56,4.15-4.18,4.15-2.8,0-4.36-1.61-4.25-4.4.11-2.59,1.71-4.02,4.3-3.96,2.62.06,3.89,1.66,4.13,4.21Z"/>
    <path class="cls-2" d="M49.67,330.59c-.48,2.75-1.84,4.37-4.45,4.25-2.37-.12-3.86-1.62-3.89-4-.03-2.59,1.52-4.17,4.1-4.2,2.64-.03,3.81,1.77,4.24,3.95Z"/>
    <path class="cls-2" d="M166.46,364.34c-2.53-.37-4.11-1.72-4.02-4.36.09-2.61,1.67-4.1,4.27-4.02,2.61.07,4.09,1.66,4.03,4.26-.06,2.65-1.72,3.9-4.28,4.12Z"/>
    <path class="cls-2" d="M174.07,463.03c2.77.28,4.33,1.78,4.25,4.56-.08,2.79-1.73,4.31-4.5,4.23-2.79-.07-4.3-1.73-4.23-4.5.07-2.8,1.76-4.15,4.49-4.29Z"/>
    <path class="cls-2" d="M117.52,550.29c-.49,2.46-1.86,4.07-4.47,3.89-2.35-.16-3.84-1.67-3.82-4.07.02-2.58,1.59-4.16,4.17-4.12,2.61.04,3.87,1.75,4.12,4.3Z"/>
    <path class="cls-2" d="M131,547.69c2.45.44,4.04,1.8,3.9,4.41-.14,2.56-1.75,4.05-4.32,3.93-2.56-.13-4.04-1.74-3.93-4.32.11-2.59,1.79-3.82,4.34-4.02Z"/>
    <path class="cls-2" d="M92.77,69.37c-.36,2.48-1.7,4.01-4.32,3.95-2.6-.05-4.11-1.55-4.1-4.15.01-2.8,1.67-4.33,4.45-4.2,2.6.12,3.83,1.8,3.97,4.39Z"/>
    <path class="cls-2" d="M106.1,75.44c-2.72-.16-4.46-1.51-4.54-4.32-.08-2.78,1.46-4.49,4.26-4.58,2.77-.08,4.49,1.47,4.57,4.27.09,2.78-1.49,4.32-4.3,4.63Z"/>
    <path class="cls-2" d="M127.95,72.83c-.26,2.72-1.71,4.42-4.47,4.43-2.96,0-4.65-1.77-4.53-4.71.11-2.75,1.86-4.31,4.6-4.24,2.76.08,4.18,1.78,4.39,4.52Z"/>
    <path class="cls-2" d="M141.61,79c-2.79-.28-4.35-1.77-4.22-4.6.12-2.83,1.85-4.26,4.63-4.12,2.61.14,4.04,1.72,4.02,4.33-.02,2.84-1.65,4.23-4.43,4.38Z"/>
    <path class="cls-2" d="M69.06,453.05c2.81.28,4.38,1.59,4.41,4.2.03,2.79-1.51,4.38-4.31,4.35-2.59-.02-4.08-1.52-4.15-4.1-.08-2.85,1.63-4.15,4.05-4.44Z"/>
    <path class="cls-2" d="M69.55,80.47c2.5.31,4.02,1.69,3.97,4.33-.05,2.84-1.67,4.36-4.48,4.23-2.85-.13-4.24-1.9-4.02-4.68.21-2.64,1.9-3.82,4.54-3.88Z"/>
    <path class="cls-2" d="M53.55,296.11c-.45,2.89-2.12,4.36-4.87,4.14-2.8-.22-4.24-2.05-4.02-4.8.22-2.8,2.05-4.23,4.8-4.02,2.81.22,4.04,2.07,4.09,4.68Z"/>
    <path class="cls-2" d="M157.22,98.35c-2.79-.3-4.39-1.81-4.31-4.61.09-2.8,1.77-4.35,4.55-4.28,2.8.08,4.35,1.77,4.28,4.55-.07,2.81-1.79,4.18-4.53,4.34Z"/>
    <path class="cls-2" d="M75.12,67.38c-.39,2.31-1.67,3.92-4.01,3.9-2.54-.03-4.13-1.69-3.98-4.23.14-2.3,1.76-3.8,4.11-3.69,2.34.11,3.58,1.71,3.88,4.02Z"/>
    <path class="cls-2" d="M44.62,344.11c2.3.48,3.88,1.78,3.82,4.17-.06,2.36-1.62,3.94-3.98,3.91-2.56-.03-4.16-1.71-4.01-4.27.14-2.33,1.81-3.58,4.17-3.81Z"/>
    <path class="cls-2" d="M95.81,552.36c-2.31-.4-3.91-1.68-3.93-4.05-.02-2.38,1.52-3.97,3.86-4.03,2.56-.06,4.19,1.6,4.12,4.16-.06,2.36-1.73,3.61-4.06,3.92Z"/>
    <path class="cls-2" d="M42.13,224.29c-.49,2.42-1.81,3.99-4.17,3.88-2.52-.12-4.08-1.81-3.83-4.36.23-2.28,1.88-3.75,4.24-3.55,2.34.19,3.51,1.85,3.76,4.03Z"/>
    <path class="cls-2" d="M179.51,419.27c-2.51-.3-4.19-1.62-4.17-4.23.02-2.39,1.56-3.93,3.92-3.98,2.59-.06,4.19,1.53,4.2,4.12,0,2.41-1.61,3.67-3.95,4.09Z"/>
    <path class="cls-2" d="M129.33,55.24c-.28,2.34-1.55,3.99-3.89,4.08-2.57.1-4.22-1.53-4.19-4.1.03-2.36,1.63-3.88,3.99-3.9,2.39,0,3.67,1.6,4.09,3.91Z"/>
    <path class="cls-2" d="M50.19,105.39c-2.61-.38-4.29-1.7-4.24-4.28.05-2.34,1.6-3.89,3.94-3.91,2.55-.02,4.13,1.59,4.12,4.15-.02,2.39-1.71,3.55-3.82,4.04Z"/>
    <path class="cls-2" d="M172.54,342.58c-.33,2.46-1.64,4.14-4.22,4.1-2.35-.03-3.9-1.58-3.94-3.91-.05-2.55,1.57-4.15,4.11-4.14,2.37,0,3.62,1.62,4.04,3.95Z"/>
    <path class="cls-2" d="M152.38,553.75c-.39,2.48-1.73,4.14-4.35,4.04-2.37-.1-3.89-1.65-3.87-4.04.02-2.58,1.65-4.15,4.24-4.07,2.39.07,3.63,1.7,3.97,4.08Z"/>
    <path class="cls-2" d="M79.63,533.04c-2.4-.22-4.03-1.48-4.16-3.79-.15-2.54,1.46-4.2,3.99-4.22,2.34-.01,3.86,1.56,3.92,3.9.06,2.37-1.55,3.62-3.75,4.11Z"/>
    <path class="cls-2" d="M163.28,76.48c-.41,2.44-1.76,4.1-4.34,3.98-2.33-.11-3.86-1.67-3.82-4.02.04-2.55,1.68-4.12,4.24-4.03,2.35.09,3.59,1.71,3.92,4.07Z"/>
    <path class="cls-2" d="M192.38,473.4c-2.43-.32-4.07-1.59-4.14-3.94-.08-2.57,1.56-4.2,4.12-4.16,2.35.04,3.86,1.65,3.87,4.01,0,2.42-1.66,3.62-3.85,4.08Z"/>
    <path class="cls-2" d="M194.5,486.84c-.43,2.32-1.72,3.91-4.11,3.9-2.37,0-3.95-1.56-3.98-3.91-.03-2.56,1.64-4.18,4.2-4.08,2.36.09,3.6,1.76,3.88,4.09Z"/>
    <path class="cls-2" d="M39.74,202.58c2.55.4,4.16,1.66,4.2,4.06.05,2.59-1.55,4.23-4.13,4.18-2.57-.05-4.12-1.73-3.98-4.33.12-2.39,1.84-3.54,3.91-3.91Z"/>
    <path class="cls-2" d="M188.57,500.14c2.3.31,3.92,1.58,3.97,3.92.05,2.54-1.59,4.16-4.13,4.08-2.32-.06-3.83-1.67-3.79-4.01.04-2.36,1.62-3.62,3.94-3.99Z"/>
    <path class="cls-2" d="M171.65,538.05c-.47,2.57-1.83,4.23-4.41,4.07-2.32-.14-3.85-1.71-3.77-4.08.08-2.54,1.73-4.1,4.28-3.97,2.36.11,3.52,1.8,3.9,3.97Z"/>
    <path class="cls-2" d="M58.8,420.49c-.45,2.7-1.81,4.34-4.42,4.21-2.37-.13-3.88-1.68-3.83-4.08.06-2.58,1.7-4.13,4.29-4.03,2.41.1,3.54,1.82,3.96,3.91Z"/>
    <path class="cls-2" d="M69.7,492.29c-.36,2.32-1.64,3.96-4,3.97-2.57.02-4.19-1.64-4.08-4.21.11-2.33,1.72-3.84,4.1-3.78,2.38.07,3.63,1.69,3.98,4.02Z"/>
    <path class="cls-2" d="M111.5,563.46c2.44.45,3.99,1.76,3.96,4.11-.03,2.35-1.57,3.91-3.9,3.92-2.54,0-4.12-1.65-4.01-4.2.1-2.36,1.81-3.52,3.95-3.83Z"/>
    <path class="cls-2" d="M128.85,573.45c-2.32-.43-3.91-1.73-3.89-4.11.01-2.37,1.56-3.96,3.91-3.98,2.57-.02,4.18,1.64,4.08,4.21-.09,2.35-1.76,3.59-4.09,3.88Z"/>
    <path class="cls-2" d="M67.61,509.65c-.18,2.2-1.33,3.7-3.54,3.83-2.41.15-3.96-1.26-4.05-3.68-.08-2.21,1.29-3.7,3.48-3.84,2.4-.15,3.79,1.27,4.11,3.68Z"/>
    <path class="cls-2" d="M146.66,57.04c-.29,2.38-1.57,4-3.97,3.99-2.4,0-3.91-1.59-3.89-3.98.02-2.22,1.51-3.68,3.68-3.79,2.43-.12,3.73,1.46,4.18,3.78Z"/>
    <path class="cls-2" d="M52.68,434.14c2.32.25,3.94,1.5,3.98,3.9.03,2.4-1.52,3.93-3.92,3.95-2.21.02-3.7-1.46-3.84-3.63-.15-2.4,1.37-3.78,3.79-4.22Z"/>
    <path class="cls-2" d="M190.66,521.65c-.29,2.33-1.6,3.87-3.99,3.81-2.37-.06-3.83-1.64-3.74-4.02.08-2.18,1.54-3.6,3.72-3.65,2.39-.04,3.71,1.46,4.01,3.85Z"/>
    <path class="cls-2" d="M107.7,49.55c2.32.25,3.94,1.5,3.98,3.91.03,2.4-1.53,3.93-3.93,3.94-2.21.02-3.7-1.45-3.84-3.62-.15-2.41,1.37-3.78,3.79-4.23Z"/>
    <path class="cls-2" d="M42.53,370.3c-2.41-.31-3.82-1.71-3.68-4.11.13-2.19,1.63-3.56,3.84-3.48,2.42.08,3.83,1.66,3.68,4.05-.14,2.2-1.63,3.38-3.85,3.54Z"/>
    <path class="cls-2" d="M169.57,555.59c-.34,2.39-1.69,3.89-4.07,3.79-2.37-.12-3.8-1.72-3.65-4.1.13-2.17,1.6-3.58,3.79-3.56,2.39.01,3.67,1.54,3.93,3.88Z"/>
    <path class="cls-2" d="M178.74,95.84c-.47,2.41-1.86,3.94-4.26,3.73-2.35-.21-3.81-1.86-3.56-4.29.22-2.16,1.76-3.56,3.96-3.47,2.41.09,3.64,1.71,3.86,4.03Z"/>
    <path class="cls-2" d="M55.61,455.71c-.35,2.41-1.77,3.79-4.17,3.6-2.2-.18-3.53-1.69-3.41-3.9.13-2.41,1.71-3.79,4.12-3.6,2.2.18,3.33,1.7,3.46,3.91Z"/>
    <path class="cls-2" d="M146.37,567.21c2.32.29,3.93,1.57,3.91,3.97-.02,2.4-1.6,3.91-4,3.87-2.21-.03-3.67-1.52-3.77-3.69-.1-2.42,1.44-3.76,3.85-4.15Z"/>
    <path class="cls-2" d="M93.93,569.53c-2.46-.38-3.84-1.79-3.62-4.21.2-2.2,1.73-3.51,3.93-3.37,2.4.16,3.77,1.73,3.56,4.16-.2,2.21-1.73,3.3-3.87,3.42Z"/>
    <path class="cls-2" d="M174.19,325.32c-.44,2.41-1.83,3.95-4.23,3.76-2.36-.19-3.83-1.83-3.6-4.25.2-2.17,1.73-3.59,3.93-3.52,2.41.08,3.66,1.68,3.9,4.01Z"/>
    <path class="cls-2" d="M197.18,451.89c-.38,2.38-1.73,3.94-4.14,3.82-2.38-.12-3.86-1.75-3.7-4.15.13-2.17,1.64-3.62,3.85-3.61,2.41,0,3.7,1.58,3.99,3.94Z"/>
    <path class="cls-2" d="M144.5,592.21c-2.45-.28-3.61-1.62-3.44-3.9.18-2.34,1.67-3.41,3.94-3.2,2.13.19,3.18,1.54,3.12,3.62-.07,2.37-1.49,3.39-3.62,3.48Z"/>
    <path class="cls-2" d="M78.37,542.76c2.23.13,3.63,1.28,3.72,3.53.08,2.23-1.14,3.7-3.39,3.81-2.42.13-3.92-1.21-3.92-3.69,0-2.24,1.34-3.47,3.6-3.65Z"/>
    <path class="cls-2" d="M39.94,241.83c-.25,2.25-1.52,3.56-3.75,3.5-2.47-.07-3.77-1.59-3.58-4.02.17-2.27,1.69-3.43,3.9-3.29,2.25.14,3.35,1.59,3.43,3.81Z"/>
    <path class="cls-2" d="M93.97,51.69c-.15,2.27-1.34,3.6-3.62,3.6-2.28,0-3.6-1.31-3.6-3.59,0-2.27,1.31-3.59,3.59-3.59,2.28,0,3.49,1.31,3.64,3.59Z"/>
    <path class="cls-2" d="M51.83,80.15c2.14.12,3.52,1.26,3.57,3.55.04,2.26-1.22,3.63-3.51,3.69-2.26.04-3.64-1.22-3.68-3.51-.04-2.26,1.2-3.55,3.62-3.73Z"/>
    <path class="cls-2" d="M163.88,576.63c-2.2-.12-3.58-1.26-3.62-3.55-.05-2.26,1.22-3.64,3.51-3.68,2.27-.06,3.64,1.22,3.69,3.51.05,2.27-1.23,3.52-3.57,3.72Z"/>
    <path class="cls-2" d="M184.91,397.7c-.17,2.25-1.38,3.61-3.63,3.61-2.46.01-3.83-1.46-3.71-3.89.11-2.25,1.56-3.5,3.79-3.42,2.24.09,3.42,1.45,3.55,3.7Z"/>
    <path class="cls-2" d="M175.68,307.74c-.08,2.1-1.17,3.53-3.46,3.62-2.25.09-3.67-1.13-3.76-3.42-.08-2.26,1.14-3.69,3.43-3.77,2.25-.09,3.56,1.14,3.8,3.58Z"/>
    <path class="cls-2" d="M181.31,538.99c.24-2.34,1.53-3.58,3.8-3.49,2.29.09,3.52,1.49,3.43,3.75-.09,2.29-1.49,3.52-3.76,3.43-2.29-.09-3.4-1.5-3.47-3.69Z"/>
    <path class="cls-2" d="M109.92,581.36c2.28.27,3.48,1.61,3.36,3.86-.13,2.29-1.57,3.48-3.83,3.35-2.29-.12-3.48-1.57-3.36-3.82.13-2.3,1.58-3.36,3.83-3.39Z"/>
    <path class="cls-2" d="M127.16,590.5c-2.24-.14-3.61-1.31-3.68-3.56-.07-2.23,1.18-3.69,3.43-3.78,2.43-.11,3.91,1.25,3.89,3.72-.02,2.25-1.37,3.46-3.63,3.62Z"/>
    <path class="cls-2" d="M180.07,77.24c-.3,2.38-1.42,3.61-3.57,3.54-2.14-.08-3.32-1.34-3.25-3.47.07-2.14,1.34-3.3,3.48-3.26,2.22.02,3.07,1.48,3.35,3.2Z"/>
    <path class="cls-2" d="M195.38,96.59c-.3,1.95-1.35,3.22-3.23,3.15-1.87-.07-3.07-1.36-2.97-3.25.09-1.67,1.26-2.82,2.95-2.87,1.93-.06,2.89,1.26,3.25,2.97Z"/>
    <path class="cls-2" d="M190.29,111.59c2.09.2,3.43,1.24,3.42,3.37,0,2.11-1.28,3.33-3.4,3.31-1.91-.03-3.1-1.2-3.21-3.1-.12-2.13,1.16-3.23,3.18-3.58Z"/>
    <path class="cls-2" d="M188.44,128.9c2.46.22,3.72,1.43,3.6,3.75-.11,2.1-1.37,3.26-3.48,3.22-2.32-.04-3.52-1.38-3.42-3.68.09-2.14,1.44-3.1,3.3-3.29Z"/>
    <path class="cls-2" d="M191.1,149.91c-.19,2.24-1.38,3.51-3.69,3.41-2.1-.09-3.28-1.33-3.25-3.44.02-2.32,1.34-3.54,3.64-3.45,2.12.07,3.16,1.36,3.3,3.48Z"/>
    <path class="cls-2" d="M44.45,529.22c-1.9-.29-3.08-1.4-2.93-3.31.13-1.68,1.34-2.8,3.05-2.73,1.9.08,3.07,1.36,2.93,3.27-.13,1.68-1.33,2.62-3.05,2.77Z"/>
    <path class="cls-2" d="M65.46,527.29c-.23,2.11-1.33,3.33-3.44,3.33-2.31,0-3.57-1.29-3.5-3.6.06-2.11,1.29-3.29,3.39-3.3,2.33,0,3.45,1.33,3.55,3.57Z"/>
    <path class="cls-2" d="M189.3,167.17c-.21,2.47-1.43,3.72-3.74,3.6-2.1-.11-3.26-1.37-3.22-3.47.04-2.33,1.39-3.52,3.68-3.42,2.14.08,3.1,1.44,3.28,3.29Z"/>
    <path class="cls-2" d="M187.41,184.9c-.24,2.08-1.34,3.31-3.47,3.27-2.35-.04-3.54-1.43-3.37-3.72.16-2.11,1.51-3.2,3.62-3.08,2.14.12,3.13,1.44,3.22,3.53Z"/>
    <path class="cls-2" d="M185.57,202.16c-.17,2.11-1.22,3.41-3.37,3.43-2.13.03-3.38-1.17-3.42-3.31-.03-2.14,1.17-3.38,3.31-3.42,2.15-.04,3.24,1.22,3.47,3.3Z"/>
    <path class="cls-2" d="M176.93,219.55c.29-2.03,1.39-3.29,3.51-3.21,2.1.08,3.29,1.34,3.22,3.43-.07,2.1-1.34,3.28-3.44,3.23-2.12-.06-3.13-1.38-3.29-3.45Z"/>
    <path class="cls-2" d="M178.41,233.69c2.29.36,3.53,1.47,3.42,3.59-.11,2.1-1.39,3.27-3.49,3.16-2.1-.09-3.24-1.38-3.18-3.48.07-2.17,1.52-3.01,3.24-3.28Z"/>
    <path class="cls-2" d="M177.32,258.8c-2.01-.32-3.25-1.43-3.15-3.55.11-2.09,1.39-3.26,3.49-3.17,2.09.09,3.26,1.39,3.17,3.48-.09,2.11-1.42,3.11-3.51,3.23Z"/>
    <path class="cls-2" d="M38.75,259.05c-.13,2.24-1.26,3.56-3.59,3.52-2.11-.04-3.32-1.24-3.35-3.35-.03-2.3,1.23-3.58,3.55-3.56,2.12.03,3.2,1.28,3.4,3.38Z"/>
    <path class="cls-2" d="M179.11,272.8c-.17,2.1-1.22,3.4-3.37,3.42-2.13.02-3.39-1.17-3.41-3.31-.03-2.14,1.17-3.37,3.31-3.42,2.15-.04,3.24,1.22,3.47,3.31Z"/>
    <path class="cls-2" d="M36.83,276.58c-.23,2.06-1.28,3.34-3.4,3.33-2.1-.01-3.33-1.25-3.32-3.34.01-2.1,1.24-3.32,3.34-3.32,2.12,0,3.17,1.29,3.38,3.33Z"/>
    <path class="cls-2" d="M56.77,545.21c.41-2.01,1.58-3.28,3.69-3.04,2.08.22,3.22,1.6,2.96,3.71-.23,1.87-1.48,2.98-3.4,2.88-2.13-.1-3.13-1.45-3.25-3.55Z"/>
    <path class="cls-2" d="M177.39,290.24c-.26,2.31-1.37,3.53-3.48,3.52-2.31-.01-3.56-1.31-3.48-3.62.07-2.1,1.3-3.27,3.41-3.28,2.36-.02,3.39,1.4,3.56,3.39Z"/>
    <path class="cls-2" d="M34.9,294.14c-.36,1.86-1.4,3.11-3.31,3.1-1.9-.02-3.17-1.26-3.17-3.13-.01-2.1,1.34-3.4,3.43-3.28,1.88.11,2.87,1.44,3.05,3.31Z"/>
    <path class="cls-2" d="M186.57,557.2c-.09,2.12-1.1,3.47-3.22,3.56-2.3.1-3.65-1.13-3.63-3.48.02-2.13,1.25-3.3,3.38-3.32,2.13-.02,3.24,1.2,3.47,3.24Z"/>
    <path class="cls-2" d="M62.35,563.01c-.38,1.86-1.44,3.11-3.33,3.02-1.87-.09-3.08-1.37-2.99-3.25.09-1.87,1.37-3.08,3.25-2.99,1.88.08,2.86,1.39,3.07,3.22Z"/>
    <path class="cls-2" d="M76.77,561.27c2.06.26,3.28,1.38,3.22,3.5-.06,2.35-1.47,3.52-3.76,3.34-2.11-.18-3.18-1.55-3.04-3.64.14-2.14,1.47-3.12,3.58-3.2Z"/>
    <path class="cls-2" d="M188,361.98c-.33,1.87-1.39,3.12-3.28,3.01-1.87-.11-3.05-1.42-2.9-3.31.12-1.66,1.31-2.82,3.01-2.81,1.9,0,2.92,1.26,3.18,3.11Z"/>
    <path class="cls-2" d="M179.66,379.26c.29-2.03,1.39-3.29,3.5-3.21,2.1.08,3.29,1.34,3.22,3.44-.07,2.1-1.34,3.28-3.44,3.22-2.12-.06-3.13-1.38-3.28-3.45Z"/>
    <path class="cls-2" d="M40.73,387.42c-2.08-.17-3.34-1.24-3.38-3.36-.05-2.3,1.2-3.62,3.51-3.58,2.33.04,3.5,1.44,3.38,3.72-.12,2.11-1.44,3.12-3.51,3.22Z"/>
    <path class="cls-2" d="M39.02,397.99c2.05.25,3.32,1.32,3.28,3.45-.04,2.1-1.28,3.3-3.38,3.27-2.1-.03-3.3-1.28-3.28-3.38.02-2.13,1.33-3.16,3.38-3.34Z"/>
    <path class="cls-2" d="M200.16,416.69c-.23,2.04-1.24,3.35-3.12,3.44-2.1.09-3.43-1.23-3.38-3.32.04-1.88,1.32-3.08,3.22-3.1,1.93,0,2.87,1.35,3.28,2.97Z"/>
    <path class="cls-2" d="M185.51,574.98c-.37,2.02-1.5,3.31-3.62,3.13-2.09-.18-3.25-1.55-3.04-3.65.18-1.86,1.41-3,3.34-2.95,2.13.06,3.15,1.39,3.33,3.47Z"/>
    <path class="cls-2" d="M40.47,418.82c-.3,2-1.38,3.34-3.49,3.24-1.87-.07-3.08-1.32-3.07-3.19.01-2.08,1.32-3.35,3.4-3.28,1.89.06,2.87,1.35,3.16,3.23Z"/>
    <path class="cls-2" d="M198.53,434.45c-.21,2.26-1.44,3.5-3.74,3.38-2.1-.11-3.25-1.39-3.21-3.48.05-2.33,1.4-3.52,3.69-3.41,2.11.1,3.13,1.41,3.25,3.51Z"/>
    <path class="cls-2" d="M38.46,436.35c-.36,1.9-1.45,3.13-3.35,2.98-1.85-.15-3.03-1.48-2.84-3.38.17-1.65,1.36-2.79,3.07-2.74,1.89.05,2.89,1.31,3.11,3.14Z"/>
    <path class="cls-2" d="M78.13,582.04c-.2,2.05-1.25,3.4-3.33,3.41-2.07,0-3.31-1.28-3.3-3.35.01-1.88,1.21-3.08,3.05-3.2,2.09-.13,3.2,1.16,3.57,3.13Z"/>
    <path class="cls-2" d="M95.68,583.83c-.09,2.13-1.09,3.47-3.22,3.56-2.31.1-3.65-1.13-3.62-3.48.02-2.12,1.25-3.3,3.38-3.32,2.13-.01,3.23,1.2,3.47,3.24Z"/>
    <path class="cls-2" d="M50.01,469.51c2.23.18,3.51,1.38,3.4,3.69-.09,2.11-1.34,3.28-3.44,3.25-2.32-.02-3.54-1.35-3.45-3.64.08-2.11,1.36-3.16,3.49-3.3Z"/>
    <path class="cls-2" d="M162.8,587.05c2.07.19,3.37,1.22,3.4,3.34.02,2.1-1.18,3.35-3.29,3.38-2.1.04-3.34-1.18-3.38-3.28-.04-2.12,1.23-3.19,3.27-3.45Z"/>
    <path class="cls-2" d="M183.52,592.22c-.24,1.83-1.24,3.12-3.13,3.18-1.88.05-3.14-1.19-3.2-3.05-.06-1.89,1.18-3.14,3.05-3.2,1.9-.06,2.94,1.21,3.28,3.08Z"/>
    <path class="cls-2" d="M48.2,487.05c2.05.26,3.32,1.33,3.28,3.45-.04,2.1-1.28,3.31-3.38,3.28-2.1-.04-3.3-1.28-3.28-3.38.02-2.12,1.33-3.16,3.38-3.35Z"/>
    <path class="cls-2" d="M72.93,596.49c1.81.24,3.06,1.25,3.1,3.14.03,1.71-1.12,2.89-2.77,3.05-1.91.18-3.21-1.02-3.35-2.87-.15-1.89,1.1-2.97,3.02-3.33Z"/>
    <path class="cls-2" d="M93.76,601.57c-.37,2-1.48,3.31-3.57,3.14-2.05-.15-3.24-1.51-3.05-3.58.16-1.83,1.4-2.99,3.28-2.96,2.09.04,3.12,1.38,3.34,3.4Z"/>
    <path class="cls-2" d="M111.29,602.94c-.27,2.39-1.32,3.67-3.44,3.66-2.1-.02-3.33-1.25-3.32-3.34,0-2.1,1.23-3.29,3.34-3.33,2.2-.04,3.04,1.43,3.43,3.01Z"/>
    <path class="cls-2" d="M109.66,39.26c-1.83-.24-3.12-1.24-3.17-3.12-.05-1.88,1.18-3.15,3.05-3.2,1.89-.06,3.14,1.19,3.2,3.05.06,1.89-1.21,2.93-3.08,3.27Z"/>
    <path class="cls-2" d="M128.73,604.06c-.11,2.15-1.12,3.48-3.28,3.56-2.12.08-3.42-1.08-3.51-3.22-.09-2.13,1.08-3.42,3.22-3.51,2.14-.1,3.28,1.12,3.56,3.17Z"/>
    <path class="cls-2" d="M143.85,602.71c2,.42,3.26,1.58,3.03,3.69-.22,2.07-1.61,3.22-3.71,2.96-1.87-.23-2.98-1.48-2.88-3.4.11-2.12,1.45-3.13,3.56-3.25Z"/>
    <path class="cls-2" d="M127.02,41.22c-1.97-.4-3.23-1.43-3.19-3.33.04-2.07,1.35-3.37,3.43-3.25,2.05.14,3.26,1.54,3.04,3.63-.2,1.85-1.57,2.75-3.27,2.94Z"/>
    <path class="cls-2" d="M164.33,608.02c-.36,1.85-1.41,3.11-3.31,3.09-1.9-.02-3.17-1.26-3.18-3.13-.01-2.1,1.34-3.4,3.43-3.28,1.87.11,2.87,1.44,3.05,3.32Z"/>
    <path class="cls-2" d="M144.46,35.64c2.02.41,3.27,1.47,3.18,3.37-.09,1.86-1.37,3.08-3.26,2.99-1.86-.09-3.05-1.36-3-3.26.07-1.92,1.48-2.78,3.08-3.09Z"/>
    <path class="cls-2" d="M91.72,618.9c-.27,1.83-1.31,3.11-3.2,3.05-1.88-.05-3.07-1.33-2.99-3.22.07-1.68,1.25-2.85,2.93-2.9,1.9-.05,2.96,1.17,3.26,3.07Z"/>
    <path class="cls-2" d="M109.35,620.75c-.43,1.98-1.48,3.23-3.39,3.17-1.89-.07-3.15-1.31-3.12-3.2.03-2.08,1.39-3.36,3.49-3.21,1.89.14,2.79,1.54,3.02,3.24Z"/>
    <path class="cls-2" d="M124.43,625.85c-2.01-.32-3.32-1.35-3.32-3.24.01-2.1,1.36-3.4,3.45-3.26,1.85.13,3.04,1.43,2.97,3.35-.08,1.93-1.45,2.83-3.1,3.16Z"/>
    <path class="cls-2" d="M141.74,620.4c1.81.24,3.07,1.25,3.1,3.14.03,1.71-1.12,2.89-2.77,3.04-1.91.19-3.22-1.02-3.35-2.86-.14-1.89,1.11-2.98,3.02-3.33Z"/>
    <path class="cls-2" d="M72.94,53.25c-2.07-.24-3.4-1.31-3.35-3.44.05-2.11,1.35-3.31,3.46-3.24,1.9.07,3.07,1.26,3.14,3.16.07,2.13-1.21,3.22-3.26,3.52Z"/>
    <path class="cls-2" d="M164.46,58.03c-.25,2.31-1.35,3.55-3.48,3.52-2.35-.04-3.55-1.43-3.38-3.72.15-2.11,1.51-3.19,3.61-3.08,2.16.1,3.07,1.49,3.26,3.29Z"/>
    <path class="cls-2" d="M178.42,63.1c-1.85-.29-3.11-1.33-3.05-3.22.07-1.87,1.36-3.07,3.26-2.97,1.67.08,2.83,1.26,2.87,2.95.04,1.9-1.2,2.94-3.07,3.24Z"/>
    <path class="cls-2" d="M49.64,508.94c-.37,1.81-1.4,3.07-3.29,3.04-2.08-.04-3.37-1.36-3.24-3.43.13-2.06,1.54-3.27,3.62-3.03,1.84.21,2.81,1.52,2.92,3.42Z"/>
    <path class="cls-2" d="M50.22,66.22c.29-2.04,1.39-3.29,3.51-3.21,2.1.08,3.29,1.34,3.21,3.44-.07,2.1-1.34,3.28-3.44,3.23-2.12-.07-3.13-1.38-3.28-3.45Z"/>
    <path class="cls-2" d="M32.64,311.48c-.16,1.71-1.08,2.79-2.84,2.8-1.75.01-2.81-1.04-2.82-2.79,0-1.75,1.04-2.8,2.79-2.82,1.76-.02,2.68,1.06,2.86,2.81Z"/>
    <path class="cls-2" d="M191.92,309.35c-.21,1.52-.98,2.49-2.34,2.55-1.4.06-2.33-.9-2.41-2.25-.07-1.41.89-2.32,2.25-2.41,1.44-.1,2.08,1.01,2.5,2.11Z"/>
    <path class="cls-2" d="M190.24,326.98c-.14,1.61-.96,2.59-2.61,2.56-1.64-.04-2.53-1.04-2.46-2.67.06-1.43.93-2.3,2.37-2.36,1.65-.07,2.51.86,2.71,2.47Z"/>
    <path class="cls-2" d="M31.76,81.88c.17-1.63,1.05-2.54,2.69-2.47,1.64.07,2.52,1.02,2.46,2.65-.06,1.64-1.02,2.51-2.65,2.46-1.66-.05-2.43-1.04-2.49-2.64Z"/>
    <path class="cls-2" d="M36.26,453.8c-.19,1.85-1.23,2.78-3.03,2.63-1.62-.13-2.5-1.17-2.44-2.79.08-1.86,1.21-2.77,3-2.63,1.63.13,2.41,1.19,2.46,2.79Z"/>
    <path class="cls-2" d="M28.72,509.23c-1.34-.41-2.33-1.23-2.09-2.61.22-1.27,1.2-2.23,2.64-1.94,1.13.23,1.99,1.09,1.88,2.32-.12,1.37-1.07,2.1-2.42,2.23Z"/>
    <path class="cls-2" d="M201.27,398.45c-.02,1.63-.76,2.66-2.41,2.76-1.62.09-2.64-.73-2.73-2.39-.09-1.61.73-2.62,2.38-2.72,1.63-.1,2.55.76,2.77,2.36Z"/>
    <path class="cls-2" d="M28.07,149.03c1.62.18,2.56,1.09,2.55,2.71,0,1.84-1.07,2.84-2.89,2.74-1.86-.1-2.71-1.32-2.53-3.09.17-1.61,1.27-2.36,2.87-2.36Z"/>
    <path class="cls-2" d="M32.32,102.09c-1.81-.2-2.61-1.31-2.43-3.05.17-1.6,1.24-2.38,2.81-2.27,1.85.12,2.64,1.29,2.46,3.03-.17,1.6-1.24,2.31-2.84,2.29Z"/>
    <path class="cls-2" d="M43.4,560.91c-.09,1.59-.88,2.62-2.48,2.65-1.59.03-2.53-.93-2.54-2.52-.01-1.41.87-2.31,2.22-2.43,1.6-.16,2.49.78,2.79,2.3Z"/>
    <path class="cls-2" d="M30.59,329.16c-.21,1.59-1.13,2.43-2.74,2.35-1.87-.09-2.66-1.25-2.45-3.01.19-1.64,1.33-2.32,2.9-2.16,1.63.16,2.32,1.22,2.29,2.83Z"/>
    <path class="cls-2" d="M31.74,134.32c-.16,1.72-1.08,2.8-2.83,2.8-1.75,0-2.81-1.04-2.82-2.79-.01-1.75,1.04-2.8,2.79-2.82,1.76-.02,2.68,1.06,2.86,2.81Z"/>
    <path class="cls-2" d="M28.73,347.07c-.31,1.77-1.17,2.75-2.78,2.61-1.58-.14-2.44-1.2-2.27-2.78.15-1.35,1.07-2.19,2.48-2.19,1.66.01,2.29,1.13,2.57,2.36Z"/>
    <path class="cls-2" d="M24.76,205.04c-.34,1.34-1.13,2.33-2.53,2.17-1.32-.17-2.25-1.16-2.05-2.56.16-1.13,1.04-2.02,2.26-1.97,1.38.06,2.12,1.01,2.32,2.36Z"/>
    <path class="cls-2" d="M21.8,187.48c.22-1.37.98-2.35,2.37-2.37,1.59-.02,2.58,1.02,2.46,2.6-.11,1.35-1.07,2.26-2.5,2.18-1.4-.08-2.12-1.04-2.33-2.41Z"/>
    <path class="cls-2" d="M42.2,578.41c-.13,1.36-.9,2.3-2.26,2.4-1.22.1-2.08-.78-2.29-1.91-.28-1.44.69-2.41,1.96-2.61,1.39-.22,2.2.78,2.59,2.12Z"/>
    <path class="cls-2" d="M196.74,79.05c-.06,1.84-.93,2.87-2.75,2.84-1.6-.03-2.54-.91-2.58-2.52-.05-1.81.9-2.8,2.72-2.79,1.61.01,2.45.94,2.61,2.46Z"/>
    <path class="cls-2" d="M42.69,540.96c1.61.08,2.61.89,2.65,2.56.04,1.86-.98,2.85-2.84,2.76-1.66-.08-2.5-1.09-2.46-2.74.05-1.66,1-2.49,2.65-2.58Z"/>
    <path class="cls-2" d="M200.58,378.88c1.34.35,2.34,1.13,2.17,2.53-.16,1.32-1.16,2.25-2.56,2.05-1.13-.16-2.01-1.05-1.96-2.26.05-1.39,1.01-2.12,2.35-2.32Z"/>
    <path class="cls-2" d="M30.6,119.71c-1.75-.25-2.78-1.22-2.69-2.97.09-1.75,1.18-2.76,2.93-2.67,1.74.07,2.75,1.18,2.67,2.93-.08,1.75-1.19,2.62-2.91,2.71Z"/>
    <path class="cls-2" d="M26.11,171.81c-1.6-.1-2.56-.9-2.58-2.55-.02-1.63.88-2.57,2.51-2.59,1.63-.02,2.58.87,2.6,2.51.03,1.65-.9,2.5-2.53,2.63Z"/>
    <path class="cls-2" d="M60.08,580.43c-.19,1.84-1.23,2.78-3.04,2.64-1.62-.13-2.5-1.17-2.43-2.79.08-1.86,1.21-2.77,3.01-2.63,1.62.13,2.4,1.18,2.46,2.78Z"/>
    <path class="cls-2" d="M188.53,344.61c-.18,1.67-1.09,2.56-2.74,2.51-1.9-.06-2.75-1.22-2.57-3.02.17-1.66,1.29-2.41,2.9-2.28,1.67.14,2.4,1.19,2.41,2.78Z"/>
    <path class="cls-2" d="M55.98,600.39c-1.9-.02-2.93-.76-3.03-2.41-.09-1.62.73-2.64,2.38-2.73,1.62-.1,2.63.73,2.74,2.37.11,1.64-.82,2.49-2.09,2.76Z"/>
    <path class="cls-2" d="M38.71,64.1c-.11,1.83-.9,2.85-2.49,2.89-1.59.03-2.53-.93-2.54-2.52-.01-1.41.87-2.29,2.23-2.44,1.64-.18,2.39.9,2.8,2.07Z"/>
    <path class="cls-2" d="M198.32,61.59c-.05,1.44-.84,2.39-2.17,2.59-1.41.21-2.42-.7-2.63-2.02-.26-1.61.73-2.63,2.29-2.75,1.42-.12,2.16.9,2.52,2.18Z"/>
    <path class="cls-2" d="M55.33,45.19c1.91.23,2.96,1.18,2.92,2.93-.05,1.75-1.12,2.79-2.87,2.75-1.75-.05-2.77-1.11-2.74-2.87.03-1.77,1.18-2.6,2.69-2.8Z"/>
    <path class="cls-2" d="M180.39,39.97c1.61.25,2.52,1.17,2.36,2.8-.16,1.64-1.26,2.45-2.86,2.25-1.4-.16-2.22-1.09-2.17-2.54.06-1.66,1.05-2.44,2.67-2.52Z"/>
    <path class="cls-2" d="M164.81,40.7c-.16,1.7-1.08,2.79-2.83,2.8-1.75,0-2.81-1.04-2.82-2.79,0-1.75,1.04-2.81,2.79-2.82,1.76-.02,2.68,1.07,2.86,2.82Z"/>
    <path class="cls-2" d="M181.24,609.79c-.19,1.85-1.23,2.78-3.04,2.64-1.61-.13-2.5-1.17-2.43-2.79.07-1.86,1.2-2.76,3-2.63,1.63.12,2.4,1.18,2.46,2.78Z"/>
    <path class="cls-2" d="M92.26,31.4c1.77.25,2.79,1.23,2.71,2.97-.09,1.75-1.18,2.76-2.93,2.67-1.74-.07-2.75-1.17-2.67-2.93.08-1.75,1.2-2.62,2.9-2.71Z"/>
    <path class="cls-2" d="M35.15,471.2c-.1,1.61-.91,2.56-2.55,2.58-1.84,0-2.77-1.03-2.66-2.83.1-1.62,1.11-2.43,2.72-2.36,1.63.07,2.42,1.02,2.5,2.61Z"/>
    <path class="cls-2" d="M56.15,614.9c-.09,1.63-.88,2.61-2.22,2.73-1.59.15-2.62-.86-2.62-2.44,0-1.39.95-2.27,2.34-2.34,1.46-.06,2.08,1.02,2.5,2.05Z"/>
    <path class="cls-2" d="M71.2,614.4c1.69.14,2.61,1.03,2.59,2.69-.02,1.89-1.14,2.78-2.96,2.63-1.66-.14-2.44-1.22-2.33-2.85.1-1.67,1.12-2.43,2.7-2.47Z"/>
    <path class="cls-2" d="M25.05,367.05c-1.34-.35-2.32-1.11-2.22-2.52.1-1.35,1.06-2.3,2.45-2.2,1.35.1,2.29,1.06,2.2,2.45-.09,1.37-1.07,2.12-2.43,2.27Z"/>
    <path class="cls-2" d="M77.3,32.22c-.02,1.63-.76,2.67-2.41,2.76-1.61.09-2.64-.73-2.73-2.38-.09-1.62.73-2.64,2.38-2.73,1.63-.11,2.55.76,2.77,2.35Z"/>
    <path class="cls-2" d="M161.97,625.39c-.13,1.74-1.09,2.76-2.92,2.67-1.62-.06-2.55-1.05-2.55-2.68.01-1.84,1.07-2.82,2.89-2.74,1.63.06,2.46,1.06,2.58,2.76Z"/>
    <path class="cls-2" d="M59.61,30.49c-.27,1.45-1.03,2.39-2.42,2.38-1.2,0-2.07-.89-2.19-2.04-.14-1.4.8-2.37,2.14-2.48,1.44-.13,2.1.95,2.47,2.14Z"/>
    <path class="cls-2" d="M176.75,629.77c-1.83-.29-2.75-1.22-2.59-2.84.16-1.64,1.26-2.45,2.86-2.26,1.4.17,2.2,1.1,2.17,2.55-.04,1.69-1.13,2.35-2.44,2.55Z"/>
    <path class="cls-2" d="M69.31,637.06c-1.55-.21-2.55-1.03-2.47-2.63.08-1.58,1.08-2.48,2.67-2.38,1.38.09,2.25.99,2.28,2.38.04,1.61-.93,2.43-2.49,2.64Z"/>
    <path class="cls-2" d="M84.09,636.34c.08-1.61.9-2.61,2.56-2.65,1.87-.03,2.85.99,2.76,2.84-.08,1.66-1.09,2.51-2.73,2.45-1.66-.04-2.49-.99-2.59-2.65Z"/>
    <path class="cls-2" d="M107.8,638.12c-.08,1.73-.98,2.8-2.84,2.76-1.62-.02-2.59-.96-2.63-2.58-.04-1.83.95-2.87,2.8-2.85,1.63.02,2.51.98,2.67,2.67Z"/>
    <path class="cls-2" d="M122.43,637.23c1.86.14,2.87,1.1,2.79,2.94-.07,1.62-1.06,2.55-2.68,2.54-1.84,0-2.82-1.06-2.75-2.88.06-1.64,1.09-2.45,2.64-2.59Z"/>
    <path class="cls-2" d="M139.88,644.45c-1.75-.22-2.6-1.13-2.53-2.74.08-1.87,1.24-2.68,3-2.47,1.64.19,2.33,1.31,2.19,2.88-.15,1.65-1.23,2.3-2.66,2.33Z"/>
    <path class="cls-2" d="M157.36,640.24c1.61.13,2.6.96,2.56,2.61-.04,1.64-1.03,2.53-2.67,2.46-1.43-.06-2.3-.92-2.36-2.36-.07-1.65.86-2.51,2.47-2.71Z"/>
    <path class="cls-2" d="M174.96,642.22c1.33.34,2.33,1.11,2.22,2.51-.1,1.35-1.05,2.3-2.44,2.21-1.35-.1-2.3-1.05-2.21-2.45.09-1.36,1.07-2.1,2.43-2.27Z"/>
    <path class="cls-2" d="M148.69,21.3c-.27,1.45-1.03,2.4-2.43,2.39-1.2-.01-2.07-.9-2.18-2.05-.14-1.4.8-2.36,2.14-2.48,1.43-.13,2.1.96,2.47,2.14Z"/>
    <path class="cls-2" d="M128.66,18.02c1.53.21,2.49.97,2.55,2.35.06,1.39-.9,2.33-2.25,2.39-1.4.07-2.32-.9-2.4-2.25-.09-1.45,1.02-2.07,2.11-2.49Z"/>
    <path class="cls-2" d="M67.37,654.3c-1.34-.39-2.33-1.19-2.12-2.58.19-1.3,1.18-2.24,2.61-1.98,1.13.2,2,1.09,1.91,2.3-.1,1.38-1.05,2.12-2.4,2.26Z"/>
    <path class="cls-2" d="M88.35,653.67c-.32,1.77-1.17,2.75-2.78,2.61-1.58-.15-2.45-1.2-2.27-2.78.15-1.36,1.06-2.2,2.47-2.19,1.66.01,2.29,1.13,2.57,2.37Z"/>
    <path class="cls-2" d="M103.05,653.06c1.63.06,2.66.85,2.69,2.5.03,1.64-.91,2.57-2.55,2.58-1.45,0-2.35-.84-2.47-2.25-.14-1.62.74-2.56,2.34-2.82Z"/>
    <path class="cls-2" d="M120.77,654.9c1.55.28,2.53,1.14,2.38,2.74-.14,1.58-1.2,2.44-2.78,2.27-1.35-.15-2.21-1.06-2.18-2.47.03-1.6,1.03-2.38,2.58-2.53Z"/>
    <path class="cls-2" d="M140.57,659.48c-.36,1.3-1.13,2.29-2.54,2.17-1.56-.14-2.53-1.18-2.25-2.78.23-1.31,1.24-2.21,2.66-1.99,1.33.22,2.1,1.17,2.14,2.6Z"/>
    <path class="cls-2" d="M155.7,663.42c-1.45-.27-2.4-1.02-2.39-2.41,0-1.21.89-2.08,2.04-2.19,1.4-.14,2.37.8,2.48,2.13.13,1.44-.96,2.11-2.14,2.47Z"/>
    <path class="cls-2" d="M30.66,492c-1.56-.24-2.55-1.07-2.44-2.67.11-1.57,1.13-2.47,2.72-2.33,1.37.11,2.23,1.01,2.24,2.42.01,1.61-.97,2.41-2.52,2.59Z"/>
    <path class="cls-2" d="M20.57,224.36c-1.32-.08-1.96-.81-1.91-2.1.05-1.11.68-1.76,1.79-1.81,1.28-.06,2.09.56,2.11,1.89.01,1.29-.66,2.01-1.99,2.02Z"/>
    <path class="cls-2" d="M197.84,219.64c1.19.03,1.77.64,1.79,1.82.02,1.16-.54,1.84-1.72,1.89-1.38.05-2.06-.65-1.99-2.03.07-1.17.76-1.71,1.92-1.68Z"/>
    <path class="cls-2" d="M199.67,206c-1.28-.03-2.03-.67-2.02-1.99.02-1.31.78-1.97,2.07-1.92,1.11.04,1.76.67,1.82,1.77.06,1.26-.52,2.06-1.87,2.14Z"/>
    <path class="cls-2" d="M209.65,100.47c-1.32-.07-1.96-.81-1.91-2.1.05-1.11.68-1.76,1.79-1.81,1.27-.07,2.08.55,2.11,1.89.02,1.3-.68,1.98-1.99,2.02Z"/>
    <path class="cls-2" d="M203.37,186.51c-.03,1.28-.65,2.04-1.97,2.03-1.31,0-1.97-.77-1.94-2.06.03-1.1.66-1.77,1.76-1.83,1.26-.06,2.07.51,2.15,1.86Z"/>
    <path class="cls-2" d="M203.09,166.9c1.32.12,2.19.85,2.32,1.99.16,1.39-.74,2.33-2.12,2.44-1.23.1-2.1-.8-2.24-1.93-.18-1.41.81-2.16,2.04-2.5Z"/>
    <path class="cls-2" d="M205.13,149.46c1.34.3,2.26,1.1,2.1,2.5-.13,1.15-1.02,2.02-2.24,1.92-1.37-.1-2.27-1.05-2.11-2.45.13-1.15,1.02-1.85,2.25-1.97Z"/>
    <path class="cls-2" d="M51.98,634.94c-1.22-.08-2.1-.77-2.27-1.91-.22-1.43.69-2.36,2.03-2.51,1.23-.15,2.11.71,2.29,1.85.23,1.43-.72,2.21-2.05,2.56Z"/>
    <path class="cls-2" d="M206.76,136.48c-1.35-.36-2.27-1.17-2.05-2.58.18-1.12,1.07-1.99,2.3-1.84,1.36.16,2.24,1.12,2.03,2.51-.17,1.14-1.06,1.84-2.28,1.91Z"/>
    <path class="cls-2" d="M210.11,116.08c-.36,1.34-1.17,2.27-2.57,2.04-1.13-.18-1.99-1.07-1.85-2.3.16-1.36,1.12-2.26,2.52-2.03,1.13.18,1.83,1.07,1.9,2.29Z"/>
    <path class="cls-2" d="M166.02,23.32c-.3,1.34-1.09,2.26-2.5,2.1-1.15-.14-2.01-1.02-1.92-2.25.11-1.38,1.05-2.27,2.45-2.11,1.15.14,1.85,1.02,1.97,2.26Z"/>
    <path class="cls-2" d="M40.02,596c-.14,1.51-.98,2.04-2.23,1.93-1.1-.1-1.69-.8-1.69-1.9,0-1.31.71-2.02,2.01-1.99,1.33.03,1.91.83,1.9,1.95Z"/>
    <path class="cls-2" d="M193.56,292.01c-.07,1.22-.76,2.1-1.91,2.28-1.42.21-2.35-.69-2.5-2.04-.15-1.23.71-2.1,1.86-2.28,1.42-.23,2.2.72,2.56,2.05Z"/>
    <path class="cls-2" d="M193.16,272.72c1.32.07,1.98.79,1.92,2.08-.06,1.34-.91,1.91-2.17,1.82-1.1-.07-1.71-.76-1.72-1.86-.01-1.29.66-2,1.97-2.04Z"/>
    <path class="cls-2" d="M21.6,401.42c-1.14.02-1.87-.49-1.92-1.68-.07-1.35.58-2.09,1.98-2.02,1.18.05,1.74.72,1.73,1.88-.02,1.17-.6,1.8-1.79,1.83Z"/>
    <path class="cls-2" d="M111.28,16.36c1.37.18,2.24.89,2.33,2.06.12,1.4-.8,2.33-2.18,2.37-1.22.06-2.07-.82-2.18-1.98-.14-1.43.89-2.13,2.03-2.45Z"/>
    <path class="cls-2" d="M40.24,47.03c-.3,1.42-1.08,2.35-2.49,2.21-1.16-.12-2.02-.99-1.95-2.21.08-1.39,1.02-2.27,2.42-2.15,1.17.11,1.81,1.04,2.01,2.15Z"/>
    <path class="cls-2" d="M199.65,44.42c-.09,1.33-.87,1.93-2.15,1.86-1.1-.06-1.73-.72-1.76-1.83-.04-1.28.61-2.05,1.93-2.06,1.31,0,1.96.73,1.97,2.03Z"/>
    <path class="cls-2" d="M174.89,662.24c-.09,1.19-.77,1.71-1.92,1.68-1.18-.03-1.78-.64-1.78-1.82,0-1.43.82-1.98,2.13-1.88,1.2.1,1.62.9,1.58,2.02Z"/>
    <path class="cls-2" d="M194.96,258.26c-1.17,0-1.81-.58-1.85-1.76-.04-1.4.72-2.04,2.07-1.95,1.18.08,1.69.81,1.64,1.95-.05,1.18-.68,1.76-1.86,1.75Z"/>
    <path class="cls-2" d="M25.58,381.95c-.07,1.23-.73,2.11-1.88,2.31-1.44.25-2.36-.67-2.53-2-.17-1.22.68-2.1,1.83-2.31,1.44-.26,2.2.69,2.59,2Z"/>
    <path class="cls-2" d="M29.02,524.28c-.03,1.29-.66,2.04-1.98,2.02-1.32-.02-1.97-.78-1.92-2.07.04-1.11.66-1.77,1.77-1.82,1.26-.06,2.06.52,2.14,1.87Z"/>
    <path class="cls-2" d="M66.59,667.58c1.19.03,1.77.66,1.78,1.83,0,1.16-.55,1.83-1.73,1.88-1.39.05-2.06-.67-1.98-2.04.07-1.18.77-1.71,1.93-1.67Z"/>
    <path class="cls-2" d="M81.99,671.24c.02-1.13.6-1.93,1.93-1.94,1.31-.01,2,.7,1.99,2,0,1.11-.61,1.81-1.71,1.89-1.24.09-2.08-.45-2.21-1.95Z"/>
    <path class="cls-2" d="M101.53,675.31c-1.22-.07-2.1-.76-2.27-1.91-.23-1.42.69-2.35,2.03-2.51,1.23-.15,2.1.71,2.29,1.86.23,1.42-.72,2.2-2.04,2.56Z"/>
    <path class="cls-2" d="M198.64,238.79c.02,1.1-.38,1.92-1.59,2-1.32.09-2.14-.45-2.12-1.9.01-1.17.62-1.78,1.8-1.8,1.14-.03,1.83.5,1.92,1.69Z"/>
    <path class="cls-2" d="M121.1,674.85c-.14,1.23-.85,2.1-2.01,2.22-1.4.13-2.33-.78-2.41-2.16-.07-1.22.81-2.08,1.96-2.2,1.41-.15,2.18.8,2.46,2.14Z"/>
    <path class="cls-2" d="M136.38,678.67c-1.29-.03-2.04-.66-2.02-1.98.02-1.31.78-1.97,2.07-1.92,1.11.03,1.77.67,1.82,1.76.06,1.26-.52,2.07-1.87,2.14Z"/>
    <path class="cls-2" d="M183.01,25.23c-.15,1.15-.83,1.68-1.94,1.58-1.15-.09-1.68-.81-1.59-1.93.09-1.15.81-1.67,1.93-1.58,1.16.09,1.64.81,1.6,1.93Z"/>
    <path class="cls-2" d="M211.34,82.83c-1.15-.14-1.68-.83-1.59-1.94.1-1.15.81-1.67,1.93-1.58,1.15.09,1.68.8,1.58,1.93-.09,1.15-.81,1.63-1.93,1.6Z"/>
    <path class="cls-2" d="M25.21,540.04c1.11.03,1.76.59,1.79,1.73.02,1.14-.58,1.78-1.72,1.8-1.14.03-1.77-.57-1.8-1.71-.03-1.14.59-1.74,1.74-1.82Z"/>
    <path class="cls-2" d="M94.02,15.02c1.16.11,1.77.71,1.72,1.85-.05,1.14-.69,1.74-1.83,1.69-1.13-.05-1.73-.69-1.68-1.84.04-1.14.7-1.68,1.8-1.7Z"/>
    <path class="cls-2" d="M153.62,676.76c1.12-.02,1.82.48,1.9,1.64.07,1.12-.48,1.82-1.63,1.89-1.12.06-1.82-.47-1.9-1.63-.07-1.12.48-1.78,1.63-1.9Z"/>
    <path class="cls-2" d="M51.85,650.12c-.17,1.36-.85,1.89-1.97,1.79-1.15-.09-1.68-.81-1.59-1.93.1-1.15.81-1.67,1.93-1.59,1.16.1,1.6.84,1.62,1.73Z"/>
    <path class="cls-2" d="M38.01,613.23c.02,1.19-.49,1.89-1.64,1.96-1.12.07-1.82-.48-1.9-1.62-.07-1.12.48-1.82,1.63-1.9,1.13-.08,1.77.49,1.91,1.56Z"/>
    <path class="cls-2" d="M204.12,363.7c-.17,1.37-.85,1.9-1.97,1.81-1.15-.09-1.68-.81-1.59-1.93.09-1.15.81-1.67,1.93-1.59,1.17.09,1.59.85,1.62,1.71Z"/>
  </g>
</svg>