<?xml version="1.0" encoding="UTF-8"?>
<svg id="Layer_1" data-name="Layer 1" xmlns="http://www.w3.org/2000/svg" viewBox="0 0 553.68 222.67">
  <defs>
    <style>
      .cls-1 {
        fill: #fd4fae;
        stroke-width: 0px;
      }
    </style>
  </defs>
  <path class="cls-1" d="M165.97,69.08c.5.27,1.27-.08,1.72-.76l.14.05c1.02.39.96-.42,1.4-.66,1.35-.75,2.75-1.43,4.08-2.2.38-.22.56-.66.87-.96.25-.25.53-.61.87-.63l2.87-.24c2.05-1.65,4.24-3.42,4.87-3.93s3.44-.69,3.84-1.05,1.99-1.48,2.52-1.82,2.39-1.38,2.84-1.74,2.56-.86,2.99-1.05,1.53-1.11.8-1.27-2.59-.14-3.62-.31c-1.03-.17-3.77.94-4.45.94s-3.86.12-5.62.28l-1.59.13-1.51.12c-1.59.42-5.03,1.22-7.63,1.79s-12.2,2.2-15.32,2.86l-2.82.64c-2.63.6-5.24,1.25-7.87,1.84l-1.65.37c-1.76.5-4.91,1.22-6.98,1.62-2.07.39-9,2.25-11.06,2.69-2.06.44-9.63,2.69-12.47,3.48l-2.67.49-2.59.48c-2.7.8-6.71,1.91-8.9,2.45-2.19.55-8.3,2.26-8.72,2.56s-2.94.24-3.83.67h-1.21l-1.1-.03c-1.16.42-2.58.87-3.17,1.01s-3.04.59-4.13.75l-.96.22-1.08.24c-1.16.32-3.87.91-6.01,1.32-2.15.4-8.88,1.48-10.12,1.71-1.24.23-5.51.9-6.71,1.06l-1.08.16-.99.15c-1.12,0-2.34.23-2.71.51s-2.79-.21-3.79-.31l-.92-.04-1.02-.05c-1.11-.06-2.41-.17-2.89-.24s-1.96-.03-2.24.06v-.02c-.52-.77-1.13-1.04-2.18-.92-.56.07-1.27-.26-1.97-.29-.74-.03-1.5-.4-2.25-.62l-.86-.25c-.94-.27-2.36-.79-3.14-1.17s-3.45-2.55-4.58-3.61l.23-1.5.1-.65c-.76-.93-1.22-1.68-1.01-1.68s.73-.69.57-1.54l-.49-.58-.49-.57c-.35-.66-.68-1.24-.73-1.29s-.21-.75-.37-1.51-1-4.6-1.37-6.88l.41-2.06.61-3.09c2.27-2.56,4.23-4.68,4.36-4.72l.04-.07.36-.59c.37-.66,1.11-1.55,1.63-1.98l.54-.34c.62-.38,1.16-.86,1.66-1.36l1.01-1.02c1.34-.91,2.98-2.3,3.65-3.1l.72-.64,1.53-1.36c1.78-1.43,3.68-3.07,4.22-3.66s1.65-2.34,1.13-2.35l-.43.06-2.27.32c-2.49.39-6.26,1.02-8.37,1.41s-8.57,1.72-9.79,1.74l-1.1.06h-.11c-.04.48-.98.99-2.09,1.15-1.11.16-4.74.6-5.44.67l-.23-.23-1.43-1.42c-.64,1.08-1.65,1.69-2.23,1.37s-2.72-.67-3.35-.48-1.62-1.16-.68-1.69c.94-.54,4.1-.22,3.4-.89l-.41-.35c-.45-.38-.95-.6-1.22.02l-.27.63c-.52-.26-1.91-1.86-3.1-3.56l2.08-.82c.93-.37.9-.75.8-1.52l-.06-.47c.72-.65,1.38-.91,1.46-.57s.83,1.1,1.52,1.08l.57-.12.32-.07c.27-.25.21-.67-.13-.92l-.3-.24-.08-.06c-.12-.19.77-1.14,1.98-2.11l1.2-.81.32-.22c.63.05,1.62.14,2.2.19l.06-.59c.08-.75.55-.82,1.34-.54.27.1.86.05.87,0,.14-1.91,2.37-.76,3.28-1.42l.31-.22c.37-.25,1.15-.56,1.74-.69l.54-.11c.68-.14,1.39-.23,2.05-.41l1.33-.37c1.53-.23,3.5-.59,4.39-.79s3.57-.77,4.42-.33l.79-.73c.53-.49,1.44-.71,2.22-.96.44-.14,1.06-.28,1.47-.12l.96.37c.81-.25,3.87-.7,6.81-1.01l2.6.9,1.13.39c1.23.28,2.86.68,3.63.9s3.92,1.05,5.32,1.3l.92.98s.58-.39.92.17l.64,1.03c.78,1.1,1.58,2.19,1.77,2.42l-.06.08c-1.23,1.71.73,3.42.74,5.18v1.28c1.11,1.5,1.97,3.18,1.92,3.72l.08.38.5,2.3c-1.53,1.66-4.78,4.56-7.21,6.46l-1.06,2.51c-.03.06-.25.06-.26.12l-.21.95c-.89.6-2.43,1.73-3.43,2.52l-.84.76c-.78.71-1.44,1.52-2.23,2.23l-.79.71c-.95.72-2.1,1.67-2.55,2.11s-2.35,2.23-3.2,3.02l-.83.68c-.48.39-1.59.91-1.54.99.7.99-.59,1.07-.83,1.58l-.23.5c-.79.47-.95.94-.37,1.04l.42-.05,1.73-.2c1.78-.51,3.88-1.11,4.66-1.32s4.22-.28,4.34-.27.86-.17,1.57-.31,3.34-.87,4.47-1.11c1.12-.24,4.91-.96,5.95-1.03s3.46-1.17,3.57-1.21.91-.06,1.56-.1,2.9-.54,3.56-.58,2.51-.7,2.81-.82,1.54-.04,1.86-.17l.31-.12c.53-.2,1.08-.37,1.58-.59,1.12-.5,2.71.05,3.63-.65l1.12-.85c1.53-.14,3.35-.39,4.05-.56s3.16-.55,3.94-.45l.29-.83.09-.25c.87,0,2.02.04,2.54.07s2.54-.54,3.51-.79c.97-.25,4.87-1.37,6.63-1.81,1.76-.44,7.87-2.02,9.68-2.51s8.1-2.11,9.97-2.57c1.87-.46,7.98-2.09,9.45-2.54l1.36-.37h.05c.25.36,1.05.42,1.78.11.73-.3,2.83-.79,3.27-.5l.17-.06c1.15-.41,1.87-1.24,3.3-1.51,1.28-.24,2.62-.27,3.88-.54l1.17-.25c1.28-.29,3.65-.8,5.27-1.12,1.61-.32,6.64-1.21,7.54-1.57.89-.36,4.34-.8,5.33-.89s4.1-.53,4.75-.72l.53-.25c.58-.28,1.14-.4,1.82-.07l.84.41c.46-.48.97-.79,1.12-.69s.81.04,1.13-.38l.12.04c1.13.41,1.9-.56,2.59-.42.94.2,2-.17,2.85.53l.08.07c.05.1.61,0,1.24-.23s3.27-.29,4.04-.36c.76-.07,3.3-.28,3.93-.3s2.96.66,3.78.92l.58-.81c.22-.31,1.33-.2,2.03-.14,2.18.19,4.35.1,6.54.74.84.24,1.79-.47,2.65.42.84.86,1.63-.07,2.39.13l.86.22c.86.51,2.43,1.26,3.49,1.65,1.06.4,4.31,1.45,4.93,1.38v.82c.01.16.99.26,1.56.58l2.38,1.35c.87,2.18,1.57,4.11,1.55,4.29l-.1.03c-1.44.51-.57,1.55-.38,2.34.27,1.12.42,2.23.63,3.34l.3,1.63c.8,1.77,1.66,4.03,1.9,5.03l-.85.81c-.75.72-1.19,1.69-1.76,2.55-.14.21-.24.51-.46.61l-2.64,1.22c-2.07,2.07-4.98,4.68-6.46,5.8l-1.6.61-1.92.74c-2,.94-3.74,1.72-3.88,1.73l-.03.05-1.22,2.19c-2.79.87-5.51,1.85-6.06,2.17s-3.33,1.41-4.76,1.95l-.79,1.06-.15.2c-.24.17-1.09.61-1.9.97s-4.26,1.92-5.82,2.74-6.63,3.39-7.72,4.03-4.93,2.77-5.95,3.5c-1.02.73-4.32,2.87-5.04,3.18l-.65.28c-1.17.51-2.3,1.03-3.32,1.76l-.72.52c-1.1.4-2.27.9-2.61,1.1l-.24.26-.89.96c-1.66.72-3.09,1.41-3.17,1.54l.03.11.04.17c.16.23-.46.88-1.38,1.44s-3.96,2.13-4.64,2.26-1.04,1.85-1.29,2.02l-.23.15-2.31,1.51c-1.95,2.13-3.62,4.09-3.72,4.37s-.04,1.27.4,1.26,1.89.35,2.45.57l.68-.05,1.4-.1c1.58.03,4.15.05,5.71.06l1.37-.12c.94-.08,1.82-.04,2.73-.06l1.31-.03c.46.65,1.13,1.07,1.5.92s1.27-.61,1.21-.71-.08-.61.4-.42,1.8.74,1.85.75l.06-.12.26-.51c.59-.28,1.6-.6,2.25-.71s4.11-.12,6.1-.55l.42-.03c.33-.02.78.42,1.08.38.31-.04.45-.49.77-.64.11-.05.64.25.73.45l.21.5c.12.62.66,1.04,1.19.93s1.85-.44,1.84-.51-.42-.32-.88-.39-1.46-.51-1.2-.81,2.3-.06,3.42.27l.77-1.02c.3-.39,1.92-.57,2.09-.37l.95,1.11c.77-.54,2.2-1.05,3.18-1.14l.11-.33.43-1.27c.74.69,1.82,1.03,2.41.76l.55-.22c.75-.3,1.9,0,2.62-.33.58-.26,1.08,1.54,1.45.07.07-.27,1.18-.18,1.43-.49l.65-.83c.77.44,1.74.67,2.16.5s1.71-.31,1.92.04,1.89-.55,2.92-.86c1.03-.31,3.78-1.13,3.93-1s.87.35.97-.08l.16-.29.11-.19c.27-.14.71.16.98.66s1.8-.66,2.57-.56l.23-.88c.14-.55.75,1.32,1.39.01l.46-.94c.63.86,1.33,1.62,1.55,1.7s1.13.03,1.08-.37.33-1.28.95-1.12,2.49-1.14,3.64-1.48,4.7-.27,4.81-.87l.32-.08,1.02-.27c1.2-.06,2.8-.34,3.56-.62s3.12.19,3.37-.11l-.07-.08-.72-.73c.65-.19,1.89-.4,2.74-.45.85-.06,3.09-.65,3.37-.45l.3.12.49.19c.65,0,1.03-.1.84-.24s-.38-.49.08-.42,1.84.25,2.2-.43,2.75-.89,2.79-.7l-.02.24-.02.26c-.04.11.18.1.5-.03s1.26-.53,1.26-.53.28-.41.81-.62,2.31-.8,2.84-.78,1.47-1.05,1.76-1.16,2.18-.16,3.18-.39l.82.21c1.06.27,1.25-.72,1.31-.66l1.61,1.65c.82-1.19,2.6-2.47,3.94-2.84l1.29-.28c.9-.19,1.84-1.07,2.92.16.13.15,1.02,0,1.42-.19,1.42-.69,2.97-1.03,4.69-1.02h.16c.34.65.85.84,1.13.43s2.35-1,3.12-1.14l.63.67.03.03c.3-.14.46-.7.35-1.25l.62.46c.82.61,1.48.77,1.91.12.66-.98,1.61-1.07,2.66-.51,1.23.66.94-1.06,2-.6.7.3,1.48.44,2.24.61.1.02.25-.22.39-.34l.87-.73c1.22.24,3,.87,3.94,1.42l.34-1.25c.02-.07.58-.04.88.02.78.15,1.7.81,2.07-.32.02-.07.78.07,1.19.14.58.1,1.3.64,1.52-.27l.03-.13c.23-.08,1.36-.34,2.51-.58s4.69.84,5.28.67,3.25.18,4.59.68l1.08-.08,1.11-.09c.73.48,1.75.89,2.26.89s2.71.43,3.82.57l.5,1.01c.08.16.61.2.93.29l1.25.38c1.03.85,2.53,2.14,3.34,2.87l.57.82c.69.99,1.01,1.84.54,2.86l-.16.34c.2.51.45,1.17.56,1.46s-.22,2.72-.18,3.1l.12.33c.28.77.61,1.53.88,2.3.13.37-.23,1.32-.47,1.67-.28.41-1.12.62-.47,1.42l.18.23c-.35.59-.74.92-.89.74s-.71-.48-.98-.3-.64,1.1-.9,1.94l-.42.7-.38.63c-.7.38-1.86.96-2.57,1.3s-1.51,2.16-2.05,2.19-1.95,1.88-3.36,2.71l-1.01,1.03-1.47,1.5c-1.66,1.63-3.1,3.27-3.21,3.66s-1.43.3-1.5.65-2.45,1.33-3.98,2.48l-.44,1.65c-.16.62-.96.31-1.12.44l-.89.77c-.77,1.01-1.21,2.14-.97,2.5l-.79-.11c-.2-.03-.58-.08-.59-.03-.52,1.63-2.2,2.46-3.31,3.69-.29.32-.37.83-.43,1.27l-.12.85c1.01.3,2.57.56,3.47.6s3.75.72,4.33,1.39l1.01-.66c.5-.32,1.32-.31,1.99-.46.12-.03,1.97-.05,2.01.02l.31.49c.55,0,1.43-.42,1.95-.95s2.39.9,2.6.8l.05-.13c.39-1.08,1.67-.3,1.76-.11.61,1.34,1.67.58,2.46.61l.7.03c.69-.38,1.31-.83,1.37-1.01s.16-.73.34-.88.92-.45,1.27-.28,1.71.47,2.04.63,1.36.32,1.35-.15.33-1.71.79-1.57,1.68.31,1.87.13.8-.11.96.53l1.23-.39.54-.17c.66-.06,2.1-.21,3.19-.35l.24-1.02c.03-.13.52-.25.74-.19.21.07.4.37.5.59l.19.42c.16.53.69.71,1.17.4l.43-.19c.22-.1.72.02.79-.1l.12-.22c.08-.27.28-.38.45-.25s.82.26.84-.25.36-1.6.68-.74l.35.15.35.16c.57-.23,2.43-1.02,4.15-1.76l1.66-.49c.31-.09.57.25.43.61l-.05.13c-.3.12-.17.34.3.47s1.77.31,1.87.09.64-.83.91-.75,1.3.05,1.46-.32.94-1.28,1.34-1.16,2.04.13,2.63-.26,2.53-1.1,2.73-1.01l.17.12c.33.23.75.72.95.68l.71-.15c.7-.34,1.99-1.14,2.87-1.78l2.43.15c.2.01.58-.09.57-.16l-.06-1.75c1.67-.13,3.43,0,3.9.29l.32.33c.41.42.51.99,1.48.83l1.29-.21c.34-.65,1.83-.8,3.31-.35l1.12-.92s.54.52.79.52h1.75c.5-1.42,1.84-2.18,2.97-1.69l-.02.16-.1.72c.59.14,1.76.11,2.59-.08l-.43-.65c-.59-.89.15-.9.63-1.05l1.04-.32c1.21-.27,2.48-.15,2.83.26s2.2.78,1.72.54-1.49-1.03-1.23-1.23,1.77-.09,2.75.49l.78-1.01c.68-.88,1.53.15,2.28.11l.49-.03c.57-.12,1.08,0,1.15.26s.59.73,1.04.5-.09-1.28.48-1.02,1.63-.95,2.14-.91,1.94.08,2.04.02h.1c1.14.09,2.29,1.15,3.41.39l.73-.5c.7-.65,1.65-.37,2.12.63l.89-1.58c.37-.66,1.77-1.15,3.17-.52.38.17,1-.04,1.46-.15.59-.15,1.12-.45,1.73-.56l1.9-.35c.76,1.12,2.04,1.76,2.83,1.41l.75-.26c.16-.06.46.07.68.16l1.43.54c.46-.61.8-1.71.75-2.44l1.05.33.53.17c.54.05,1.22.05,1.5,0l.05-.12.26-.63c.53.26.69.69.35.96l.07.13c.22.4.6.78,1,1.09.06.05.56-.27.82-.45.26-.19.63-.38.67-.64.04-.24-.62-.79.22-.61l.86.19c.95.48,1.82.64,1.93.35s.59-1.15.82-1.2l.18.05c.65.16,1.31.33,1.93.57l1.5.56c.53-.48,1.24-.73,1.59-.56s1.33.57,2.11.47l.24.9.03.09c.86.03,1.98-.2,2.48-.53h1.17c.82.27,1.89.53,2.37.57s.5,1.16.62,1.21,1.26.24,2.25.43c.99.18,2.92,1.95,2.38,1.79s-1.37.38-.85,1.5l1.64-.57c.7-.24,2.23,1.31,1.88,1.91l-.57.96c-.1,1.14.16,2.81.57,3.71l.29.83c.3.84.6,1.7.71,2.56.08.64.36,1.62-1.19,1.24-.1-.02-.42.49-.45.78-.04.41.16.86.14,1.28v.17c-.29.15-.59.18-.69.07s-.66-.28-.8.2l-.11.32-.25.69c-.74.37-1.99.94-2.77,1.27s-2.42,1.88-2.64,1.94-.71.48-1.11.75-1.94.55-1.44.79.29,1.49-1.45,2.28l-.78,1.39c-.29.52-.6-.41-.77-.38l-.43.07c-.42.23-.96.59-1.2.8s-.39,1.03-.78,1.03-1.37.11-1.15.24.71,1.11.23,1.65-2.84.66-2.92,1.45l-.39.53c-.2.28-1.15.28-1.72.17-.79-.16-.76.26-1.07.6l-.81.9c-1.08.85-2.14,1.8-2.35,2.12s-1.05.76-1.07.38-1.77-.74-2.41-.65l.23.46.38.75c-.54-.04-1.05.08-1.12.28l-.02.19c-.06.52-.05,1.05-.15,1.55-.12.62-.3.91-1.34.98l-1.48.09c-.38,1.37-.82,2.72-.99,3s-1.2,1.09-1.91,1.5-2.49,1.6-2.28,1.74.73.69.33.63-1.78.18-2.02.68l.07.49.06.42c.44.48.66.86.47.86s-.71.37-.36.84,1.35,1.51,1.57,1.41.94-.24,1.04-.03,1.24.92,2.2.9,3.46-.33,3.6.15,1.66.47,1.58.34.42-.59,1.43-.5,3.7.52,3.51.74-.39.98.15.96,1.79-.18,1.69-.33-.35-.85,0-.64,1.12.66,1.27.75,1.12.31,1.84.32,2.14-.61,1.81-1.13,1.34-.39,1.5.33l.81.44.08.05c.06.13.54-.17,1.05-.66.51-.49,3.1-.2,3.68-.09s2.31-.46,2.72-.58,1.65.98,1.72,1.78l1.32-.36.51-.14c.96.2,1,0,.09-.44l-.4-.45-.2-.22c.29-.58.93-.95,1.43-.83l.11.17.96,1.46c.59-.87,1.48-.95,1.98-.18l1.31-.09.89-.06c1.1.46,2.1.86,2.23.87s1.66-1.07,2.26-1.3l.6-.05c.21-.02.81.5.77.66l-.2.91c.77.04,2.05-.12,2.85-.36s2.91-.75,2.95-.59.34.13.55-.55l.9-.21c.49-.11.42-1.19,1.33-.57.25.17.06.8.11,1.22l.02.17c.08.16.62-.21,1.2-.83l.68-.41.9-.54c.76.94,1.5,1.95,1.65,2.22l.22.09c.53.21.51.06.55-.42l.04-.49c.62-.41,1.65-.77,2.28-.79s2.7-.07,3.31-.14,2.41-.13,2.66.18.89,1.08.97,1.08.22-.24.19-.49.26-.87.79-.62,2.04.79,1.94.48.27-1.1.98-1.27h.59c.32,0,.94.32.96.49.06.57-.35.76-1.05.51l-.13-.05c-.37.14.1.82,1.05,1.51l.65-1.15c.2-.36.6-.63.95-.91l.95-.75c.99.48,2.21,1.09,2.71,1.36l.48.2.12.05c.25-.12.29-.32.1-.44s-.65-.68-.29-.77,1.45-.09,1.42.26,0,1.18.09,1.18.8-.48,1.37-1.08l.72,1.19.1.16c1.11-.1,1.52-.51.92-.92l-.25-.31c-.1-.13.23-.64.25-.64,1.01.33,2.02.69,3.01,1.07.04.01-.08.33-.09.5v.08c.12.14.61.02,1.07-.28s2.18-.81,2.59-.37l.29.38.32.41c.35.53.9.78,1.22.56s1.43-.49,1.91-.2l.45.19s.38-.37.42-.6l.04-.27c-.11-.33.11-.52.49-.44l.15.18c.34.41.8.99,1.24.59.96-.86,2.24-.12,3.32-.38l1.29-.32c-.12.85.04,1.37.36,1.16s1.49-.52,1.39.11l-.21.07c-.7.23-.63.57-.18.96.27.24.91.59.98.53l1.1-.89c1.53.23,3.17.14,3.64-.19l.5-.09.46-.09c.59.14,1.58.29,2.19.32s2.53.64,3.59.78l.33,1.02c.09.27.76.72.92.67l1-.34c.82.53,2.07,1.04,2.77,1.14s2.49,1.94,3.25,2.57,3.63,1.1,3.85,1.32l.21.21,1.56,1.54c1.73,1.68,3.33,3.48,3.56,3.99s.7,2.11.98,2.38-.44.94-.46.99-.42,1.07-.78,2.24v1.11c-.02.57.42,1.18.65,1.78l.23.6c.27.72.12,1.51-.32,1.74l-.45-.02-.74-.03c.07-.53-.09-1.04-.36-1.15l-.15.06c-.13.05-.13.46-.2.45l-.37-.02c-.41-.1-.66-.27-.56-.39s-.08-.51-.68-.62-.94-1.7-1.39-2-1-1.92-1.26-2.25-1.35-1.05-1.61-1.04-1.01-.27-1.07-.64l-.12-.33s-.48.06-.71,0l-.37-.09c-.39-.18-1.41-.71-2.28-1.18-.87-.47-4.06-1.52-5.03-1.7s-3.77-.57-4.05-.57-1.48-.29-2.04-.56-2.85-.25-3.79-.76l-.88.64c-.05.04-.22.02-.3-.02l-1.14-.55c-1.28-.55-2.79-.78-3.34-.51s-3.54.17-4.88.12l-1.21.02c-.4,0-.62-1.31-1.15-.18-.37.78-1.11.04-1.67,0l-.62-.04c-.67-.06-1.57-.38-1.99-.73s-2.36.25-2.9.27c-.54.02-2.92-.07-4.05-.16l-1.01.02c-1.82.04-3.79-.61-5.43.38l-.22.13c-.56-.21-1.77-.62-2.68-.91l-.8.5-.27.17c-.5-.05-1.28-.18-1.74-.29s-1.84.3-2.11.36-2.84-.11-5.11-.32l-1.95.58c-.11.03-.53-1.14-1.09-.07l-.18.34c-.96,0-2.8-.02-4.1-.06s-5.1-.14-5.63-.32-2.18.02-3.02.07-3.23.36-3.52.39-1.62-.23-2.39-.4-3.05.21-3.7,0-3.82.54-5.81.76l-1.49-1.55-.08-.09c-.28.04-1.26.14-2.19.22l-.7.44c-1.16.72-2.58-.52-3.98,0l-1.05.4c-1.58-.25-3.62-.49-4.52-.55l-.82-.06-1.3-.09c-.39-.54-1.08-.66-1.53-.26s-2.01-.88-2.23-.97l-.04.04c-.28.3-.32,1-1.04.57l-.52-.3c-.43-.6-.92-.92-1.08-.71s-2.03.02-3.88-.36l-1.28-.83c-.99-.64-1.77.33-2.56-.49l-.66-.69c-.94-.62-2.09-1.32-2.55-1.55s-1.8-1.05-2.03-1.23-.81-1.41-1.01-2.25l-.41-.15-1.33-.47c.41-.58.43-2.14.03-3.47l-.51-1.17-.54-1.24c-.05-1.44-.1-2.72-.11-2.85s.23-1.09.43-2.11l.33-.91.54-1.49c.85-.88,1.9-1.95,2.34-2.36l-.58-.29c-1.56-.79-.73-1.13.13-1.4,1.29-.4,2.42-1.03,3.64-1.48,1.43-.53,1.41-1.61,1.74-2.59l.03-.1c-.2-.19-.51-.55-.68-.81s1.24-.57,1.62-.65l.24-.18.73-.53c.88-.73,1.6-.96,1.6-.51l.02.26c.02.36-1.34.1-.42.79.13.1.66-.12.95-.26.25-.12.43-.32.65-.49l.99-.78c-.99-.8-1.45-1.4-1.03-1.33s1.59.13,1.31-.07-.6-.74-.28-.87,1.54.05,1.68-.42.87-1.93,1.12-1.51.73.83.71.3,1.37-1.32,1.46-1.22.59.36.71.12.23-1.04-.17-.95l-.2-.05c-.18-.04-.48-.34-.47-.35l.4-.46c.48-.45,1.47-1.23,2.2-1.72s3.67-2.22,4.78-3.05l.74-.98.38-.5c.56-.44,1.35-.79,1.76-.79s1.01-.47,1-.16.24.81.59.41.13-1.75.62-1.62,2.19.02,2.79-.22v-.3c0-1.09-.7-.03-.91-.23-.17-.16-.22-.67-.11-.72l.51-.22c.63-.14,1.61-.25,2.18-.24l.47-.09c.25-.05.63-.4.58-.49-.24-.42-.8-.78-.88-1.18l-.05-.31c.42-.35.45-.84.07-1.08l-.11.06c-.91.48-2,.28-2.97.41-1.04.14-1.61-1.47-2.67-.43-.86.84-2.03-.2-3.06-.28-.39-.03-.79.14-1.16.27-1.06.38-2.12.36-3.34.15-1.08-.19-2.27-.09-3.29.14l-1.84.43c-2.15.23-4.12.14-4.38-.21s-1.15-1.27-1.15-.93-.06,1.21-.14,1.28l-.15-.02-2.69-.38c-2.6.73-6.24,1.6-8.07,1.94l-1.75-.15c-.84-.07-.68.51-1.06.66-.33.13-.79.07-1.19.07-1.36,0-2.76-.11-3.84.68l-.13.09c-.25,0-1.24-.04-2.19-.08s-4.75.95-6.43,1.51h-1.6l-4.39.02c-4.42,1.05-9.08,2.12-10.35,2.39-1.28.27-5.26.92-5.86,1.27l-.55-.05-1.37-.13c-1.19.47-2.62,1.08-3.17,1.36s-3.34-.22-4.62-.06-4.99,1.66-5.78,1.95-3.68.26-4.17.34-3.23.99-5.11,1.64h-2.94c-.62.43-1.54.82-2.04.86s-1.96.41-2.2.49-1.16.11-1.7.21-2.48.15-3.49.23l-.85.28-1.68.56c-1.95.4-3.77.78-4.03.86s-1.9-.05-2.93-.18l-.9.05-.81.04c-.85.24-2.25.54-3.12.66l-.79.11c-.89.13-2.16,0-2.57.46l-.64.71c-.7-.26-2.08-.42-3.07-.37s-5.39.31-7.56.42l-1.84-.49-1.96-.52c-2.08-.17-5.71-.85-8.06-1.5l-1.54-1.47-.49-.46c-.39.02-1.02-.27-1.4-.64l-.13-.3c-.34-.79-1.23-.22-1.34-.47l-.43-.91c-.3-1.04-.54-2.42-.55-3.07s-1.36-2.33-1.54-2.55l.06-.09c.65-1.06-.11-2.05-.46-3.1-.33-1-.08-2.07-.31-3.09l-.33-1.46c.36-1.47.97-3.69,1.35-4.93l.97-.67c1.16-.8,1.58-1.84,2.22-2.9l.54-.9c1.29-.64,2.75-.79,3.25-.34l.45-.51.41-.46c.2-.63.56-1.67.81-2.3h1.17c.56.16.81-.08.55-.51l-.24-.23-.28-.27c-.43-.27-.21-.38.47-.25s2.08-.64,1.75-.79-.77-.82-.11-1.13,1.38-2.36,1.69-2.93,2.34-1.02,2.3-1.48l.21-.11.52-.26c.61-.29.75-1.07.29-1.75l1.22.36,1.16.34c.28-.59.86-1.07,1.28-1.07l.03-.11.11-.42c-.01-.5.19-1,.45-1.13s.86-.69.8-1.17l.49-.28.65-.37c.67-.44,1.25-1.57,1.29-2.5l1.39.37.96.26c.55-.48,1.11-1.07,1.24-1.31s-1.9-1.11-4.88-1.26c-2.98-.16-11.89.49-13.52.72s-6.86.05-7.82-.07-3.64,1.26-4.55,1.44-4.15.46-5.11.48c-.96.02-3.58.75-3.91.81s-2.21-.08-3.48-.16l-.92.74-.35.28c-.77-.03-5.32.26-10.12.63l-3.96,1.48-.88.33c-1.11.21-2.57.34-3.23.29s-2.79.78-3.37.93-2.52.69-3.04.84-2.12.57-2.39.62-1.58.09-2.3.1l-1.56.71c-.42.19-.96.26-1.46.28l-1.42.03c-1.3.52-3.92,1.09-5.81,1.27l-1.53.67-.34.15c-.45.06-1.4.29-2.11.51s-3.82.77-5.06,1.17l-1.19.13-1.33.14c-1.37.33-3.39.81-4.48,1.08s-4.55.66-4.96.87-1.48.7-1.01,1.45l-1.62-.57c-.49-.17-1.16.18-1.76.22-.7.04-1.45-.1-2.12.01-.61.11-1.19.74-1.69.63-1.75-.39-2.96.52-4.44.72-2.9.39-5.75.91-8.6,1.43l-1.38.25c-1.49.35-5.27.75-8.41.89l-2.6.89-.82.28c-.81-.34-2.47-.52-3.68-.4s-4.77.26-5.33-.25l-.67.7c-.57.59-1.41-.01-2.11.01l-.7.02c-.74.18-4.53.48-8.4.68l-3.62-.35-.83-.08c-.91-.14-2.02-.3-2.47-.34s-3.04-.36-4.75-.69c-1.71-.33-6.75-1.86-7.56-2.18s-3.18-2.2-3.97-2.83l-.14-.61-.74-3.2c-1.32-3.44-2.55-7.42-2.73-8.83l-.13-1.29-.14-1.32c.68-1.11,1.2-2.41,1.15-2.9s.54-2.17.8-2.87,1.35-2.52,1.13-2.97,1.55-1.49,2.05-2.04l.4-.56c.45-.63.79-1.34,1.3-1.93l.45-.52c.62-.49,1.55-1.46,2.05-2.15l.55-.56c.31-.31.8-.53,1.27-.68.85-.27,1.11-.85,1.52-1.48.79-1.19,1.91-2.25,3.1-3.18.73-.58,1.87-.79,2.77-1.23.67-.32.24-1.71,1.82-1.27.17.05.6-.8.88-1.25l.06-.1c-.06-.16.7-.73,1.68-1.26.99-.53,4.08-2.29,4.58-2.9s3.65-1.62,4.63-2.44l.74-.86c.23-.26.39-.76.66-.77,1.78-.08,2.2-1.35,3.11-2.22l.05-.05Z"/>
</svg>