<?xml version="1.0" encoding="UTF-8"?>
<svg id="Layer_1" data-name="Layer 1" xmlns="http://www.w3.org/2000/svg" viewBox="0 0 163.11 157.08">
  <defs>
    <style>
      .cls-1 {
        fill: #ffe600;
        stroke-width: 0px;
      }
    </style>
  </defs>
  <path class="cls-1" d="M40.35,40.91c-4.8-7.89-10.06-15.44-15.75-22.71-1.67-2.13-4.8.69-3.13,2.81,5.55,7.03,10.63,14.41,15.28,22.06,1.41,2.32,5.01.15,3.61-2.16h0Z"/>
  <path class="cls-1" d="M75.09,34.47c.69-10.66,1.02-21.32,1.03-32,0-2.7-4.17-2.2-4.18.48,0,10.56-.37,21.09-1.05,31.63-.18,2.7,4.03,2.57,4.2-.11h0Z"/>
  <path class="cls-1" d="M116.01,43.98c4.92-5.15,9.83-10.31,14.77-15.43,1.88-1.95-1.15-4.89-3.02-2.93-4.99,5.25-10.01,10.48-15.02,15.71-1.87,1.96,1.41,4.6,3.26,2.65h0Z"/>
  <path class="cls-1" d="M130.16,88.03c9.66-1.77,19.35-2.84,29.16-3.2,2.7-.1,2.17-4.27-.53-4.17-9.78.37-19.46,1.42-29.08,3.19-2.64.49-2.23,4.67.44,4.18h0Z"/>
  <path class="cls-1" d="M123.15,121.91c5.82,7.44,11.65,14.87,17.45,22.33,1.67,2.14,4.78-.71,3.12-2.82-5.88-7.48-11.74-14.98-17.6-22.48-1.67-2.13-4.62.87-2.97,2.97h0Z"/>
  <path class="cls-1" d="M83.08,125.9c.23,9.55.45,19.11.69,28.66.07,2.71,4.25,2.29,4.19-.4-.22-9.4-.44-18.8-.67-28.21-.06-2.7-4.27-2.77-4.2-.05h0Z"/>
  <path class="cls-1" d="M60.91,32.69c-2.27-7.96-4.55-15.91-6.82-23.87-.74-2.61-4.73-1.26-3.99,1.33,2.25,7.84,4.48,15.68,6.72,23.52.74,2.6,4.83,1.63,4.09-.98h0Z"/>
  <path class="cls-1" d="M91.87,35.29c1.76-5.41,3.54-10.81,5.28-16.23.82-2.55-3-4.27-3.85-1.69-1.79,5.44-3.56,10.89-5.33,16.34-.83,2.56,3.06,4.15,3.9,1.57h0Z"/>
  <path class="cls-1" d="M127.97,63.11c6.1-5.74,13.11-10.2,21.01-13.04,2.55-.91,1.04-4.9-1.49-3.93-8.36,3.19-15.88,7.76-22.41,13.91-1.98,1.86.91,4.91,2.88,3.06h0Z"/>
  <path class="cls-1" d="M132.14,102.53c7.48,4.63,14.7,9.64,21.69,14.99,2.15,1.65,4.47-1.85,2.34-3.49-6.92-5.35-14.13-10.31-21.57-14.91-2.29-1.42-4.76,1.99-2.46,3.41h0Z"/>
  <path class="cls-1" d="M104.3,129.51c2.7,6.31,5.41,12.61,8.11,18.92,1.07,2.49,4.94.85,3.87-1.64-2.71-6.33-5.43-12.66-8.14-18.99-1.07-2.49-4.9-.77-3.84,1.72h0Z"/>
  <path class="cls-1" d="M60.01,119.31c-2.62,8.28-5.26,16.56-7.89,24.84-.81,2.57,3.13,4.03,3.95,1.44,2.68-8.45,5.35-16.91,8.04-25.36.82-2.57-3.29-3.5-4.1-.93h0Z"/>
  <path class="cls-1" d="M27.04,88.05c-7.84,2.32-15.68,4.64-23.51,6.97-2.59.77-1.62,4.86.98,4.09,7.85-2.32,15.7-4.65,23.55-6.98,2.59-.77,1.58-4.85-1.02-4.08h0Z"/>
  <path class="cls-1" d="M43.74,104.76c-7.58,7.53-15.09,15.14-22.71,22.64-1.93,1.89.88,5.06,2.79,3.15,7.54-7.59,15.16-15.09,22.73-22.65,1.91-1.91-.89-5.04-2.81-3.13h0Z"/>
  <path class="cls-1" d="M28.84,62.16c-7.22-2.78-14.26-5.97-21.1-9.58-2.39-1.26-4.31,2.5-1.9,3.75,7.1,3.69,14.35,6.98,21.81,9.86,2.52.98,3.71-3.06,1.19-4.03h0Z"/>
</svg>