<?xml version="1.0" encoding="UTF-8"?>
<svg id="Layer_1" data-name="Layer 1" xmlns="http://www.w3.org/2000/svg" viewBox="0 0 163.11 157.08">
  <defs>
    <style>
      .cls-1 {
        fill: #ffe600;
        stroke-width: 0px;
      }
    </style>
  </defs>
  <path class="cls-1" d="M51.99,58.56c-.53-15.05-.78-30.07-.67-45.13-2.45,1.33-4.91,2.65-7.36,3.98,11.97,6.48,22.13,14.8,30.89,25.2,4.01,4.76,10.71-2.18,6.76-6.89-9.14-10.9-20.05-19.76-32.56-26.51-3.11-1.68-7.34.14-7.36,3.98-.1,15.07.09,30.15.66,45.22.24,6.17,9.87,6.4,9.65.16h0Z"/>
  <path class="cls-1" d="M45,56.81c-9.91,5.61-18.89,12.42-27.01,20.39-2.2,2.16-1.04,6.33,1.63,7.47,9.85,4.21,19.68,8.48,29.56,12.61,5.67,2.37,10.23-6.05,4.51-8.53-9.96-4.32-19.97-8.55-29.96-12.81.54,2.49,1.09,4.98,1.63,7.47,7.37-7.22,15.6-13.33,24.59-18.33,5.44-3.02.44-11.33-4.96-8.28h0Z"/>
  <path class="cls-1" d="M49.24,94.86c-.16,15.82.81,31.5,2.92,47.18.66,4.88,6.43,6.01,9.09,1.99,8.4-12.71,18.67-23.69,30.53-33.23,4.78-3.85-.36-11.93-5.27-8.08-13.3,10.43-24.43,22.75-33.79,36.81,3.03.66,6.06,1.33,9.09,1.99-2.16-15.67-3.14-31.39-2.92-47.21.09-6.2-9.57-5.65-9.63.55h0Z"/>
  <path class="cls-1" d="M96.22,110.26c13.98-.76,27.95-1.53,41.92-2.33,4.54-.26,5.1-5.94,2.39-8.56-9.67-9.37-19.28-18.8-28.94-28.18-4.41-4.29-11.9,1.79-7.46,6.12,10.12,9.88,20.29,19.71,30.4,29.62.8-2.85,1.59-5.71,2.39-8.56-13.36.73-26.71,1.5-40.07,2.28-6.1.36-6.85,9.97-.64,9.63h0Z"/>
  <path class="cls-1" d="M85.95,44.64c10.94-4.27,22.01-8.12,33.28-11.46-1.94-1.67-3.88-3.34-5.81-5.01-2.41,14.24-5.43,28.33-8.78,42.37-1.42,5.95,7.56,9.31,9.08,3.26,3.73-14.89,6.75-29.92,9.33-45.05.51-2.97-3.01-5.85-5.81-5.01-11.67,3.47-23.18,7.37-34.51,11.81-5.77,2.26-2.58,11.36,3.23,9.09h0Z"/>
</svg>