<?xml version="1.0" encoding="UTF-8"?>
<svg id="Layer_1" data-name="Layer 1" xmlns="http://www.w3.org/2000/svg" viewBox="0 0 213.33 187.89">
  <defs>
    <style>
      .cls-1 {
        fill: #ffe600;
        stroke-width: 0px;
      }
    </style>
  </defs>
  <path class="cls-1" d="M199.19,9.61c-7.73,9.35-15.53,18.64-23.16,28.07-8.12,10.03-15.49,20.54-20.74,32.45-7.02,15.93-6.75,31.91-.78,47.98,6.23,16.76,15.8,31.63,26.56,45.77,6.11,8.02,12.49,15.85,18.57,24.01-4.76-3.81-9.53-7.61-14.28-11.44-13.79-11.11-27.75-21.94-43.57-30.18-22.61-11.77-44.67-10.83-66.69,1.56-14.67,8.26-27.91,18.47-40.97,28.96-3.68,2.95-7.35,5.91-11.57,8.42,2.26-2.71,4.49-5.43,6.77-8.12,10.33-12.22,20.44-24.57,29.11-38.1,15.12-23.6,15.5-47.45,2.76-72.05-7.59-14.66-17.14-27.98-27.23-40.96-4.6-5.92-9.25-11.82-13.63-17.97,6.41,5.43,12.77,10.93,19.25,16.28,13.18,10.89,26.82,21.06,42.57,28.1,20.41,9.12,40.23,7.58,59.85-2.48,13.84-7.1,26.33-16.15,38.4-25.84,5.78-4.64,11.42-9.45,17.14-14.17.38-.31.85-.51,1.27-.75.12.15.24.3.36.45Z"/>
</svg>